<?xml version="1.0" standalone="no"?>
<!DOCTYPE svg PUBLIC "-//W3C//DTD SVG 1.1//EN" "http://www.w3.org/Graphics/SVG/1.1/DTD/svg11.dtd" >
<svg xmlns="http://www.w3.org/2000/svg">
<metadata>Generated by IcoMoon</metadata>
<defs>
<font id="ProdPad-Icons" horiz-adv-x="1024">
<font-face units-per-em="1024" ascent="960" descent="-64" />
<missing-glyph horiz-adv-x="1024" />
<glyph unicode="&#x20;" horiz-adv-x="512" d="" />
<glyph unicode="&#xe900;" glyph-name="add-user" d="M981.333 170.667c0-106.063-85.937-192-192-192s-192 85.937-192 192c0 106.036 85.952 192 192 192s192-85.964 192-192zM1024 170.667c0 129.599-105.053 234.667-234.667 234.667s-234.667-105.068-234.667-234.667c0-129.627 105.039-234.667 234.667-234.667s234.667 105.039 234.667 234.667zM768 277.333v-213.333c0-11.782 9.551-21.333 21.333-21.333s21.333 9.551 21.333 21.333v213.333c0 11.782-9.551 21.333-21.333 21.333s-21.333-9.551-21.333-21.333zM896 192h-213.333c-11.782 0-21.333-9.551-21.333-21.333s9.551-21.333 21.333-21.333h213.333c11.782 0 21.333 9.551 21.333 21.333s-9.551 21.333-21.333 21.333zM511.991 523.785c8.456 5.604 17.86 13.736 27.093 24.877 20.726 25.010 33.893 58.304 36.45 100.367 32.028 20.627 33.863 88.72 5.507 114.788 0.474 1.197 0.892 2.26 1.28 3.253 1.76 4.506 3.291 8.585 4.761 12.738 11.826 33.413 16.776 63.744 11.511 94.021-0.528 3.035-1.161 6.040-1.902 9.015-23.943 96.43-260.66 102.452-311.227 18.064-25.743 1.469-45.384-6.906-57.035-25.16-10.665-16.71-12.559-38.269-8.886-64.525 1.551-11.087 4.039-22.524 7.44-35.276 0.68-2.551 2.309-8.349 3.892-13.852-29.717-24.583-28.3-92.797 4.249-113.221 2.581-41.989 15.74-75.232 36.441-100.211 9.233-11.141 18.636-19.273 27.093-24.877v-79.278c-12.613-4.61-26.224-9.361-41.74-14.603-10.165-3.435-69.448-23-85.728-28.592-93.096-31.974-136.318-55.248-148.785-92.922-6.355-19.186-11.209-43.458-14.868-71.819-3.067-23.772-5.133-49.115-6.395-74.44-0.757-15.188-1.079-27.041-1.149-33.921-0.121-11.867 9.465-21.551 21.332-21.551h448v42.667h-426.054c0.135 3.319 0.296 6.89 0.485 10.683 1.21 24.292 3.189 48.566 6.097 71.102 3.341 25.89 7.703 47.707 13.057 63.87 6.204 18.749 44.211 39.214 122.14 65.979 15.982 5.489 75.126 25.009 85.527 28.523 21.769 7.356 39.959 13.795 56.989 20.262 8.283 3.146 13.759 11.083 13.759 19.944v106.667c0 8.634-5.205 16.417-13.184 19.716-5.002 2.068-14.155 8.271-23.723 19.817-16.817 20.293-27.093 48.995-27.093 88.467 0 11.782-9.551 21.333-21.333 21.333 0.227 0-3.723 7.566-3.723 21.333s3.95 21.333 3.723 21.333c11.782 0 21.333 9.551 21.333 21.333 0 4.589-0.819 8.014-3.443 17.204-2.65 9.123-4.185 14.473-5.672 20.049-2.991 11.217-5.133 21.060-6.41 30.192-2.392 17.098-1.297 29.559 2.596 35.659 3.437 5.386 11.44 7.729 30.051 3.982 11.183-2.252 22.159 4.693 24.913 15.763 14.855 59.702 221.105 59.702 235.927 0.010 0.495-1.989 0.918-3.994 1.271-6.028 3.768-21.672-0.096-45.347-9.697-72.476 1.391 3.929-13.536-33.881-13.536-41.283 0-11.782 9.551-21.333 21.333-21.333-0.47 0 3.691-8.269 3.691-22.869s-4.161-22.869-3.691-22.869c-11.782 0-21.333-9.551-21.333-21.333 0-39.473-10.275-68.174-27.093-88.467-9.569-11.546-18.721-17.749-23.723-19.817-7.98-3.298-13.184-11.081-13.184-19.716v-106.667c0-8.886 5.508-16.841 13.825-19.968 30.235-11.369 52.429-18.953 106.025-36.681l13.399 40.508c-44.504 14.72-67.046 22.344-90.582 30.972v79.265z" />
<glyph unicode="&#xe901;" glyph-name="arrow-left" d="M109.868 498.286c-17.673 0-32-14.327-32-32s14.327-32 32-32h849.778c17.673 0 32 14.327 32 32s-14.327 32-32 32h-849.778zM536.438 788.376c14.030 10.747 16.692 30.832 5.945 44.863s-30.832 16.692-44.863 5.945l-482.944-369.917 482.944-369.917c14.030-10.747 34.116-8.085 44.863 5.945s8.085 34.116-5.945 44.863l-416.612 319.109 416.612 319.109z" />
<glyph unicode="&#xe902;" glyph-name="arrow-right" d="M914.132 498.286c17.673 0 32-14.327 32-32s-14.327-32-32-32h-849.778c-17.673 0-32 14.327-32 32s14.327 32 32 32h849.778zM487.562 788.376c-14.030 10.747-16.692 30.832-5.945 44.863s30.832 16.692 44.863 5.945l482.944-369.917-482.944-369.917c-14.030-10.747-34.116-8.085-44.863 5.945s-8.085 34.116 5.945 44.863l416.612 319.109-416.612 319.109z" />
<glyph unicode="&#xe903;" glyph-name="calendar" d="M981.333-21.333h-938.667v853.333h149.333c11.782 0 21.333 9.551 21.333 21.333s-9.551 21.333-21.333 21.333h-170.667c-11.782 0-21.333-9.551-21.333-21.333v-896c0-11.782 9.551-21.333 21.333-21.333h981.333c11.782 0 21.333 9.551 21.333 21.333v896c0 11.782-9.551 21.333-21.333 21.333h-170.667c-11.782 0-21.333-9.551-21.333-21.333s9.551-21.333 21.333-21.333h149.333v-853.333zM213.333 789.333v128h85.333v-128h-85.333zM320 746.667c11.782 0 21.333 9.551 21.333 21.333v170.667c0 11.782-9.551 21.333-21.333 21.333h-128c-11.782 0-21.333-9.551-21.333-21.333v-170.667c0-11.782 9.551-21.333 21.333-21.333h128zM725.333 789.333v128h85.333v-128h-85.333zM832 746.667c11.782 0 21.333 9.551 21.333 21.333v170.667c0 11.782-9.551 21.333-21.333 21.333h-128c-11.782 0-21.333-9.551-21.333-21.333v-170.667c0-11.782 9.551-21.333 21.333-21.333h128zM320 832h384c11.782 0 21.333 9.551 21.333 21.333s-9.551 21.333-21.333 21.333h-384c-11.782 0-21.333-9.551-21.333-21.333s9.551-21.333 21.333-21.333zM21.333 618.667h981.333c11.782 0 21.333 9.551 21.333 21.333s-9.551 21.333-21.333 21.333h-981.333c-11.782 0-21.333-9.551-21.333-21.333s9.551-21.333 21.333-21.333zM256 554.667v-512c0-11.782 9.551-21.333 21.333-21.333s21.333 9.551 21.333 21.333v512c0 11.782-9.551 21.333-21.333 21.333s-21.333-9.551-21.333-21.333zM469.333 554.667v-512c0-11.782 9.551-21.333 21.333-21.333s21.333 9.551 21.333 21.333v512c0 11.782-9.551 21.333-21.333 21.333s-21.333-9.551-21.333-21.333zM682.667 554.667v-512c0-11.782 9.551-21.333 21.333-21.333s21.333 9.551 21.333 21.333v512c0 11.782-9.551 21.333-21.333 21.333s-21.333-9.551-21.333-21.333zM106.667 448h810.667c11.782 0 21.333 9.551 21.333 21.333s-9.551 21.333-21.333 21.333h-810.667c-11.782 0-21.333-9.551-21.333-21.333s9.551-21.333 21.333-21.333zM106.667 277.333h810.667c11.782 0 21.333 9.551 21.333 21.333s-9.551 21.333-21.333 21.333h-810.667c-11.782 0-21.333-9.551-21.333-21.333s9.551-21.333 21.333-21.333zM106.667 106.667h810.667c11.782 0 21.333 9.551 21.333 21.333s-9.551 21.333-21.333 21.333h-810.667c-11.782 0-21.333-9.551-21.333-21.333s9.551-21.333 21.333-21.333z" />
<glyph unicode="&#xe904;" glyph-name="camera" d="M645.831 431.167c0-73.851-59.982-133.803-133.803-133.803-73.942 0-133.86 59.902-133.86 133.803 0 73.913 59.931 133.86 133.86 133.86 73.807 0 133.803-59.995 133.803-133.86zM688.498 431.167c0 97.428-79.098 176.526-176.469 176.526-97.495 0-176.526-79.051-176.526-176.526 0-97.467 79.023-176.469 176.526-176.469 97.38 0 176.469 79.049 176.469 176.469zM729.225 666.641h181.020c33.072 0 64-35.194 64-72.533v-387.868c0-35.151-28.849-64-64-64h-796.444c-35.186 0-64 28.827-64 64v387.868c0 37.363 30.893 72.533 64 72.533h180.964c11.782 0 21.333 9.551 21.333 21.333s-9.551 21.333-21.333 21.333h-180.964c-57.991 0-106.667-55.415-106.667-115.2v-387.868c0-58.733 47.912-106.667 106.667-106.667h796.444c58.715 0 106.667 47.951 106.667 106.667v387.868c0 59.764-48.716 115.2-106.667 115.2h-181.020c-11.782 0-21.333-9.551-21.333-21.333s9.551-21.333 21.333-21.333zM596.655 782.239l118.046-109.88c8.624-8.028 22.123-7.544 30.151 1.080s7.544 22.123-1.080 30.151l-124.188 115.598c-3.948 3.675-9.142 5.718-14.535 5.718h-186.084c-5.394 0-10.587-2.043-14.535-5.718l-124.188-115.598c-8.624-8.028-9.108-21.526-1.080-30.151s21.526-9.108 30.151-1.080l118.046 109.88h169.299zM853.333 555.253c-17.18 0-31.061-13.824-31.061-30.948 0-17.237 13.881-31.061 31.061-31.061s31.061 13.824 31.061 31.061c0 17.124-13.881 30.948-31.061 30.948z" />
<glyph unicode="&#xe905;" glyph-name="check" d="M47.43 380.519c-8.52 8.52-22.335 8.52-30.856 0s-8.52-22.335 0-30.856l239.999-239.999c8.314-8.314 21.72-8.545 30.315-0.523l719.997 671.997c8.809 8.222 9.285 22.028 1.064 30.837s-22.028 9.285-30.837 1.064l-704.587-657.615-225.094 225.094z" />
<glyph unicode="&#xe906;" glyph-name="close" d="M987.582 952.583l-981.333-981.333c-8.331-8.331-8.331-21.839 0-30.17s21.839-8.331 30.17 0l981.333 981.333c8.331 8.331 8.331 21.839 0 30.17s-21.839 8.331-30.17 0zM1017.752-28.751l-981.333 981.333c-8.331 8.331-21.839 8.331-30.17 0s-8.331-21.839 0-30.17l981.333-981.333c8.331-8.331 21.839-8.331 30.17 0s8.331 21.839 0 30.17z" />
<glyph unicode="&#xe907;" glyph-name="company-settings" d="M981.333 576c0 46.352-40.667 85.333-90.899 85.333h-756.87c-50.259 0-90.899-38.965-90.899-85.333v-426.667c0-46.42 40.605-85.333 90.899-85.333h756.87c50.266 0 90.899 38.93 90.899 85.333v426.667zM1024 576v-426.667c0-70.4-60.149-128-133.565-128h-756.87c-73.461 0-133.565 57.6-133.565 128v426.667c0 70.315 60.104 128 133.565 128h756.87c73.416 0 133.565-57.685 133.565-128zM362.667 704h-42.667v85.333c0 58.728 47.922 106.667 106.667 106.667h128c58.715 0 106.667-47.951 106.667-106.667v-85.333h-42.667v85.333c0 35.151-28.849 64-64 64h-128c-35.178 0-64-28.832-64-64v-85.333zM537.707 365.709c0-23.572-19.104-42.667-42.667-42.667-23.589 0-42.667 19.078-42.667 42.667 0 23.563 19.095 42.667 42.667 42.667 23.546 0 42.667-19.121 42.667-42.667zM580.373 365.709c0 47.11-38.223 85.333-85.333 85.333-47.14 0-85.333-38.211-85.333-85.333 0-47.153 38.181-85.333 85.333-85.333 47.123 0 85.333 38.193 85.333 85.333zM693.306 406.281c10.208 5.889 13.708 18.94 7.815 29.146l-42.667 73.899c-5.804 10.052-18.58 13.62-28.752 8.028l-31.861-17.515c-12.643 9.476-27.548 17.627-43.195 23.936v30.905c0 11.782-9.551 21.333-21.333 21.333h-85.333c-11.782 0-21.333-9.551-21.333-21.333v-31.139c-13.65-5.889-26.597-13.699-38.602-23.224l-28.122 16.688c-10.256 6.086-23.508 2.582-29.417-7.776l-42.155-73.899c-5.83-10.221-2.284-23.233 7.926-29.082l29.585-16.948c-1.076-7.736-1.616-15.611-1.616-23.592 0-7.887 0.596-15.765 1.756-23.677l-29.243-16.904c-10.194-5.892-13.686-18.929-7.803-29.129l42.624-73.899c5.987-10.379 19.344-13.794 29.577-7.561l26.993 16.442c11.982-9.487 24.898-17.269 38.496-23.124v-37.179c0-11.782 9.551-21.333 21.333-21.333h85.333c11.782 0 21.333 9.551 21.333 21.333v36.969c15.554 6.247 30.428 14.375 43.065 23.831l30.733-17.308c10.148-5.715 23.004-2.235 28.883 7.818l43.221 73.899c5.964 10.198 2.506 23.3-7.714 29.226l-29.050 16.843c1.265 8.079 1.923 15.925 1.923 23.752 0 7.862-0.592 15.737-1.74 23.647l29.339 16.925zM631.093 261.647l-25.275 14.234c-8.15 4.59-18.34 3.335-25.134-3.095-13.023-12.327-33.223-23.294-53.8-29.797-8.873-2.804-14.905-11.036-14.905-20.342v-30.635h-42.667v30.635c0 9.306-6.032 17.538-14.905 20.342-17.798 5.624-34.608 15.79-49.405 29.797-6.99 6.616-17.544 7.733-25.763 2.726l-21.617-13.167-21.058 36.509 23.916 13.824c8.16 4.717 12.258 14.23 10.079 23.4-2.411 10.149-3.646 19.96-3.646 29.63 0 10.196 1.161 20.074 3.453 29.536 2.235 9.225-1.893 18.817-10.129 23.535l-24.275 13.906 20.85 36.551 22.68-13.458c8.198-4.865 18.629-3.7 25.552 2.853 14.775 13.986 31.55 24.132 49.4 29.808 8.855 2.816 14.868 11.039 14.868 20.33v24.576h42.667v-24.533c0-9.277 5.996-17.491 14.831-20.318 20.746-6.639 40.897-17.579 53.874-29.863 6.735-6.375 16.816-7.669 24.942-3.202l26.323 14.47 21.551-37.326-23.968-13.827c-8.151-4.702-12.259-14.19-10.109-23.352 2.385-10.167 3.617-20.032 3.617-29.687 0-9.163-1.318-18.794-3.898-29.612-2.185-9.165 1.9-18.678 10.051-23.404l23.714-13.75-21.814-37.297z" />
<glyph unicode="&#xe908;" glyph-name="delete" d="M818.959-42.667l0.558 890.435h-669.679l-0.492-890.435h669.614zM192.036 0l0.445 805.101h584.343l-0.504-805.101h-584.283zM668.288 847.906l-0.462 69.427h-356.174l0.462-69.427h356.174zM668.288 805.24h-356.174c-23.453 0-42.51 18.93-42.666 42.382l-0.462 69.427c-0.158 23.675 18.991 42.951 42.666 42.951h356.174c23.453 0 42.51-18.93 42.666-42.382l0.462-69.427c0.158-23.675-18.991-42.951-42.666-42.951zM42.667 805.101h894.145c11.782 0 21.333 9.551 21.333 21.333s-9.551 21.333-21.333 21.333h-894.145c-11.782 0-21.333-9.551-21.333-21.333s9.551-21.333 21.333-21.333zM290.319 692.87v-534.261c0-11.782 9.551-21.333 21.333-21.333s21.333 9.551 21.333 21.333v534.261c0 11.782-9.551 21.333-21.333 21.333s-21.333-9.551-21.333-21.333zM468.406 692.87v-534.261c0-11.782 9.551-21.333 21.333-21.333s21.333 9.551 21.333 21.333v534.261c0 11.782-9.551 21.333-21.333 21.333s-21.333-9.551-21.333-21.333zM646.493 692.87v-534.261c0-11.782 9.551-21.333 21.333-21.333s21.333 9.551 21.333 21.333v534.261c0 11.782-9.551 21.333-21.333 21.333s-21.333-9.551-21.333-21.333z" />
<glyph unicode="&#xe909;" glyph-name="description" d="M170.667-21.333v938.667h439.163l243.503-243.503v-695.163h-682.667zM874.667-64c11.782 0 21.333 9.551 21.333 21.333v725.333c0 5.658-2.248 11.084-6.248 15.085l-256 256c-4.001 4.001-9.427 6.248-15.085 6.248h-469.333c-11.782 0-21.333-9.551-21.333-21.333v-981.333c0-11.782 9.551-21.333 21.333-21.333h725.333zM640 938.667c0 11.782-9.551 21.333-21.333 21.333s-21.333-9.551-21.333-21.333v-256c0-11.782 9.551-21.333 21.333-21.333h256c11.782 0 21.333 9.551 21.333 21.333s-9.551 21.333-21.333 21.333h-234.667v234.667zM320 618.667h192c11.782 0 21.333 9.551 21.333 21.333s-9.551 21.333-21.333 21.333h-192c-11.782 0-21.333-9.551-21.333-21.333s9.551-21.333 21.333-21.333zM320 490.667h384c11.782 0 21.333 9.551 21.333 21.333s-9.551 21.333-21.333 21.333h-384c-11.782 0-21.333-9.551-21.333-21.333s9.551-21.333 21.333-21.333zM320 362.667h384c11.782 0 21.333 9.551 21.333 21.333s-9.551 21.333-21.333 21.333h-384c-11.782 0-21.333-9.551-21.333-21.333s9.551-21.333 21.333-21.333zM320 234.667h384c11.782 0 21.333 9.551 21.333 21.333s-9.551 21.333-21.333 21.333h-384c-11.782 0-21.333-9.551-21.333-21.333s9.551-21.333 21.333-21.333zM320 106.667h384c11.782 0 21.333 9.551 21.333 21.333s-9.551 21.333-21.333 21.333h-384c-11.782 0-21.333-9.551-21.333-21.333s9.551-21.333 21.333-21.333z" />
<glyph unicode="&#xe90a;" glyph-name="drag" d="M170.667 876.34c0-46.204-38.205-83.66-85.333-83.66s-85.333 37.456-85.333 83.66c0 46.204 38.205 83.66 85.333 83.66s85.333-37.456 85.333-83.66zM455.111 876.34c0-46.204-38.205-83.66-85.333-83.66s-85.333 37.456-85.333 83.66c0 46.204 38.205 83.66 85.333 83.66s85.333-37.456 85.333-83.66zM739.556 876.34c0-46.204-38.205-83.66-85.333-83.66s-85.333 37.456-85.333 83.66c0 46.204 38.205 83.66 85.333 83.66s85.333-37.456 85.333-83.66zM1024 876.34c0-46.204-38.205-83.66-85.333-83.66s-85.333 37.456-85.333 83.66c0 46.204 38.205 83.66 85.333 83.66s85.333-37.456 85.333-83.66zM170.667 597.473c0-46.204-38.205-83.66-85.333-83.66s-85.333 37.456-85.333 83.66c0 46.204 38.205 83.66 85.333 83.66s85.333-37.456 85.333-83.66zM455.111 597.473c0-46.204-38.205-83.66-85.333-83.66s-85.333 37.456-85.333 83.66c0 46.204 38.205 83.66 85.333 83.66s85.333-37.456 85.333-83.66zM739.556 597.473c0-46.204-38.205-83.66-85.333-83.66s-85.333 37.456-85.333 83.66c0 46.204 38.205 83.66 85.333 83.66s85.333-37.456 85.333-83.66zM1024 597.473c0-46.204-38.205-83.66-85.333-83.66s-85.333 37.456-85.333 83.66c0 46.204 38.205 83.66 85.333 83.66s85.333-37.456 85.333-83.66zM170.667 318.606c0-46.204-38.205-83.66-85.333-83.66s-85.333 37.456-85.333 83.66c0 46.204 38.205 83.66 85.333 83.66s85.333-37.456 85.333-83.66zM455.111 318.606c0-46.204-38.205-83.66-85.333-83.66s-85.333 37.456-85.333 83.66c0 46.204 38.205 83.66 85.333 83.66s85.333-37.456 85.333-83.66zM739.556 318.606c0-46.204-38.205-83.66-85.333-83.66s-85.333 37.456-85.333 83.66c0 46.204 38.205 83.66 85.333 83.66s85.333-37.456 85.333-83.66zM1024 318.606c0-46.204-38.205-83.66-85.333-83.66s-85.333 37.456-85.333 83.66c0 46.204 38.205 83.66 85.333 83.66s85.333-37.456 85.333-83.66zM170.667 39.739c0-46.204-38.205-83.66-85.333-83.66s-85.333 37.456-85.333 83.66c0 46.204 38.205 83.66 85.333 83.66s85.333-37.456 85.333-83.66zM455.111 39.739c0-46.204-38.205-83.66-85.333-83.66s-85.333 37.456-85.333 83.66c0 46.204 38.205 83.66 85.333 83.66s85.333-37.456 85.333-83.66zM739.556 39.739c0-46.204-38.205-83.66-85.333-83.66s-85.333 37.456-85.333 83.66c0 46.204 38.205 83.66 85.333 83.66s85.333-37.456 85.333-83.66zM1024 39.739c0-46.204-38.205-83.66-85.333-83.66s-85.333 37.456-85.333 83.66c0 46.204 38.205 83.66 85.333 83.66s85.333-37.456 85.333-83.66z" />
<glyph unicode="&#xe90b;" glyph-name="dropdown-arrow" d="M48.929 743.244c-8.022 9.069-21.877 9.917-30.946 1.895s-9.917-21.877-1.895-30.946l483.214-546.243c8.725-9.863 24.115-9.863 32.84 0l483.214 546.243c8.022 9.069 7.174 22.923-1.895 30.946s-22.923 7.174-30.946-1.895l-466.795-527.681-466.795 527.681z" />
<glyph unicode="&#xe90c;" glyph-name="envelope" d="M979.394 184.242c0-26.758-21.727-48.485-48.485-48.485h-837.818c-26.758 0-48.485 21.727-48.485 48.485v512c0 26.786 21.709 48.485 48.485 48.485h837.818c26.776 0 48.485-21.699 48.485-48.485v-512zM1022.061 184.242v512c0 50.354-40.816 91.152-91.152 91.152h-837.818c-50.336 0-91.152-40.797-91.152-91.152v-512c0-50.322 40.83-91.152 91.152-91.152h837.818c50.322 0 91.152 40.83 91.152 91.152zM59.872 759.446c-9.2 7.36-22.625 5.869-29.985-3.332s-5.869-22.625 3.332-29.985l465.455-372.364c7.791-6.233 18.862-6.233 26.654 0l465.455 372.364c9.2 7.36 10.692 20.785 3.332 29.985s-20.785 10.692-29.985 3.332l-452.128-361.702-452.128 361.702z" />
<glyph unicode="&#xe90d;" glyph-name="help" d="M980.406 448c0-258.687-209.718-468.406-468.406-468.406s-468.406 209.718-468.406 468.406c0 258.687 209.718 468.406 468.406 468.406s468.406-209.718 468.406-468.406zM1023.072 448c0 282.252-228.821 511.072-511.072 511.072s-511.072-228.821-511.072-511.072c0-282.252 228.821-511.072 511.072-511.072s511.072 228.821 511.072 511.072zM666.899 559.304c0 85.51-69.388 154.899-154.899 154.899-85.54 0-154.899-69.374-154.899-154.899 0-11.782 9.551-21.333 21.333-21.333s21.333 9.551 21.333 21.333c0 61.962 50.258 112.232 112.232 112.232 61.946 0 112.232-50.286 112.232-112.232 0-62.002-50.253-112.232-112.232-112.232-11.782 0-21.333-9.551-21.333-21.333v-133.565c0-11.782 9.551-21.333 21.333-21.333s21.333 9.551 21.333 21.333v113.689c75.446 10.392 133.565 75.111 133.565 153.442zM512.928 180.87c0-0.506-0.422-0.928-0.928-0.928s-0.928 0.422-0.928 0.928c0 0.506 0.422 0.928 0.928 0.928s0.928-0.422 0.928-0.928zM555.594 180.87c0 24.070-19.524 43.594-43.594 43.594s-43.594-19.524-43.594-43.594c0-24.070 19.524-43.594 43.594-43.594s43.594 19.524 43.594 43.594z" />
<glyph unicode="&#xe90e;" glyph-name="ideas" d="M415.238 148.406c0-11.782 9.551-21.333 21.333-21.333h140.19c11.782 0 21.333 9.551 21.333 21.333v39.426c123.718 39.018 210.286 153.491 210.286 285.212 0 165.48-135.167 299.594-301.714 299.594-166.61 0-301.714-134.083-301.714-299.594 0-131.76 86.521-246.211 210.286-285.215v-39.422zM457.905 169.739v34.18c0 9.745-6.604 18.252-16.045 20.667-113.561 29.058-194.241 130.752-194.241 248.457 0 141.874 115.93 256.928 259.048 256.928 143.058 0 259.048-115.086 259.048-256.928 0-117.663-80.73-219.39-194.245-248.458-9.439-2.417-16.041-10.923-16.041-20.666v-34.18h-97.524zM530.032-15.768h-46.73c-11.782 0-21.333-9.551-21.333-21.333s9.551-21.333 21.333-21.333h46.73c11.782 0 21.333 9.551 21.333 21.333s-9.551 21.333-21.333 21.333zM576.762 76.986h-140.19c-11.782 0-21.333-9.551-21.333-21.333s9.551-21.333 21.333-21.333h140.19c11.782 0 21.333 9.551 21.333 21.333s-9.551 21.333-21.333 21.333zM485.333 936.812v-92.754c0-11.782 9.551-21.333 21.333-21.333s21.333 9.551 21.333 21.333v92.754c0 11.782-9.551 21.333-21.333 21.333s-21.333-9.551-21.333-21.333zM973.968 494.377h-93.46c-11.782 0-21.333-9.551-21.333-21.333s9.551-21.333 21.333-21.333h93.46c11.782 0 21.333 9.551 21.333 21.333s-9.551 21.333-21.333 21.333zM39.365 451.71h93.46c11.782 0 21.333 9.551 21.333 21.333s-9.551 21.333-21.333 21.333h-93.46c-11.782 0-21.333-9.551-21.333-21.333s9.551-21.333 21.333-21.333zM128.111 818.634l99.161-98.412c8.363-8.3 21.87-8.248 30.17 0.114s8.248 21.87-0.114 30.17l-99.161 98.412c-8.363 8.3-21.87 8.248-30.17-0.114s-8.248-21.87 0.114-30.17zM855.074 848.918l-99.161-98.412c-8.363-8.3-8.414-21.807-0.114-30.17s21.807-8.414 30.17-0.114l99.161 98.412c8.363 8.3 8.414 21.807 0.114 30.17s-21.807 8.414-30.17 0.114z" />
<glyph unicode="&#xe90f;" glyph-name="integrations" d="M903.789 560.374l-165.973-165.973c-82.588-82.588-225.269-76.38-316.753 15.104-91.533 91.533-97.727 234.211-15.065 316.835 39.929 39.91 79.598 79.567 117.192 117.154 39.409 39.403 39.409 39.403 48.743 48.737 8.331 8.331 8.331 21.839 0 30.17s-21.839 8.331-30.17 0c-9.333-9.333-9.333-9.333-48.74-48.735-37.593-37.586-77.26-77.241-117.187-117.15-99.947-99.9-92.582-269.542 15.058-377.181 107.588-107.588 277.228-114.969 377.093-15.104l165.973 165.973c8.331 8.331 8.331 21.839 0 30.17s-21.839 8.331-30.17 0zM541.749 892.247l362.027-362.027c8.331-8.331 21.839-8.331 30.17 0s8.331 21.839 0 30.17l-362.027 362.027c-8.331 8.331-21.839 8.331-30.17 0s-8.331-21.839 0-30.17zM662.419 801.747l120.661 120.661c8.331 8.331 8.331 21.839 0 30.17s-21.839 8.331-30.17 0l-120.661-120.661c-8.331-8.331-8.331-21.839 0-30.17s21.839-8.331 30.17 0zM843.458 620.747l120.661 120.661c8.331 8.331 8.331 21.839 0 30.17s-21.839 8.331-30.17 0l-120.661-120.661c-8.331-8.331-8.331-21.839 0-30.17s21.839-8.331 30.17 0zM541.748 771.579l241.323-241.365c8.33-8.332 21.838-8.333 30.17-0.003s8.333 21.838 0.003 30.17l-241.323 241.365c-8.33 8.332-21.838 8.333-30.17 0.003s-8.333-21.838-0.003-30.17zM511.588 500.043c-16.671 16.7-16.671 43.683-0.013 60.313 16.684 16.684 43.668 16.684 60.339 0.013 16.671-16.643 16.671-43.626-0.013-60.339-16.659-16.659-43.642-16.659-60.313 0.013zM602.072 590.552c-33.321 33.321-87.319 33.321-120.653-0.013-33.334-33.277-33.334-87.275-0.013-120.653 33.347-33.347 87.345-33.347 120.679-0.013 33.334 33.391 33.334 87.389-0.013 120.679zM300.383 349.17l80.623 80.659c8.329 8.333 8.326 21.841-0.007 30.17s-21.841 8.326-30.17-0.007l-95.701-95.744c-8.328-8.332-8.327-21.837 0.003-30.167l90.496-90.496c8.33-8.33 21.835-8.331 30.167-0.003l95.744 95.701c8.333 8.329 8.336 21.837 0.007 30.17s-21.837 8.336-30.17 0.007l-80.659-80.623-60.333 60.333zM300.375 319l-196.096-196.096c-41.654-41.654-41.654-109.177 0-150.831 41.602-41.655 109.176-41.655 150.831 0l135.765 135.765c16.671 16.671 43.697 16.671 60.369 0 16.633-16.662 16.633-43.665-0.013-60.339l-71.752-71.752c-8.331-8.331-8.331-21.839 0-30.17s21.839-8.331 30.17 0l71.765 71.765c33.287 33.344 33.287 87.322 0.013 120.653-33.347 33.347-87.388 33.347-120.721 0.013l-135.765-135.765c-24.99-24.99-65.534-24.99-90.482-0.010-25.001 25.001-25.001 65.51-0.010 90.501l196.096 196.096c8.331 8.331 8.331 21.839 0 30.17s-21.839 8.331-30.17 0z" />
<glyph unicode="&#xe910;" glyph-name="invite" d="M981.333 21.333c0-23.546-19.121-42.667-42.667-42.667h-853.333c-23.546 0-42.667 19.121-42.667 42.667v436.778l161.419 110.976c9.709 6.675 12.168 19.957 5.494 29.666s-19.957 12.168-29.666 5.494l-170.667-117.333c-5.789-3.98-9.247-10.555-9.247-17.58v-448c0-47.11 38.223-85.333 85.333-85.333h853.333c47.11 0 85.333 38.223 85.333 85.333v448c0 7.025-3.458 13.6-9.247 17.58l-170.667 117.333c-9.709 6.675-22.991 4.215-29.666-5.494s-4.215-22.991 5.494-29.666l161.419-110.976v-436.778zM653.85 234.667l207.49-165.992c9.2-7.36 22.625-5.869 29.985 3.332s5.869 22.625-3.332 29.985l-213.333 170.667c-3.783 3.026-8.483 4.675-13.327 4.675h-298.667c-4.844 0-9.544-1.649-13.327-4.675l-213.333-170.667c-9.2-7.36-10.692-20.785-3.332-29.985s20.785-10.692 29.985-3.332l207.49 165.992h283.7zM990.833 487.084l-256-170.667c-9.803-6.536-12.452-19.781-5.917-29.584s19.781-12.452 29.584-5.917l256 170.667c9.803 6.536 12.452 19.781 5.917 29.584s-19.781 12.452-29.584 5.917zM9.5 451.583l256-170.667c9.803-6.536 23.048-3.886 29.584 5.917s3.886 23.048-5.917 29.584l-256 170.667c-9.803 6.536-23.048 3.886-29.584-5.917s-3.886-23.048 5.917-29.584zM810.667 917.333v-554.667c0-11.782 9.551-21.333 21.333-21.333s21.333 9.551 21.333 21.333v576c0 11.782-9.551 21.333-21.333 21.333h-640c-11.782 0-21.333-9.551-21.333-21.333v-576c0-11.782 9.551-21.333 21.333-21.333s21.333 9.551 21.333 21.333v554.667h597.333zM588.19 691.81c0 42.070-34.109 76.19-76.19 76.19s-76.19-34.121-76.19-76.19c0-42.070 34.109-76.19 76.19-76.19s76.19 34.121 76.19 76.19zM630.857 691.81c0-65.63-53.208-118.857-118.857-118.857s-118.857 53.227-118.857 118.857c0 65.63 53.208 118.857 118.857 118.857s118.857-53.227 118.857-118.857zM512 615.619c121.496 0 192-70.504 192-167.619 0-11.782-9.551-21.333-21.333-21.333h-341.333c-11.782 0-21.333 9.551-21.333 21.333 0 97.115 70.504 167.619 192 167.619zM512 572.952c-88.157 0-138.609-41.652-147.802-103.619h295.604c-9.193 61.967-59.645 103.619-147.802 103.619z" />
<glyph unicode="&#xe911;" glyph-name="kpi" d="M21.333-21.333h981.333c11.782 0 21.333 9.551 21.333 21.333s-9.551 21.333-21.333 21.333h-981.333c-11.782 0-21.333-9.551-21.333-21.333s9.551-21.333 21.333-21.333zM192 149.333h-128c-11.782 0-21.333-9.551-21.333-21.333v-128c0-11.782 9.551-21.333 21.333-21.333h128c11.782 0 21.333 9.551 21.333 21.333v128c0 11.782-9.551 21.333-21.333 21.333zM170.667 21.333h-85.333v85.333h85.333v-85.333zM448 294.966h-128c-11.782 0-21.333-9.551-21.333-21.333v-273.632c0-11.782 9.551-21.333 21.333-21.333h128c11.782 0 21.333 9.551 21.333 21.333v273.632c0 11.782-9.551 21.333-21.333 21.333zM426.667 21.333h-85.333v230.966h85.333v-230.966zM704 451.327h-128c-11.782 0-21.333-9.551-21.333-21.333v-429.993c0-11.782 9.551-21.333 21.333-21.333h128c11.782 0 21.333 9.551 21.333 21.333v429.993c0 11.782-9.551 21.333-21.333 21.333zM682.667 21.333h-85.333v387.327h85.333v-387.327zM960 608.833h-128c-11.782 0-21.333-9.551-21.333-21.333v-587.5c0-11.782 9.551-21.333 21.333-21.333h128c11.782 0 21.333 9.551 21.333 21.333v587.5c0 11.782-9.551 21.333-21.333 21.333zM938.667 21.333h-85.333v544.833h85.333v-544.833zM139.834 367.5l768 512c9.803 6.536 12.452 19.781 5.917 29.584s-19.781 12.452-29.584 5.917l-768-512c-9.803-6.536-12.452-19.781-5.917-29.584s19.781-12.452 29.584-5.917zM853.496 727.961c-1.451-11.692 6.851-22.347 18.544-23.798s22.347 6.851 23.798 18.544l21.333 171.904c1.457 11.744-6.923 22.43-18.676 23.814l-170.667 20.096c-11.701 1.378-22.304-6.991-23.682-18.692s6.991-22.304 18.692-23.682l149.347-17.586-18.69-150.6z" />
<glyph unicode="&#xe912;" glyph-name="loading-rotate" d="M962.769 524.379c7.107 10.632 21.483 13.489 32.115 6.382s13.489-21.483 6.382-32.115l-118.299-176.996c-8.6-12.867-27.155-13.837-37.052-1.937l-136.039 163.607c-8.177 9.831-6.832 24.43 3 32.607s24.43 6.832 32.607-3l116.218-139.769 101.068 151.221zM43.117 315.228c-7.105-10.633-21.481-13.492-32.114-6.391s-13.492 21.481-6.391 32.114l118.256 176.996c8.598 12.869 27.153 13.841 37.052 1.943l136.082-163.607c8.178-9.83 6.835-24.429-2.995-32.607s-24.429-6.835-32.607 2.995l-116.257 139.772-101.033-151.218zM166.453 499.193c-32.379-171.914 87.094-347.244 258.872-387.984 114.382-27.189 232.718 7.318 315.014 88.761 9.091 8.995 23.75 8.917 32.741-0.17s8.917-23.75-0.17-32.741c-93.535-92.562-228.177-131.826-358.282-100.898-195.406 46.338-330.726 244.927-293.681 441.606 2.365 12.566 14.471 20.833 27.037 18.468s20.833-14.471 18.468-27.037zM841.147 341.57c50.671 189.307-72.678 385.42-260.494 429.988-122.379 29.099-248.741-12.464-330.608-105.387-8.452-9.593-23.081-10.522-32.678-2.069s-10.522 23.081-2.069 32.678c93.063 105.637 236.849 152.928 376.051 119.831 212.732-50.479 352.072-272.020 294.525-487.012-3.307-12.353-15.999-19.686-28.352-16.38s-19.686 15.999-16.38 28.352z" />
<glyph unicode="&#xe913;" glyph-name="logout" d="M37.333 448h640c11.782 0 21.333 9.551 21.333 21.333s-9.551 21.333-21.333 21.333h-640c-11.782 0-21.333-9.551-21.333-21.333s9.551-21.333 21.333-21.333zM491.582 313.752c-8.331-8.331-8.331-21.839 0-30.17s21.839-8.331 30.17 0l170.667 170.667c8.331 8.331 8.331 21.839 0 30.17l-170.667 170.667c-8.331 8.331-21.839 8.331-30.17 0s-8.331-21.839 0-30.17l155.582-155.582-155.582-155.582zM98.669 654.607c72.147 158.681 230.607 262.739 408.014 262.739 247.418 0 448-200.582 448-448s-200.582-448-448-448c-178.252 0-337.327 105.016-408.993 264.815-4.821 10.75-17.445 15.557-28.195 10.736s-15.557-17.445-10.736-28.195c78.484-175.003 252.712-290.022 447.924-290.022 270.982 0 490.667 219.685 490.667 490.667s-219.685 490.667-490.667 490.667c-194.29 0-367.845-113.971-446.855-287.746-4.877-10.726-0.135-23.373 10.591-28.25s23.373-0.135 28.25 10.591z" />
<glyph unicode="&#xe914;" glyph-name="new-account" d="M320 576c-176.731 0-320-143.269-320-320 0-176.76 143.254-320 320-320 176.717 0 320 143.254 320 320 0 46.337-10.028 91.342-29.025 132.766l123.196 123.234h55.162c11.782 0 21.333 9.551 21.333 21.333v55.163l8.837 8.837h55.163c11.782 0 21.333 9.551 21.333 21.333v55.163l8.837 8.837h55.163c11.782 0 21.333 9.551 21.333 21.333v55.163l36.418 36.418c4.001 4.001 6.248 9.427 6.248 15.085v128c0 11.782-9.551 21.333-21.333 21.333h-128c-5.658 0-11.085-2.248-15.086-6.249l-406.771-406.813c-41.441 19.020-86.48 29.062-132.81 29.062zM981.333 917.333v-97.83l-36.418-36.418c-4.001-4.001-6.248-9.427-6.248-15.085v-42.667h-42.667c-5.658 0-11.084-2.248-15.085-6.248l-21.333-21.333c-4.001-4.001-6.248-9.427-6.248-15.085v-42.667h-42.667c-5.658 0-11.084-2.248-15.085-6.248l-21.333-21.333c-4.001-4.001-6.248-9.427-6.248-15.085v-42.667h-42.667c-5.659 0-11.086-2.249-15.087-6.251l-140.203-140.245c-6.574-6.576-8.131-16.652-3.85-24.906 20.35-39.231 31.14-82.513 31.14-127.265 0-153.18-124.178-277.333-277.333-277.333-153.182 0-277.333 124.139-277.333 277.333 0 153.167 124.166 277.333 277.333 277.333 44.74 0 88.060-10.805 127.3-31.179 8.256-4.287 18.338-2.729 24.916 3.849l411.287 411.33h97.829zM277.333 170.667c0-23.572-19.104-42.667-42.667-42.667s-42.667 19.095-42.667 42.667c0 23.546 19.121 42.667 42.667 42.667s42.667-19.121 42.667-42.667zM320 170.667c0 47.11-38.223 85.333-85.333 85.333s-85.333-38.223-85.333-85.333c0-47.14 38.211-85.333 85.333-85.333s85.333 38.193 85.333 85.333z" />
<glyph unicode="&#xe915;" glyph-name="personas" d="M286.851 388.838c12.612-109.921 135.216-207.041 224.332-207.041 11.782 0 21.333 9.551 21.333 21.333s-9.551 21.333-21.333 21.333c-72.114 0-182.725 91.091-182.725 182.725 0 11.782-9.551 21.333-21.333 21.333-35.393 0-54.036 70.23-30.455 82.020 7.227 3.614 11.793 11.001 11.793 19.081v40.812c0 11.782-9.551 21.333-21.333 21.333s-21.333-9.551-21.333-21.333v-29.584c-43.351-37.567-18.818-133.842 41.054-152.013zM778.203 540.839v29.596c0 11.782-9.551 21.333-21.333 21.333s-21.333-9.551-21.333-21.333v-40.812c0-8.080 4.565-15.467 11.793-19.081 23.292-11.646 3.587-82.020-32.087-82.020-11.782 0-21.333-9.551-21.333-21.333 0-91.633-110.611-182.725-182.725-182.725-11.782 0-21.333-9.551-21.333-21.333s9.551-21.333 21.333-21.333c89.115 0 211.717 97.117 224.332 207.036 60.044 18.155 85.923 114.398 42.687 152.005zM766.334 589.554c-11.654 5.769-33.654 13.958-65.94 21.989-52.939 13.169-116.038 21.037-189.21 21.037-73.184 0-135.994-7.871-188.443-21.049-32.016-8.044-53.746-16.255-65.228-22.054l19.235-38.085c1.857 0.938 6.221 2.864 13.1 5.463 11.898 4.496 26.326 9.033 43.291 13.295 49.070 12.329 108.389 19.763 178.046 19.763 69.669 0 129.311-7.437 178.91-19.775 17.16-4.269 31.796-8.814 43.902-13.32 7.012-2.61 11.484-4.549 13.409-5.502l18.93 38.238zM226.008 646.884l20.406-81.623c2.858-11.43 14.44-18.38 25.87-15.522s18.38 14.44 15.522 25.87l-20.406 81.623c-2.858 11.43-14.44 18.38-25.87 15.522s-18.38-14.44-15.522-25.87zM268.038 839.761l110.923-63.385c8.353-4.773 18.867-3.365 25.669 3.438l107.35 107.35 107.35-107.35c6.803-6.803 17.316-8.211 25.669-3.438l110.923 63.385v-185.076l-19.769-79.075c-2.858-11.43 4.092-23.013 15.522-25.87s23.013 4.092 25.87 15.522l20.406 81.623 0.637 5.174v224.464c0 16.38-17.696 26.649-31.918 18.523l-128.693-73.539-110.913 110.913c-8.331 8.331-21.839 8.331-30.17 0l-110.913-110.913-128.693 73.539c-14.222 8.127-31.918-2.142-31.918-18.523v-224.464c0-11.782 9.551-21.333 21.333-21.333s21.333 9.551 21.333 21.333v187.703zM64.003-0.008c0.389 66.342 42.413 144.108 92.104 162.751l242.022 71.299c11.301 3.332 17.761 15.194 14.429 26.496s-15.194 17.761-26.496 14.429l-243.482-71.788c-70.088-26.235-121.247-121.323-121.247-204.115v-20.406c0-11.782 9.551-21.333 21.333-21.333h938.667c11.782 0 21.333 9.551 21.333 21.333v20.406c0 82.792-51.159 177.88-119.787 203.626l-245.586 73.118c-11.293 3.36-23.171-3.071-26.531-14.364s3.071-23.171 14.364-26.531l244.176-72.645c48.288-18.171 90.305-95.935 90.694-162.277h-895.995zM424.852 508.319c2.677-0.021 2.677-0.021 5.524-0.029 2.847 0.007 2.847 0.007 5.524 0.029 7.058 0.056 11.351-0.033 13.985-0.272 0.608-11.238 9.912-20.163 21.302-20.163 11.782 0 21.333 9.551 21.333 21.333 0 18.112-8.269 31.748-23.654 37.878-9.006 3.588-15.577 4.030-33.307 3.889-2.614-0.021-2.614-0.021-5.184-0.027-2.57 0.007-2.57 0.007-5.184 0.027-17.73 0.142-24.301-0.3-33.307-3.889-15.385-6.13-23.654-19.766-23.654-37.878 0-11.782 9.551-21.333 21.333-21.333 11.389 0 20.694 8.925 21.302 20.163 2.635 0.238 6.927 0.328 13.985 0.272zM588.099 508.319c2.677-0.021 2.677-0.021 5.524-0.029 2.847 0.007 2.847 0.007 5.524 0.029 7.058 0.056 11.351-0.033 13.985-0.272 0.608-11.238 9.912-20.163 21.302-20.163 11.782 0 21.333 9.551 21.333 21.333 0 18.112-8.269 31.748-23.654 37.878-9.006 3.588-15.577 4.030-33.307 3.889-2.614-0.021-2.614-0.021-5.184-0.027-2.57 0.007-2.57 0.007-5.184 0.027-17.73 0.142-24.301-0.3-33.307-3.889-15.385-6.13-23.654-19.766-23.654-37.878 0-11.782 9.551-21.333 21.333-21.333 11.389 0 20.694 8.925 21.302 20.163 2.635 0.238 6.927 0.328 13.985 0.272zM551.884 80.696c0-22.010-17.874-39.884-39.884-39.884s-39.884 17.874-39.884 39.884c0 22.010 17.874 39.884 39.884 39.884s39.884-17.874 39.884-39.884zM594.551 80.696c0 45.574-36.977 82.551-82.551 82.551s-82.551-36.977-82.551-82.551c0-45.574 36.977-82.551 82.551-82.551s82.551 36.977 82.551 82.551zM466.808 112.221l-151.738 131.862c-8.893 7.728-22.368 6.784-30.096-2.109s-6.784-22.368 2.109-30.096l151.738-131.862c8.893-7.728 22.368-6.784 30.096 2.109s6.784 22.368-2.109 30.096zM583.276 84.669l153.248 126.883c9.075 7.514 10.341 20.962 2.827 30.037s-20.962 10.341-30.037 2.827l-153.248-126.883c-9.075-7.514-10.341-20.962-2.827-30.037s20.962-10.341 30.037-2.827z" />
<glyph unicode="&#xe916;" glyph-name="product" d="M541.538 531.692l-512 213.333c-14.052 5.855-29.538-4.469-29.538-19.692v-554.667c0-8.612 5.178-16.38 13.128-19.692l512-213.333c14.052-5.855 29.538 4.469 29.538 19.692v554.667c0 8.612-5.178 16.38-13.128 19.692zM512 497.778v-508.444l-469.333 195.556v508.444l469.333-195.556zM981.333 692.203v-507.799l-426.667-193.939v507.799l426.667 193.939zM524.506 531.421c-7.616-3.462-12.506-11.055-12.506-19.421v-554.667c0-15.515 16.036-25.842 30.161-19.421l469.333 213.333c7.616 3.462 12.506 11.055 12.506 19.421v554.667c0 15.515-16.036 25.842-30.161 19.421l-469.333-213.333zM994.161 705.769c10.805-4.698 23.373 0.253 28.070 11.058s-0.253 23.372-11.058 28.070l-490.667 213.333c-5.425 2.359-11.587 2.359-17.012 0l-490.667-213.333c-10.805-4.698-15.756-17.265-11.058-28.070s17.265-15.756 28.070-11.058l482.161 209.635 482.161-209.635zM297.506 830.026l473.643-225.195 18.321 38.533-473.643 225.195zM414.874 424.414l-256 128c-14.185 7.092-30.874-3.222-30.874-19.081v-213.333c0-8.080 4.565-15.467 11.793-19.081l256-128c14.185-7.092 30.874 3.222 30.874 19.081v213.333c0 8.080-4.565 15.467-11.793 19.081zM384 226.518l-213.333 106.667v165.631l213.333-106.667v-165.631z" />
<glyph unicode="&#xe917;" glyph-name="search" d="M704 576c0-176.719-143.281-320-320-320s-320 143.281-320 320c0 176.747 143.266 320 320 320s320-143.253 320-320zM746.667 576c0 200.312-162.369 362.667-362.667 362.667s-362.667-162.355-362.667-362.667c0-200.283 162.383-362.667 362.667-362.667s362.667 162.383 362.667 362.667zM624.915 304.915l356.011-356.011c8.331-8.331 21.839-8.331 30.17 0s8.331 21.839 0 30.17l-356.011 356.011c-8.331 8.331-21.839 8.331-30.17 0s-8.331-21.839 0-30.17z" />
<glyph unicode="&#xe918;" glyph-name="smartphone" d="M256.021 852.305c0 35.338 28.652 64 64 64h384c35.348 0 64-28.662 64-64v-810.667c0-35.365-28.635-64-64-64h-384c-35.365 0-64 28.635-64 64v810.667zM213.355 852.305v-810.667c0-58.929 47.738-106.667 106.667-106.667h384c58.929 0 106.667 47.738 106.667 106.667v810.667c0 58.899-47.751 106.667-106.667 106.667h-384c-58.916 0-106.667-47.768-106.667-106.667zM234.688 745.638h554.667c11.782 0 21.333 9.551 21.333 21.333s-9.551 21.333-21.333 21.333h-554.667c-11.782 0-21.333-9.551-21.333-21.333s9.551-21.333 21.333-21.333zM234.688 105.638h554.667c11.782 0 21.333 9.551 21.333 21.333s-9.551 21.333-21.333 21.333h-554.667c-11.782 0-21.333-9.551-21.333-21.333s9.551-21.333 21.333-21.333zM490.667 64h42.667c11.782 0 21.333-9.551 21.333-21.333s-9.551-21.333-21.333-21.333h-42.667c-11.782 0-21.333 9.551-21.333 21.333s9.551 21.333 21.333 21.333z" />
<glyph unicode="&#xe919;" glyph-name="user-settings" d="M836.373 152.375c0-23.572-19.104-42.667-42.667-42.667-23.589 0-42.667 19.078-42.667 42.667 0 23.563 19.095 42.667 42.667 42.667 23.546 0 42.667-19.121 42.667-42.667zM879.040 152.375c0 47.11-38.223 85.333-85.333 85.333-47.14 0-85.333-38.211-85.333-85.333 0-47.153 38.181-85.333 85.333-85.333 47.123 0 85.333 38.193 85.333 85.333zM991.972 192.947c10.208 5.889 13.708 18.94 7.815 29.146l-42.667 73.899c-5.804 10.052-18.58 13.62-28.752 8.028l-31.861-17.515c-12.643 9.476-27.548 17.627-43.195 23.936v30.905c0 11.782-9.551 21.333-21.333 21.333h-85.333c-11.782 0-21.333-9.551-21.333-21.333v-31.139c-13.65-5.889-26.597-13.699-38.602-23.224l-28.122 16.688c-10.256 6.086-23.508 2.582-29.417-7.776l-42.155-73.899c-5.83-10.221-2.284-23.233 7.926-29.082l29.585-16.948c-1.076-7.736-1.616-15.611-1.616-23.592 0-7.887 0.596-15.765 1.756-23.677l-29.243-16.904c-10.194-5.892-13.686-18.929-7.803-29.129l42.624-73.899c5.987-10.379 19.344-13.794 29.577-7.561l26.993 16.442c11.982-9.487 24.898-17.269 38.496-23.124v-37.179c0-11.782 9.551-21.333 21.333-21.333h85.333c11.782 0 21.333 9.551 21.333 21.333v36.969c15.554 6.247 30.428 14.375 43.065 23.831l30.733-17.308c10.148-5.715 23.004-2.235 28.883 7.818l43.221 73.899c5.964 10.198 2.506 23.3-7.714 29.226l-29.050 16.843c1.265 8.079 1.923 15.925 1.923 23.752 0 7.862-0.592 15.737-1.74 23.647l29.339 16.925zM929.76 48.313l-25.275 14.234c-8.15 4.59-18.34 3.335-25.134-3.095-13.023-12.327-33.223-23.294-53.8-29.797-8.873-2.804-14.905-11.036-14.905-20.342v-30.635h-42.667v30.635c0 9.306-6.032 17.538-14.905 20.342-17.798 5.624-34.608 15.79-49.405 29.797-6.99 6.616-17.544 7.733-25.763 2.726l-21.617-13.167-21.058 36.509 23.916 13.824c8.16 4.717 12.258 14.23 10.079 23.4-2.411 10.149-3.646 19.96-3.646 29.63 0 10.196 1.161 20.074 3.453 29.536 2.235 9.225-1.893 18.817-10.129 23.535l-24.275 13.906 20.85 36.551 22.68-13.458c8.198-4.865 18.629-3.7 25.552 2.853 14.775 13.986 31.55 24.132 49.4 29.808 8.855 2.816 14.868 11.039 14.868 20.33v24.576h42.667v-24.533c0-9.277 5.996-17.491 14.831-20.318 20.746-6.639 40.897-17.579 53.874-29.863 6.735-6.375 16.816-7.669 24.942-3.202l26.323 14.47 21.551-37.326-23.968-13.827c-8.151-4.702-12.259-14.19-10.109-23.352 2.385-10.167 3.617-20.032 3.617-29.687 0-9.163-1.318-18.794-3.898-29.612-2.185-9.165 1.9-18.678 10.051-23.404l23.714-13.75-21.814-37.297zM533.342 523.785c8.456 5.604 17.86 13.736 27.093 24.877 20.454 24.681 33.546 57.431 36.344 98.715 40.887 18.78 43.27 93.016 7.149 118.261 2.544 5.851 4.294 10.041 5.974 14.307 13.098 33.255 18.848 63.499 13.753 93.77-0.517 3.073-1.15 6.117-1.9 9.129-23.943 96.43-262.311 102.452-313.083 18.064-25.7 1.473-45.388-6.848-57.239-24.955-10.891-16.64-13.105-38.205-9.8-64.442 1.428-11.336 3.831-23.021 7.166-36.065 0.794-3.104 3.004-11.257 4.77-17.573-18.938-25.726-18.040-82.193 2.694-105.004 1.971-43.882 15.3-78.442 36.653-104.208 9.233-11.141 18.636-19.273 27.093-24.877v-79.794c-18.825-7.519-40.115-15.168-68.953-24.993-2.31-0.787-41.039-13.878-52.105-17.695-96.855-33.404-139.064-55.473-151.479-92.898-6.307-19.041-11.458-43.178-15.686-71.404-3.55-23.704-6.259-48.989-8.247-74.258-1.192-15.156-1.883-26.979-2.178-33.832-0.523-12.132 9.171-22.253 21.314-22.253h448v42.667h-425.355c0.224 3.146 0.475 6.511 0.755 10.071 1.916 24.348 4.522 48.68 7.907 71.284 3.898 26.025 8.583 47.976 13.989 64.299 6.037 18.197 44.24 38.173 124.89 65.988 10.918 3.766 49.536 16.819 51.955 17.643 36.556 12.455 61.475 21.57 84.82 31.422 7.902 3.335 13.039 11.078 13.039 19.655v106.667c0 8.634-5.205 16.417-13.184 19.716-5.002 2.068-14.155 8.271-23.723 19.817-16.817 20.293-27.093 48.995-27.093 88.467 0 11.782-9.551 21.333-21.333 21.333 6.746 0 8.505-2.052 8.239-1.254-1.793 5.38-2.905 13.719-2.905 22.587s1.112 17.207 2.905 22.587c0.266 0.798-1.493-1.254-8.239-1.254 11.782 0 21.333 9.551 21.333 21.333 0 4.447-0.772 7.81-3.22 16.74-2.485 8.907-3.922 14.124-5.32 19.589-2.931 11.462-4.996 21.508-6.17 30.827-2.154 17.098-0.874 29.568 3.168 35.743 3.639 5.56 11.844 7.947 30.496 4.188 11.184-2.254 22.162 4.691 24.917 15.762 14.855 59.702 222.983 59.702 237.804 0.010 0.486-1.952 0.895-3.918 1.231-5.914 3.555-21.122-0.862-44.359-11.376-71.052-1.481-3.76-3.047-7.51-4.874-11.715-1.062-2.444-2.341-5.333-4.465-10.131-4.921-11.205-6.19-14.65-6.19-20.975 0-11.782 9.551-21.333 21.333-21.333 14.222 0 14.222-45.739 0-45.739-11.782 0-21.333-9.551-21.333-21.333 0-39.473-10.275-68.174-27.093-88.467-9.569-11.546-18.721-17.749-23.723-19.817-7.98-3.298-13.184-11.081-13.184-19.716v-106.667c0-9.277 5.996-17.491 14.831-20.318 28.138-9.004 108.341-36.201 108.285-36.183l13.845 40.361c-0.124 0.041-59.446 20.158-94.294 31.629v78.608z" />
<glyph unicode="&#xe91a;" glyph-name="user" d="M640 476.612c8.173 6.181 17.575 14.745 26.939 25.789 20.105 23.714 33.321 51.847 36.38 84.175 29.125 21.063 35.083 85.741 4.843 116.682 4.77 10.16 12.482 27.777 16.791 38.443 9.182 22.727 15.942 43.564 20.003 63.642 4.811 23.791 5.541 45.382 1.188 64.68-23.886 105.649-320.57 119.875-375.826 34.921-63.562-5.703-85.796-52.216-75.915-118.775 2.472-16.649 6.736-33.919 12.623-52.893 2.194-7.074 6.628-20.338 9.697-29.132-31.238-30.575-25.448-96.301 3.958-117.567 3.060-32.328 16.275-60.461 36.38-84.175 9.364-11.044 18.766-19.608 26.939-25.789v-86.522c-32.735-10.744-93.417-30.498-107.275-35.086-44.137-14.611-75.984-25.831-103.651-36.782-69.247-27.409-109.794-52.438-127.649-84.049-1.222-2.162-2.422-4.344-3.597-6.541-18.343-34.304-30.073-70.863-36.584-107.391-3.922-22.004-5.244-39.315-5.244-49.687v-10.246l7.997-6.405c19.48-15.602 58.968-38.005 120.489-60.048 101.089-36.221 228.27-57.866 383.514-57.866s282.425 21.645 383.514 57.866c61.521 22.043 101.009 44.446 120.489 60.048l7.997 6.405v10.246c0 10.372-1.322 27.683-5.244 49.687-6.511 36.528-18.24 73.087-36.584 107.391-1.175 2.197-2.375 4.38-3.6 6.547-17.878 31.609-58.427 56.637-127.662 84.043-27.667 10.952-59.514 22.173-103.641 36.782-13.903 4.603-74.558 24.35-107.269 35.086v86.522zM964.592 71.416c-22.332-12.669-50.065-25.426-83.47-37.396-96.423-34.549-218.735-55.366-369.122-55.366s-272.699 20.817-369.122 55.366c-33.405 11.969-61.139 24.726-83.47 37.396-6.707 3.805-12.122 7.122-16.283 9.833 0.606 8.146 1.872 18.865 4.124 31.504 5.773 32.387 16.154 64.742 32.204 94.759 1.019 1.905 2.058 3.796 3.119 5.672 11.448 20.268 45.729 41.429 106.205 65.366 26.753 10.589 57.929 21.572 101.357 35.949 16.229 5.373 97.986 31.971 121.916 39.909l14.616 4.849v140.817l-10.496 6.19c-6.103 3.599-16.292 11.611-26.565 23.728-16.936 19.976-26.939 43.573-26.939 71.128v21.333h-18.331c-2.51 6.498-4.878 13.801-5.835 21.428-2.059 16.396 2.332 28.050 11.463 32.088l12.704 5.619v13.891c0 6.91-15.66 52.92-14.89 50.436-5.292 17.060-9.063 32.33-11.169 46.517-7.211 48.573 4.626 70.433 47.393 70.433h16.14l4.389 15.532c16.539 58.525 284.532 50.622 299.996-17.775 2.858-12.671 2.325-28.459-1.389-46.824-3.466-17.138-9.463-35.623-17.742-56.116 0.213 0.527-24.060-53.825-24.060-62.203v-13.891l12.704-5.619c9.13-4.039 13.522-15.693 11.463-32.088-0.958-7.627-3.326-14.93-6.224-19.861-0.712-1.211-17.942-1.567-17.942-1.567v-21.333c0-27.555-10.003-51.152-26.939-71.128-10.273-12.117-20.462-20.129-26.565-23.728l-10.496-6.19v-140.817l14.616-4.849c23.89-7.925 105.624-34.518 121.909-39.909 43.419-14.375 74.595-25.36 101.347-35.949 60.472-23.938 94.76-45.101 106.225-65.372 1.057-1.871 2.097-3.762 3.115-5.667 16.051-30.016 26.432-62.372 32.204-94.759 2.253-12.638 3.518-23.358 4.124-31.504-4.16-2.711-9.576-6.029-16.283-9.833z" />
<glyph unicode="&#xe91b;" glyph-name="vision" d="M948.683 419.399c-30.356-31.791-64.873-63.599-102.847-93.252-107.576-84.003-220.794-134.148-333.836-134.148s-226.26 50.145-333.836 134.148c-37.974 29.653-72.491 61.461-102.847 93.252-9.839 10.304-18.567 19.91-26.117 28.601 7.549 8.691 16.278 18.296 26.117 28.601 30.356 31.791 64.873 63.599 102.847 93.252 107.576 84.003 220.794 134.148 333.836 134.148s226.26-50.145 333.836-134.148c37.974-29.653 72.491-61.461 102.847-93.252 9.839-10.304 18.567-19.91 26.117-28.601-7.549-8.691-16.278-18.296-26.117-28.601zM1019.39 461.245c-1.895 2.392-5.432 6.682-10.531 12.598-8.4 9.747-18.199 20.578-29.318 32.223-31.711 33.209-67.73 66.401-107.446 97.415-114.398 89.33-235.995 143.186-360.095 143.186s-245.697-53.855-360.095-143.186c-39.716-31.013-75.735-64.205-107.446-97.415-11.119-11.645-20.919-22.476-29.318-32.223-5.099-5.917-8.636-10.206-10.531-12.598-6.146-7.76-6.146-18.73 0-26.49 1.895-2.392 5.432-6.682 10.531-12.598 8.4-9.747 18.199-20.578 29.318-32.223 31.711-33.209 67.73-66.401 107.446-97.415 114.398-89.33 235.995-143.186 360.095-143.186s245.697 53.855 360.095 143.186c39.716 31.014 75.735 64.205 107.446 97.415 11.119 11.645 20.919 22.476 29.318 32.223 5.099 5.917 8.636 10.206 10.531 12.598 6.146 7.76 6.146 18.73 0 26.49zM661.333 448c0-82.496-66.849-149.333-149.333-149.333s-149.333 66.838-149.333 149.333c0 82.496 66.849 149.333 149.333 149.333s149.333-66.838 149.333-149.333zM704 448c0 106.061-85.953 192-192 192s-192-85.939-192-192c0-106.061 85.953-192 192-192s192 85.939 192 192z" />
<glyph unicode="&#xe91c;" glyph-name="download" d="M980.406 171.173v-85.17c0-58.74-47.659-106.4-106.4-106.4h-724.013c-58.768 0-106.4 47.643-106.4 106.4v85.17c0 11.782-9.551 21.333-21.333 21.333s-21.333-9.551-21.333-21.333v-85.17c0-82.319 66.731-149.066 149.066-149.066h724.013c82.305 0 149.066 66.762 149.066 149.066v85.17c0 11.782-9.551 21.333-21.333 21.333s-21.333-9.551-21.333-21.333zM533.333 176.043v761.678c0 11.782-9.551 21.333-21.333 21.333s-21.333-9.551-21.333-21.333v-761.678c0-11.782 9.551-21.333 21.333-21.333s21.333 9.551 21.333 21.333zM215.433 502.781c-8.331 8.331-21.839 8.331-30.17 0s-8.331-21.839 0-30.17l311.652-311.652c8.331-8.331 21.839-8.331 30.17 0l311.652 311.652c8.331 8.331 8.331 21.839 0 30.17s-21.839 8.331-30.17 0l-296.567-296.567-296.567 296.567z" />
<glyph unicode="&#xe91d;" glyph-name="masterclass" d="M981.333 789.333h-938.667v-682.667h938.667v682.667zM1002.667 64h-981.333c-11.782 0-21.333 9.551-21.333 21.333v725.333c0 11.782 9.551 21.333 21.333 21.333h981.333c11.782 0 21.333-9.551 21.333-21.333v-725.333c0-11.782-9.551-21.333-21.333-21.333zM981.333 917.333h-938.667v-85.333h938.667v85.333zM1002.667 789.333h-981.333c-11.782 0-21.333 9.551-21.333 21.333v128c0 11.782 9.551 21.333 21.333 21.333h981.333c11.782 0 21.333-9.551 21.333-21.333v-128c0-11.782-9.551-21.333-21.333-21.333zM981.333-21.333v85.333h-938.667v-85.333h938.667zM1002.667-64h-981.333c-11.782 0-21.333 9.551-21.333 21.333v128c0 11.782 9.551 21.333 21.333 21.333h981.333c11.782 0 21.333-9.551 21.333-21.333v-128c0-11.782-9.551-21.333-21.333-21.333zM725.333 448c0 117.824-95.521 213.333-213.333 213.333s-213.333-95.509-213.333-213.333c0-117.797 95.537-213.333 213.333-213.333s213.333 95.537 213.333 213.333zM768 448c0-141.361-114.639-256-256-256s-256 114.639-256 256c0 141.389 114.625 256 256 256s256-114.611 256-256zM570.964 448l-101.631 50.815v-101.631l101.631 50.815zM426.667 362.667v170.667c0 15.859 16.689 26.173 30.874 19.081l170.667-85.333c15.724-7.862 15.724-30.3 0-38.162l-170.667-85.333c-14.185-7.092-30.874 3.222-30.874 19.081z" />
<glyph unicode="&#xe91e;" glyph-name="avatar" d="M261.299 787.43c-13.133-24.088-15.893-55.769-11.503-93.787 2.374-20.559 6.802-42.209 12.686-64.188 2.146-8.015 4.395-15.734 6.679-23.055-1-0.743-1.99-1.519-2.97-2.33-17.893-14.807-28.33-37.81-28.33-68.119 0-29.83 10.090-53.166 27.156-69.378 3.507-3.331 7.162-6.218 10.896-8.701 0.359-6.65 1.019-14.079 2.073-22.126 3.094-23.63 8.966-47.102 18.379-69.301 14.863-35.051 37.299-63.933 68.377-83.957 0-62.856 0-63.473 0-110.080v-2.993c-1.317-0.428-2.669-0.868-4.054-1.321-18.005-5.889-38.048-12.718-59.625-20.415-61.679-22.003-123.376-46.575-181.091-73.159-38.896-17.915-74.679-36.172-106.707-54.703-12.7-7.348-17.039-23.601-9.691-36.302s23.601-17.039 36.302-9.691c30.495 17.644 64.839 35.167 102.326 52.433 56.132 25.854 116.415 49.864 176.715 71.375 21.116 7.533 40.716 14.212 58.289 19.959 6.134 2.006 11.57 3.751 16.246 5.224 1.626 0.513 3.038 0.954 4.228 1.322 12.558 3.832 20.198 14.148 20.198 25.838v147.815c0 9.95-5.559 19.065-14.405 23.62-26.718 13.758-45.671 36.258-58.188 65.777-7.376 17.394-12.103 36.292-14.612 55.456-0.931 7.11-1.5 13.859-1.775 20.093-0.185 4.204-0.216 7.6-0.163 10.036 0.534 12.867-7.634 23.992-19.645 27.217-3.142 1.599-5.375 3.112-7.476 5.108-6.541 6.213-10.616 15.638-10.616 30.852 0 14.736 3.589 22.646 9.070 27.182 1.645 1.361 3.41 2.336 5.109 2.962 17.514 3.13 27.431 20.237 21.509 35.927-0.157 0.417-0.502 1.356-1.008 2.773-0.872 2.445-1.851 5.285-2.911 8.477-3.050 9.185-6.107 19.276-8.957 29.923-5.26 19.649-9.185 38.839-11.229 56.542-3.245 28.106-1.343 49.944 5.37 62.258 5.95 10.914 16.567 15.049 40.129 10.497 3.254-0.451 3.428-0.482 3.663-0.522 12.629-1.245 21.637 2.275 28.718 9.394 2.259 2.271 3.563 4.153 5.104 6.736 0.648 1.086 1.252 2.171 2.175 3.872 1.463 2.704 1.803 3.328 2.145 3.952 0.868 1.582 1.672 3.011 2.501 4.439 4.54 7.813 9.413 14.782 15.254 21.295 6.904 7.698 14.668 14.14 23.467 19.121 9.597 5.433 25.485 10.465 45.445 14.552 14.742 3.019 30.72 5.35 46.724 7.056 5.62 0.599 10.832 1.076 15.49 1.443 1.613 0.127 3.036 0.23 4.25 0.312 3.187 0.069 6.637 0.035 10.977-0.095 6.782-0.203 14.173-0.599 22.001-1.233 21.414-1.735 42.615-4.949 62.159-9.941 47.432-12.114 75.854-32.12 80.954-59.211 1.822-9.678 2.932-19.881 3.362-30.555 1.433-35.637-4.663-74.607-15.766-113.484-3.522-12.333-7.293-23.725-11.049-33.87-1.3-3.512-2.499-6.602-3.564-9.233-0.61-1.508-1.020-2.484-1.196-2.89-7.371-16.956 4.394-35.922 22.597-37.102 1.256-0.344 2.299-0.852 3.325-1.67 4.616-3.682 8.121-11.928 8.121-28.908 0-17.474-3.769-26.872-9.046-31.658-1.301-1.18-2.591-1.941-3.764-2.385-13.19-2.19-22.719-13.265-22.719-26.362-0.030-2.46-0.062-3.873-0.113-5.479-0.146-4.664-0.411-9.892-0.823-15.533-1.172-16.041-3.277-32.043-6.498-46.734-3.136-14.303-7.158-26.462-11.937-35.683-5.229-10.088-12.334-19.141-20.903-27.164-7.058-6.609-14.686-12.135-22.277-16.565-2.609-1.522-4.993-2.784-7.072-3.788-11.811-4.914-18.345-14.575-18.4-25.331l-0.752-148.921c-0.057-11.274 7.008-21.357 17.625-25.152 2.094-0.749 2.73-0.977 3.827-1.371 3.137-1.125 6.79-2.436 10.922-3.922 11.808-4.247 25.077-9.036 39.504-14.266 41.219-14.94 83.452-30.408 124.28-45.58 22.917-8.571 45.163-17.805 68.156-28.105 28.144-12.607 55.941-26.137 82.13-39.666 9.16-4.732 17.457-9.122 24.736-13.054 2.535-1.37 4.758-2.582 6.65-3.623 15.023-8.391 31.211-3.817 38.375 8.988s2.59 28.994-10.215 36.157c-4.552 2.513-6.896 3.791-9.554 5.227-7.559 4.084-16.145 8.626-25.605 13.513-27.012 13.954-55.677 27.907-84.794 40.95-23.961 10.733-47.225 20.39-69.459 28.708-42.885 15.939-85.248 31.454-126.592 46.44-13.312 4.825-25.641 9.277-36.755 13.277l0.576 114.095c10.579 6.247 21.109 13.928 31.012 23.2 12.777 11.963 23.599 25.752 31.761 41.499 7.188 13.866 12.611 30.262 16.666 48.757 3.823 17.437 6.246 35.858 7.59 54.24 0.175 2.39 0.326 4.718 0.456 6.977 3.32 2.057 6.558 4.479 9.666 7.298 16.928 15.355 26.482 39.176 26.482 71.015 0 32.333-10.087 56.062-28.124 70.449 2.067 9.435 5.031 18.768 7.848 28.633 12.529 43.869 19.457 88.16 17.766 130.211-0.53 13.179-1.92 25.945-4.236 38.249-5.38 28.584-21.949 51.749-47.009 69.388-19.861 13.979-44.549 24.207-73.014 31.477-22.747 5.81-46.822 9.459-71.017 11.42-8.762 0.71-17.050 1.154-24.704 1.382-5.17 0.155-9.374 0.194-12.451 0.166-3.116-0.124-5.399-0.278-8.527-0.524-5.133-0.403-10.831-0.925-16.961-1.579-17.566-1.873-35.159-4.44-51.749-7.837-24.939-5.107-45.52-11.625-60.962-20.367-14.071-7.965-26.261-18.080-36.849-29.885-8.517-9.497-15.406-19.349-21.64-30.078-39.348 3.711-68.971-9.961-85.144-39.626z" />
<glyph unicode="&#xe91f;" glyph-name="designs" d="M320.424 532.717c-10.257 12.308-29.592 10.813-37.835-2.925l-139.636-232.727 39.912-23.947 122.778 204.63 95.387-114.464c10.983-13.18 31.966-10.35 39.065 5.269l93.81 206.383 119.395-298.487 43.216 17.287-139.636 349.091c-7.61 19.025-34.316 19.641-42.795 0.987l-101.026-222.258-92.636 111.163zM46.545 168.727v744.727h744.727v-744.727h-744.727zM814.545 122.182c12.853 0 23.273 10.42 23.273 23.273v791.273c0 12.853-10.42 23.273-23.273 23.273h-791.273c-12.853 0-23.273-10.42-23.273-23.273v-791.273c0-12.853 10.42-23.273 23.273-23.273h791.273zM916.215-15.431l-672.12 61.327c-12.8 1.168-24.123-8.262-25.291-21.062s8.262-24.123 21.062-25.291l695.296-63.441c12.8-1.168 24.123 8.262 25.291 21.062l63.441 695.296c1.168 12.803-8.267 24.129-21.070 25.292l-92.719 8.425c-12.8 1.163-24.12-8.271-25.283-21.071s8.271-24.12 21.071-25.283l69.533-6.318-59.211-648.934zM23.273 261.818h791.273v46.545h-791.273zM279.273 727.273c0-25.686-20.859-46.545-46.545-46.545s-46.545 20.859-46.545 46.545c0 25.686 20.859 46.545 46.545 46.545s46.545-20.859 46.545-46.545zM325.818 727.273c0 51.393-41.698 93.091-93.091 93.091s-93.091-41.698-93.091-93.091c0-51.393 41.698-93.091 93.091-93.091s93.091 41.698 93.091 93.091z" />
<glyph unicode="&#xe920;" glyph-name="hidden" d="M948.666 419.395c-30.356-31.791-64.873-63.599-102.847-93.252-107.576-84.003-220.794-134.148-333.836-134.148-40.422 0-81.103 6.476-121.859 18.911-11.269 3.438-23.192-2.91-26.631-14.179s2.91-23.192 14.179-26.631c44.668-13.629 89.52-20.769 134.311-20.769 124.1 0 245.697 53.855 360.095 143.186 39.716 31.013 75.735 64.205 107.446 97.415 11.119 11.645 20.919 22.476 29.318 32.223 5.099 5.917 8.636 10.206 10.531 12.598 6.147 7.761 6.146 18.731-0.001 26.491-1.896 2.394-5.436 6.687-10.54 12.608-8.407 9.754-18.215 20.593-29.344 32.247-31.738 33.235-67.788 66.452-107.537 97.489-8.796 6.868-17.696 13.564-26.698 20.075-9.547 6.905-22.883 4.763-29.788-4.784s-4.763-22.883 4.784-29.788c8.573-6.2 17.056-12.583 25.444-19.132 38.008-29.677 72.556-61.51 102.939-93.327 9.852-10.317 18.591-19.934 26.15-28.634-7.549-8.69-16.277-18.296-26.116-28.6zM75.314 476.591c30.36 31.791 64.881 63.599 102.858 93.253 107.582 84.003 220.797 134.148 333.82 134.148 33.628 0 67.513-4.502 101.555-13.202 11.415-2.918 23.034 3.971 25.952 15.386s-3.971 23.034-15.386 25.952c-37.403 9.56-74.824 14.531-112.12 14.531-124.081 0-245.674-53.855-360.079-143.185-39.718-31.013-75.741-64.205-107.455-97.414-11.121-11.645-20.921-22.475-29.323-32.222-5.1-5.917-8.637-10.206-10.532-12.598-6.148-7.762-6.148-18.733 0.001-26.495 1.897-2.394 5.437-6.686 10.541-12.606 8.408-9.753 18.217-20.591 29.348-32.243 31.743-33.231 67.798-66.444 107.555-97.478 8.589-6.704 17.278-13.246 26.064-19.61 9.542-6.912 22.88-4.78 29.792 4.762s4.78 22.88-4.762 29.792c-8.368 6.061-16.649 12.296-24.841 18.69-38.015 29.674-72.568 61.503-102.955 93.316-9.852 10.314-18.592 19.929-26.15 28.628 7.55 8.69 16.279 18.295 26.119 28.599zM362.667 448c0 82.496 66.849 149.333 149.333 149.333 11.782 0 21.333 9.551 21.333 21.333s-9.551 21.333-21.333 21.333c-106.047 0-192-85.939-192-192 0-11.782 9.551-21.333 21.333-21.333s21.333 9.551 21.333 21.333zM661.333 448c0-82.496-66.849-149.333-149.333-149.333-11.782 0-21.333-9.551-21.333-21.333s9.551-21.333 21.333-21.333c106.047 0 192 85.939 192 192 0 11.782-9.551 21.333-21.333 21.333s-21.333-9.551-21.333-21.333zM912.915 879.085l-832-832c-8.331-8.331-8.331-21.839 0-30.17s21.839-8.331 30.17 0l832 832c8.331 8.331 8.331 21.839 0 30.17s-21.839 8.331-30.17 0z" />
<glyph unicode="&#xe921;" glyph-name="customers" d="M447.996 478.59c5.764 4.467 11.753 10.62 17.463 18.756 14.124 20.127 22.945 48.088 24.826 84.818 15.945 10.288 25.584 32.196 27.594 56.045 2.003 23.776-4.439 45.33-19.359 56.896 1.23 2.883 2.451 5.857 3.477 8.461 12.387 31.448 16.925 60.692 9.363 90.941-25.12 100.481-242.246 106.496-290.352 18.044-23.073 1.020-40.169-6.823-48.85-24.461-7.736-15.72-6.366-34.526 0.589-57.742 2.202-7.349 4.926-14.94 8.278-23.344 0.974-2.441 2.811-6.926 4.708-11.399-15.647-11.391-22.643-33.111-20.811-57.223 1.813-23.862 11.443-45.892 27.453-56.22 1.881-36.73 10.702-64.691 24.826-84.817 5.71-8.136 11.699-14.289 17.463-18.756v-58.858c-132.528-53.903-234.667-109.056-234.667-142.399v-192c0-11.782 9.551-21.333 21.333-21.333h640c11.782 0 21.333 9.551 21.333 21.333v192c0 33.343-102.139 88.496-234.667 142.399v58.858zM42.662 272.678c2.583 2.647 6.875 6.151 12.653 10.238 12.388 8.763 30.634 19.548 53.329 31.563 43.722 23.147 101.454 49.518 155.275 71.047 8.099 3.24 13.41 11.084 13.41 19.808v85.333c0 9.065-5.729 17.141-14.286 20.136-1.321 0.462-5.628 3.513-10.918 11.052-10.658 15.188-17.463 39.513-17.463 75.479 0 11.782-9.551 21.333-21.333 21.333 0.749 0-4.839 9.461-5.864 22.95-1.059 13.931 2.066 19.717 5.864 19.717 11.782 0 21.333 9.551 21.333 21.333 0 5.878-1.282 9.583-5.534 19.822 0.906-2.182-6.392 15.104-8.473 20.322-2.922 7.326-5.241 13.788-7.037 19.783-4.096 13.673-4.802 23.359-3.179 26.657 0.558 1.134 4.682 2.308 19.945-0.817 11.193-2.292 22.205 4.642 24.976 15.726 15.947 63.788 198.66 63.788 214.607 0 5.014-20.054 1.76-41.021-7.668-64.956 2.346 5.955-12.937-28.84-12.937-36.537 0-11.782 9.551-21.333 21.333-21.333 2.906 0 5.835-5.681 4.667-19.542-1.147-13.612-6.788-23.124-6.033-23.124-11.782 0-21.333-9.551-21.333-21.333 0-35.966-6.804-60.291-17.463-75.479-5.291-7.539-9.598-10.59-10.918-11.052-8.557-2.995-14.286-11.070-14.286-20.136v-85.333c0-8.723 5.311-16.568 13.41-19.808 53.821-21.528 111.553-47.9 155.275-71.047 22.695-12.015 40.941-22.8 53.329-31.563 5.778-4.087 10.070-7.591 12.653-10.238v-166.011h-597.333v166.012zM832 413.517c5.249 3.49 10.714 8.16 16.038 14.229 14.655 16.706 23.941 39.953 26.129 70.096 13.475 10.693 20.485 32.096 21.764 55.67 1.165 21.48-3.094 40.959-13.782 52.91 0.734 1.381 1.508 2.866 2.319 4.434 13.934 26.967 19.193 52.289 10.437 78.558-25.89 77.669-199.355 83.049-245.69 16.141-19.176 0.522-33.928-6.242-42.119-21.131-7.5-13.634-7.14-29.737-2.193-49.282 1.636-6.461 3.743-13.093 6.392-20.441 0.623-1.729 1.348-3.71 2.096-5.707-12.728-11.622-17.803-32.469-16.397-55.62 1.425-23.456 8.637-44.833 22.172-55.525 2.187-30.146 11.474-53.395 26.13-70.103 5.324-6.069 10.789-10.739 16.038-14.229v-29.517c0-11.782 9.551-21.333 21.333-21.333s21.333 9.551 21.333 21.333v42.667c0 9.567-6.369 17.964-15.581 20.543-1.619 0.453-6.033 2.955-11.048 8.671-9.794 11.166-16.038 29.021-16.038 56.119 0 11.782-9.551 21.333-21.333 21.333 4.554 0 5.334-0.731 4.462 1.115-2.513 5.317-4.382 13.321-4.88 21.512-0.85 13.987 1.766 20.040 0.418 20.040 11.782 0 21.333 9.551 21.333 21.333 0 5.129-0.922 8.067-4.071 16.417 0.929-2.464-4.392 11.432-5.828 15.417-2.213 6.14-3.919 11.509-5.168 16.443-2.512 9.923-2.662 16.654-1.786 18.247-0.238-0.433 1.767 0.122 12.575-2.091 10.577-2.166 21.104 3.912 24.518 14.154 14.85 44.55 158.006 44.55 172.856 0 4.349-13.047 1.295-27.751-7.866-45.48 4.457 8.627-14.562-24.488-14.562-33.107 0-11.782 9.551-21.333 21.333-21.333-1.909 0 0.75-6.248-0.006-20.178-0.447-8.234-2.245-16.247-4.692-21.546-0.818-1.771 0.056-0.943 4.698-0.943-11.782 0-21.333-9.551-21.333-21.333 0-27.098-6.243-44.953-16.038-56.119-5.015-5.717-9.429-8.218-11.048-8.671-9.212-2.579-15.581-10.976-15.581-20.543v-64c0-8.723 5.311-16.568 13.41-19.808 13.192-5.277 27.434-10.681 44.431-16.913 11.384-4.174 49.281-17.821 54.445-19.701 20.133-7.328 34.467-12.782 46.564-17.809 13.799-5.734 23.893-10.626 30.312-14.704 2.676-1.7 2.837-1.878 2.837 3.601v-170.667h-213.333c-11.782 0-21.333-9.551-21.333-21.333s9.551-21.333 21.333-21.333h234.667c11.782 0 21.333 9.551 21.333 21.333v192c0 21.93-17.619 33.122-59.443 50.503-12.816 5.326-27.66 10.974-48.343 18.502-5.277 1.921-43.109 15.544-54.351 19.666-11.004 4.035-20.8 7.704-29.863 11.203v36.309z" />
<glyph unicode="&#xe922;" glyph-name="feedback" d="M332.541 154.198c4.883 2.236 10.412 2.617 15.555 1.071 51.822-15.575 107.078-23.641 163.902-23.641 257.153 0 463.886 165.948 463.886 367.998 0 202.121-206.716 368.080-463.886 368.080s-463.886-165.962-463.886-368.080c0-99.164 49.794-192.349 137.361-261.243 8.287-6.52 10.81-17.987 6.026-27.383l-80.596-158.305 221.635 101.504zM3.935 499.625c0 228.916 228.367 412.261 508.065 412.261s508.065-183.343 508.065-412.261c0-228.847-228.383-412.177-508.065-412.177-58.189 0-114.95 7.879-168.555 23.149l-271.796-124.476c-19.029-8.714-38.379 11.455-28.884 30.105l101.295 198.966c-89.073 75.774-140.126 176.612-140.126 284.433zM754.987 548.139c0-27.372-9.562-56.475-27.148-87.225-20.433-35.729-51.304-73.049-89.877-111.106-24.723-24.394-51.142-47.642-77.556-69.008-9.246-7.479-17.841-14.196-25.571-20.055-4.679-3.548-8.060-6.041-9.929-7.386-7.71-5.551-18.105-5.551-25.814 0-1.869 1.346-5.251 3.841-9.929 7.386-7.729 5.859-16.323 12.576-25.571 20.055-26.414 21.367-52.833 44.614-77.556 69.008-38.571 38.058-69.444 75.379-89.877 111.106-17.586 30.752-27.148 59.855-27.148 87.225 0 151 172.72 192.564 242.987 73.103 70.267 119.461 242.987 77.899 242.987-73.103zM532.623 315.147c25.358 20.511 50.713 42.824 74.31 66.107 35.955 35.473 64.432 69.902 82.554 101.589 14.082 24.625 21.319 46.652 21.319 65.293 0 118.956-145.501 139.453-177.342 8.385-5.467-22.5-37.464-22.5-42.931 0-31.841 131.069-177.342 110.571-177.342-8.385 0-18.641 7.237-40.668 21.319-65.293 18.122-31.689 46.601-66.116 82.554-101.589 23.598-23.284 48.953-45.596 74.31-66.107 7.879-6.373 14.834-11.839 20.623-16.285 5.789 4.446 12.744 9.912 20.623 16.285z" />
<glyph unicode="&#xe923;" glyph-name="right-arrow" d="M237.942-7.523c-8.825-7.806-9.65-21.289-1.844-30.114s21.289-9.65 30.114-1.844l531.556 470.222c9.598 8.49 9.598 23.467 0 31.957l-531.556 470.222c-8.825 7.806-22.307 6.981-30.114-1.844s-6.981-22.307 1.844-30.114l513.493-454.244-513.493-454.244z" />
<glyph unicode="&#xe924;" glyph-name="roadmap" d="M342.258 944.878l-298.667-981.333c-3.43-11.272 2.926-23.19 14.198-26.62s23.19 2.926 26.62 14.198l298.667 981.333c3.43 11.272-2.926 23.19-14.198 26.62s-23.19-2.926-26.62-14.198zM683.591 932.455l298.667-981.333c3.43-11.272 15.349-17.628 26.62-14.198s17.628 15.349 14.198 26.62l-298.667 981.333c-3.43 11.272-15.349 17.628-26.62 14.198s-17.628-15.349-14.198-26.62zM512 85.333v-128c0-11.782 9.551-21.333 21.333-21.333s21.333 9.551 21.333 21.333v128c0 11.782-9.551 21.333-21.333 21.333s-21.333-9.551-21.333-21.333zM512 298.667v-85.333c0-11.782 9.551-21.333 21.333-21.333s21.333 9.551 21.333 21.333v85.333c0 11.782-9.551 21.333-21.333 21.333s-21.333-9.551-21.333-21.333zM512 512v-85.333c0-11.782 9.551-21.333 21.333-21.333s21.333 9.551 21.333 21.333v85.333c0 11.782-9.551 21.333-21.333 21.333s-21.333-9.551-21.333-21.333zM512 725.333v-85.333c0-11.782 9.551-21.333 21.333-21.333s21.333 9.551 21.333 21.333v85.333c0 11.782-9.551 21.333-21.333 21.333s-21.333-9.551-21.333-21.333zM512 938.667v-85.333c0-11.782 9.551-21.333 21.333-21.333s21.333 9.551 21.333 21.333v85.333c0 11.782-9.551 21.333-21.333 21.333s-21.333-9.551-21.333-21.333z" />
<glyph unicode="&#xe925;" glyph-name="16x16-tick" d="M136.938 365.351c-29.533 29.533-77.415 29.533-106.948 0s-29.533-77.415 0-106.948l201.664-201.664c28.816-28.816 75.282-29.616 105.073-1.812l655.547 661.611c30.533 28.498 32.183 76.352 3.685 106.885s-76.352 32.183-106.885 3.685l-602.136-611.76-150.002 150.002z" />
<glyph unicode="&#xe926;" glyph-name="filter" d="M973.125 825.284h-918.898c-23.152 0-41.92-18.768-41.92-41.92s18.768-41.92 41.92-41.92h918.898c23.152 0 41.92 18.768 41.92 41.92s-18.768 41.92-41.92 41.92zM805.444 489.92h-583.534c-23.152 0-41.92-18.768-41.92-41.92s18.768-41.92 41.92-41.92h583.534c23.152 0 41.92 18.768 41.92 41.92s-18.768 41.92-41.92 41.92zM637.761 154.556h-248.169c-23.152 0-41.92-18.768-41.92-41.92s18.768-41.92 41.92-41.92h248.169c23.152 0 41.92 18.768 41.92 41.92s-18.768 41.92-41.92 41.92z" />
<glyph unicode="&#xe927;" glyph-name="chart" d="M42.667 925.333c0 11.782-9.551 21.333-21.333 21.333s-21.333-9.551-21.333-21.333v-960c0-11.782 9.551-21.333 21.333-21.333h960c11.782 0 21.333 9.551 21.333 21.333s-9.551 21.333-21.333 21.333h-938.667v938.667zM362.667 706.999c0 23.546-19.121 42.667-42.667 42.667s-42.667-19.121-42.667-42.667c0-23.572 19.104-42.667 42.667-42.667s42.667 19.095 42.667 42.667zM405.333 706.999c0-47.14-38.211-85.333-85.333-85.333s-85.333 38.193-85.333 85.333c0 47.11 38.223 85.333 85.333 85.333s85.333-38.223 85.333-85.333zM371.998 264c0 23.563-19.095 42.667-42.667 42.667-23.546 0-42.667-19.121-42.667-42.667 0-23.572 19.104-42.667 42.667-42.667 23.589 0 42.667 19.078 42.667 42.667zM414.665 264c0-47.153-38.181-85.333-85.333-85.333-47.123 0-85.333 38.193-85.333 85.333 0 47.11 38.223 85.333 85.333 85.333 47.14 0 85.333-38.211 85.333-85.333zM688 520c0 23.546-19.121 42.667-42.667 42.667s-42.667-19.121-42.667-42.667c0-23.572 19.104-42.667 42.667-42.667s42.667 19.095 42.667 42.667zM730.667 520c0-47.14-38.211-85.333-85.333-85.333s-85.333 38.193-85.333 85.333c0 47.11 38.223 85.333 85.333 85.333s85.333-38.223 85.333-85.333zM858.667 178.667c0 23.546-19.121 42.667-42.667 42.667s-42.667-19.121-42.667-42.667c0-23.572 19.104-42.667 42.667-42.667s42.667 19.095 42.667 42.667zM901.333 178.667c0-47.14-38.211-85.333-85.333-85.333s-85.333 38.193-85.333 85.333c0 47.11 38.223 85.333 85.333 85.333s85.333-38.223 85.333-85.333zM981.333 776c0 23.546-19.121 42.667-42.667 42.667s-42.667-19.121-42.667-42.667c0-23.572 19.104-42.667 42.667-42.667s42.667 19.095 42.667 42.667zM1024 776c0-47.14-38.211-85.333-85.333-85.333s-85.333 38.193-85.333 85.333c0 47.11 38.223 85.333 85.333 85.333s85.333-38.223 85.333-85.333z" />
<glyph unicode="&#xe928;" glyph-name="padlock" d="M533.333 283.041v-112.375c0-11.782-9.551-21.333-21.333-21.333s-21.333 9.551-21.333 21.333v112.375c-12.753 7.377-21.333 21.166-21.333 36.959 0 23.564 19.103 42.667 42.667 42.667s42.667-19.103 42.667-42.667c0-15.793-8.58-29.581-21.333-36.959zM874.667 576c11.782 0 21.333-9.551 21.333-21.333v-597.333c0-11.782-9.551-21.333-21.333-21.333h-725.333c-11.782 0-21.333 9.551-21.333 21.333v597.333c0 11.782 9.551 21.333 21.333 21.333h725.333zM170.667 533.333v-554.667h682.667v554.667h-682.667zM725.333 704c0 117.839-95.494 213.333-213.333 213.333s-213.333-95.494-213.333-213.333v-128h426.667v128zM256 704c0 141.403 114.597 256 256 256s256-114.597 256-256v-149.333c0-11.782-9.551-21.333-21.333-21.333h-469.333c-11.782 0-21.333 9.551-21.333 21.333v149.333z" />
<glyph unicode="&#xe929;" glyph-name="vote-dislike" d="M834.873 576.016c-17.089 0-30.942 13.853-30.942 30.942s13.853 30.942 30.942 30.942c18.581 0 33.633 15.059 33.633 33.633 0 18.599-15.033 33.633-33.633 33.633h-43.050c-41.257 0-41.257 61.884 0 61.884 18.581 0 33.633 15.059 33.633 33.633 0 18.599-15.033 33.633-33.633 33.633h-279.823c-49.318 0-78.327-6.398-117.734-22.741-1.954-0.81-32.668-13.973-42.972-18.096-71.126-28.451-150-43.118-281.899-45.044v-325.782h98.207c182.624 0 353.815-167.053 353.815-375.34 0-11.746 11.966-20.010 28.453-17.211 22.209 3.773 38.813 26.113 38.813 69.689 0 23.292-3.538 55.223-9.98 93.266-3.075 18.162-6.748 37.325-10.889 57.122-4.636 22.162-9.608 43.946-14.579 64.397-2.975 12.241-5.279 21.279-6.574 26.176-5.191 19.628 9.61 38.854 29.914 38.854h344.398c18.581 0 33.633 15.059 33.633 33.633 0 18.599-15.033 33.633-33.633 33.633h-43.050c-41.257 0-41.257 61.884 0 61.884 18.581 0 33.633 15.059 33.633 33.633 0 18.599-15.033 33.633-33.633 33.633h-43.050c-17.089 0-30.942 13.853-30.942 30.942s13.853 30.942 30.942 30.942h43.050c15.104 0 29.386-3.5 42.079-9.735-15.798-30.953-47.982-52.149-85.129-52.149zM973.439 542.384c0-15.613-3.746-30.352-10.388-43.368 31.661-15.55 53.438-48.11 53.438-85.781 0-52.745-42.751-95.517-95.517-95.517h-304.849c4.19-17.656 8.339-36.116 12.262-54.871 4.296-20.533 8.113-40.462 11.33-59.459 6.973-41.164 10.851-76.166 10.851-103.6 0-72.267-36.651-121.58-90.337-130.699-51.725-8.785-100.697 25.031-100.697 78.221 0 173.766-143.151 313.456-291.931 313.456h-129.149c-17.089 0-30.942 13.853-30.942 30.942v387.448c0 17.089 13.853 30.942 30.942 30.942 143.339 0 221.083 13.327 289.858 40.837 9.461 3.784 39.662 16.728 42.249 17.801 46.571 19.316 83.518 27.463 141.443 27.463h279.823c52.778 0 95.517-42.739 95.517-95.517 0-15.613-3.746-30.352-10.388-43.368 31.661-15.55 53.438-48.11 53.438-85.781 0-15.613-3.746-30.352-10.388-43.368 31.661-15.55 53.438-48.11 53.438-85.781z" />
<glyph unicode="&#xe92a;" glyph-name="vote-like" d="M825.456 63.243c0-18.599-15.033-33.633-33.633-33.633h-279.823c-49.318 0-78.327 6.398-117.734 22.741-1.954 0.81-32.668 13.973-42.972 18.096-71.126 28.451-150 43.118-281.899 45.044v325.782h98.207c182.624 0 353.815 167.053 353.815 375.34 0 11.746 11.966 20.010 28.453 17.211 22.209-3.773 38.813-26.113 38.813-69.689 0-23.292-3.538-55.223-9.98-93.266-3.075-18.162-6.748-37.325-10.889-57.122-4.636-22.162-9.608-43.946-14.579-64.397-2.975-12.241-5.279-21.279-6.574-26.176-5.191-19.628 9.61-38.854 29.914-38.854h344.398c18.581 0 33.633-15.059 33.633-33.633 0-18.599-15.033-33.633-33.633-33.633h-43.050v-61.884c18.581 0 33.633-15.059 33.633-33.633 0-18.599-15.033-33.633-33.633-33.633h-43.050c-17.089 0-30.942-13.853-30.942-30.942s13.853-30.942 30.942-30.942h43.050c15.104 0 29.386 3.5 42.079 9.735 31.661 15.55 53.438 48.11 53.438 85.781 0 15.613-3.746 30.352-10.388 43.368-15.798 30.953-47.982 52.149-85.129 52.149-41.257 0-41.257-61.884 0-61.884h43.050c15.104 0 29.386 3.5 42.079 9.735 31.661 15.55 53.438 48.11 53.438 85.781 0 52.745-42.751 95.517-95.517 95.517h-304.849c4.19 17.656 8.339 36.116 12.262 54.871 4.296 20.533 8.113 40.462 11.33 59.459 6.973 41.164 10.851 76.166 10.851 103.6 0 72.267-36.651 121.58-90.337 130.699-51.725 8.785-100.697-25.031-100.697-78.221 0-173.766-143.151-313.456-291.931-313.456h-129.149c-17.089 0-30.942-13.853-30.942-30.942v-387.448c0-17.089 13.853-30.942 30.942-30.942 143.339 0 221.083-13.327 289.858-40.837 9.461-3.784 39.662-16.728 42.249-17.801 46.571-19.316 83.518-27.463 141.443-27.463h279.823c52.778 0 95.517 42.739 95.517 95.517 0 15.613-3.746 30.352-10.388 43.368-15.798 30.953-47.982 52.149-85.129 52.149-41.257 0-41.257-61.884 0-61.884h43.050c15.104 0 29.386 3.5 42.079 9.735 31.661 15.55 53.438 48.11 53.438 85.781 0 15.613-3.746 30.352-10.388 43.368-15.798 30.953-47.982 52.149-85.129 52.149-17.089 0-30.942-13.853-30.942-30.942s13.853-30.942 30.942-30.942c18.581 0 33.633-15.059 33.633-33.633 0-18.599-15.033-33.633-33.633-33.633h-43.050v-61.884c18.581 0 33.633-15.059 33.633-33.633z" />
<glyph unicode="&#xe92b;" glyph-name="vote-maybe" d="M539.934 188.931c31.842-36.733 29.959-86.268-0.916-117.212-28.911-28.842-74.309-32.718-107.612-9.189 1.327-1.128-4.648 1.759-12.99 5.829-13.868 6.769-29.314 14.403-45.944 22.737-47.534 23.821-95.079 48.512-139.521 72.801-17.617 9.628-34.429 19.025-50.321 28.145-23.75 13.626-45.265 26.526-64.267 38.593-72.283 45.953-116.131 125.709-116.131 211.299v146.019c0 138.218 111.96 250.194 250.194 250.194h284.595v-62.549h-284.595c-103.686 0-187.645-83.971-187.645-187.645v-146.019c0-64.186 32.904-124.036 87.128-158.506 18.135-11.516 38.863-23.945 61.851-37.134 15.503-8.895 31.941-18.081 49.193-27.511 43.717-23.894 90.627-48.254 137.543-71.766 16.429-8.233 31.68-15.768 45.361-22.448 8.188-3.997 14.017-6.814 17.095-8.283 12.989-8.631 24.512-7.649 31.842-0.335 7.777 7.796 8.259 20.433 1.012 28.928l-132.367 112.833c-22.060 18.89-8.704 55.029 20.34 55.029h437.839c18.981 0 34.401 15.421 34.401 34.401 0 19.005-15.403 34.401-34.401 34.401h-262.702v62.549h262.702c53.537 0 96.95-43.392 96.95-96.95 0-53.525-43.425-96.95-96.95-96.95h-353.227l71.547-61.26zM646.48 444.090h262.702c18.981 0 34.401 15.421 34.401 34.401 0 19.005-15.403 34.401-34.401 34.401h-262.702v62.549h262.702c53.537 0 96.95-43.392 96.95-96.95 0-53.525-43.425-96.95-96.95-96.95h-262.702v62.549zM558.912 575.441h262.702c18.981 0 34.401 15.421 34.401 34.401 0 19.005-15.403 34.401-34.401 34.401h-262.702v62.549h262.702c53.537 0 96.95-43.392 96.95-96.95 0-53.525-43.425-96.95-96.95-96.95h-262.702v62.549zM493.236 706.795h197.027c18.981 0 34.401 15.421 34.401 34.401 0 19.005-15.403 34.401-34.401 34.401h-262.702v62.549h262.702c53.537 0 96.95-43.392 96.95-96.95 0-53.525-43.425-96.95-96.95-96.95h-197.027v62.549z" />
<glyph unicode="&#xe92c;" glyph-name="reply" d="M944.726 173.023c0 183.999-145.789 333.144-325.647 333.144h-580.866c-18.079 0-32.738 14.995-32.738 33.49s14.656 33.49 32.738 33.49h580.866c216.019 0 391.121-179.135 391.121-400.126 0-18.497-14.656-33.49-32.738-33.49s-32.738 14.995-32.738 33.49zM344.676 281.313c13.079-13.079 13.079-34.284 0-47.363s-34.284-13.079-47.363 0l-282.028 282.028c-13.079 13.079-13.079 34.284 0 47.363l282.028 282.028c13.079 13.079 34.284 13.079 47.363 0s13.079-34.284 0-47.363l-258.346-258.346 258.346-258.346z" />
<glyph unicode="&#xe92d;" glyph-name="ticket" d="M847.768 448c0 83.836 56.735 154.497 133.565 173.916v124.751h-938.667v-124.754c76.813-19.425 133.565-90.092 133.565-173.912 0-83.849-56.745-154.498-133.565-173.915v-124.751h938.667v124.748c-76.837 19.411-133.565 90.054-133.565 173.919zM1024 311.467v-204.8h-1024v204.8c73.728 0 133.565 61.121 133.565 136.533 0 75.366-59.837 136.533-133.565 136.533v204.8h1024v-204.8c-73.773 0-133.565-61.167-133.565-136.533 0-75.412 59.793-136.533 133.565-136.533zM703.991 682.671h-42.667v-42.667h42.667zM703.991 597.338h-42.667v-42.667h42.667zM703.991 512.004h-42.667v-42.667h42.667zM703.991 426.671h-42.667v-42.667h42.667zM703.991 341.338h-42.667v-42.667h42.667zM703.991 256.004h-42.667v-42.667h42.667zM397.958 600.5h29.812v-280.5h-33.187v245.813c-12.625-8.25-28.062-15.312-46.313-21.187v31.313c2 0.875 6.062 2.625 12.187 5.25s10.719 4.625 13.781 6c3.063 1.375 6.906 3.312 11.531 5.813s8.687 5 12.187 7.5z" />
<glyph unicode="&#xe92e;" glyph-name="additional-menu" d="M519.758 773.818c51.324 0 93.091 41.767 93.091 93.091s-41.767 93.091-93.091 93.091c-51.324 0-93.091-41.767-93.091-93.091s41.767-93.091 93.091-93.091zM519.758 541.091c-51.324 0-93.091-41.767-93.091-93.091s41.767-93.091 93.091-93.091c51.324 0 93.091 41.767 93.091 93.091s-41.767 93.091-93.091 93.091zM519.758 122.182c-51.324 0-93.091-41.767-93.091-93.091s41.767-93.091 93.091-93.091c51.324 0 93.091 41.767 93.091 93.091s-41.767 93.091-93.091 93.091z" />
<glyph unicode="&#xe92f;" glyph-name="attachments" d="M352.765 255.95l362.709 370.909c20.743 21.241 54.134 21.241 74.902 0.001 21.151-21.631 21.142-56.982-0.029-78.689l-489.905-502.61c-54.055-55.284-141.485-55.294-195.627 0.007-54.433 55.742-54.433 146.38 0.029 202.151l511.985 523.577c79.138 80.937 207.044 80.937 286.139 0.006 79.492-81.298 79.492-213.361 0.016-294.568l-362.677-370.92c-12.356-12.636-12.128-32.896 0.508-45.252s32.896-12.128 45.252 0.508l362.667 370.909c103.809 106.070 103.809 277.891 0 384.060-104.195 106.613-273.421 106.613-377.664 0l-511.999-523.592c-78.759-80.652-78.759-210.988-0.015-291.624 79.276-80.974 207.995-80.958 287.183 0.029l489.934 502.639c45.412 46.564 45.43 121.613-0.035 168.111-45.877 46.92-120.603 46.92-166.436-0.015l-362.694-370.893c-12.356-12.636-12.13-32.896 0.506-45.252s32.896-12.13 45.252 0.506z" />
<glyph unicode="&#xe930;" glyph-name="bio" d="M384 704h234.667c11.782 0 21.333 9.551 21.333 21.333s-9.551 21.333-21.333 21.333h-234.667c-11.782 0-21.333-9.551-21.333-21.333s9.551-21.333 21.333-21.333zM384 576h234.667c11.782 0 21.333 9.551 21.333 21.333s-9.551 21.333-21.333 21.333h-234.667c-11.782 0-21.333-9.551-21.333-21.333s9.551-21.333 21.333-21.333zM384 448h234.667c11.782 0 21.333 9.551 21.333 21.333s-9.551 21.333-21.333 21.333h-234.667c-11.782 0-21.333-9.551-21.333-21.333s9.551-21.333 21.333-21.333zM384 320h234.667c11.782 0 21.333 9.551 21.333 21.333s-9.551 21.333-21.333 21.333h-234.667c-11.782 0-21.333-9.551-21.333-21.333s9.551-21.333 21.333-21.333zM810.667 832h169.318c-6.963 53.134-40.214 85.333-83.984 85.333-47.167 0-85.333-38.177-85.333-85.333zM512 85.333c0 41.787 17.159 79.563 44.817 106.667h-407.484c-58.917 0-106.667-47.75-106.667-106.667s47.75-106.667 106.667-106.667h407.484c-27.658 27.103-44.817 64.879-44.817 106.667zM661.333-64h-512c-82.481 0-149.333 66.853-149.333 149.333s66.853 149.333 149.333 149.333h512c28.444 0 28.444-42.667 0-42.667-58.917 0-106.667-47.75-106.667-106.667s47.75-106.667 106.667-106.667c58.89 0 106.667 47.766 106.667 106.667v746.667c0 70.718 57.266 128 128 128 74.232 0 128-61.179 128-149.333 0-11.782-9.551-21.333-21.333-21.333h-192v-704c0-82.467-66.882-149.333-149.333-149.333zM256 276.909v533.758c0 58.917 47.75 106.667 106.667 106.667h438.465c4.158 4.801 10.771 9.761 15.163 14.194 5.361 5.411 85.562 28.473 79.706 28.473h-533.333c-82.481 0-149.333-66.853-149.333-149.333v-533.758h42.667z" />
<glyph unicode="&#xe931;" glyph-name="company" d="M172.729-20.577v403.704c0 12.273-9.933 22.222-22.187 22.222s-22.187-9.949-22.187-22.222v-425.926c0-12.273 9.933-22.222 22.187-22.222h722.916c12.253 0 22.187 9.949 22.187 22.222v404.63c0 12.273-9.933 22.222-22.187 22.222s-22.187-9.949-22.187-22.222v-382.407h-678.542zM985.343 388.71c8.664-8.678 22.712-8.678 31.377 0s8.664 22.749 0 31.427l-489.031 489.815c-8.664 8.678-22.712 8.678-31.377 0l-489.031-489.815c-8.664-8.678-8.664-22.749 0-31.427s22.712-8.678 31.377 0l473.343 474.101 473.343-474.101zM808.747 702.571c0-12.273 9.933-22.222 22.187-22.222s22.187 9.949 22.187 22.222v149.074c0 12.273-9.933 22.222-22.187 22.222h-148.836c-12.253 0-22.187-9.949-22.187-22.222s9.933-22.222 22.187-22.222h126.649v-126.852zM423.253 271.111c0-49.104 39.739-88.889 88.747-88.889s88.747 39.785 88.747 88.889c0 49.042-39.765 88.889-88.747 88.889-24.505 0-44.373 19.891-44.373 44.444 0 24.5 19.903 44.444 44.373 44.444s44.373-19.944 44.373-44.444c0-12.273 9.933-22.222 22.187-22.222s22.187 9.949 22.187 22.222c0 49.042-39.765 88.889-88.747 88.889s-88.747-39.847-88.747-88.889c0-49.104 39.739-88.889 88.747-88.889 24.47 0 44.373-19.944 44.373-44.444 0-24.554-19.868-44.444-44.373-44.444s-44.373 19.891-44.373 44.444c0 12.273-9.933 22.222-22.187 22.222s-22.187-9.949-22.187-22.222zM489.813 204.444v-44.444c0-12.273 9.933-22.222 22.187-22.222s22.187 9.949 22.187 22.222v44.444c0 12.273-9.933 22.222-22.187 22.222s-22.187-9.949-22.187-22.222zM489.813 515.556v-44.444c0-12.273 9.933-22.222 22.187-22.222s22.187 9.949 22.187 22.222v44.444c0 12.273-9.933 22.222-22.187 22.222s-22.187-9.949-22.187-22.222z" />
<glyph unicode="&#xe932;" glyph-name="country" d="M512-21.333c259.206 0 469.333 210.128 469.333 469.333s-210.128 469.333-469.333 469.333c-259.206 0-469.333-210.128-469.333-469.333s210.128-469.333 469.333-469.333zM512-64c-282.77 0-512 229.23-512 512s229.23 512 512 512c282.77 0 512-229.23 512-512s-229.23-512-512-512zM644.506 624.737c-15.51-7.050-29.048-15.421-37.73-23.189-6.032-5.397-10.088-10.495-11.921-17.329-4.729-17.628 8.823-29.57 23.813-29.57-4.679 0-4.255-0.378-2.424-3.307 3.695-5.913 7.738-14.734 11.782-25.517 3.292-8.78 6.384-18.291 9.162-27.816 1.667-5.715 2.847-10.12 3.45-12.534 0.938-3.751 2.877-7.177 5.611-9.911 10.962-10.962 25.266-15.73 41.159-15.73 9.485 0 19.069 1.67 28.57 4.495 1.074-7.97-2.384-18.199-10.872-31.925-7.393-11.955-17.83-24.933-32.047-40.414-35.641-35.187-54.392-55.604-54.392-72.008 0-14.49 6.429-23.108 19.861-34.96 1.672-1.467 1.672-1.467 3.242-2.831 6.181-5.382 8.449-7.9 8.69-8.614-0.397 1.176-0.33 1.371-4.211-2.51-12.524-12.524-25.933-22.357-39.275-29.77-7.782-4.323-13.58-6.808-16.386-7.743-8.711-2.904-14.587-11.056-14.587-20.239 0-42.245-18.509-65.416-51.657-77.202-17.896-6.363-34.611-8.132-55.010-8.132 1.976 0-10.54 14.9-21.351 34.36-11.899 21.418-21.315 45.321-21.315 50.973 0 4.32 1.966 9.562 8.414 22.459 9.551 19.103 12.919 28.083 12.919 41.541 0 11.926-5.353 23.97-14.645 37.908-3.333 4.999-7.149 10.151-11.363 15.419-5.954 7.443-11.868 14.152-16.882 19.514-1.871 36.029-15.502 59.685-41.188 71.041-19.103 8.446-35.032 9.025-77.436 6.602-14.752-0.843-22.080-1.15-30.487-1.15-17.919 0-28.864 9.729-36.025 28.824-4.929 13.145-6.642 26.843-6.642 35.176 0 4.558 0.472 13.141 1.908 24.348 2.4 18.719 6.71 37.396 13.323 54.589 14.939 38.843 38.866 63.726 74.286 70.81 48.124 9.625 72.596 6.129 80.571-1.846 0.578-4.226 2.826-9.653 6.827-13.653 24.922-24.922 58.593-29.514 103.925-21.958 9.739 1.623 19.121 3.596 32.895 6.775 32.89 7.59 39.765 8.935 48.931 8.935 10.617 0 19.618 7.807 21.119 18.316 0.709 4.961 1.747 13.351 2.78 23.946 1.456 14.924 2.43 29.744 2.696 43.708 0.445 23.352-1.073 42.327-5.46 56.427-7.696 24.738-27.527 38.259-52.009 26.018-30.732-15.366-51.664-5.341-54.552 25.57-1.443 15.543 27.88 37.611 79.374 57.275 19.606 7.487 40.751 14.092 61.914 19.721 11.568 3.077 19.108 5.387 24.152 6.405 0.491 0.099-18.628 4.772-28.939 7.461s-29.957 6.799-29.957 6.799l-26.279 3.418c-71.327-26.526-126.791-61.489-122.749-105.036 5.569-59.594 55.257-85.773 109.052-63.034 2.167-8.935 3.121-22.959 2.793-40.211-0.242-12.729-1.146-26.48-2.502-40.378-0.179-1.834-0.358-3.596-0.534-5.276-8.312-1.378-19.611-3.918-39.425-8.49-12.986-2.997-21.642-4.817-30.315-6.262-29.578-4.93-49.486-3.161-62.442 6.351-1.952 5.728-5.487 11.705-11.126 17.345-20.185 20.185-58.433 25.649-119.109 13.514-51.68-10.336-86.015-46.044-105.741-97.332-7.959-20.693-13.016-42.608-15.82-64.48-1.686-13.147-2.255-23.508-2.255-29.774 0-13 2.288-31.303 9.358-50.157 12.839-34.239 37.894-56.509 75.975-56.509 9.47 0 17.38 0.332 32.921 1.22 34.654 1.98 47.476 1.514 57.749-3.028 10.494-4.639 15.997-15.338 15.997-40.859 0-5.658 2.248-11.084 6.248-15.085 4.824-4.824 12.335-12.96 19.76-22.242 3.489-4.362 6.586-8.543 9.18-12.433 4.93-7.395 7.479-13.13 7.479-14.24 0-4.32-1.966-9.562-8.414-22.459-9.551-19.103-12.919-28.083-12.919-41.541 0-35.815 51.214-128 85.333-128 24.901 0 45.684 2.199 69.303 10.597 45.264 16.094 74.883 49.857 79.421 102.81 17.069 8.011 37.774 21.587 58.361 42.174 14.393 14.393 19.872 30.295 14.471 46.312-3.574 10.6-8.997 16.619-21.101 27.159-1.586 1.379-1.586 1.379-3.032 2.647-4.404 3.886-5.423 5.252-5.423 2.966 0-3.934 3.865 1.489 9.62 7.755 3.582 3.9 26.446 27.678 33.531 35.393 15.88 17.292 27.833 32.155 36.909 46.832 22.317 36.086 25.183 69.613-0.975 95.771-6.493 6.493-16.412 8.103-24.626 3.996-1.529-0.765-4.776-2.156-9.057-3.583-6.891-2.297-13.636-3.646-19.328-3.646-3.074 0-5.519 0.369-7.44 1.065-0.534 1.922-1.142 4.063-1.821 6.39-3.055 10.475-6.464 20.964-10.172 30.851-6.123 16.328-11.939 29.274-18.534 38.632 3.845 2.178 8.14 4.374 12.72 6.456 32.156 14.616 68.348 20.137 100.665 12.058 4.94-1.235 10.16-0.662 14.715 1.615 34.027 17.014 60.986 44.97 81.854 80.519 12.118 20.644 24.246 54.633 24.246 54.633l-3.232 4.51-8.536 10.282-6.861 7.855-6.747 7.469c0 0-25.299-45.49-35.665-63.149-15.564-26.514-34.729-47.262-57.705-60.497-40.269 7.883-82.702 0.678-120.388-16.452z" />
<glyph unicode="&#xe933;" glyph-name="crm-link" d="M512.051 230.779l-162.97-162.918c-49.968-50.011-131.033-50.011-181.041-0.003l-36.198 36.198c-49.958 49.958-49.958 131.029 0 180.987l235.366 235.366c50.009 50.009 131.029 50.009 181.038 0l36.186-36.237c9.99-10.004 26.199-10.016 36.204-0.026s10.016 26.199 0.026 36.204l-36.198 36.25c-70.017 70.017-183.454 70.017-253.458 0.013l-235.366-235.366c-69.953-69.953-69.953-183.442 0-253.394l36.198-36.198c70.005-70.005 183.5-70.005 253.453 0.008l162.959 162.908c9.999 9.996 10.002 26.205 0.006 36.204s-26.205 10.002-36.204 0.006zM512.051 665.272l162.918 162.867c50.006 49.963 130.986 49.963 180.997-0.005l36.191-36.191c50.008-49.965 50.008-131.030 0-181.038l-235.313-235.262c-50.016-50.058-131.018-50.058-180.973-0.017-9.989 10.006-26.198 10.020-36.204 0.031s-10.020-26.198-0.031-36.204c69.955-70.074 183.411-70.074 253.417-0.008l235.306 235.254c70.007 70.007 70.007 183.502-0.006 253.455l-36.191 36.191c-70.010 69.95-183.384 69.95-253.387 0.008l-162.923-162.872c-9.999-9.996-10.002-26.205-0.006-36.204s26.205-10.002 36.204-0.006z" />
<glyph unicode="&#xe934;" glyph-name="employees" d="M0 469.333v128c0 11.782 9.551 21.333 21.333 21.333h213.333c11.782 0 21.333-9.551 21.333-21.333v-128.026c-0.053-43.851-12.093-73.627-42.667-82.525v-173.449c0-11.782-9.551-21.333-21.333-21.333h-128c-11.782 0-21.333 9.551-21.333 21.333v173.443c-30.62 8.894-42.667 38.683-42.667 82.557zM42.667 469.333c0-32.471 5.508-42.667 21.333-42.667 11.782 0 21.333-9.551 21.333-21.333v-170.667h85.333v170.667c0 11.782 9.551 21.333 21.333 21.333 15.774 0 21.294 10.222 21.333 42.667v106.667h-170.667v-106.667zM768 469.333v128c0 11.782 9.551 21.333 21.333 21.333h213.333c11.782 0 21.333-9.551 21.333-21.333v-128.026c-0.053-43.851-12.093-73.627-42.667-82.525v-173.449c0-11.782-9.551-21.333-21.333-21.333h-128c-11.782 0-21.333 9.551-21.333 21.333v173.443c-30.62 8.894-42.667 38.683-42.667 82.557zM810.667 469.333c0-32.471 5.508-42.667 21.333-42.667 11.782 0 21.333-9.551 21.333-21.333v-170.667h85.333v170.667c0 11.782 9.551 21.333 21.333 21.333 15.774 0 21.294 10.222 21.333 42.667v106.667h-170.667v-106.667zM384 384c0-35.168 28.822-64 64-64 11.782 0 21.333-9.551 21.333-21.333v-234.667h85.333v234.667c0 11.782 9.551 21.333 21.333 21.333 35.151 0 64 28.849 64 64v192h-256v-192zM341.333 384v213.333c0 11.782 9.551 21.333 21.333 21.333h298.667c11.782 0 21.333-9.551 21.333-21.333v-213.333c0-51.414-36.767-94.575-85.333-104.514v-236.82c0-11.782-9.551-21.333-21.333-21.333h-128c-11.782 0-21.333 9.551-21.333 21.333v236.817c-48.585 9.934-85.333 53.088-85.333 104.516zM170.667 746.667c0 23.546-19.121 42.667-42.667 42.667s-42.667-19.121-42.667-42.667c0-23.546 19.121-42.667 42.667-42.667s42.667 19.121 42.667 42.667zM213.333 746.667c0-47.11-38.223-85.333-85.333-85.333s-85.333 38.223-85.333 85.333c0 47.11 38.223 85.333 85.333 85.333s85.333-38.223 85.333-85.333zM938.667 746.667c0 23.546-19.121 42.667-42.667 42.667s-42.667-19.121-42.667-42.667c0-23.546 19.121-42.667 42.667-42.667s42.667 19.121 42.667 42.667zM981.333 746.667c0-47.11-38.223-85.333-85.333-85.333s-85.333 38.223-85.333 85.333c0 47.11 38.223 85.333 85.333 85.333s85.333-38.223 85.333-85.333zM597.333 789.333c0 47.141-38.193 85.333-85.333 85.333s-85.333-38.193-85.333-85.333c0-47.141 38.193-85.333 85.333-85.333s85.333 38.193 85.333 85.333zM640 789.333c0-70.705-57.295-128-128-128s-128 57.295-128 128c0 70.705 57.295 128 128 128s128-57.295 128-128z" />
<glyph unicode="&#xe935;" glyph-name="job-role" d="M981.333 85.333v597.333c0 11.685-9.649 21.333-21.333 21.333h-896c-11.685 0-21.333-9.649-21.333-21.333v-597.333c0-11.66 9.667-21.333 21.333-21.333h896c11.667 0 21.333 9.673 21.333 21.333zM640 789.333h-256v-42.667h256v42.667zM640 832v42.667h-256v-42.667h256zM341.333 746.667v128c0 23.542 19.178 42.667 42.667 42.667h256c23.524 0 42.667-19.117 42.667-42.667v-128h277.333c35.249 0 64-28.751 64-64v-597.333c0-35.217-28.763-64-64-64h-896c-35.237 0-64 28.783-64 64v597.333c0 35.249 28.751 64 64 64h277.333zM128 533.333h768v42.667h-768zM128 362.667h768v42.667h-768zM128 192h768v42.667h-768z" />
<glyph unicode="&#xe936;" glyph-name="map-pin" d="M549.441 63.115c35.84 57.567 71.678 117.772 105.106 177.62 17.984 32.198 34.797 63.468 50.225 93.539 64.191 125.118 100.775 222.446 100.775 277.566 0 158.346-128.374 286.72-286.72 286.72-158.372 0-286.72-128.36-286.72-286.72 0-55.121 36.583-152.448 100.775-277.566 15.428-30.071 32.241-61.341 50.225-93.539 33.427-59.848 69.266-120.053 105.106-177.62 10.957-17.6 21.229-33.846 30.614-48.491 9.386 14.645 19.657 30.892 30.614 48.491zM846.507 611.84c0-63.932-38.106-165.309-105.291-296.263-15.659-30.522-32.699-62.213-50.909-94.815-33.773-60.466-69.934-121.214-106.094-179.295-12.656-20.329-24.411-38.876-34.965-55.273-6.345-9.857-10.889-16.821-13.332-20.52-8.096-12.258-26.083-12.258-34.179 0-2.443 3.699-6.987 10.663-13.332 20.52-10.554 16.397-22.309 34.944-34.965 55.273-36.16 58.081-72.322 118.829-106.094 179.295-18.209 32.602-35.249 64.293-50.909 94.815-67.186 130.955-105.291 232.331-105.291 296.263 0 180.981 146.686 327.68 327.68 327.68 180.967 0 327.68-146.713 327.68-327.68zM621.227 611.84c0 56.519-45.881 102.4-102.4 102.4-56.545 0-102.4-45.866-102.4-102.4 0-56.56 45.84-102.4 102.4-102.4 56.534 0 102.4 45.855 102.4 102.4zM662.187 611.84c0-79.168-64.206-143.36-143.36-143.36-79.182 0-143.36 64.178-143.36 143.36 0 79.154 64.192 143.36 143.36 143.36 79.141 0 143.36-64.219 143.36-143.36z" />
<glyph unicode="&#xe937;" glyph-name="share" d="M363.577 533.796c-32.301 64.553-98.174 106.208-171.569 106.208-106.033 0-192-85.967-192-192s85.967-192 192-192c73.395 0 139.268 41.656 171.569 106.208l-38.156 19.093c-25.147-50.256-76.35-82.634-133.412-82.634-82.469 0-149.333 66.865-149.333 149.333s66.865 149.333 149.333 149.333c57.063 0 108.265-32.378 133.412-82.634l38.156 19.093zM832 576c106.033 0 192 85.967 192 192s-85.967 192-192 192c-106.033 0-192-85.967-192-192 0-29.998 7.070-59.105 20.378-85.772l38.176 19.053c-10.399 20.836-15.888 43.437-15.888 66.719 0 82.469 66.865 149.333 149.333 149.333s149.333-66.865 149.333-149.333c0-82.469-66.865-149.333-149.333-149.333v-42.667zM660.386 213.807c-63.805-127.322 28.935-277.803 171.606-277.803 106.033 0 192 85.967 192 192s-85.967 192-192 192v-42.667c82.469 0 149.333-66.865 149.333-149.333s-66.865-149.333-149.333-149.333c-110.917 0-183.056 117.054-133.461 216.021l-38.145 19.116zM372.088 381.806c7.822 21.083 11.912 43.376 11.912 66.194 0 22.842-4.089 45.158-11.899 66.2l298.894 149.466c34.902-53.88 94.905-87.666 161.005-87.666v42.667c-57.059 0-108.268 32.376-133.461 82.646-5.276 10.527-18.082 14.789-28.614 9.523l-334.976-167.509c-10.554-5.278-14.819-18.121-9.518-28.664 10.399-20.683 15.902-43.311 15.902-66.662 0-23.298-5.497-45.89-15.917-66.691-5.279-10.539-1.011-23.363 9.533-28.635l334.976-167.509c10.532-5.266 23.338-1.004 28.614 9.523 25.193 50.27 76.401 82.646 133.461 82.646v42.667c-66.1 0-126.103-33.787-161.005-87.666l-298.907 149.473z" />
<glyph unicode="&#xe938;" glyph-name="tags" d="M374.819 917.35h-332.132l0.313-332.232 597.641-597.599 331.86 331.821-597.681 598.011zM1017.751 304.249l-362.027-361.984c-8.331-8.33-21.838-8.33-30.168 0l-618.965 618.923c-3.996 3.996-6.244 9.414-6.249 15.065l-0.341 362.411c-0.011 11.79 9.543 21.353 21.333 21.353h362.325c5.66 0 11.088-2.249 15.089-6.253l619.008-619.349c8.328-8.332 8.325-21.837-0.005-30.167zM298.667 725.333c0 35.322-28.678 64-64 64s-64-28.678-64-64c0-35.322 28.678-64 64-64s64 28.678 64 64zM341.333 725.333c0-58.886-47.781-106.667-106.667-106.667s-106.667 47.781-106.667 106.667c0 58.886 47.781 106.667 106.667 106.667s106.667-47.781 106.667-106.667z" />
<glyph unicode="&#xe939;" glyph-name="twitter" d="M79.606 587.595l-4.229 2.129c1.401-0.729 2.811-1.438 4.229-2.129zM471.159 629.433c-0.552 7.040-0.889 14.167-0.889 21.349 0 121.344 98.412 219.786 219.786 219.786 57.224 0 111.138-22.083 151.561-60.567 37.978 8.743 74.216 23.305 107.565 43.094 17.229 10.224 37.962-6.269 31.875-25.356 0.006 0.020-7.529-24.129-9.539-30.054-5.944-17.515-12.125-29.997-21.389-40.96 12.655 0.189 25.88 3.591 40.82 10.253 19.95 8.897 39.123-13.831 26.992-31.997-18.203-27.259-41.193-46.928-83.5-75.992-2.55-1.752-15.985-10.921-19.716-13.493-1.543-1.064-3.011-2.080-4.418-3.060 0.1-4.63 0.146-9.454 0.146-14.617 0-311.021-241.585-585.151-585.064-585.151-113.218 0-221.708 32.394-315.291 92.378-19.458 12.472-8.662 42.671 14.293 39.981 81.343-9.533 162.453 7.028 232.508 47.344-69.139 20.249-125.138 73.696-147.64 143.844-4.276 13.33 4.845 26.42 17.599 28.241-53.818 40.38-88.053 104.658-88.053 175.977 0.038 2.87 0.038 2.87 0.074 3.629 0.846 16.080 18.243 25.718 32.324 17.907 1.383-0.767 2.775-1.515 4.176-2.244-20.823 33.953-34.961 77.406-34.961 123.237 0 39.316 10.393 77.216 29.797 110.566 7.656 13.158 26.103 14.608 35.72 2.806 90.667-111.261 221.36-182.472 365.226-196.901zM893.103 726.842c-15.477 7.632-16.36 29.372-1.553 38.234 7.275 4.354 12.975 8.321 17.494 12.127 4.804 4.045 8.42 7.943 11.516 12.726-26.226-11.085-53.61-19.513-81.781-25.092-7.375-1.461-14.983 0.984-20.126 6.469-33.059 35.255-79.267 55.688-128.598 55.688-97.306 0-176.212-78.93-176.212-176.212 0-13.789 1.53-27.262 4.535-40.22 3.269-14.097-7.859-27.405-22.312-26.682-155.36 7.774-298.601 76.655-401.586 189.092-6.891-19.028-10.491-39.259-10.491-60.011 0-59.619 29.796-114.169 78.428-146.684 18.211-12.175 9.084-40.593-12.811-39.887-22.121 0.713-43.733 4.722-64.267 11.773 12.986-69.899 67.4-126.259 138.414-140.537 22.537-4.531 23.603-36.355 1.419-42.384-19.764-5.371-40.14-7.946-60.54-7.69 29.994-53.725 86.864-89.231 150.745-90.42 20.496-0.381 29.169-26.282 13.036-38.929-63.768-49.991-139.295-79.725-218.134-87.39 67.138-29.175 139.977-44.573 215.106-44.573 318.102 0 541.49 253.482 541.49 541.578 0 9.136-0.151 17.033-0.5 24.622-0.337 7.345 3.053 14.365 9.016 18.667 4.398 3.173 9.060 6.445 14.602 10.265 3.833 2.642 17.306 11.837 19.771 13.531 9.992 6.865 18.723 13.092 26.422 18.932-14.445 1.59-28.7 5.913-43.086 13.007z" />
<glyph unicode="&#xe93a;" glyph-name="value" d="M981.083 440.917c0 258.674-209.705 468.406-468.406 468.406-258.643 0-468.406-209.763-468.406-468.406 0-258.701 209.731-468.406 468.406-468.406 258.732 0 468.406 209.674 468.406 468.406zM1023.749 440.917c0-282.296-228.776-511.072-511.072-511.072-282.237 0-511.072 228.806-511.072 511.072 0 282.207 228.865 511.072 511.072 511.072 282.266 0 511.072-228.835 511.072-511.072zM380.039 329.612c0-73.267 59.371-132.638 132.638-132.638s132.638 59.371 132.638 132.638c0 73.236-59.385 132.638-132.638 132.638-49.702 0-89.971 40.269-89.971 89.971 0 49.675 40.285 89.971 89.971 89.971s89.971-40.296 89.971-89.971c0-11.782 9.551-21.333 21.333-21.333s21.333 9.551 21.333 21.333c0 73.236-59.385 132.638-132.638 132.638s-132.638-59.402-132.638-132.638c0-73.267 59.371-132.638 132.638-132.638 49.686 0 89.971-40.296 89.971-89.971 0-49.702-40.269-89.971-89.971-89.971s-89.971 40.269-89.971 89.971c0 11.782-9.551 21.333-21.333 21.333s-21.333-9.551-21.333-21.333zM491.343 730.308v-578.783c0-11.782 9.551-21.333 21.333-21.333s21.333 9.551 21.333 21.333v578.783c0 11.782-9.551 21.333-21.333 21.333s-21.333-9.551-21.333-21.333z" />
<glyph unicode="&#xe93b;" glyph-name="customer-feedback-portal" d="M106.307 170.72l69.21 155.722-12.867 10.281c-78.183 62.465-119.983 145.449-119.983 239.333 0 187.439 188.61 341.333 423.168 341.333 235.966 0 430.165-155.082 430.165-341.333 0-20.443-2.276-40.63-6.774-60.59-2.59-11.494 4.628-22.911 16.122-25.501s22.911 4.628 25.501 16.122c5.187 23.019 7.818 46.351 7.818 69.97 0 212.191-215.145 384-472.832 384-256.426 0-465.835-170.865-465.835-384 0-101.871 43.309-192.872 123.285-262.081l-101.593-228.583 278.601 126.637c34.856-9.7 78.93-16.078 125.146-18.742 11.763-0.678 21.848 8.308 22.526 20.070s-8.308 21.848-20.070 22.526c-46.638 2.688-90.712 9.377-122.992 19.242l-7.717 2.358-190.878-86.763zM957.412 304.958c8.331 8.331 8.331 21.839 0 30.17l-46.327 46.327c-8.331 8.331-21.839 8.331-30.17 0l-285.884-285.884-27.036-100.384 103.812 24.166 285.605 285.605zM508.265-62.525l48.533 180.203 293.947 293.947c24.994 24.994 65.516 24.994 90.51 0l46.327-46.327c24.994-24.994 24.994-65.516 0-90.51l-294.226-294.226-185.091-43.087zM795.582 326.291l106.667-106.667 30.17 30.17-106.667 106.667zM560.83 91.539l106.667-106.667c8.331-8.331 21.839-8.331 30.17 0s8.331 21.839 0 30.17l-106.667 106.667c-8.331 8.331-21.839 8.331-30.17 0s-8.331-21.839 0-30.17z" />
<glyph unicode="&#xe93c;" glyph-name="external-link" d="M916.992 285.584v-138.16c-0.128-108.704-88.512-197.088-197.216-197.216h-508.352c-108.704 0.128-197.088 88.512-197.216 197.216v508.352c0.128 108.704 88.512 197.088 197.216 197.216h138.16c19.216 0 34.8-15.584 34.8-34.8s-15.584-34.8-34.8-34.8h-138.16c-69.952-0.128-127.488-57.664-127.616-127.616v-508.352c0.128-69.952 57.664-127.488 127.616-127.6h508.352c69.952 0.128 127.488 57.664 127.616 127.6v138.16c0 19.216 15.584 34.8 34.8 34.8s34.8-15.584 34.8-34.8zM1009.792 910.992l-10.192 24.608-24.608 10.192h-279.872c-19.232 0-34.8-15.584-34.8-34.8s15.584-34.8 34.8-34.8h195.84l-344.336-344.352c-13.584-13.584-13.584-35.632 0-49.216s35.632-13.584 49.216 0l344.336 344.336v-195.856c0-19.216 15.584-34.8 34.8-34.8s34.8 15.584 34.8 34.8l0.016 279.888z" />
<glyph unicode="&#xe93d;" glyph-name="help-question-mark" horiz-adv-x="512" d="M503.838 626.087c0 136.816-111.022 247.838-247.838 247.838-136.865 0-247.838-110.999-247.838-247.838 0-18.851 15.282-34.133 34.133-34.133s34.133 15.282 34.133 34.133c0 99.14 80.413 179.571 179.571 179.571 99.113 0 179.571-80.458 179.571-179.571 0-99.203-80.405-179.571-179.571-179.571-18.851 0-34.133-15.282-34.133-34.133v-213.704c0-18.851 15.282-34.133 34.133-34.133s34.133 15.282 34.133 34.133v181.902c120.714 16.626 213.704 120.178 213.704 245.507zM508.958 626.087c0-126.753-93.745-233.447-213.704-245.507v-181.902c0-21.679-17.574-39.253-39.253-39.253s-39.253 17.574-39.253 39.253v213.704c0 21.679 17.574 39.253 39.253 39.253 96.351 0 174.451 78.088 174.451 174.451 0 96.286-78.165 174.451-174.451 174.451-96.324 0-174.451-78.132-174.451-174.451 0-21.679-17.574-39.253-39.253-39.253s-39.253 17.574-39.253 39.253c0 139.675 113.274 252.958 252.958 252.958 139.644 0 252.958-113.314 252.958-252.958zM498.718 626.087c0 133.988-108.729 242.718-242.718 242.718-134.028 0-242.718-108.698-242.718-242.718 0-16.024 12.99-29.013 29.013-29.013s29.013 12.99 29.013 29.013c0 101.974 82.711 184.691 184.691 184.691 101.941 0 184.691-82.75 184.691-184.691 0-102.018-82.684-184.691-184.691-184.691-16.024 0-29.013-12.99-29.013-29.013v-213.704c0-16.024 12.99-29.013 29.013-29.013s29.013 12.99 29.013 29.013l4.421 186.974c119.33 16.436 209.283 118.814 209.283 240.435zM257.484 20.591c0-0.809-0.675-1.484-1.484-1.484s-1.484 0.675-1.484 1.484c0 0.809 0.675 1.484 1.484 1.484s1.484-0.675 1.484-1.484zM325.751 20.591c0 38.512-31.239 69.751-69.751 69.751s-69.751-31.239-69.751-69.751c0-38.512 31.239-69.751 69.751-69.751s69.751 31.239 69.751 69.751z" />
<glyph unicode="&#xe93e;" d="M104.6 39.843l226.494 105.416c4.773 2.221 10.198 2.6 15.233 1.062 52.532-16.044 108.381-24.371 165.672-24.371 260.054 0 469.333 170.775 469.333 379.008 0 208.261-209.261 379.008-469.333 379.008s-469.333-170.747-469.333-379.008c0-102.261 50.49-198.287 139.189-269.204 7.864-6.287 10.261-17.216 5.752-26.218l-83.007-165.693zM0 500.958c0 233.957 230.059 421.675 512 421.675s512-187.718 512-421.675c0-233.928-230.077-421.675-512-421.675-58.657 0-115.985 8.141-170.237 23.88l-274.65-127.829c-18.321-8.527-37.127 10.828-28.076 28.896l102.831 205.264c-90.193 77.598-141.869 180.972-141.869 291.463z" />
<glyph unicode="&#xe93f;" d="M298.667 495.957c0 23.572-19.104 42.667-42.667 42.667s-42.667-19.095-42.667-42.667c0-23.546 19.121-42.667 42.667-42.667s42.667 19.121 42.667 42.667z" />
<glyph unicode="&#xe940;" d="M554.667 495.957c0 23.572-19.104 42.667-42.667 42.667s-42.667-19.095-42.667-42.667c0-23.546 19.121-42.667 42.667-42.667s42.667 19.121 42.667 42.667z" />
<glyph unicode="&#xe941;" d="M810.667 495.957c0 23.572-19.104 42.667-42.667 42.667s-42.667-19.095-42.667-42.667c0-23.546 19.121-42.667 42.667-42.667s42.667 19.121 42.667 42.667z" />
<glyph unicode="&#xe942;" d="M124.052 1015.552l-181.032-181.032 999.872-999.872 181.032 181.032-999.872 999.872z" />
<glyph unicode="&#xe943;" d="M28.801 969.119l-37.685-37.685 999.872-999.872 37.685 37.685-999.872 999.872z" />
<glyph unicode="&#xe944;" glyph-name="discussions" d="M104.6 39.843l226.494 105.416c4.773 2.221 10.198 2.6 15.233 1.062 52.532-16.044 108.381-24.371 165.672-24.371 260.054 0 469.333 170.775 469.333 379.008 0 208.261-209.261 379.008-469.333 379.008s-469.333-170.747-469.333-379.008c0-102.261 50.49-198.287 139.189-269.204 7.864-6.287 10.261-17.216 5.752-26.218l-83.007-165.693zM0 500.958c0 233.957 230.059 421.675 512 421.675s512-187.718 512-421.675c0-233.928-230.077-421.675-512-421.675-58.657 0-115.985 8.141-170.237 23.88l-274.65-127.829c-18.321-8.527-37.127 10.828-28.076 28.896l102.831 205.264c-90.193 77.598-141.869 180.972-141.869 291.463zM298.667 495.957c0 23.572-19.104 42.667-42.667 42.667s-42.667-19.095-42.667-42.667c0-23.546 19.121-42.667 42.667-42.667s42.667 19.121 42.667 42.667zM554.667 495.957c0 23.572-19.104 42.667-42.667 42.667s-42.667-19.095-42.667-42.667c0-23.546 19.121-42.667 42.667-42.667s42.667 19.121 42.667 42.667zM810.667 495.957c0 23.572-19.104 42.667-42.667 42.667s-42.667-19.095-42.667-42.667c0-23.546 19.121-42.667 42.667-42.667s42.667 19.121 42.667 42.667z" />
</font>
</defs>
</svg>
