<?xml version="1.0" encoding="UTF-8"?>
<svg width="80px" height="80px" viewBox="0 0 80 80" version="1.1" xmlns="http://www.w3.org/2000/svg" xmlns:xlink="http://www.w3.org/1999/xlink">
    <!-- Generator: Sketch 42 (36781) - http://www.bohemiancoding.com/sketch -->
    <title>Artboard</title>
    <desc>Created with Sketch.</desc>
    <defs>
        <path d="M58.428427,77.5757576 L38.9542323,77.5757576 L38.9542323,77.5757576 L0.00584269664,77.5757576 L0.00584269586,62.1027498 C7.2606173,62.1231556 15.0501251,70.5734473 15.4881124,77.5757576 L70.6007116,77.5757576 C74.6323671,77.5757576 77.9026216,74.3207719 77.9026216,70.3138531 L77.9026216,7.36407976 C77.9026216,3.34650778 74.6323671,0.0968486361 70.6007116,0.0968486361 L7.30453932,0.0968486361 C3.37154059,0.0968486361 0.16063268,3.189412 0.00584269664,7.07055775 L0.00584269664,0.0968486361 L77.9026216,0.0968486361 L77.9026216,77.5757576 L58.428427,77.5757576 L0.00584269664,77.5757576 L0.00584269664,0.0929746907 L77.9123594,0.0929746907 L77.9123594,77.5757576 L58.428427,77.5757576 L58.428427,77.5757576 Z" id="path-1"></path>
        <path d="M59.9265918,79.5151515 L39.9530587,79.5151515 L39.9530587,79.5151515 L0.00599250937,79.5151515 L0.0059925093,43.8013459 C7.44991892,43.8168091 21.2763285,42.3171904 35.5054182,32.8526626 L35.5026217,32.8444234 C29.8577777,32.0083725 25.6842947,29.6770201 25.887141,27.3074487 C26.0350562,25.5344891 28.5780775,24.197225 32.228015,23.6742714 L59.6798002,18.2598951 L59.8141322,18.1210166 L59.7921597,18.2408353 L59.9100125,18.2163157 L59.778477,18.3579737 L55.583121,45.8576089 L55.5804245,45.8576089 C55.2214732,49.5017058 53.9938077,52.0890754 52.2236205,52.3205726 C49.8477902,52.6283092 47.3158552,48.5865371 46.2142322,43.0223628 L46.208739,43.0196824 C37.0372035,58.0835846 36.409688,72.3358565 36.8590262,79.5151515 L72.4109862,79.5151515 C76.5460175,79.5151515 79.9001248,76.1787912 79.9001248,72.0716994 L79.9001248,7.54818175 C79.9001248,3.43017048 76.5460175,0.099269852 72.4109862,0.099269852 L7.4918352,0.099269852 C3.45799035,0.099269852 0.164751466,3.2691473 0.00599250937,7.24732169 L0.00599250937,0.099269852 L79.9001248,0.099269852 L79.9001248,79.5151515 L59.9265918,79.5151515 L0.00599250937,79.5151515 L0.00599250937,0.0952990579 L79.9101122,0.0952990579 L79.9101122,79.5151515 L59.9265918,79.5151515 L59.9265918,79.5151515 Z" id="path-3"></path>
        <path d="M0.00599250938,3.47953972 C16.067952,3.03323221 23.8458325,0.407749848 24.968789,0 C24.6099376,1.136342 22.3117103,8.99563546 22.5992509,25.0160026 L7.48923845,25.0160026 C3.45677632,25.0160026 0.164723204,21.8468159 0.00599250938,17.8858395 L0.00599250938,3.47953974 L0.00599250938,3.47953972 L0.00599250938,3.47953972 Z" id="path-5"></path>
    </defs>
    <g id="Page-1" stroke="none" stroke-width="1" fill="none" fill-rule="evenodd">
        <g id="Artboard">
            <g id="Group-3">
                <g id="Fill-1-Clipped">
                    <mask id="mask-2" fill="white">
                        <use xlink:href="#path-1"></use>
                    </mask>
                    <g id="path-1"></g>
                    <polygon id="Fill-1" fill="#FFFFFF" fill-rule="nonzero" mask="url(#mask-2)" points="0.00584269664 77.5757576 77.9123594 77.5757576 77.9123594 0.0929746907 0.00584269664 0.0929746907"></polygon>
                </g>
            </g>
            <g id="Group">
                <g id="Group-6">
                    <g id="Fill-4-Clipped">
                        <mask id="mask-4" fill="white">
                            <use xlink:href="#path-3"></use>
                        </mask>
                        <g id="path-3"></g>
                        <polygon id="Fill-4" fill="#25A7D9" fill-rule="nonzero" mask="url(#mask-4)" points="0.00599250937 79.5151515 79.9101122 79.5151515 79.9101122 0.0952990579 0.00599250937 0.0952990579"></polygon>
                    </g>
                </g>
                <g id="Group-9" transform="translate(0.000000, 54.499148)">
                    <g id="Fill-7-Clipped">
                        <mask id="mask-6" fill="white">
                            <use xlink:href="#path-5"></use>
                        </mask>
                        <g id="path-5"></g>
                        <polygon id="Fill-7" fill="#19A8D9" fill-rule="nonzero" mask="url(#mask-6)" points="0.00599250938 25.0160026 24.9707865 25.0160026 24.9707865 0 0.00599250938 0"></polygon>
                    </g>
                </g>
            </g>
        </g>
    </g>
</svg>