<?xml version="1.0" encoding="UTF-8"?>
<svg width="12px" height="8px" viewBox="0 0 12 8" version="1.1" xmlns="http://www.w3.org/2000/svg" xmlns:xlink="http://www.w3.org/1999/xlink">
<g id="Page-1" stroke="none" stroke-width="1" fill="none" fill-rule="evenodd">
        <g id="Footer" transform="translate(-290.000000, -415.000000)" fill-rule="nonzero" fill="#e6e6e6">
            <path d="M295.761725,421.109372 L296.510722,421.109372 L296.136223,420.686026 L295.761725,421.109372 Z M300.508077,415.743931 C300.772611,415.444893 301.229477,415.416921 301.528515,415.681456 C301.827554,415.94599 301.855525,416.402856 301.590991,416.701894 L296.67768,422.256071 C296.38997,422.58131 295.882477,422.58131 295.594766,422.256071 L290.681456,416.701894 C290.416921,416.402856 290.444893,415.94599 290.743931,415.681456 C291.04297,415.416921 291.499836,415.444893 291.76437,415.743931 L296.136223,420.686026 L300.508077,415.743931 Z M295.928684,421.593497 C296.038963,421.468834 296.233484,421.468834 296.343763,421.593497 L296.136223,421.358888 L295.928684,421.593497 Z" id="Stroke-562"></path>
        </g>
    </g>
</svg>