<?xml version="1.0" encoding="UTF-8"?>
<svg width="80px" height="80px" viewBox="0 0 80 80" version="1.1" xmlns="http://www.w3.org/2000/svg" xmlns:xlink="http://www.w3.org/1999/xlink">
    <!-- Generator: Sketch 43.2 (39069) - http://www.bohemiancoding.com/sketch -->
    <title>Group 5</title>
    <desc>Created with Sketch.</desc>
    <defs></defs>
    <g id="Page-1" stroke="none" stroke-width="1" fill="none" fill-rule="evenodd">
        <g id="resources" transform="translate(-680.000000, -548.000000)" fill-rule="nonzero" fill="#FFFFFF">
            <g id="Stroke-364-+-Stroke-365-+-Stroke-366" transform="translate(680.000000, 548.000000)">
                <g id="Group-5">
                    <path d="M76.5942029,40 C76.5942029,60.2099602 60.2099602,76.5942029 40,76.5942029 C19.7900398,76.5942029 3.4057971,60.2099602 3.4057971,40 C3.4057971,19.7900398 19.7900398,3.4057971 40,3.4057971 C60.2099602,3.4057971 76.5942029,19.7900398 76.5942029,40 Z M79.9275362,40 C79.9275362,17.9490906 62.0509094,0.0724637681 40,0.0724637681 C17.9490906,0.0724637681 0.0724637681,17.9490906 0.0724637681,40 C0.0724637681,62.0509094 17.9490906,79.9275362 40,79.9275362 C62.0509094,79.9275362 79.9275362,62.0509094 79.9275362,40 Z" id="Stroke-1384"></path>
                    <path d="M52.1014493,31.3043478 C52.1014493,24.6238732 46.6804746,19.2028986 40,19.2028986 C33.3171623,19.2028986 27.8985507,24.6227578 27.8985507,31.3043478 C27.8985507,32.2248224 28.6447428,32.9710145 29.5652174,32.9710145 C30.485692,32.9710145 31.2318841,32.2248224 31.2318841,31.3043478 C31.2318841,26.4635352 35.1582833,22.5362319 40,22.5362319 C44.8395254,22.5362319 48.7681159,26.4648224 48.7681159,31.3043478 C48.7681159,36.1482558 44.8421004,40.0724638 40,40.0724638 C39.0795254,40.0724638 38.3333333,40.8186559 38.3333333,41.7391304 L38.3333333,52.173913 C38.3333333,53.0943876 39.0795254,53.8405797 40,53.8405797 C40.9204746,53.8405797 41.6666667,53.0943876 41.6666667,52.173913 L41.6666667,43.2919789 C47.5609033,42.4801424 52.1014493,37.4238939 52.1014493,31.3043478 Z" id="Stroke-1385"></path>
                    <path d="M40.0724638,60.8695652 C40.0724638,60.9090906 40.0395254,60.942029 40,60.942029 C39.9604746,60.942029 39.9275362,60.9090906 39.9275362,60.8695652 C39.9275362,60.8300398 39.9604746,60.7971014 40,60.7971014 C40.0395254,60.7971014 40.0724638,60.8300398 40.0724638,60.8695652 Z M43.4057971,60.8695652 C43.4057971,58.9890906 41.8804746,57.4637681 40,57.4637681 C38.1195254,57.4637681 36.5942029,58.9890906 36.5942029,60.8695652 C36.5942029,62.7500398 38.1195254,64.2753623 40,64.2753623 C41.8804746,64.2753623 43.4057971,62.7500398 43.4057971,60.8695652 Z" id="Stroke-1386"></path>
                </g>
            </g>
        </g>
    </g>
</svg>