<?xml version="1.0" encoding="UTF-8"?>
<svg width="24px" height="17px" viewBox="0 0 24 17" version="1.1" xmlns="http://www.w3.org/2000/svg" xmlns:xlink="http://www.w3.org/1999/xlink">
    <!-- Generator: Sketch 43.2 (39069) - http://www.bohemiancoding.com/sketch -->
    <title>Stroke 152 + Stroke 153</title>
    <desc>Created with Sketch.</desc>
    <defs>
        <linearGradient x1="100%" y1="100%" x2="0%" y2="0%" id="linearGradient-1">
            <stop stop-color="#23C3B3" offset="0%"></stop>
            <stop stop-color="#25A7D9" offset="100%"></stop>
        </linearGradient>
        <linearGradient x1="100%" y1="162.607577%" x2="0%" y2="0%" id="linearGradient-2">
            <stop stop-color="#23C3B3" offset="0%"></stop>
            <stop stop-color="#25A7D9" offset="100%"></stop>
        </linearGradient>
    </defs>
    <g id="Page-1" stroke="none" stroke-width="1" fill="none" fill-rule="evenodd">
        <g id="contact-us" transform="translate(-840.000000, -329.000000)" fill-rule="nonzero">
            <g id="Stroke-152-+-Stroke-153" transform="translate(840.000000, 329.000000)">
                <g id="Group-7">
                    <path d="M22.9545455,14.1818182 C22.9545455,14.8089485 22.4453122,15.3181818 21.8181818,15.3181818 L2.18181818,15.3181818 C1.55468783,15.3181818 1.04545455,14.8089485 1.04545455,14.1818182 L1.04545455,2.18181818 C1.04545455,1.55402517 1.55425943,1.04545455 2.18181818,1.04545455 L21.8181818,1.04545455 C22.4457406,1.04545455 22.9545455,1.55402517 22.9545455,2.18181818 L22.9545455,14.1818182 Z M23.9545455,14.1818182 L23.9545455,2.18181818 C23.9545455,1.00163731 22.9979223,0.0454545455 21.8181818,0.0454545455 L2.18181818,0.0454545455 C1.00207774,0.0454545455 0.0454545455,1.00163731 0.0454545455,2.18181818 L0.0454545455,14.1818182 C0.0454545455,15.3612333 1.00240308,16.3181818 2.18181818,16.3181818 L21.8181818,16.3181818 C22.9975969,16.3181818 23.9545455,15.3612333 23.9545455,14.1818182 Z" id="Stroke-152" fill="url(#linearGradient-1)"></path>
                    <path d="M1.40325661,0.700474686 C1.18762565,0.527969912 0.87297946,0.5629306 0.700474686,0.778561567 C0.527969912,0.994192535 0.5629306,1.30883872 0.778561567,1.4813435 L11.6876525,10.2086162 C11.8702618,10.3547037 12.1297382,10.3547037 12.3123475,10.2086162 L23.2214384,1.4813435 C23.4370694,1.30883872 23.4720301,0.994192535 23.2995253,0.778561567 C23.1270205,0.5629306 22.8123744,0.527969912 22.5967434,0.700474686 L12,9.17786939 L1.40325661,0.700474686 Z" id="Stroke-153" fill="url(#linearGradient-2)"></path>
                </g>
            </g>
        </g>
    </g>
</svg>