<?xml version="1.0" encoding="UTF-8"?>
<svg width="18px" height="31px" viewBox="0 0 18 31" version="1.1" xmlns="http://www.w3.org/2000/svg" xmlns:xlink="http://www.w3.org/1999/xlink">
    <!-- Generator: Sketch 43.2 (39069) - http://www.bohemiancoding.com/sketch -->
    <title>Group</title>
    <desc>Created with Sketch.</desc>
    <defs>
        <linearGradient x1="100%" y1="100%" x2="0%" y2="0%" id="linearGradient-1">
            <stop stop-color="#23C3B3" offset="0%"></stop>
            <stop stop-color="#25A7D9" offset="100%"></stop>
        </linearGradient>
        <linearGradient x1="100%" y1="1982.0812%" x2="0%" y2="-394.017432%" id="linearGradient-2">
            <stop stop-color="#23C3B3" offset="0%"></stop>
            <stop stop-color="#25A7D9" offset="100%"></stop>
        </linearGradient>
        <linearGradient x1="100%" y1="414.789941%" x2="0%" y2="-1775.45664%" id="linearGradient-3">
            <stop stop-color="#23C3B3" offset="0%"></stop>
            <stop stop-color="#25A7D9" offset="100%"></stop>
        </linearGradient>
        <linearGradient x1="363.68103%" y1="332.556152%" x2="-261.090088%" y2="-2021.26465%" id="linearGradient-4">
            <stop stop-color="#23C3B3" offset="0%"></stop>
            <stop stop-color="#25A7D9" offset="100%"></stop>
        </linearGradient>
    </defs>
    <g id="Page-1" stroke="none" stroke-width="1" fill="none" fill-rule="evenodd">
        <g id="contact-us" transform="translate(-843.000000, -388.000000)">
            <g id="Group" transform="translate(843.000000, 388.000000)">
                <path d="M1.28064,3.230845 C1.28064,2.17069563 2.14019372,1.310845 3.20064,1.310845 L14.72064,1.310845 C15.7810863,1.310845 16.64064,2.17069563 16.64064,3.230845 L16.64064,27.550845 C16.64064,28.6117828 15.7815778,29.470845 14.72064,29.470845 L3.20064,29.470845 C2.13970224,29.470845 1.28064,28.6117828 1.28064,27.550845 L1.28064,3.230845 Z M0.00064,3.230845 L0.00064,27.550845 C0.00064,29.3187072 1.43277776,30.750845 3.20064,30.750845 L14.72064,30.750845 C16.4885022,30.750845 17.92064,29.3187072 17.92064,27.550845 L17.92064,3.230845 C17.92064,1.46387009 16.4881097,0.030845 14.72064,0.030845 L3.20064,0.030845 C1.43317026,0.030845 0.00064,1.46387009 0.00064,3.230845 Z" id="Stroke-309" fill="url(#linearGradient-1)" fill-rule="nonzero"></path>
                <path d="M0.64064,6.430845 L17.28064,6.430845 C17.6341022,6.430845 17.92064,6.14430724 17.92064,5.790845 C17.92064,5.43738276 17.6341022,5.150845 17.28064,5.150845 L0.64064,5.150845 C0.28717776,5.150845 0.00064,5.43738276 0.00064,5.790845 C0.00064,6.14430724 0.28717776,6.430845 0.64064,6.430845 Z" id="Stroke-310" fill="url(#linearGradient-2)" fill-rule="nonzero"></path>
                <path d="M0.64064,25.630845 L17.28064,25.630845 C17.6341022,25.630845 17.92064,25.3443072 17.92064,24.990845 C17.92064,24.6373828 17.6341022,24.350845 17.28064,24.350845 L0.64064,24.350845 C0.28717776,24.350845 0.00064,24.6373828 0.00064,24.990845 C0.00064,25.3443072 0.28717776,25.630845 0.64064,25.630845 Z" id="Stroke-311" fill="url(#linearGradient-3)" fill-rule="nonzero"></path>
                <rect id="Rectangle" fill="url(#linearGradient-4)" x="7.68" y="26.88" width="2.56" height="1.28" rx="0.64"></rect>
            </g>
        </g>
    </g>
</svg>