<?xml version="1.0" encoding="UTF-8"?>
<svg width="40px" height="40px" viewBox="0 0 40 40" version="1.1" xmlns="http://www.w3.org/2000/svg" xmlns:xlink="http://www.w3.org/1999/xlink">
    <!-- Generator: Sketch 43.2 (39069) - http://www.bohemiancoding.com/sketch -->
    <title>linkedin</title>
    <desc>Created with Sketch.</desc>
    <defs></defs>
    <g id="Page-1" stroke="none" stroke-width="1" fill="none" fill-rule="evenodd">
        <g id="linkedin" fill="#FFFFFF">
            <path d="M34.0845266,34.0848044 L28.1559978,34.0848044 L28.1559978,24.8018778 C28.1559978,22.5871863 28.1151651,19.7400036 25.0729851,19.7400036 C21.985528,19.7400036 21.5127568,22.1516368 21.5127568,24.6416022 L21.5127568,34.0848044 L15.584228,34.0848044 L15.584228,14.9959028 L21.2755378,14.9959028 L21.2755378,17.6039222 L21.3544256,17.6039222 C22.1460813,16.1033875 24.08161,14.5209094 26.967681,14.5209094 C32.9753753,14.5209094 34.0845266,18.4744656 34.0845266,23.6141165 L34.0845266,34.0848044 Z M8.89793197,12.3864946 C6.99684727,12.3864946 5.45770198,10.8445716 5.45770198,8.94570909 C5.45770198,7.04823544 6.99684727,5.50686796 8.89793197,5.50686796 C10.7951278,5.50686796 12.3362176,7.04823544 12.3362176,8.94570909 C12.3362176,10.8445716 10.7951278,12.3864946 8.89793197,12.3864946 Z M5.93047319,34.0848044 L11.8631686,34.0848044 L11.8631686,14.9959028 L5.93047319,14.9959028 L5.93047319,34.0848044 Z M37.03893,0 L2.95218122,0 C1.32331495,0 0,1.29109318 0,2.88301551 L0,37.1130957 C0,38.7064069 1.32331495,39.9994445 2.95218122,39.9994445 L37.03893,39.9994445 C38.670574,39.9994445 40,38.7064069 40,37.1130957 L40,2.88301551 C40,1.29109318 38.670574,0 37.03893,0 L37.03893,0 Z" id="Fill-10"></path>
        </g>
    </g>
</svg>