<?xml version="1.0" encoding="UTF-8"?>
<svg width="12px" height="11px" viewBox="0 0 12 11" version="1.1" xmlns="http://www.w3.org/2000/svg" xmlns:xlink="http://www.w3.org/1999/xlink">
    <!-- Generator: Sketch 43.2 (39069) - http://www.bohemiancoding.com/sketch -->
    <title>Fill 164</title>
    <desc>Created with Sketch.</desc>
    <defs></defs>
    <g id="Page-1" stroke="none" stroke-width="1" fill="none" fill-rule="evenodd">
        <g id="contact-us" transform="translate(-207.000000, -1295.000000)" fill="#E95EAC">
            <g id="Group-4" transform="translate(0.000000, 902.000000)">
                <g id="Group-9" transform="translate(139.000000, 390.000000)">
                    <path d="M79.838,5.389 C79.381,3.853 78.032,3 76.777,3 C75.868,3 74.998,3.434 74.39,4.191 C74.2,4.428 73.8,4.428 73.61,4.191 C73.003,3.434 72.132,3 71.223,3 C69.936,3 68.613,3.874 68.162,5.389 C68.058,5.738 68,6.122 68,6.537 C68,9.092 71.664,12.423 73.702,13.901 C73.703,13.903 73.705,13.904 73.706,13.904 C73.794,13.969 73.897,14 74,14 C74.103,14 74.207,13.969 74.294,13.904 C74.294,13.904 74.297,13.903 74.298,13.901 C76.36,12.394 80,9.088 80,6.537 C80,6.122 79.942,5.738 79.838,5.389" id="Fill-164"></path>
                </g>
            </g>
        </g>
    </g>
</svg>