<?xml version="1.0" encoding="UTF-8"?>
<svg width="88px" height="89px" viewBox="0 0 88 89" version="1.1" xmlns="http://www.w3.org/2000/svg" xmlns:xlink="http://www.w3.org/1999/xlink">
    <!-- Generator: Sketch 54.1 (76490) - https://sketchapp.com -->
    <title>Group 20</title>
    <desc>Created with Sketch.</desc>
    <defs>
        <linearGradient x1="0%" y1="0%" x2="100%" y2="100%" id="linearGradient-1">
            <stop stop-color="#23C3B3" offset="0%"></stop>
            <stop stop-color="#59D146" offset="100%"></stop>
        </linearGradient>
        <rect id="path-2" x="0" y="0" width="88" height="88" rx="17.6"></rect>
    </defs>
    <g id="Page-1" stroke="none" stroke-width="1" fill="none" fill-rule="evenodd">
        <g id="marketplace-index" transform="translate(-1075.000000, -515.000000)">
            <g id="Group-20" transform="translate(1075.000000, 515.630002)">
                <g id="Rectangle">
                    <mask id="mask-3" fill="white">
                        <use xlink:href="#path-2"></use>
                    </mask>
                    <use id="Mask" fill="url(#linearGradient-1)" xlink:href="#path-2"></use>
                    <rect fill="#183B5C" mask="url(#mask-3)" transform="translate(44.000000, 44.000000) rotate(-270.000000) translate(-44.000000, -44.000000) " x="8.8" y="8.8" width="70.4" height="70.4" rx="35.2"></rect>
                </g>
                <g id="roadmaps-cards" transform="translate(22.000000, 23.438462)" fill="#FFFFFF" fill-rule="nonzero">
                    <path d="M17.9517653,4.36876502 L17.9517653,16.3981284 L26.4133037,16.3981284 L26.4133037,4.36876502 L17.9517653,4.36876502 Z M17.9517653,2.67645733 L26.4133037,2.67645733 C27.3479396,2.67645733 28.1056114,3.43412929 28.1056114,4.36876502 L28.1056114,16.3981284 C28.1056114,17.3327641 27.3479396,18.0904361 26.4133037,18.0904361 L17.9517653,18.0904361 C17.0171296,18.0904361 16.2594576,17.3327641 16.2594576,16.3981284 L16.2594576,4.36876502 C16.2594576,3.43412929 17.0171296,2.67645733 17.9517653,2.67645733 Z" id="Rectangle-3"></path>
                    <g id="Group-5" transform="translate(0.507692, 2.538462)">
                        <path d="M2.87642728,1.85963792 L2.87642728,11.196535 L11.3379657,11.196535 L11.3379657,1.85963792 L2.87642728,1.85963792 Z M2.87642728,0.167330228 L11.3379657,0.167330228 C12.2726015,0.167330228 13.0302734,0.92500219 13.0302734,1.85963792 L13.0302734,11.196535 C13.0302734,12.1311708 12.2726015,12.8888427 11.3379657,12.8888427 L2.87642728,12.8888427 C1.94179155,12.8888427 1.18411959,12.1311708 1.18411959,11.196535 L1.18411959,1.85963792 C1.18411959,0.92500219 1.94179155,0.167330228 2.87642728,0.167330228 Z" id="Rectangle-3"></path>
                        <path d="M31.7014348,1.85963792 L31.7014348,11.196535 L40.1629732,11.196535 L40.1629732,1.85963792 L31.7014348,1.85963792 Z M31.7014348,0.167330228 L40.1629732,0.167330228 C41.097609,0.167330228 41.8552809,0.92500219 41.8552809,1.85963792 L41.8552809,11.196535 C41.8552809,12.1311708 41.097609,12.8888427 40.1629732,12.8888427 L31.7014348,12.8888427 C30.7667991,12.8888427 30.0091271,12.1311708 30.0091271,11.196535 L30.0091271,1.85963792 C30.0091271,0.92500219 30.7667991,0.167330228 31.7014348,0.167330228 Z" id="Rectangle-3"></path>
                        <path d="M2.87642728,17.1194581 L2.87642728,32.8893244 L11.3379657,32.8893244 L11.3379657,17.1194581 L2.87642728,17.1194581 Z M2.87642728,15.4271504 L11.3379657,15.4271504 C12.2726015,15.4271504 13.0302734,16.1848223 13.0302734,17.1194581 L13.0302734,32.8893244 C13.0302734,33.8239602 12.2726015,34.5816321 11.3379657,34.5816321 L2.87642728,34.5816321 C1.94179155,34.5816321 1.18411959,33.8239602 1.18411959,32.8893244 L1.18411959,17.1194581 C1.18411959,16.1848223 1.94179155,15.4271504 2.87642728,15.4271504 Z" id="Rectangle-3"></path>
                    </g>
                    <path d="M17.7910456,22.2101633 L17.7910456,29.2978703 L26.2525841,29.2978703 L26.2525841,22.2101633 L17.7910456,22.2101633 Z M17.7910456,20.5178556 L26.2525841,20.5178556 C27.1872199,20.5178556 27.9448918,21.2755275 27.9448918,22.2101633 L27.9448918,29.2978703 C27.9448918,30.2325061 27.1872199,30.990178 26.2525841,30.990178 L17.7910456,30.990178 C16.85641,30.990178 16.098738,30.2325061 16.098738,29.2978703 L16.098738,22.2101633 C16.098738,21.2755275 16.85641,20.5178556 17.7910456,20.5178556 Z" id="Rectangle-3"></path>
                    <g id="Group-6" transform="translate(22.507692, 18.972770) rotate(-180.000000) translate(-22.507692, -18.972770) translate(2.200000, 1.203539)">
                        <path d="M2.30130709,2.59914457 L10.7628456,2.59914457 C11.6974813,2.59914457 12.4551532,3.35681653 12.4551532,4.29145225 L12.4551532,17.0707304 C12.4551532,18.0053661 11.6974813,18.7630381 10.7628456,18.7630381 L2.30130709,18.7630381 C1.36667136,18.7630381 0.608999399,18.0053661 0.608999399,17.0707304 L0.608999399,4.29145225 C0.608999399,3.35681653 1.36667136,2.59914457 2.30130709,2.59914457 Z M30.4660006,22.047101 L39.5320763,22.047101 L39.5320763,33.9204189 L30.4660006,33.9204189 L30.4660006,22.047101 Z M15.9347078,19.7619072 L25.3693337,19.7619072 L25.3693337,33.060683 L15.9347078,33.060683 L15.9347078,19.7619072 Z M16.1189829,6.34119652 L25.1850586,6.34119652 L25.1850586,15.3784227 L16.1189829,15.3784227 L16.1189829,6.34119652 Z M30.2817255,0.553223264 L39.7163514,0.553223264 L39.7163514,17.7642212 L30.2817255,17.7642212 L30.2817255,0.553223264 Z M1.99903846,22.047101 L11.0651142,22.047101 L11.0651142,33.060683 L1.99903846,33.060683 L1.99903846,22.047101 Z" id="Combined-Shape"></path>
                    </g>
                </g>
            </g>
        </g>
    </g>
</svg>