<?xml version="1.0" encoding="UTF-8"?>
<svg width="40px" height="40px" viewBox="0 0 40 40" version="1.1" xmlns="http://www.w3.org/2000/svg" xmlns:xlink="http://www.w3.org/1999/xlink">
    <!-- Generator: Sketch 44.1 (41455) - http://www.bohemiancoding.com/sketch -->
    <title>Group 11</title>
    <desc>Created with Sketch.</desc>
    <defs></defs>
    <g id="Page-1" stroke="none" stroke-width="1" fill="none" fill-rule="evenodd">
        <g id="blog-article" transform="translate(-700.000000, -2570.000000)">
            <g id="Group-5" transform="translate(644.000000, 2549.000000)">
                <g id="Group-11" transform="translate(56.000000, 21.000000)">
                    <g id="Twitter_Social_Icon_Circle_Color" fill-rule="nonzero" fill="#0071A1">
                        <g id="Dark_Blue">
                            <circle id="Oval" cx="20" cy="20" r="20"></circle>
                        </g>
                    </g>
                    <g id="Logo-2C-CMYK-0p5in-R" transform="translate(9.000000, 8.000000)" fill="#FFFFFF">
                        <path d="M2.85876923,0 C4.43538462,0 5.71569231,1.28030769 5.71569231,2.85784615 C5.71569231,4.43630769 4.43538462,5.71661538 2.85876923,5.71661538 C1.27569231,5.71661538 0,4.43630769 0,2.85784615 C0,1.28030769 1.27569231,0 2.85876923,0 L2.85876923,0 Z M0.391384615,23.7415385 L5.32430769,23.7415385 L5.32430769,7.88307692 L0.391384615,7.88307692 L0.391384615,23.7415385 Z" id="Fill-12"></path>
                        <path d="M8.30769231,7.77784615 L13.032,7.77784615 L13.032,9.94615385 L13.0993846,9.94615385 C13.7566154,8.69907692 15.3655385,7.38461538 17.7636923,7.38461538 C22.7529231,7.38461538 23.6750769,10.668 23.6750769,14.9390769 L23.6750769,23.6363077 L18.7476923,23.6363077 L18.7476923,15.924 C18.7476923,14.0852308 18.7153846,11.7193846 16.1861538,11.7193846 C13.6218462,11.7193846 13.2304615,13.7233846 13.2304615,15.7929231 L13.2304615,23.6363077 L8.30769231,23.6363077 L8.30769231,7.77784615" id="Fill-13"></path>
                    </g>
                </g>
            </g>
        </g>
    </g>
</svg>