<?xml version="1.0" encoding="UTF-8"?>
<svg width="88px" height="88px" viewBox="0 0 88 88" version="1.1" xmlns="http://www.w3.org/2000/svg" xmlns:xlink="http://www.w3.org/1999/xlink">
    <!-- Generator: Sketch 54.1 (76490) - https://sketchapp.com -->
    <title>Group 20</title>
    <desc>Created with Sketch.</desc>
    <g id="Page-1" stroke="none" stroke-width="1" fill="none" fill-rule="evenodd">
        <g id="marketplace-index" transform="translate(-275.000000, -516.000000)">
            <g id="Group-20" transform="translate(275.000000, 516.000000)">
                <rect id="Mask" fill="#4A154B" x="0" y="0" width="88" height="88" rx="17.6"></rect>
                <g id="Slack-Mark" transform="translate(17.600000, 17.600000)" fill-rule="nonzero">
                    <g id="Group" transform="translate(0.000000, 27.677419)" fill="#E01E5A">
                        <path d="M11.2412903,5.62064516 C11.2412903,8.64387097 8.7716129,11.1135484 5.7483871,11.1135484 C2.72516129,11.1135484 0.255483871,8.64387097 0.255483871,5.62064516 C0.255483871,2.59741935 2.72516129,0.127741935 5.7483871,0.127741935 L11.2412903,0.127741935 L11.2412903,5.62064516 Z" id="Path"></path>
                        <path d="M14.0090323,5.62064516 C14.0090323,2.59741935 16.4787097,0.127741935 19.5019355,0.127741935 C22.5251613,0.127741935 24.9948387,2.59741935 24.9948387,5.62064516 L24.9948387,19.3741935 C24.9948387,22.3974194 22.5251613,24.8670968 19.5019355,24.8670968 C16.4787097,24.8670968 14.0090323,22.3974194 14.0090323,19.3741935 L14.0090323,5.62064516 Z" id="Path"></path>
                    </g>
                    <g id="Group" fill="#36C5F0">
                        <path d="M19.5019355,11.2412903 C16.4787097,11.2412903 14.0090323,8.7716129 14.0090323,5.7483871 C14.0090323,2.72516129 16.4787097,0.255483871 19.5019355,0.255483871 C22.5251613,0.255483871 24.9948387,2.72516129 24.9948387,5.7483871 L24.9948387,11.2412903 L19.5019355,11.2412903 Z" id="Path"></path>
                        <path d="M19.5019355,14.0090323 C22.5251613,14.0090323 24.9948387,16.4787097 24.9948387,19.5019355 C24.9948387,22.5251613 22.5251613,24.9948387 19.5019355,24.9948387 L5.7483871,24.9948387 C2.72516129,24.9948387 0.255483871,22.5251613 0.255483871,19.5019355 C0.255483871,16.4787097 2.72516129,14.0090323 5.7483871,14.0090323 L19.5019355,14.0090323 Z" id="Path"></path>
                    </g>
                    <g id="Group" transform="translate(27.677419, 0.000000)" fill="#2EB67D">
                        <path d="M13.8812903,19.5019355 C13.8812903,16.4787097 16.3509677,14.0090323 19.3741935,14.0090323 C22.3974194,14.0090323 24.8670968,16.4787097 24.8670968,19.5019355 C24.8670968,22.5251613 22.3974194,24.9948387 19.3741935,24.9948387 L13.8812903,24.9948387 L13.8812903,19.5019355 Z" id="Path"></path>
                        <path d="M11.1135484,19.5019355 C11.1135484,22.5251613 8.64387097,24.9948387 5.62064516,24.9948387 C2.59741935,24.9948387 0.127741935,22.5251613 0.127741935,19.5019355 L0.127741935,5.7483871 C0.127741935,2.72516129 2.59741935,0.255483871 5.62064516,0.255483871 C8.64387097,0.255483871 11.1135484,2.72516129 11.1135484,5.7483871 L11.1135484,19.5019355 Z" id="Path"></path>
                    </g>
                    <g id="Group" transform="translate(27.677419, 27.677419)" fill="#ECB22E">
                        <path d="M5.62064516,13.8812903 C8.64387097,13.8812903 11.1135484,16.3509677 11.1135484,19.3741935 C11.1135484,22.3974194 8.64387097,24.8670968 5.62064516,24.8670968 C2.59741935,24.8670968 0.127741935,22.3974194 0.127741935,19.3741935 L0.127741935,13.8812903 L5.62064516,13.8812903 Z" id="Path"></path>
                        <path d="M5.62064516,11.1135484 C2.59741935,11.1135484 0.127741935,8.64387097 0.127741935,5.62064516 C0.127741935,2.59741935 2.59741935,0.127741935 5.62064516,0.127741935 L19.3741935,0.127741935 C22.3974194,0.127741935 24.8670968,2.59741935 24.8670968,5.62064516 C24.8670968,8.64387097 22.3974194,11.1135484 19.3741935,11.1135484 L5.62064516,11.1135484 Z" id="Path"></path>
                    </g>
                </g>
            </g>
        </g>
    </g>
</svg>