<?xml version="1.0" encoding="UTF-8"?>
<svg width="24px" height="24px" viewBox="0 0 24 24" version="1.1" xmlns="http://www.w3.org/2000/svg" xmlns:xlink="http://www.w3.org/1999/xlink">
    <!-- Generator: Sketch 43.2 (39069) - http://www.bohemiancoding.com/sketch -->
    <title>social-twitter</title>
    <desc>Created with Sketch.</desc>
    <defs></defs>
    <g id="Page-1" stroke="none" stroke-width="1" fill="none" fill-rule="evenodd">
        <g id="social-twitter" fill="#25a7d9">
            <g id="Fill-264" transform="translate(0.000000, 2.000000)">
                <path d="M24.000313,3.01755093 C23.12988,3.40571703 22.3963209,3.41854897 21.61785,3.03466018 C22.6219491,2.43369778 22.6679302,2.01238251 23.0304325,0.875686733 C22.0915624,1.43280668 21.0511061,1.83808203 19.9443515,2.05729429 C19.0589479,1.11307757 17.795002,0.52173913 16.3984595,0.52173913 C13.714446,0.52173913 11.5394326,2.69889115 11.5394326,5.38076604 C11.5394326,5.76251618 11.5822058,6.13357303 11.664544,6.48858996 C7.62569176,6.28648695 4.04558127,4.35100308 1.64921698,1.41035079 C1.23110969,2.12893927 0.990510869,2.96408452 0.990510869,3.85483484 C0.990510869,5.54116526 1.84918134,7.02753132 3.1526923,7.89903373 C2.35604286,7.87336986 1.60751319,7.65522692 0.952015057,7.29165537 C0.950945729,7.3119726 0.950945729,7.33122051 0.950945729,7.35260707 C0.950945729,9.70726756 2.62658287,11.670554 4.849716,12.1175331 C4.13754348,12.3110815 3.38687515,12.3410227 2.6543854,12.2009407 C3.27352637,14.1310779 5.06785894,15.5361751 7.19368321,15.5757402 C5.11490937,17.2053962 2.53675931,17.8844196 0.000313043478,17.5871464 C2.15073186,18.9655103 4.70428738,19.769645 7.4481833,19.769645 C16.3866969,19.769645 21.272457,12.3656172 21.272457,5.94430195 C21.272457,5.73257499 21.2692491,5.52512534 21.2596251,5.31553703 C22.2081191,4.63116704 23.3490922,3.99277816 24.000313,3.01755093"></path>
            </g>
        </g>
    </g>
</svg>