<?xml version="1.0" encoding="UTF-8"?>
<svg width="24px" height="24px" viewBox="0 0 24 24" version="1.1" xmlns="http://www.w3.org/2000/svg" xmlns:xlink="http://www.w3.org/1999/xlink">
    <!-- Generator: Sketch 43.2 (39069) - http://www.bohemiancoding.com/sketch -->
    <title>social-linkedin</title>
    <desc>Created with Sketch.</desc>
    <defs></defs>
    <g id="Page-1" stroke="none" stroke-width="1" fill="none" fill-rule="evenodd">
        <g id="social-linkedin" fill="#FFFFFF">
            <g id="Group">
                <path d="M3.184,0.405333333 C4.70222222,0.405333333 5.93511111,1.63911111 5.93511111,3.15644444 C5.93511111,4.67555556 4.70222222,5.90844444 3.184,5.90844444 C1.65866667,5.90844444 0.430222222,4.67555556 0.430222222,3.15644444 C0.430222222,1.63911111 1.65866667,0.405333333 3.184,0.405333333 L3.184,0.405333333 Z M0.807111111,23.2675556 L5.55733333,23.2675556 L5.55733333,7.99733333 L0.807111111,7.99733333 L0.807111111,23.2675556 Z" id="Fill-10"></path>
                <path d="M8.536,7.99733333 L13.0853333,7.99733333 L13.0853333,10.0835556 L13.1502222,10.0835556 C13.7831111,8.88266667 15.3324444,7.61688889 17.6417778,7.61688889 C22.4435556,7.61688889 23.3315556,10.7786667 23.3315556,14.8915556 L23.3315556,23.2675556 L18.5893333,23.2675556 L18.5893333,15.8417778 C18.5893333,14.0711111 18.5546667,11.7928889 16.1226667,11.7928889 C13.6524444,11.7928889 13.2764444,13.7208889 13.2764444,15.7137778 L13.2764444,23.2675556 L8.536,23.2675556 L8.536,7.99733333" id="Fill-11"></path>
            </g>
        </g>
    </g>
</svg>