<?xml version="1.0" encoding="UTF-8"?>
<svg width="24px" height="24px" viewBox="0 0 24 24" version="1.1" xmlns="http://www.w3.org/2000/svg" xmlns:xlink="http://www.w3.org/1999/xlink">
    <!-- Generator: Sketch 43.2 (39069) - http://www.bohemiancoding.com/sketch -->
    <title>social-youtube</title>
    <desc>Created with Sketch.</desc>
    <defs></defs>
    <g id="Page-1" stroke="none" stroke-width="1" fill="none" fill-rule="evenodd">
        <g id="social-youtube">
            <g id="youtube" transform="translate(0.000000, 4.000000)">
                <polygon id="Shape" fill="#FFFFFF" fill-rule="nonzero" points="9.51456502 11.5586146 15.9949647 8.20101619 9.51456502 4.81993811"></polygon>
                <polygon id="Shape" fill="#E7E0E0" fill-rule="nonzero" points="15.1970302 8.6144469 9.51456502 4.81993811 15.9949647 8.20101619"></polygon>
                <path d="M9.51566857,11.5586146 L9.51456502,4.81993811 L15.9949647,8.20101619 L9.51566857,11.5586146 Z M23.7438556,3.65255047 C23.7438556,3.65255047 23.5095281,1.99986072 22.7903916,1.27206019 C21.8783927,0.316811712 20.8561331,0.31206881 20.3873373,0.256163624 C17.0312181,0.013547792 11.9968633,0.013547792 11.9968633,0.013547792 L11.9864383,0.013547792 C11.9864383,0.013547792 6.95220091,0.013547792 3.59596437,0.256163624 C3.12714502,0.31206881 2.10523766,0.316811712 1.19291009,1.27206019 C0.473844004,1.99986072 0.239845226,3.65255047 0.239845226,3.65255047 C0.239845226,3.65255047 0,5.5933832 0,7.53419246 L0,9.35370553 C0,11.2944913 0.239845226,13.2353006 0.239845226,13.2353006 C0.239845226,13.2353006 0.473844004,14.8880373 1.19291009,15.6158378 C2.10523766,16.5710863 3.30366547,16.5408679 3.8374297,16.6409854 C5.75612106,16.8249724 11.9916743,16.8819107 11.9916743,16.8819107 C11.9916743,16.8819107 17.0312181,16.8743267 20.3873373,16.6317344 C20.8561331,16.5758057 21.8783927,16.5710863 22.7903916,15.6158378 C23.5095281,14.8880373 23.7438556,13.2353006 23.7438556,13.2353006 C23.7438556,13.2353006 23.9833486,11.2944913 23.9833486,9.35370553 L23.9833486,7.53419246 C23.9833486,5.5933832 23.7438556,3.65255047 23.7438556,3.65255047 Z" id="Shape" fill="#D3D3D3"></path>
            </g>
        </g>
    </g>
</svg>