<?xml version="1.0" encoding="UTF-8"?>
<svg width="519px" height="320px" viewBox="0 0 519 320" version="1.1" xmlns="http://www.w3.org/2000/svg" xmlns:xlink="http://www.w3.org/1999/xlink">
    <!-- Generator: Sketch 43.2 (39069) - http://www.bohemiancoding.com/sketch -->
    <title>globe</title>
    <desc>Created with Sketch.</desc>
    <defs>
        <linearGradient x1="100%" y1="100%" x2="0%" y2="0%" id="linearGradient-1">
            <stop stop-color="#B0DCED" offset="0%"></stop>
            <stop stop-color="#EEFBFF" offset="100%"></stop>
        </linearGradient>
        <linearGradient x1="-110.693407%" y1="-4.86009994%" x2="113.020413%" y2="138.790211%" id="linearGradient-2">
            <stop stop-color="#23C3B3" offset="0%"></stop>
            <stop stop-color="#59D146" offset="100%"></stop>
        </linearGradient>
        <linearGradient x1="0%" y1="0%" x2="233.277515%" y2="170.659432%" id="linearGradient-3">
            <stop stop-color="#23C3B3" offset="0%"></stop>
            <stop stop-color="#59D146" offset="100%"></stop>
        </linearGradient>
        <linearGradient x1="-31.7043236%" y1="-176.026336%" x2="339.81266%" y2="100%" id="linearGradient-4">
            <stop stop-color="#23C3B3" offset="0%"></stop>
            <stop stop-color="#59D146" offset="100%"></stop>
        </linearGradient>
        <linearGradient x1="-107.157272%" y1="0%" x2="219.07183%" y2="360.290792%" id="linearGradient-5">
            <stop stop-color="#23C3B3" offset="0%"></stop>
            <stop stop-color="#59D146" offset="100%"></stop>
        </linearGradient>
        <filter x="-10.7%" y="-5.3%" width="121.3%" height="110.7%" filterUnits="objectBoundingBox" id="filter-6">
            <feGaussianBlur stdDeviation="1.51237878" in="SourceGraphic"></feGaussianBlur>
        </filter>
        <filter x="-12.1%" y="-6.9%" width="124.2%" height="113.9%" filterUnits="objectBoundingBox" id="filter-7">
            <feGaussianBlur stdDeviation="1.31786763" in="SourceGraphic"></feGaussianBlur>
        </filter>
        <filter x="-7.5%" y="-74.3%" width="115.0%" height="248.7%" filterUnits="objectBoundingBox" id="filter-8">
            <feGaussianBlur stdDeviation="1.56657963" in="SourceGraphic"></feGaussianBlur>
        </filter>
        <ellipse id="path-9" cx="11.7651475" cy="11.3783152" rx="11.2729223" ry="11.3783152"></ellipse>
        <ellipse id="path-11" cx="131.865952" cy="160.825065" rx="12.5254692" ry="12.5326371"></ellipse>
        <filter x="-14.0%" y="-10.0%" width="127.9%" height="127.9%" filterUnits="objectBoundingBox" id="filter-12">
            <feOffset dx="0" dy="1" in="SourceAlpha" result="shadowOffsetOuter1"></feOffset>
            <feGaussianBlur stdDeviation="1" in="shadowOffsetOuter1" result="shadowBlurOuter1"></feGaussianBlur>
            <feColorMatrix values="0 0 0 0 0   0 0 0 0 0   0 0 0 0 0  0 0 0 0.2 0" type="matrix" in="shadowBlurOuter1"></feColorMatrix>
        </filter>
    </defs>
    <g id="Page-1" stroke="none" stroke-width="1" fill="none" fill-rule="evenodd">
        <g id="globe">
            <g id="Group-7" transform="translate(114.000000, 0.000000)">
                <path d="M263.257812,260.160156 C263.257812,260.160156 225.5625,275.769531 187.867188,259.097656" id="Path-13" stroke="#D3D3D3" stroke-width="2.35"></path>
                <g id="Group-8">
                    <g id="111477-OOALA9-790" transform="translate(36.359249, 30.798956)">
                        <path d="M229.475222,150.136516 C211.390618,212.22774 146.431362,247.88629 84.3766089,229.789418 C52.4884259,220.491608 27.5624227,198.802792 13.3437785,171.473331 C13.2805121,171.370704 13.2287487,171.262322 13.1769853,171.155859 C7.97859605,161.125273 4.2420441,150.345607 2.10824096,139.150637 L2.10440663,139.132413 C-1.22954095,121.561145 -0.575788149,102.961688 4.7692641,84.6106463 C18.3437413,38.008419 58.3328993,6.29765013 103.667109,1.03586082 C110.430863,0.244578249 117.311563,0.0441199979 124.238275,0.478606064 L124.246903,0.480524325 C132.342126,0.977353866 140.494865,2.32493206 148.60926,4.59807108 C149.030077,4.71316673 149.449936,4.83497629 149.866919,4.95678585 C155.385475,6.56620664 160.694101,8.54968828 165.764999,10.8631108 C216.586131,34.0193957 244.598768,90.7740182 230.572799,146.082272 C230.236336,147.42985 229.8692,148.78702 229.475222,150.136516" id="Fill-90" fill="url(#linearGradient-1)"></path>
                        <path d="M230.572799,146.082272 C225.750173,148.357329 222.872511,151.614536 222.872511,151.614536 C222.872511,151.614536 211.622595,166.882933 192.879444,167.592689 C174.134377,168.312996 176.242298,154.70965 158.021575,149.397027 C139.797017,144.082485 151.284662,159.794 147.510725,164.257793 C143.743498,168.723504 130.739377,162.454628 122.137064,156.859061 C113.534751,151.261576 126.651984,148.901156 136.001992,138.024618 C145.342413,127.152875 148.833568,130.024511 151.821467,119.767571 C154.809367,109.51063 156.11208,109.269889 166.148431,106.63228 C176.184783,103.994671 173.00996,104.302552 184.654812,89.771727 C196.301581,75.2428198 174.327051,55.2296052 174.327051,55.2296052 C174.327051,55.2296052 158.802819,32.1567645 168.50846,30.6557255 C178.212184,29.1642777 170.026853,21.2121277 164.919529,15.3921245 C163.286106,13.5246976 164.015587,12.0313316 165.764999,10.8631108 C216.586131,34.0193957 244.598768,90.7740182 230.572799,146.082272" id="Fill-91" fill="url(#linearGradient-2)"></path>
                        <path d="M163.987788,167.520755 C163.987788,167.520755 156.158092,163.979645 152.843316,168.592103 C149.531415,173.206479 148.93997,178.613097 149.846789,178.877817 C150.440151,179.05142 158.567008,175.858475 162.555667,172.440134 C164.677008,170.621623 163.987788,167.520755 163.987788,167.520755" id="Fill-92" fill="#76A941"></path>
                        <path d="M86.751016,82.2454308 C85.5901734,86.2286993 80.3965771,97.6970214 79.6833922,93.7799329 C78.9702074,89.8618852 73.4919122,89.58086 72.6723248,92.3939894 C71.8546545,95.2052006 66.7799223,129.586189 59.5215407,131.180263 C52.2641177,132.773379 47.3207113,126.387489 46.2106735,121.733788 C45.0929671,117.078169 14.2266324,106.360846 11.90303,118.601268 C9.57463479,130.830181 2.5491886,141.552299 2.12932976,139.204348 L2.10824096,139.150637 L2.10440663,139.132413 C-1.22954095,121.561145 -0.575788149,102.961688 4.7692641,84.6106463 C18.3437413,38.008419 58.3328993,6.29765013 103.667109,1.03586082 C103.69395,2.758459 102.464089,4.84840411 99.2883077,7.3824266 C83.9835903,19.6113391 60.0851868,35.9184739 57.3819861,47.2975968 C54.6902883,58.6700059 56.9592515,68.6056376 68.4842808,65.7905899 C80.0121858,62.9659509 87.9128172,78.2535301 86.751016,82.2454308" id="Fill-93" fill="url(#linearGradient-3)"></path>
                        <path d="M49.9577699,153.407151 C60.4523237,155.562317 68.0931794,159.025737 68.3903398,164.369052 C68.6875001,169.713327 65.0822739,173.606437 65.4407835,182.982896 C65.7983345,192.360313 67.3167281,197.751585 74.6038672,206.677253 C81.8900476,215.601961 80.1348843,223.744978 76.5996345,222.095274 C73.0653433,220.446528 64.3566275,218.522513 59.8944291,214.752171 C55.4331893,210.977993 50.1859123,201.411627 44.0394857,192.816859 C37.8921005,184.223051 16.4256191,177.984867 13.1741095,171.157777 C9.92355857,164.329728 18.5728424,152.623541 18.5728424,152.623541 C18.5728424,152.623541 17.2404136,144.81622 25.4027379,142.251505 C34.1881403,139.490169 39.4641746,151.250067 49.9577699,153.407151 Z" id="Fill-94" fill="url(#linearGradient-4)"></path>
                        <path d="M148.60926,4.59807108 C146.346048,9.05706826 142.659342,13.3156072 138.822139,16.4337401 C129.309173,24.1777588 131.4679,24.1844727 123.064013,28.5322108 C114.65054,32.8847445 115.40782,41.1361432 112.751589,50.2565141 C110.094401,59.376885 112.751589,50.2565141 104.657325,61.084137 C96.5544323,71.9079235 95.3562051,56.9339799 80.0812037,50.0033037 C64.7956579,43.0697501 79.5760311,36.8728087 111.421078,25.1368892 C133.401359,17.0322374 129.04748,6.33217882 124.246903,0.480524325 C132.342126,0.977353866 140.494865,2.32493206 148.60926,4.59807108" id="Fill-95" fill="url(#linearGradient-5)"></path>
                        <path d="M200.485791,199.586402 C200.509755,199.562423 200.528927,199.543241 200.551933,199.520222 C200.530844,199.541323 200.50688,199.565301 200.485791,199.586402 M200.581649,199.489529 C200.604655,199.465551 200.629578,199.440614 200.653543,199.416636 C200.62862,199.442532 200.606572,199.464592 200.581649,199.489529 M200.677507,199.391698 C200.703389,199.365802 200.728312,199.340864 200.753235,199.314009 C200.729271,199.339905 200.70243,199.366761 200.677507,199.391698 M200.773365,199.293867 C200.804999,199.262216 200.831839,199.23536 200.862514,199.203709 C200.833756,199.232483 200.802123,199.265093 200.773365,199.293867 M200.866348,199.198913 C213.201379,186.582512 222.847588,170.992807 228.565528,153.113657 C222.847588,170.995684 213.202337,186.582512 200.866348,199.198913 M228.566487,153.112698 C228.645091,152.866201 228.721777,152.62546 228.798464,152.377045 C228.721777,152.623541 228.645091,152.86716 228.566487,153.112698 M228.803257,152.361699 C228.817635,152.31662 228.830097,152.278254 228.843517,152.233175 C228.830097,152.277295 228.817635,152.317579 228.803257,152.361699 M228.851186,152.210156 C228.862689,152.171791 228.876109,152.129589 228.887612,152.091224 C228.87515,152.130548 228.862689,152.170832 228.851186,152.210156 M228.897198,152.059573 C228.908701,152.022167 228.921162,151.98476 228.932665,151.946395 C228.921162,151.982842 228.908701,152.024085 228.897198,152.059573 M228.942251,151.914744 C228.954712,151.872542 228.966215,151.836095 228.979636,151.794853 C228.966215,151.836095 228.955671,151.872542 228.942251,151.914744 M228.986346,151.771834 C228.998807,151.730591 229.012227,151.686471 229.024689,151.645228 C229.011269,151.689348 228.999766,151.727714 228.986346,151.771834 M229.03044,151.626046 C229.059198,151.532051 229.09179,151.427506 229.119589,151.333511 C229.090831,151.430383 229.060156,151.529174 229.03044,151.626046 M229.122464,151.325838 C229.135884,151.280759 229.150263,151.233761 229.163683,151.188682 C229.150263,151.232802 229.135884,151.281718 229.122464,151.325838 M229.171352,151.162786 C229.182855,151.124421 229.194358,151.085096 229.205861,151.04769 C229.194358,151.087014 229.182855,151.123461 229.171352,151.162786 M229.218322,151.005488 C229.225991,150.979592 229.23366,150.953695 229.242287,150.927799 C229.243246,150.923003 229.244204,150.919167 229.246121,150.914371 C229.236536,150.945063 229.227908,150.974796 229.218322,151.005488 M229.248039,150.905739 L229.248997,150.90478 L229.248039,150.905739 M229.263376,150.856823 C229.272003,150.826131 229.281589,150.793521 229.291175,150.763787 C229.281589,150.79448 229.272003,150.826131 229.263376,150.856823 M229.311305,150.69473 C229.315139,150.681302 229.318974,150.667874 229.322808,150.654447 C229.327601,150.639101 229.329518,150.632387 229.334311,150.618 C229.325684,150.645814 229.319932,150.666915 229.311305,150.69473 M229.34869,150.567166 L229.349648,150.566207 C229.349648,150.564288 229.350607,150.56237 229.350607,150.560452 L229.34869,150.567166 M229.390867,150.424255 C229.394702,150.412746 229.397577,150.403154 229.400453,150.391645 C229.40237,150.384931 229.404287,150.379176 229.406205,150.372462 C229.401412,150.388768 229.39566,150.406991 229.390867,150.424255 M229.433045,150.279427 C229.448382,150.230511 229.460844,150.186391 229.475222,150.136516 C229.460844,150.184473 229.447424,150.232429 229.433045,150.279427" id="Fill-96" fill="#58BDBD"></path>
                        <path d="M103.851157,1.01475995 C103.919217,1.00708691 103.986317,0.999413865 104.054377,0.991740822 C103.986317,0.999413865 103.919217,1.00708691 103.851157,1.01475995 M104.251844,0.969680823 C107.220572,0.636862578 110.211348,0.41913998 113.21746,0.318431289 C110.211348,0.41913998 107.220572,0.636862578 104.251844,0.969680823 M123.970831,0.462300847 C123.909482,0.458464326 123.849091,0.454627804 123.788701,0.450791283 C123.849091,0.454627804 123.909482,0.458464326 123.970831,0.462300847 M123.530842,0.436404327 C123.493457,0.434486066 123.455114,0.431608675 123.416771,0.429690414 C123.455114,0.431608675 123.493457,0.434486066 123.530842,0.436404327" id="Fill-99" fill="#286B37"></path>
                        <path d="M113.21746,0.318431289 L113.21746,0.318431289 C114.273817,0.282943465 115.332092,0.261842596 116.392283,0.255128683 C115.33305,0.261842596 114.273817,0.282943465 113.21746,0.318431289" id="Fill-100" fill="#69412B"></path>
                        <path d="M99.3055622,1.62668514 C99.3467812,1.61997123 99.3889588,1.61325731 99.4301778,1.60750253 C99.3860831,1.61421644 99.3486984,1.61997123 99.3055622,1.62668514" id="Fill-102" fill="#286B37"></path>
                        <path d="M99.4340121,1.6065434 C100.795198,1.39745298 102.162136,1.21234081 103.533867,1.05216604 C102.162136,1.21234081 100.796157,1.39745298 99.4340121,1.6065434" id="Fill-103" fill="#286B37"></path>
                        <path d="M229.246121,150.914371 C229.24708,150.911494 229.248039,150.908616 229.248039,150.905739 C229.24708,150.908616 229.24708,150.911494 229.246121,150.914371 M229.299802,150.732136 C229.301719,150.7283 229.305553,150.714872 229.306512,150.711035 C229.308429,150.705281 229.309388,150.700485 229.311305,150.69473 C229.307471,150.707199 229.303636,150.719668 229.299802,150.732136 M229.350607,150.560452 C229.360193,150.52976 229.367861,150.502904 229.377447,150.472212 L229.377447,150.469334 C229.36882,150.500027 229.360193,150.52976 229.350607,150.560452 M229.406205,150.372462 C229.410997,150.355198 229.41579,150.338893 229.420583,150.322588 C229.4225,150.318751 229.425376,150.306282 229.427293,150.302446 C229.419625,150.325465 229.412915,150.349443 229.406205,150.372462 M229.475222,150.136516 L229.475222,150.136516 C229.8692,148.78702 230.236336,147.42985 230.572799,146.082272 C230.58526,146.034316 230.596763,145.990196 230.608266,145.942239 C230.596763,145.989236 230.58526,146.035275 230.572799,146.082272 C230.236336,147.42985 229.8692,148.78702 229.475222,150.136516 M230.626479,145.870304 C230.632231,145.850163 230.637982,145.825225 230.642775,145.805083 C230.637982,145.827143 230.632231,145.848244 230.626479,145.870304 M230.665781,145.714925 C230.667698,145.705334 230.670574,145.693824 230.67345,145.683274 C230.670574,145.693824 230.668657,145.704375 230.665781,145.714925 M2.14754281,139.355891 C2.14562565,139.34534 2.14370849,139.33479 2.14179132,139.324239 C2.14370849,139.33479 2.14562565,139.34534 2.14754281,139.355891 M2.10824096,139.150637 L2.10824096,139.150637 L2.10440663,139.132413 C2.09769656,139.097885 2.09194507,139.064315 2.08523499,139.030745 C2.09194507,139.064315 2.09769656,139.097885 2.10440663,139.132413 L2.10824096,139.150637 M2.08235925,139.016359 C2.07756634,138.988544 2.07181485,138.960729 2.06702194,138.932914 C2.07181485,138.960729 2.07756634,138.988544 2.08235925,139.016359 M2.0583947,138.887835 C2.05551896,138.870571 2.05168463,138.853306 2.04880889,138.836042 C2.05168463,138.853306 2.05551896,138.870571 2.0583947,138.887835 M2.0373059,138.773699 C2.03538874,138.762189 2.03347158,138.751639 2.03059583,138.740129 C2.03347158,138.752598 2.03538874,138.762189 2.0373059,138.773699 M2.01717569,138.666276 C2.0162171,138.659562 2.01525852,138.653807 2.01334136,138.647093 C2.01525852,138.652848 2.0162171,138.659562 2.01717569,138.666276" id="Fill-106" fill="#58BDBD"></path>
                        <path d="M229.242287,150.927799 C229.244204,150.920126 229.246121,150.912453 229.248997,150.90478 L229.248039,150.905739 C229.248039,150.908616 229.24708,150.911494 229.246121,150.914371 C229.244204,150.919167 229.243246,150.923003 229.242287,150.927799 M229.306512,150.711035 C229.312264,150.691853 229.318015,150.67267 229.322808,150.654447 C229.318974,150.667874 229.315139,150.681302 229.311305,150.69473 C229.309388,150.700485 229.308429,150.705281 229.306512,150.711035 M229.349648,150.566207 C229.359234,150.531678 229.366903,150.505781 229.377447,150.472212 C229.367861,150.502904 229.360193,150.52976 229.350607,150.560452 C229.350607,150.56237 229.349648,150.564288 229.349648,150.566207 M229.400453,150.391645 C229.407163,150.368626 229.413873,150.344648 229.420583,150.322588 C229.41579,150.338893 229.410997,150.355198 229.406205,150.372462 C229.404287,150.379176 229.40237,150.384931 229.400453,150.391645" id="Fill-111" fill="#42B5AB"></path>
                    </g>
                    <path d="M83.0820627,241.724217 C83.0820627,241.724217 37.8026139,257.87345 77.5043147,211.870472 C117.206015,165.867493 123.156836,168.128631 123.156836,168.128631" id="Path-7" stroke="#D3D3D3" stroke-width="2.34986945"></path>
                    <path d="M193.600369,115.152538 C193.600369,115.152538 270.251592,171.922691 270.251592,196.060868 C270.251592,220.199045 242.066228,221.8207 242.066228,221.8207" id="Path-9" stroke="#D3D3D3" stroke-width="2.34986945"></path>
                    <path d="M192.245685,114.396785 C192.245685,114.396785 258.096138,195.901762 243.818448,221.444354" id="Path-10" stroke-opacity="0.1" stroke="#333333" stroke-width="2.34986945" filter="url(#filter-6)"></path>
                    <path d="M82.7303954,241.898621 C82.7303954,241.898621 65.9451659,236.899029 122.747068,167.923629" id="Path-8" stroke-opacity="0.1" stroke="#333333" stroke-width="2.34986945" filter="url(#filter-7)"></path>
                    <path d="M125.646029,95.9129814 C125.646029,95.9129814 65.4314259,74.2300663 49.9121984,83.2042422 C34.3929708,92.1784182 46.1141924,102.060736 46.1141924,102.060736" id="Path-11" stroke="#D3D3D3" stroke-width="2.34986945"></path>
                    <path d="M243.390625,73.5820313 C243.390625,73.5820313 261.179688,68.7421875 274.070312,73.921875" id="Path-14" stroke="#D3D3D3" stroke-width="2.35"></path>
                    <path d="M72.3574219,27.8574219 C72.3574219,27.8574219 54.7589934,52.6943359 68.8276367,67.2817383" id="Path-15" stroke="#D3D3D3" stroke-width="2.35"></path>
                    <path d="M16,181.154297 C16,181.154297 22.2822266,171.987305 38.3974609,169.769043" id="Path-16" stroke="#D3D3D3" stroke-width="2.35"></path>
                    <path d="M144.079102,265 C144.079102,265 142.801758,278.023926 136,293.131836" id="Path-17" stroke="#D3D3D3" stroke-width="2.35"></path>
                    <path d="M124.800498,95.6965058 C124.800498,95.6965058 74.9218541,89.2902048 46.4413958,101.981183" id="Path-12" stroke-opacity="0.2" stroke="#333333" stroke-width="2.34986945" filter="url(#filter-8)"></path>
                    <ellipse id="Oval-2" fill="#E95EAC" cx="133.431635" cy="98.9451697" rx="9.39410188" ry="9.39947781"></ellipse>
                    <ellipse id="Oval-2" fill="#E95EAC" cx="280.605898" cy="74.5300261" rx="9.39410188" ry="9.39947781"></ellipse>
                    <g id="Group-20" transform="translate(64.683390, 24.752799) rotate(16.000000) translate(-64.683390, -24.752799) translate(42.683390, 6.252799)">
                        <path d="M33.1936915,13.7358337 C33.1936915,13.7358337 27.0756918,6.99272419 14.9750861,7.39554145 C2.87448037,7.7983587 4.17219967,6.88637376 4.28873174,13.1302561 C4.40526382,19.3741385 7.89760909,23.5554737 11.2378418,20.7072853 C14.5780744,17.8590968 27.0713347,27.342659 28.8729309,29.2343344 C30.6745272,31.1260098 33.1936915,13.7358337 33.1936915,13.7358337 Z" id="Path-22" fill="#B83D46" transform="translate(18.693692, 18.378187) rotate(319.000000) translate(-18.693692, -18.378187) "></path>
                        <g id="Path-2" transform="translate(20.000000, 3.000000)">
                            <mask id="mask-10" fill="white">
                                <use xlink:href="#path-9"></use>
                            </mask>
                            <use id="Mask" fill="#ACACAC" xlink:href="#path-9"></use>
                            <path d="M2.0578125,1.89144737 C2.0578125,1.89144737 15.4664063,6.75571803 21.5431641,5.36343544 C27.6199219,3.97115286 24.9890625,20.6924342 21.9966797,21.4105931 C19.0042969,22.1287521 10.1847656,27.5849866 6.23847656,24.4977899 C2.2921875,21.4105931 -1.20761719,16.0713919 -1.20761719,11.8168174 C-1.20761719,7.56224301 2.0578125,1.89144737 2.0578125,1.89144737 Z" fill="#2074C3" mask="url(#mask-10)"></path>
                            <path d="M0.793359375,10.4537932 C0.793359375,10.4537932 12.5173828,16.2723581 22.4923828,16.5560752 C32.4673828,16.8397924 21.6615234,19.9748664 21.6615234,19.9748664 C21.6615234,19.9748664 12.9767578,17.8782275 10.5298828,23.1595909 C8.08300781,28.4409542 9.93925781,24.6431949 9.93925781,24.6431949 L4.13554688,22.158897 C4.13554688,22.158897 9.93925781,17.8782275 -0.080859375,14.2012233 C-10.1009766,10.524219 0.793359375,10.4537932 0.793359375,10.4537932 Z" id="Path-5" fill="#D24650" mask="url(#mask-10)"></path>
                            <path d="M0.0778046013,13.8434424 C0.0778046013,13.8434424 15.9319124,15.6170671 23.4090608,15.7903567 C30.8862093,15.9636463 23.1739236,14.4451293 23.1739236,14.4451293 L-0.212048101,12.1851865 L0.0778046013,13.8434424 Z" id="Path-20" fill="#F0E44E" mask="url(#mask-10)" transform="translate(13.230152, 13.994661) rotate(10.000000) translate(-13.230152, -13.994661) "></path>
                            <polygon id="Path-21" stroke="#D24650" stroke-width="1.21" fill="#F1E97F" mask="url(#mask-10)" points="10.2433594 6.55090975 18.3152344 8.96900699 12.3216797 12.2376645"></polygon>
                        </g>
                    </g>
                    <ellipse id="Oval-2" fill="#F3C3DE" cx="9.39410188" cy="186.75718" rx="9.39410188" ry="9.39947781"></ellipse>
                    <ellipse id="Oval-2" fill="#D3D3D3" cx="132.394102" cy="301.399478" rx="9.39410188" ry="9.39947781"></ellipse>
                    <ellipse id="Oval-2" fill="#9B60E9" cx="274.343164" cy="254.819843" rx="12.5254692" ry="12.5326371"></ellipse>
                    <g id="Oval-2">
                        <use fill="black" fill-opacity="1" filter="url(#filter-12)" xlink:href="#path-11"></use>
                        <use fill="#9B60E9" fill-rule="evenodd" xlink:href="#path-11"></use>
                    </g>
                    <ellipse id="Oval-2" fill="#F3C3DE" cx="189.013405" cy="109.911227" rx="6.26273458" ry="6.26631854"></ellipse>
                </g>
            </g>
            <circle id="Oval-3" fill="#E95EAC" cx="17" cy="223" r="16"></circle>
            <circle id="Oval-3" fill="#9B60E9" cx="510" cy="160" r="8"></circle>
            <path d="M182,14.1450909 C182,14.1450909 183.473591,14.637284 184.076172,15.030833 C184.678752,15.4243821 184.648438,16.7779034 185.426758,16.383128 C186.205078,15.9883526 185.349262,13.2764385 184.541748,13.0298565 C183.734234,12.7832745 182,14.1450909 182,14.1450909 Z" id="Path-23" fill="#B83D46"></path>
            <path d="M198,25.7177734 L208.641602,19" id="Path-24" stroke="#2074C2" stroke-width="2" stroke-linecap="round"></path>
            <path d="M169,34.7177734 L179.641602,28" id="Path-24" stroke="#2074C2" stroke-width="2" stroke-linecap="round"></path>
            <path d="M179,40.7177734 L189.641602,34" id="Path-24" stroke="#2074C2" stroke-width="2" stroke-linecap="round"></path>
            <polyline id="Path-24" stroke="#D24650" stroke-width="2" stroke-linecap="round" points="180.027344 43.2929688 179 41.2880859 182.606445 39"></polyline>
            <polyline id="Path-24" stroke="#D24650" stroke-width="2" stroke-linecap="round" points="170.027344 37.2929688 169 35.2880859 172.606445 33"></polyline>
            <path d="M187,16.7177734 L197.641602,10" id="Path-24" stroke="#2074C2" stroke-width="2" stroke-linecap="round"></path>
        </g>
    </g>
</svg>