<?xml version="1.0" encoding="UTF-8" standalone="no"?>
<!-- Created with Inkscape (http://www.inkscape.org/) -->

<svg
   xmlns:dc="http://purl.org/dc/elements/1.1/"
   xmlns:cc="http://creativecommons.org/ns#"
   xmlns:rdf="http://www.w3.org/1999/02/22-rdf-syntax-ns#"
   xmlns:svg="http://www.w3.org/2000/svg"
   xmlns="http://www.w3.org/2000/svg"
   xmlns:sodipodi="http://sodipodi.sourceforge.net/DTD/sodipodi-0.dtd"
   xmlns:inkscape="http://www.inkscape.org/namespaces/inkscape"
   width="80.6735"
   height="29.742901"
   viewBox="0 0 21.344863 7.8694761"
   version="1.1"
   id="svg2377"
   inkscape:version="0.92.0 r15299"
   sodipodi:docname="7plus.svg">
  <defs
     id="defs2371">
    <polygon
       points="16.35885,0.056600699 16.35885,22.916084 0.044592557,22.916084 0.044592557,0.056600699 "
       id="path-1" />
  </defs>
  <sodipodi:namedview
     id="base"
     pagecolor="#ffffff"
     bordercolor="#666666"
     borderopacity="1.0"
     inkscape:pageopacity="0.0"
     inkscape:pageshadow="2"
     inkscape:zoom="11.258445"
     inkscape:cx="39.836761"
     inkscape:cy="14.371463"
     inkscape:document-units="mm"
     inkscape:current-layer="layer1"
     showgrid="false"
     fit-margin-top="0"
     fit-margin-left="0"
     fit-margin-right="0"
     fit-margin-bottom="0"
     units="px"
     inkscape:window-width="1280"
     inkscape:window-height="744"
     inkscape:window-x="-4"
     inkscape:window-y="-4"
     inkscape:window-maximized="1" />
  <metadata
     id="metadata2374">
    <rdf:RDF>
      <cc:Work
         rdf:about="">
        <dc:format>image/svg+xml</dc:format>
        <dc:type
           rdf:resource="http://purl.org/dc/dcmitype/StillImage" />
        <dc:title></dc:title>
      </cc:Work>
    </rdf:RDF>
  </metadata>
  <g
     inkscape:label="Layer 1"
     inkscape:groupmode="layer"
     id="layer1"
     transform="translate(-184.50858,-150.41767)">
    <g
       id="g2811"
       transform="translate(0.13229178,-0.13228456)">
      <polygon
         transform="matrix(0.26458333,0,0,0.26458333,184.50858,150.62859)"
         id="Fill-1"
         points="27.442457,10.391734 21.331859,0.2027972 4.5452648,28.94565 16.836266,28.94565 "
         style="fill:#ed1c24;fill-rule:evenodd;stroke:none;stroke-width:1" />
      <polygon
         transform="matrix(0.26458333,0,0,0.26458333,184.50858,150.62859)"
         id="Fill-2"
         points="20.513329,0.2027972 0,0.2027972 5.9849511,10.391734 14.57633,10.391734 "
         style="fill:#ed1c24;fill-rule:evenodd;stroke:none;stroke-width:1" />
      <path
         style="fill:#ed1c24;fill-rule:evenodd;stroke:none;stroke-width:0.26458332"
         inkscape:connector-curvature="0"
         d="m 197.9007,155.94679 h -0.19451 c -0.29256,0 -0.42305,-0.13538 -0.42305,-0.43897 v -4.59339 c 0,-0.12803 -0.0986,-0.23217 -0.21983,-0.23217 h -0.30448 c -0.12373,0 -0.22832,0.10634 -0.22832,0.23217 v 4.66223 c 0,0.67694 0.36651,1.04974 1.03185,1.04974 h 0.32141 c 0.11888,0 0.2452,-0.0844 0.2452,-0.24086 v -0.20647 c 0,-0.13028 -0.10026,-0.23228 -0.22827,-0.23228"
         id="Fill-3" />
      <path
         style="fill:#ed1c24;fill-rule:evenodd;stroke:none;stroke-width:0.26458332"
         inkscape:connector-curvature="0"
         d="m 201.66837,152.34992 h -0.30443 c -0.12378,0 -0.22837,0.10635 -0.22837,0.23223 v 2.1254 c 0,0.79358 -0.40553,1.23067 -1.14192,1.23067 -0.73639,0 -1.14193,-0.43709 -1.14193,-1.23067 v -2.1254 c 0,-0.12588 -0.10458,-0.23223 -0.22826,-0.23223 h -0.30454 c -0.11714,0 -0.21983,0.1085 -0.21983,0.23223 v 2.22869 c 0,1.10291 0.63544,1.81553 1.89456,1.81553 1.25911,0 1.89455,-0.71262 1.89455,-1.81553 v -2.22869 c 0,-0.12373 -0.10269,-0.23223 -0.21983,-0.23223"
         id="Fill-5" />
      <path
         style="fill:#ed1c24;fill-rule:evenodd;stroke:none;stroke-width:0.26458332"
         inkscape:connector-curvature="0"
         d="m 204.34489,154.09833 -0.73549,-0.14622 c -0.52152,-0.10613 -0.59187,-0.30836 -0.59187,-0.49224 0,-0.3294 0.33396,-0.55943 0.81212,-0.55943 0.38149,0 0.73138,0.12148 1.03834,0.35977 0.11651,0.0948 0.24805,0.0932 0.35422,-0.003 l 0.14562,-0.14793 c 0.0472,-0.0432 0.0733,-0.10233 0.0732,-0.16688 0,-0.0695 -0.0306,-0.13661 -0.0817,-0.182 -0.34104,-0.32715 -0.8971,-0.52251 -1.48739,-0.52251 -0.94092,0 -1.62388,0.52471 -1.62388,1.24763 0,0.77673 0.62652,1.055 1.15173,1.15152 l 0.6847,0.12899 c 0.51508,0.0998 0.73486,0.27789 0.73486,0.59538 0,0.2994 -0.30802,0.60246 -0.89667,0.60246 -0.25406,0 -0.49346,-0.059 -0.73038,-0.17943 -0.1559,-0.0835 -0.29372,-0.18329 -0.42352,-0.30697 -0.0671,-0.0598 -0.13117,-0.0889 -0.19578,-0.0889 -0.0554,0 -0.10691,0.0215 -0.1511,0.062 l -0.15907,0.13635 c -0.058,0.0472 -0.0914,0.11359 -0.0942,0.18704 -0.003,0.0898 0.0404,0.18265 0.12268,0.26078 0.22922,0.2209 0.74271,0.59151 1.606,0.59151 0.52595,0 0.96677,-0.14493 1.27473,-0.41922 0.26487,-0.23599 0.41682,-0.55986 0.41682,-0.88861 0,-0.66535 -0.3953,-1.05312 -1.24398,-1.22021"
         id="Fill-7" />
      <path
         style="fill:#ed1c24;fill-rule:evenodd;stroke:none;stroke-width:0.26458332"
         inkscape:connector-curvature="0"
         d="m 193.7233,155.26009 1.06982,-0.65268 c 0.15612,-0.0952 0.15612,-0.25111 0,-0.34635 l -1.06982,-0.65268 c -0.15617,-0.0952 -0.28391,-0.0216 -0.28391,0.1636 v 1.32457 c 0,0.18517 0.12774,0.25879 0.28391,0.16354"
         id="Fill-9" />
      <path
         transform="matrix(0.26458333,0,0,0.26458333,191.83976,152.22392)"
         mask="none"
         id="Fill-11"
         d="M 0.04459256,8.3550622 V 22.038398 c 0,0.475762 0.39509364,0.877706 0.86274736,0.877706 H 2.0270377 c 0.4678531,0 0.8629467,-0.401944 0.8629467,-0.877706 V 8.3550622 c 0,-2.9843636 2.3781368,-5.4037342 5.3116373,-5.4037342 2.9337003,0 5.3116373,2.4193706 5.3116373,5.4037342 0,2.9843638 -2.377937,5.3895388 -5.3116373,5.3895388 -1.7031685,0 -3.2189566,-0.815853 -4.1911422,-2.084147 v 3.800419 c 1.2249498,0.747917 2.6586095,1.178455 4.1911422,1.178455 4.5051043,0 8.1572283,-3.701049 8.1572283,-8.2842658 0,-4.5832168 -3.652124,-8.2984615 -8.1572283,-8.2984615 -4.5051041,0 -8.15702914,3.7152447 -8.15702914,8.2984615 z"
         inkscape:connector-curvature="0"
         style="fill:#ed1c24;fill-rule:evenodd;stroke:none;stroke-width:1" />
    </g>
  </g>
</svg>
