<?xml version="1.0" encoding="UTF-8"?>
<svg width="80px" height="80px" viewBox="0 0 80 80" version="1.1" xmlns="http://www.w3.org/2000/svg" xmlns:xlink="http://www.w3.org/1999/xlink">
    <!-- Generator: Sketch 44 (41411) - http://www.bohemiancoding.com/sketch -->
    <title>api-icon</title>
    <desc>Created with Sketch.</desc>
    <defs></defs>
    <g id="Page-1" stroke="none" stroke-width="1" fill="none" fill-rule="evenodd">
        <g id="api-icon" fill-rule="nonzero" fill="#FFFFFF">
            <g id="Group" transform="translate(9.000000, 0.000000)">
                <path d="M64.941822,31.2208142 L51.9751554,44.1874809 C45.5229955,50.6396407 34.3760247,50.154661 27.2288446,43.0074809 C20.0778371,35.8564734 19.5938963,24.7097673 26.0519025,18.2547789 C29.1713388,15.136801 32.2704572,12.03862 35.2074901,9.10210799 C38.2862999,6.0237149 38.2862999,6.0237149 39.0155113,5.29450349 C39.6663851,4.64362967 39.6663851,3.58835471 39.0155113,2.93748089 C38.3646375,2.28660707 37.3093625,2.28660707 36.6584887,2.93748089 C35.9293668,3.66660281 35.9293668,3.66660281 32.8506765,6.74487638 C29.9137511,9.681281 26.8147445,12.7793501 23.6954309,15.8972054 C15.8870865,23.7019011 16.4624847,36.9551662 24.871822,45.3645035 C33.2771445,53.7698259 46.5302429,54.3464385 54.332178,46.5445035 L67.2988446,33.5778368 C67.9497185,32.926963 67.9497185,31.871688 67.2988446,31.2208142 C66.6479708,30.5699404 65.5926959,30.5699404 64.941822,31.2208142 Z" id="Stroke-117"></path>
                <path d="M36.6574887,5.29317016 L64.940822,33.5765035 C65.5916959,34.2273773 66.6469708,34.2273773 67.2978446,33.5765035 C67.9487185,32.9256297 67.9487185,31.8703547 67.2978446,31.2194809 L39.0145113,2.93614755 C38.3636375,2.28527373 37.3083625,2.28527373 36.6574887,2.93614755 C36.0066149,3.58702137 36.0066149,4.64229634 36.6574887,5.29317016 Z" id="Stroke-118"></path>
                <path d="M46.0848446,12.3635035 L55.5115113,2.93683682 C56.1623851,2.285963 56.1623851,1.23068804 55.5115113,0.579814219 C54.8606375,-0.0710596007 53.8053625,-0.0710596007 53.1544887,0.579814219 L43.727822,10.0064809 C43.0769482,10.6573547 43.0769482,11.7126297 43.727822,12.3635035 C44.3786959,13.0143773 45.4339708,13.0143773 46.0848446,12.3635035 Z" id="Stroke-119"></path>
                <path d="M60.2285113,26.5041702 L69.655178,17.0775035 C70.3060518,16.4266297 70.3060518,15.3713547 69.655178,14.7204809 C69.0043041,14.0696071 67.9490292,14.0696071 67.2981554,14.7204809 L57.8714887,24.1471476 C57.2206149,24.7980214 57.2206149,25.8532963 57.8714887,26.5041702 C58.5223625,27.155044 59.5776375,27.155044 60.2285113,26.5041702 Z" id="Stroke-120"></path>
                <path d="M36.6573845,14.7203993 L55.5107179,33.577066 C56.1615341,34.2279973 57.2168091,34.2280906 57.8677405,33.5772743 C58.5186718,32.926458 58.5187651,31.8711831 57.8679488,31.2202517 L39.0146155,12.3635851 C38.3637992,11.7126537 37.3085242,11.7125604 36.6575929,12.3633767 C36.0066615,13.014193 36.0065682,14.069468 36.6573845,14.7203993 Z" id="Stroke-121"></path>
                <path d="M34.301178,35.9341476 C32.9987189,34.629465 32.9987189,32.5214075 34.3001711,31.2221761 C35.6036375,29.9187106 37.7116959,29.9187106 39.0141554,31.2211702 C40.3166144,32.5214075 40.3166144,34.629465 39.0131511,35.9351527 C37.7116959,37.2366071 35.6036375,37.2366071 34.301178,35.9341476 Z M41.3701711,28.8631416 C38.7669708,26.2599404 34.5483625,26.2599404 31.9441554,28.8641476 C29.3399478,31.4639102 29.3399478,35.6825194 31.9431511,38.290165 C34.5483625,40.8953773 38.7669708,40.8953773 41.371178,38.2911702 C43.9753856,35.6825194 43.9753856,31.4639102 41.3701711,28.8631416 Z" id="Stroke-122"></path>
                <path d="M17.80076,47.7210629 L24.0994406,41.4195741 C24.7501693,40.7685553 24.7499342,39.7132803 24.0989153,39.0625516 C23.4478964,38.4118229 22.3926215,38.412058 21.7418927,39.0630769 L14.2652261,46.5430769 C13.6145999,47.1939932 13.6147174,48.2490656 14.2654887,48.8998368 L21.3354887,55.9698368 C21.9862599,56.6206081 23.0413324,56.6207256 23.6922486,55.9700994 L31.1722486,48.4934328 C31.8232675,47.842704 31.8235027,46.7874291 31.1727739,46.1364102 C30.5220452,45.4853914 29.4667702,45.4851562 28.8157514,46.1358849 L22.5142626,52.4345655 L17.80076,47.7210629 Z" id="Stroke-123"></path>
                <path d="M17.8001554,50.0781476 L2.48015536,65.3981476 C-0.774051788,68.6523547 -0.774051788,73.9276297 2.48015536,77.1818368 C5.73032102,80.4361698 11.0095116,80.4361698 14.2638446,77.1818368 L24.8705113,66.5751702 C26.1729708,65.2727106 28.2843625,65.2727106 29.586822,66.5751702 C30.8862835,67.8768538 30.8862835,69.9864639 29.585816,71.2891544 L23.9801554,76.8948142 C23.3292815,77.545688 23.3292815,78.600963 23.9801554,79.2518368 C24.6310292,79.9027106 25.6863041,79.9027106 26.337178,79.2518368 L31.9438446,73.6451702 C34.5443831,71.0401872 34.5443831,66.8231305 31.9448506,64.2191544 C29.3396375,61.6139404 25.1176959,61.6139404 22.5134887,64.2181476 L11.906822,74.8248142 C9.95448839,76.7771479 6.78701231,76.7771479 4.8379327,74.8255694 C2.88471845,72.8723547 2.88471845,69.7076297 4.83717797,67.7551702 L20.157178,52.4351702 C20.8080518,51.7842963 20.8080518,50.7290214 20.157178,50.0781476 C19.5063041,49.4272737 18.4510292,49.4272737 17.8001554,50.0781476 Z" id="Stroke-124"></path>
            </g>
        </g>
    </g>
</svg>