<?xml version="1.0" encoding="UTF-8"?>
<svg width="496px" height="38px" viewBox="0 0 496 38" version="1.1" xmlns="http://www.w3.org/2000/svg" xmlns:xlink="http://www.w3.org/1999/xlink">
    <!-- Generator: Sketch 50.2 (55047) - http://www.bohemiancoding.com/sketch -->
    <title>automattic-cmyk</title>
    <desc>Created with Sketch.</desc>
    <defs></defs>
    <g id="automattic-cmyk" stroke="none" stroke-width="1" fill="none" fill-rule="evenodd">
        <path d="M193.3345,18.6136 C193.3345,11.7346 188.3205,5.5996 179.2545,5.5996 C170.1885,5.5996 165.2275,11.7346 165.2275,18.6136 L165.2275,19.4676 C165.2275,26.3476 170.1885,32.5876 179.2545,32.5876 C188.3205,32.5876 193.3345,26.3476 193.3345,19.4676 L193.3345,18.6136 Z M179.2545,38.1876 C166.6675,38.1876 158.5075,29.1216 158.5075,19.6806 L158.5075,18.5086 C158.5075,8.9066 166.6675,0.0006 179.2545,0.0006 C191.8955,0.0006 200.0555,8.9066 200.0555,18.5086 L200.0555,19.6806 C200.0555,29.1216 191.8955,38.1876 179.2545,38.1876 Z" id="Fill-1" fill="#3A8FBA"></path>
        <path d="M21.814,8.2142 L14.081,23.1482 L29.814,23.1482 L21.814,8.2142 Z M37.121,36.8012 L32.427,28.0012 L11.574,28.0012 L7.04,36.8012 L0,36.8012 L19.2,1.2802 L24.747,1.2802 L44.267,36.8012 L37.121,36.8012 Z" id="Fill-3" fill="#0B0B09"></path>
        <path d="M74.5601,38.1878 C61.8131,38.1878 55.8931,31.2538 55.8931,22.0278 L55.8931,1.2808 L62.5061,1.2808 L62.5061,22.1338 C62.5061,28.6948 66.8271,32.5868 75.0391,32.5868 C83.4671,32.5868 86.9331,28.6948 86.9331,22.1338 L86.9331,1.2808 L93.6001,1.2808 L93.6001,22.0278 C93.6001,30.8278 87.9471,38.1878 74.5601,38.1878" id="Fill-5" fill="#0B0B09"></path>
        <polygon id="Fill-7" fill="#0B0B09" points="130.7212 6.8275 130.7212 36.8015 124.0542 36.8015 124.0542 6.8275 108.5332 6.8275 108.5332 1.2805 146.2412 1.2805 146.2412 6.8275"></polygon>
        <polygon id="Fill-9" fill="#0B0B09" points="259.4692 36.8011 259.4692 8.6941 257.7082 11.7871 242.8282 36.8011 239.5742 36.8011 224.8552 11.7871 223.0952 8.6941 223.0952 36.8011 216.5882 36.8011 216.5882 1.2801 225.8152 1.2801 239.8412 25.6551 241.4942 28.6411 243.1492 25.6551 257.0152 1.2801 266.1362 1.2801 266.1362 36.8011"></polygon>
        <path d="M301.23,8.2142 L293.497,23.1482 L309.23,23.1482 L301.23,8.2142 Z M316.537,36.8012 L311.843,28.0012 L290.99,28.0012 L286.457,36.8012 L279.417,36.8012 L298.617,1.2802 L304.164,1.2802 L323.683,36.8012 L316.537,36.8012 Z" id="Fill-11" fill="#0B0B09"></path>
        <polygon id="Fill-13" fill="#0B0B09" points="350.563 6.8275 350.563 36.8015 343.897 36.8015 343.897 6.8275 328.376 6.8275 328.376 1.2805 366.084 1.2805 366.084 6.8275"></polygon>
        <polygon id="Fill-15" fill="#0B0B09" points="399.4702 6.8275 399.4702 36.8015 392.8042 36.8015 392.8042 6.8275 377.2832 6.8275 377.2832 1.2805 414.9912 1.2805 414.9912 6.8275"></polygon>
        <path d="M431.4165,36.8011 L431.4165,4.6411 C434.0835,4.6411 435.1495,3.2001 435.1495,1.2801 L437.9775,1.2801 L437.9775,36.8011 L431.4165,36.8011 Z" id="Fill-17" fill="#0B0B09"></path>
        <path d="M490.1909,11.307 C486.9909,8.373 482.2969,5.6 475.9509,5.6 C466.4579,5.6 461.1239,12.108 461.1239,18.881 L461.1239,19.575 C461.1239,26.294 466.5099,32.587 476.4299,32.587 C482.3509,32.587 487.2569,29.761 490.3509,26.881 L494.3509,31.094 C490.4579,34.934 483.8439,38.188 476.0039,38.188 C462.5639,38.188 454.4039,29.441 454.4039,19.84 L454.4039,18.667 C454.4039,9.067 463.3099,0 476.3239,0 C483.8439,0 490.6699,3.147 494.3509,7.094 L490.1909,11.307 Z" id="Fill-19" fill="#0B0B09"></path>
        <path d="M183.645,12.3587 C184.847,13.1337 185.184,14.7447 184.404,15.9537 L178.324,25.3717 C177.543,26.5817 175.936,26.9317 174.736,26.1567 C173.536,25.3797 173.195,23.7727 173.977,22.5627 L180.057,13.1447 C180.838,11.9357 182.445,11.5847 183.645,12.3587" id="Fill-21" fill="#0B0B09"></path>
    </g>
</svg>