<?xml version="1.0" encoding="UTF-8"?>
<svg width="116px" height="64px" viewBox="0 0 116 64" version="1.1" xmlns="http://www.w3.org/2000/svg" xmlns:xlink="http://www.w3.org/1999/xlink">
    <!-- Generator: Sketch 44 (41411) - http://www.bohemiancoding.com/sketch -->
    <title>autodesk</title>
    <desc>Created with Sketch.</desc>
    <defs>
        <polygon id="path-1" points="0.981086764 0.10933046 116.442177 0.10933046 116.442177 19.2523047 0.981086764 19.2523047"></polygon>
        <linearGradient x1="12.9171776%" y1="56.7749414%" x2="99.6841138%" y2="20.1786715%" id="linearGradient-3">
            <stop stop-color="#2B7A77" offset="0%"></stop>
            <stop stop-color="#4EBAA9" offset="51.048726%"></stop>
            <stop stop-color="#5CC2B1" offset="100%"></stop>
        </linearGradient>
        <linearGradient x1="73.5628048%" y1="10.3816293%" x2="18.5781462%" y2="100.102528%" id="linearGradient-4">
            <stop stop-color="#236736" offset="0%"></stop>
            <stop stop-color="#6BA443" offset="49.279997%"></stop>
            <stop stop-color="#86C146" offset="100%"></stop>
        </linearGradient>
        <linearGradient x1="28.0890158%" y1="0.30973165%" x2="81.5840713%" y2="99.6597275%" id="linearGradient-5">
            <stop stop-color="#29A5E3" offset="0%"></stop>
            <stop stop-color="#356EB9" offset="51.549304%"></stop>
            <stop stop-color="#394DA5" offset="100%"></stop>
        </linearGradient>
    </defs>
    <g id="Page-1" stroke="none" stroke-width="1" fill="none" fill-rule="evenodd">
        <g id="autodesk">
            <g id="Group-2" transform="translate(-1.000000, 23.000000)">
                <path d="M116.291219,13.341779 C116.291219,12.8405461 115.929272,12.4785992 115.438829,12.4785992 C114.950347,12.4785992 114.586439,12.8405461 114.586439,13.341779 C114.586439,13.8430118 114.950347,14.2059397 115.438829,14.2059397 C115.929272,14.2059397 116.291219,13.8430118 116.291219,13.341779 M116.441294,13.341779 C116.441294,13.8959796 115.993029,14.3452255 115.438829,14.3452255 C114.887571,14.3452255 114.437344,13.8959796 114.437344,13.341779 C114.437344,12.7875783 114.887571,12.3393133 115.438829,12.3393133 C115.993029,12.3393133 116.441294,12.7875783 116.441294,13.341779" id="path3633" fill="#231F20" fill-rule="nonzero" transform="translate(115.439319, 13.342269) scale(-1, 1) rotate(-180.000000) translate(-115.439319, -13.342269) "></path>
                <path d="M115.623726,13.5609089 C115.623726,13.4127951 115.501115,13.3971009 115.382428,13.3971009 L115.277473,13.3971009 L115.277473,13.7256978 L115.432453,13.7256978 C115.57272,13.7256978 115.623726,13.6580167 115.623726,13.5609089 L115.623726,13.5609089 Z M115.872871,12.8154355 L115.630592,13.155803 C115.587433,13.2166179 115.557025,13.2578151 115.509943,13.293127 C115.684541,13.3156874 115.785572,13.4108334 115.785572,13.5609089 C115.785572,13.7149081 115.677674,13.8541939 115.467765,13.8541939 L115.128378,13.8541939 L115.128378,12.8154355 L115.277473,12.8154355 L115.277473,13.2803755 C115.358886,13.2803755 115.390275,13.2548725 115.4403,13.1793442 L115.691407,12.8154355 L115.872871,12.8154355 Z" id="path3637" fill="#231F20" fill-rule="nonzero" transform="translate(115.618821, 13.334815) scale(-1, 1) rotate(-180.000000) translate(-115.618821, -13.334815) "></path>
                <path d="M30.6735897,12.0203291 L28.7745941,7.58672372 L32.5892603,7.58672372 L30.6735897,12.0203291 Z M36.4823975,3.18744931 L34.4254792,3.18744931 L33.3013837,5.86134497 L28.0614898,5.86134497 L26.9217001,3.18744931 L24.9275586,3.18744931 L29.8035437,14.3469911 L31.6064124,14.3469911 L36.4823975,3.18744931 Z" id="path3721" fill="#0E0D0F" fill-rule="nonzero" transform="translate(30.704978, 8.767220) scale(-1, 1) rotate(-180.000000) translate(-30.704978, -8.767220) "></path>
                <polygon id="path3725" fill="#0E0D0F" fill-rule="nonzero" transform="translate(53.544226, 8.806750) scale(-1, 1) rotate(-180.000000) translate(-53.544226, -8.806750) " points="54.4476217 3.26621446 52.4838876 3.26621446 52.4838876 12.5424548 48.9693725 12.5424548 48.9693725 14.3472854 58.1190786 14.3472854 57.3647771 12.5424548 54.4476217 12.5424548"></polygon>
                <polygon id="path3729" fill="#0E0D0F" fill-rule="nonzero" transform="translate(87.778722, 8.806554) scale(-1, 1) rotate(-180.000000) translate(-87.778722, -8.806554) " points="91.7243364 12.5422587 85.7899751 12.5422587 85.7899751 9.72417274 89.590909 9.72417274 89.590909 7.98113804 85.7899751 7.98113804 85.7899751 5.0365178 91.727279 5.0365178 91.727279 3.26601829 83.8301646 3.26601829 83.8301646 14.3470892 91.7243364 14.3470892"></polygon>
                <polygon id="path3731" fill="#0E0D0F" fill-rule="nonzero" transform="translate(104.709307, 8.807338) scale(-1, 1) rotate(-180.000000) translate(-104.709307, -8.807338) " points="105.637716 3.266803 103.780899 3.266803 103.780899 14.3478739 105.637716 14.3478739"></polygon>
                <mask id="mask-2" fill="white">
                    <use xlink:href="#path-1"></use>
                </mask>
                <g id="path3739" transform="translate(58.711632, 9.680818) scale(-1, 1) rotate(-180.000000) translate(-58.711632, -9.680818) "></g>
                <path d="M97.7426615,12.7545396 C96.6107189,12.7545396 95.6484695,12.4122103 95.6435651,11.6608515 C95.6376798,10.7809966 96.1899187,10.475941 98.2743018,9.79814869 C100.577422,9.04090457 101.800588,8.27090894 101.787836,6.39741638 C101.776065,4.28556849 100.143871,3.08104029 97.7603174,3.08104029 C96.0731932,3.08104029 94.5606668,3.62837476 93.4071447,4.64261105 L94.1251533,6.38074132 C95.1717589,5.5038291 96.4400447,4.88194727 97.8103426,4.87606196 C99.0099664,4.87017664 99.8633374,5.4538039 99.8633374,6.3179646 C99.8633374,7.0408777 99.4454799,7.52151192 97.4238735,8.16203058 C95.1050586,8.92221735 93.7043532,9.71477336 93.7161238,11.6029792 C93.7298562,13.4813762 95.4915278,14.5495612 97.7063687,14.5387715 C99.9221905,14.5279817 101.169878,13.7177698 101.359189,13.6079105 L100.66276,12.0277029 C100.210571,12.2719436 99.2188951,12.7545396 97.7426615,12.7545396" id="path3743" fill="#0E0D0F" fill-rule="nonzero" mask="url(#mask-2)" transform="translate(97.597540, 8.809946) scale(-1, 1) rotate(-180.000000) translate(-97.597540, -8.809946) "></path>
                <polygon id="path3747" fill="#0E0D0F" fill-rule="nonzero" mask="url(#mask-2)" transform="translate(109.576857, 8.807535) scale(-1, 1) rotate(-180.000000) translate(-109.576857, -8.807535) " points="108.03098 8.98458458 112.991321 14.349051 110.614634 14.349051 105.637618 8.98458458 111.107039 3.26601829 113.516096 3.26601829"></polygon>
                <path d="M64.121121,4.86407801 C61.9435537,4.86407801 60.3535373,6.62869221 60.3535373,8.80625947 C60.3535373,10.9838267 61.9435537,12.7494218 64.121121,12.7494218 C66.2986882,12.7494218 67.8896856,10.9838267 67.8896856,8.80625947 C67.8896856,6.62869221 66.2986882,4.86407801 64.121121,4.86407801 M64.121121,14.5385582 C60.9558014,14.5385582 58.3907841,11.9715791 58.3907841,8.80625947 C58.3907841,5.64093985 60.9558014,3.07592255 64.121121,3.07592255 C67.2854597,3.07592255 69.8524388,5.64093985 69.8524388,8.80625947 C69.8524388,11.9715791 67.2854597,14.5385582 64.121121,14.5385582" id="path3751" fill="#0E0D0F" fill-rule="nonzero" mask="url(#mask-2)" transform="translate(64.121611, 8.807240) scale(-1, 1) rotate(-180.000000) translate(-64.121611, -8.807240) "></path>
                <path d="M76.1069613,5.04044134 L73.8685791,5.03847957 L73.8685791,12.5422587 L76.1157893,12.5422587 C78.2923756,12.5422587 79.874545,10.9993247 79.874545,8.82273836 C79.874545,6.64615198 78.2825668,5.04044134 76.1069613,5.04044134 M76.1069613,14.3480701 L71.9028832,14.3480701 L71.9028832,3.26699917 L76.1069613,3.26798006 C79.2703191,3.26798006 81.8363173,5.65839962 81.8363173,8.82273836 C81.8363173,11.988058 79.2703191,14.3480701 76.1069613,14.3480701" id="path3755" fill="#0E0D0F" fill-rule="nonzero" mask="url(#mask-2)" transform="translate(76.869600, 8.807535) scale(-1, 1) rotate(-180.000000) translate(-76.869600, -8.807535) "></path>
                <path d="M46.829177,8.35191301 C46.829177,5.04828843 44.890946,3.26699917 42.0797263,3.26699917 C39.2694874,3.26699917 37.3312564,5.04828843 37.3312564,8.35191301 L37.3312564,14.5226678 L39.2940096,14.5226678 L39.2940096,8.1184621 C39.2940096,6.18023106 40.4318375,5.04240312 42.0797263,5.04240312 C43.7295768,5.04240312 44.8674047,6.18023106 44.8674047,8.1184621 L44.8674047,14.5226678 L46.829177,14.5226678 L46.829177,8.35191301 Z" id="path3759" fill="#0E0D0F" fill-rule="nonzero" mask="url(#mask-2)" transform="translate(42.080217, 8.894833) scale(-1, 1) rotate(-180.000000) translate(-42.080217, -8.894833) "></path>
                <path d="M4.85908115,19.2731204 C4.31338214,19.2731204 4.02980308,19.067279 3.75757839,18.589121 L1.27096004,13.9795976 C1.09960081,13.6492604 1.09686941,13.5392379 1.09686941,13.3012269 L5.00491804,13.4735051 L5.89937379,14.3679608 L13.7384242,14.3679608 L7.22959612,18.4000391 C6.9123395,18.5876698 5.70570723,19.2731204 4.85908115,19.2731204 Z" id="path4460" fill="url(#linearGradient-3)" fill-rule="nonzero" mask="url(#mask-2)" transform="translate(7.417647, 16.287174) rotate(-360.000000) translate(-7.417647, -16.287174) "></path>
                <path d="M5.90296307,14.3679608 L2.52255208,14.3679608 C1.50155114,14.3679608 1.09686941,13.8339378 1.09686941,13.3012269 C1.09686941,12.9641419 1.20533734,12.7803174 1.35530883,12.4056857 L6.28163744,0.645321214 L6.33457756,0.542122929 L6.40277449,0.436238262 L6.54455216,0.298049874 L6.75273201,0.186781187 L7.05423395,0.120379003 L7.57288904,0.133839054 L10.9961917,1.40624899 L9.83864033,5.05657598 L5.90296307,14.3679608 Z" id="path4458" fill="url(#linearGradient-4)" fill-rule="nonzero" mask="url(#mask-2)" transform="translate(6.046531, 7.244170) rotate(-360.000000) translate(-6.046531, -7.244170) "></path>
                <path d="M15.8288376,19.2723928 L8.05295912,0.864263279 C7.91902513,0.55081925 7.70428841,0.146401635 7.1484533,0.146401635 C6.65182333,0.146401635 6.41524059,0.386872546 6.28163744,0.645321214 C6.35072118,0.458940152 6.55977499,0.0968690875 7.16568193,0.0968690875 L12.5324164,0.0968690875 C13.0269902,0.0968690875 13.2642461,0.388078353 13.3723687,0.654702145 L21.2357724,19.2723928 L15.8288376,19.2723928 Z" id="path4456" fill="url(#linearGradient-5)" mask="url(#mask-2)" transform="translate(13.758705, 9.684631) rotate(-360.000000) translate(-13.758705, -9.684631) "></path>
            </g>
        </g>
    </g>
</svg>