<?xml version="1.0" encoding="UTF-8"?>
<svg width="116px" height="42px" viewBox="0 0 116 42" version="1.1" xmlns="http://www.w3.org/2000/svg" xmlns:xlink="http://www.w3.org/1999/xlink">
    <!-- Generator: Sketch 52.5 (67469) - http://www.bohemiancoding.com/sketch -->
    <title>bose-homepage</title>
    <desc>Created with Sketch.</desc>
    <defs>
        <polygon id="path-1" points="0.0311218771 0.460603782 60.878295 0.460603782 60.878295 14.0048447 0.0311218771 14.0048447"></polygon>
    </defs>
    <g id="bose-homepage" stroke="none" stroke-width="1" fill="none" fill-rule="evenodd">
        <g id="bose" transform="translate(0.000000, 13.500000)">
            <path d="M65.8777521,0.460603782 C64.6831908,0.460603782 63.6468323,1.14580378 63.1224286,2.05456259 C62.5990624,2.9638401 61.122848,5.53346976 60.5906639,6.44326597 C60.0584798,7.35461827 60.7545725,8.3593362 61.6928971,8.3593362 C62.6312217,8.3593362 70.4770469,8.3593362 70.4770469,8.3593362 C70.4770469,8.3593362 69.152811,10.6514625 68.9007238,11.0882061 C68.6491553,11.5259872 68.2331595,11.7531769 67.7803362,11.7531769 C67.3280316,11.7531769 66.8674278,11.7531769 66.4146045,11.7531769 C65.9622999,11.7531769 65.7724565,11.2609325 65.9348089,10.9652747 C66.0987175,10.6685795 66.4607686,10.0565159 66.4607686,10.0565159 L58.4987551,10.0565159 C58.4987551,10.0565159 57.8835793,11.1229589 57.3446521,12.0566152 C56.8052063,12.9897528 57.5236029,14.0027699 58.4349552,14.0027699 C59.3468262,14.0027699 72.130656,14.0027699 73.3153621,14.0027699 C74.4995495,14.0027699 75.5509503,13.356991 76.1173684,12.3699088 C76.6837866,11.3833453 78.0158029,9.06061583 78.5915577,8.07249623 C79.1667937,7.08437663 78.4390605,6.1061123 77.5235586,6.1061123 C76.6085754,6.1061123 68.7420022,6.1061123 68.7420022,6.1061123 C68.7420022,6.1061123 70.1782769,3.61791822 70.3639707,3.29528809 C70.5501833,2.97421406 70.9744782,2.70656592 71.4480495,2.70656592 C71.9216207,2.70656592 72.3713318,2.70656592 72.8179308,2.70656592 C73.264011,2.70656592 73.4522983,3.19466069 73.3112125,3.44986008 C73.169608,3.70609687 72.7587992,4.40582041 72.7587992,4.40582041 L80.7114762,4.40582041 C80.7114762,4.40582041 81.4641069,3.10648204 81.9060376,2.34088386 C82.3474495,1.57476698 81.7991858,0.460603782 80.7825378,0.460603782 C79.7658898,0.460603782 67.0728322,0.460603782 65.8777521,0.460603782" id="Fill-1" fill="#221F20"></path>
            <g id="Group-5">
                <mask id="mask-2" fill="white">
                    <use xlink:href="#path-1"></use>
                </mask>
                <g id="Clip-3"></g>
                <path d="M52.0897232,3.50795425 C51.8744635,3.8751924 47.9209477,10.7277111 47.7015385,11.1115475 C47.4821293,11.4959027 47.0536848,11.7531769 46.5946371,11.7531769 C46.1350707,11.7531769 45.6547564,11.7531769 45.2117883,11.7531769 C44.7688203,11.7531769 44.5654907,11.2645634 44.7356236,10.9683869 C44.9057565,10.6737665 48.9007682,3.75485448 49.1450749,3.33107825 C49.3893816,2.90678333 49.8525789,2.70656592 50.2452333,2.70656592 C50.6373689,2.70656592 51.2323155,2.70656592 51.6317129,2.70656592 C52.0311103,2.70656592 52.3039454,3.1407161 52.0897232,3.50795425 Z M59.5797216,0.460603782 C58.5952329,0.460603782 45.7937674,0.460603782 44.7138383,0.460603782 C43.6328718,0.460603782 42.5155964,1.04206419 41.9377669,2.03952035 C41.3588999,3.03697651 36.6423795,11.2106188 36.1304246,12.0970736 C35.617951,12.9845658 36.3218241,14.0027699 37.2378447,14.0027699 C38.1538653,14.0027699 50.9304333,14.0027699 52.1291442,14.0027699 C53.3288926,14.0027699 54.3818494,13.324313 54.9052157,12.4202225 C55.4285819,11.5156132 60.2073461,3.23460043 60.7052962,2.37200574 C61.2032462,1.50785495 60.5642103,0.460603782 59.5797216,0.460603782 Z" id="Fill-2" fill="#221F20" mask="url(#mask-2)"></path>
                <path d="M32.7454017,3.50484206 C32.5472591,3.85600058 31.8739892,5.0147718 31.6089345,5.47330079 C31.3443986,5.93286718 30.8962435,6.1040375 30.5144818,6.1040375 C30.1332388,6.1040375 26.300061,6.1040375 26.300061,6.1040375 L28.2612579,2.70760331 C28.2612579,2.70760331 31.8630965,2.70760331 32.2816858,2.70760331 C32.700275,2.70760331 32.9430257,3.15523964 32.7454017,3.50484206 Z M29.4874599,9.15657495 C29.2893173,9.50617737 28.6160473,10.6654673 28.3515114,11.1250337 C28.0864567,11.5825253 27.6388204,11.7552517 27.2570587,11.7552517 C26.875297,11.7552517 23.0421191,11.7542143 23.0421191,11.7542143 L25.0033161,8.3593362 C25.0033161,8.3593362 28.6051547,8.3593362 29.0237439,8.3593362 C29.4423332,8.3593362 29.6856025,8.80697253 29.4874599,9.15657495 Z M38.4064712,0.460603782 C37.4230199,0.460603782 21.6110315,0.460603782 21.6110315,0.460603782 L15.0894421,11.7542143 L0,11.7552517 L0,14.0048447 C0,14.0048447 29.8111274,14.0027699 30.9372207,14.0027699 C32.0627952,14.0027699 33.131313,13.4176786 33.7257409,12.3937689 C34.31965,11.3688217 35.2507128,9.74581583 35.650629,9.05076057 C36.0510638,8.35311183 35.6272876,7.46354484 34.8850308,7.23272425 C35.9763713,7.23272425 37.077567,6.58383311 37.6164942,5.65536378 C38.1554214,4.72689444 39.0097169,3.23045085 39.5014426,2.3803049 C39.9936869,1.53223375 39.3904412,0.460603782 38.4064712,0.460603782 Z" id="Fill-4" fill="#221F20" mask="url(#mask-2)"></path>
            </g>
            <polyline id="Fill-6" fill="#221F20" points="85.2272606 0.460603782 77.4104824 14.0027699 96.3585186 14.0027699 97.6568196 11.7542143 86.6599043 11.7542143 88.6205826 8.3593362 99.6174979 8.3593362 100.918392 6.1061123 89.9209583 6.1061123 91.8837114 2.70552852 112.521666 2.70656592 112.521666 0.460603782 85.2272606 0.460603782"></polyline>
            <path d="M114.402983,1.56491172 L114.705903,1.56491172 C114.803418,1.56491172 114.906639,1.50785495 114.906639,1.40411536 L114.906639,1.34083421 C114.904564,1.23968811 114.813792,1.15617774 114.705903,1.15617774 L114.402983,1.15617774 L114.402983,1.56491172 Z M114.850101,1.71533413 L115.175324,2.2298825 L114.921162,2.2298825 L114.609943,1.73867554 L114.402983,1.73867554 L114.402983,2.2298825 L114.18098,2.2298825 L114.18098,0.964778192 L114.735987,0.964778192 C114.95384,0.964778192 115.120342,1.12349976 115.120342,1.33305374 L115.120342,1.39011051 C115.120342,1.55453776 115.014528,1.6717635 114.850101,1.71533413 Z M114.632247,2.57844752 C115.191404,2.57844752 115.613105,2.15674609 115.613105,1.59758969 C115.613105,1.03635851 115.187254,0.606876604 114.630173,0.606876604 C114.064792,0.606876604 113.642053,1.03635851 113.642053,1.59758969 C113.642053,2.15674609 114.066867,2.57844752 114.632247,2.57844752 Z M114.630173,0.417033154 C115.299293,0.417033154 115.808136,0.926394543 115.808136,1.5955149 C115.808136,2.26411656 115.299293,2.76569748 114.630173,2.76569748 C113.952753,2.76569748 113.449097,2.26774745 113.449097,1.5955149 C113.449097,0.926394543 113.952753,0.417033154 114.630173,0.417033154 Z" id="Fill-7" fill="#221F20"></path>
        </g>
    </g>
</svg>