<?xml version="1.0" encoding="UTF-8"?>
<svg width="80px" height="80px" viewBox="0 0 80 80" version="1.1" xmlns="http://www.w3.org/2000/svg" xmlns:xlink="http://www.w3.org/1999/xlink">
    <!-- Generator: Sketch 43.2 (39069) - http://www.bohemiancoding.com/sketch -->
    <title>uservoice</title>
    <desc>Created with Sketch.</desc>
    <defs>
        <polygon id="path-1" points="79.8847869 80 0 80 0 40 0 0 79.8847869 0 79.8847869 80"></polygon>
        <linearGradient x1="50.000339%" y1="0.138444736%" x2="50.000339%" y2="71.6927395%" id="linearGradient-3">
            <stop stop-color="#DC4E41" offset="0%"></stop>
            <stop stop-color="#DF2227" offset="100%"></stop>
        </linearGradient>
        <linearGradient x1="18.1703776%" y1="81.9600345%" x2="48.8402551%" y2="38.2826413%" id="linearGradient-4">
            <stop stop-color="#17A05D" offset="0%"></stop>
            <stop stop-color="#4CB749" offset="100%"></stop>
        </linearGradient>
    </defs>
    <g id="Page-1" stroke="none" stroke-width="1" fill="none" fill-rule="evenodd">
        <g id="uservoice">
            <mask id="mask-2" fill="white">
                <use xlink:href="#path-1"></use>
            </mask>
            <g id="Clip-2"></g>
            <g id="Chrome_Logo" mask="url(#mask-2)" fill-rule="nonzero">
                <circle id="circle47_1_" fill="#FFFFFF" cx="39.9130836" cy="39.9827068" r="39.2070175"></circle>
                <circle id="circle53_1_" fill="#4C8BF4" cx="39.9130836" cy="39.9822394" r="14.6133333"></circle>
                <path d="M75.5556538,22.1609539 C65.7427883,2.41826372 41.7834915,-5.63179462 22.0403336,4.1806029 C15.8840763,7.24025216 10.6227897,11.8376791 6.76547977,17.5279715 L22.804778,45.3291411 C19.8508599,35.940603 25.067702,25.9345212 34.45624,22.9810709 C36.1072342,22.4617726 37.8260646,22.1852814 39.5565909,22.1614218" id="path55_1_" fill="url(#linearGradient-3)"></path>
                <path d="M6.76547977,17.5279715 C-5.51101146,35.8409539 -0.617444117,60.6381474 17.6955382,72.9146386 C23.3615032,76.7130012 29.9060646,78.9960421 36.7051289,79.5462175 L53.4574082,51.0325333 C47.1935485,58.6245801 35.9617371,59.7010713 28.3696903,53.4372117 C25.7909768,51.3099602 23.8625558,48.5006035 22.804778,45.3296089" id="path57_1_" fill="url(#linearGradient-4)"></path>
                <path d="M36.7051289,79.5462175 C58.6892211,81.2079719 77.8583439,64.733586 79.5205661,42.7494919 C80.0567064,35.6561586 78.6882854,28.5487902 75.555186,22.1614218 L39.5565909,22.1614218 C49.3984608,22.2068019 57.340917,30.2222405 57.2955368,40.0645796 C57.2772912,44.046334 55.9257123,47.9083228 53.4569404,51.0325333" id="path59_1_" fill="#FFCD42"></path>
                <path d="M6.76547977,17.5279715 L22.804778,45.3291411 C21.6164739,41.3305446 21.8691055,37.0418896 23.5172926,33.2103106 L7.47799439,16.4584978" id="path61_1_"></path>
                <path d="M36.7051289,79.5462175 L53.4574082,51.0325333 C50.8141333,54.1843462 47.1622035,56.3246971 43.1210353,57.0914807 L35.9921464,79.5462175" id="path63_1_"></path>
                <path d="M75.5556538,22.1609539 L39.5565909,22.1609539 C44.9788131,22.1862171 50.095069,24.6783808 53.4569404,28.9333516 L76.2681684,23.2304276" id="path65_1_"></path>
            </g>
        </g>
    </g>
</svg>