<?xml version="1.0" encoding="UTF-8"?>
<svg width="80px" height="80px" viewBox="0 0 80 80" version="1.1" xmlns="http://www.w3.org/2000/svg" xmlns:xlink="http://www.w3.org/1999/xlink">
    <!-- Generator: Sketch 43.2 (39069) - http://www.bohemiancoding.com/sketch -->
    <title>chrome-white</title>
    <desc>Created with Sketch.</desc>
    <defs></defs>
    <g id="Page-1" stroke="none" stroke-width="1" fill="none" fill-rule="evenodd">
        <g id="chrome-white" fill-rule="nonzero" fill="#FFFFFF">
            <g id="1494864998_Browser_A">
                <circle id="Oval" cx="40" cy="40" r="14.877551"></circle>
                <path d="M39.9108571,22.2728163 L39.9108571,22.2716735 L75.8633469,22.2716735 C69.3275102,9.07477551 55.7245714,0 40,0 C27.2706939,0 15.9309388,5.94677551 8.60506122,15.212898 L22.3211429,38.668898 C22.9998367,29.5289796 30.608,22.3188571 39.9108571,22.2728163 Z M40,57.7281633 C32.3281633,57.7281633 25.7952653,52.8548571 23.3262041,46.0355918 L6.77208163,17.7253878 C2.496,24.0919184 0,31.7542857 0,40 C0,60.1343673 14.876898,76.7911837 34.2377143,79.5851429 L48.0383673,55.8052245 C45.6253061,57.0346122 42.8938776,57.7281633 40,57.7281633 Z M77.1394286,25.122449 L49.6434286,25.122449 C54.5093878,28.2829388 57.7281633,33.7653878 57.7281633,40 C57.7281633,43.0656327 56.9497143,45.9498776 55.5800816,48.4654694 L55.5902041,48.4715102 L37.3451429,79.9102041 C38.2228571,79.9676735 39.1075918,80 40,80 C62.0915918,80 80,62.0915918 80,40 C80,34.7418776 78.9835102,29.7214694 77.1394286,25.122449 Z" id="Shape"></path>
            </g>
        </g>
    </g>
</svg>