<?xml version="1.0" encoding="UTF-8"?>
<svg width="199px" height="37px" viewBox="0 0 199 37" version="1.1" xmlns="http://www.w3.org/2000/svg" xmlns:xlink="http://www.w3.org/1999/xlink">
    <!-- Generator: Sketch 50.2 (55047) - http://www.bohemiancoding.com/sketch -->
    <title>citizenlab-white</title>
    <desc>Created with Sketch.</desc>
    <defs></defs>
    <g id="Page-1" stroke="none" stroke-width="1" fill="none" fill-rule="evenodd">
        <g id="citizenlab-white" transform="translate(0.839844, 0.250000)" fill-rule="nonzero">
            <g id="shield-1" fill="#04626C">
                <g id="path0_fill-link">
                    <path d="M28.0591,4.43697 C28.0591,3.12605 28.0591,2.42017 28.0591,1.61345 L28.0591,0 L20.8213,4.47821e-16 C20.3255,4.47821e-16 19.7306,4.47821e-16 19.1357,4.47821e-16 C17.5494,4.47821e-16 15.6655,4.47821e-16 13.6825,4.47821e-16 C12.0962,0 10.4106,0 8.9234,0 C8.13021,0 7.43617,0 6.74212,0 L0,0 L0,10.9916 C0,15.8319 0.594893,20.1681 1.88383,23.6975 C2.97447,26.7227 4.4617,29.3445 6.34553,31.3613 C6.44468,31.4622 6.54383,31.563 6.54383,31.6639 C7.33702,32.4706 8.13021,33.1765 9.02255,33.7815 C9.1217,33.8824 9.22085,33.8824 9.22085,33.9832 C9.22085,33.9832 9.31999,33.9832 9.31999,34.084 C9.31999,34.084 9.41914,34.084 9.41914,34.1849 C11.4021,35.4958 13.0877,35.7983 13.286,35.8992 L13.8808,36 L14.4757,35.8992 C14.674,35.8992 15.5664,35.6975 16.9545,34.9916 C18.64,34.1849 20.2264,32.8739 21.6145,31.4622 C23.4983,29.4454 24.9855,26.8235 26.0762,23.7983 C27.3651,20.1681 27.96,15.9328 27.96,11.0924 C27.96,10.9916 27.96,10.9916 27.96,10.8908 C27.96,8.87395 27.96,7.2605 27.96,5.94958 C28.0591,5.34454 28.0591,4.84034 28.0591,4.43697 Z M15.963,12.1008 L13.98,14.1176 L11.997,12.1008 L13.98,10.084 L15.963,12.1008 Z M24.6881,3.52941 C24.6881,4.63866 24.6881,7.05882 24.6881,10.2857 L18.9374,10.2857 L15.5664,6.85714 L15.5664,3.32773 L24.6881,3.32773 C24.6881,3.42857 24.6881,3.52941 24.6881,3.52941 Z M3.27191,3.32773 L12.3936,3.32773 L12.3936,6.95798 L9.02255,10.3866 L3.27191,10.3866 C3.27191,9.88235 3.27191,9.07563 3.27191,8.26891 L3.27191,3.32773 Z M9.02255,13.7143 L12.3936,17.1429 L12.3936,31.8655 C12.0962,31.6639 11.6996,31.4622 11.4021,31.2605 L11.303,31.2605 C11.303,31.2605 11.2038,31.2605 11.2038,31.1597 C11.1047,31.1597 11.1047,31.0588 11.0055,31.0588 C10.3115,30.5546 9.61744,29.9496 9.02255,29.3445 C8.9234,29.2437 8.82425,29.1429 8.7251,29.042 C7.13872,27.3277 5.94893,25.2101 5.05659,22.5882 C4.16425,20.0672 3.56936,17.042 3.37106,13.7143 L9.02255,13.7143 Z M24.6881,13.7143 C24.4898,17.042 23.994,19.9664 23.0025,22.5882 C22.1102,25.2101 20.8213,27.3277 19.2349,29.042 C18.1442,30.2521 16.8553,31.1597 15.5664,31.8655 L15.5664,17.1429 L18.9374,13.7143 L24.6881,13.7143 Z" id="path0_fill"></path>
                </g>
            </g>
            <g id="citizen-1" transform="translate(46.000000, 4.000000)" fill="#04626C">
                <g id="Vector" transform="translate(0.000000, 8.000000)">
                    <g id="path1_fill-link" transform="translate(0.500000, 0.504200)">
                        <path d="M9.31999,4.63866 C11.6996,4.63866 12.7902,6.15126 13.2859,7.66387 L17.5494,6.15126 C16.7562,3.12605 14.0791,-3.84675e-07 9.22085,-3.84675e-07 C4.06511,-3.84675e-07 1.51289e-06,4.03361 1.51289e-06,9.57983 C1.51289e-06,15.1261 4.0651,19.1597 9.31999,19.1597 C14.0791,19.1597 16.7562,16.0336 17.5494,13.0084 L13.3851,11.5966 C12.9885,13.0084 11.7987,14.6218 9.31999,14.6218 C6.84127,14.6218 4.75915,12.8067 4.75915,9.47899 C4.75915,6.15126 6.94042,4.63866 9.31999,4.63866 Z" id="path1_fill"></path>
                    </g>
                </g>
                <g id="Vector" transform="translate(20.000000, 9.000000)">
                    <g id="path2_fill-link" transform="translate(0.930000, 0.109200)">
                        <polygon id="path2_fill" points="4.75915 0 0 0 0 18.0504 4.75915 18.0504"></polygon>
                    </g>
                </g>
                <g id="Vector" transform="translate(20.000000, 0.000000)">
                    <g id="path3_fill-link" transform="translate(0.430000, 0.230200)">
                        <path d="M0,3.0303 C0,4.64374 1.28894,6.05551 2.97447,6.05551 C4.66,6.05551 5.94893,4.74458 5.94893,3.0303 C5.94893,1.31601 4.66,0.00508756 2.97447,0.00508756 C1.28894,-0.0957528 0,1.31601 0,3.0303 Z" id="path3_fill"></path>
                    </g>
                </g>
                <g id="Vector" transform="translate(28.000000, 3.000000)">
                    <g id="path4_fill-link" transform="translate(0.060000, 0.764700)">
                        <path d="M8.03106,-1.92338e-07 L3.66851,-1.92338e-07 L3.66851,2.52101 C3.66851,4.13445 2.77617,5.34454 0.892338,5.34454 L-3.02578e-06,5.34454 L-3.02578e-06,9.68067 L3.27191,9.68067 L3.27191,18.1513 C3.27191,21.6807 5.45319,23.6975 8.9234,23.6975 C10.3115,23.6975 11.2038,23.395 11.6004,23.2941 L11.6004,19.2605 C11.303,19.3613 10.7081,19.3613 10.1132,19.3613 C8.7251,19.3613 8.03106,18.8571 8.03106,17.2437 L8.03106,9.68067 L11.6004,9.68067 L11.6004,5.34454 L8.03106,5.34454 L8.03106,-1.92338e-07 Z" id="path4_fill"></path>
                    </g>
                </g>
                <g id="Vector" transform="translate(42.000000, 9.000000)">
                    <g id="path5_fill-link" transform="translate(0.940000, 0.109200)">
                        <polygon id="path5_fill" points="4.75915 0 -3.02578e-06 0 -3.02578e-06 18.0504 4.75915 18.0504"></polygon>
                    </g>
                </g>
                <g id="Vector" transform="translate(42.000000, 0.000000)">
                    <g id="path6_fill-link" transform="translate(0.340000, 0.230200)">
                        <path d="M-1.51289e-06,3.0303 C-1.51289e-06,4.64374 1.28893,6.05551 2.97447,6.05551 C4.66,6.05551 5.94893,4.74458 5.94893,3.0303 C5.94893,1.31601 4.66,0.00508756 2.97447,0.00508756 C1.38808,-0.0957528 -1.51289e-06,1.31601 -1.51289e-06,3.0303 Z" id="path6_fill"></path>
                    </g>
                </g>
                <g id="Vector" transform="translate(50.000000, 9.000000)">
                    <g id="path7_fill-link" transform="translate(0.870000, 0.109200)">
                        <polygon id="path7_fill" points="14.674 18.1513 14.674 13.916 5.94893 13.916 14.5749 4.13445 14.5749 0 0.297447 0 0.297447 4.23529 8.42765 4.23529 -3.02578e-06 13.8151 -3.02578e-06 18.1513"></polygon>
                    </g>
                </g>
                <g id="Vector" transform="translate(67.000000, 8.000000)">
                    <g id="path8_fill-link" transform="translate(0.330000, 0.605000)">
                        <path d="M4.75914,7.56303 L12.6911,7.56303 C12.5919,5.7479 11.5013,4.03361 8.7251,4.03361 C6.24638,3.93277 4.85829,5.84874 4.75914,7.56303 Z M13.1868,12.2017 L17.1528,13.4118 C16.2604,16.5378 13.4842,19.1597 9.1217,19.1597 C4.2634,19.1597 3.02578e-06,15.6303 3.02578e-06,9.47899 C3.02578e-06,3.73109 4.16425,1.79128e-15 8.7251,1.79128e-15 C14.1783,1.79128e-15 17.4502,3.52941 17.4502,9.37815 C17.4502,10.084 17.3511,10.7899 17.3511,10.8908 L4.66,10.8908 C4.75915,13.3109 6.74212,15.0252 9.1217,15.0252 C11.4021,15.0252 12.5919,13.8151 13.1868,12.2017 Z" id="path8_fill"></path>
                    </g>
                </g>
                <g id="Vector" transform="translate(87.000000, 8.000000)">
                    <g id="path9_fill-link" transform="translate(0.850000, 0.705800)">
                        <path d="M4.75915,8.16807 C4.75915,6.05042 5.94894,4.43698 8.03106,4.43698 C10.3115,4.43698 11.303,6.05042 11.303,8.06723 L11.303,18.5546 L16.0621,18.5546 L16.0621,7.15967 C16.0621,3.22689 14.0791,3.84675e-07 9.61744,3.84675e-07 C7.73361,3.84675e-07 5.55234,0.806723 4.4617,2.72269 L4.4617,0.403361 L0,0.403361 L0,18.5546 L4.75915,18.5546 L4.75915,8.16807 Z" id="path9_fill"></path>
                    </g>
                </g>
            </g>
            <g id="lab-1" transform="translate(154.000000, 4.000000)" fill="#FF672F">
                <g id="Vector">
                    <g id="path10_fill-link" transform="translate(0.470000, 0.638700)">
                        <polygon id="path10_fill" points="3.37106 0 3.02578e-06 0 3.02578e-06 26.6218 3.37106 26.6218"></polygon>
                    </g>
                </g>
                <g id="Vector" transform="translate(7.000000, 9.000000)">
                    <g id="path11_fill-link" transform="translate(0.810000, 0.008400)">
                        <path d="M6.24638,15.9328 C9.02255,15.9328 11.2038,14.6218 11.2038,10.6891 L11.2038,9.88235 L5.94893,10.6891 C4.4617,10.8908 3.47021,11.7983 3.47021,13.3109 C3.37106,14.6219 4.4617,15.9328 6.24638,15.9328 Z M-3.02578e-06,13.5126 C-3.02578e-06,10.3866 2.28042,8.57143 5.25489,8.16807 L9.91489,7.46218 C11.0055,7.36134 11.2038,6.7563 11.2038,6.15126 C11.2038,4.43697 10.1132,3.02521 7.43616,3.02521 C5.05659,3.02521 3.76765,4.53781 3.47021,6.55462 L0.198292,5.7479 C0.594887,2.31933 3.56937,-3.84675e-07 7.33702,-3.84675e-07 C12.4928,-3.84675e-07 14.5749,3.02521 14.5749,6.45378 L14.5749,15.3277 C14.5749,16.8403 14.674,17.7479 14.7732,18.2521 L11.5013,18.2521 C11.4021,17.8487 11.303,17.1429 11.303,15.8319 C10.5098,17.042 8.82425,18.7563 5.75064,18.7563 C2.18128,18.7563 -3.02578e-06,16.3361 -3.02578e-06,13.5126 Z" id="path11_fill"></path>
                    </g>
                </g>
                <g id="Vector" transform="translate(26.000000, 0.000000)">
                    <g id="path12_fill-link" transform="translate(0.950000, 0.638700)">
                        <path d="M13.5834,17.6471 C13.5834,13.8151 11.6004,11.395 8.42765,11.395 C5.45319,11.395 3.27192,13.8151 3.27192,17.6471 C3.27192,21.479 5.45319,24 8.42765,24 C11.6004,24 13.5834,21.479 13.5834,17.6471 Z M3.37106,26.6218 L0,26.6218 L0,-9.61688e-08 L3.37106,-9.61688e-08 L3.37106,11.395 C4.16425,9.78151 6.24638,8.36975 9.12169,8.36975 C14.3766,8.36975 17.0536,12.5042 17.0536,17.6471 C17.0536,22.8908 14.1783,27.0252 9.02255,27.0252 C6.44468,27.0252 4.46169,25.916 3.37106,24 L3.37106,26.6218 Z" id="path12_fill"></path>
                    </g>
                </g>
            </g>
        </g>
    </g>
</svg>