<?xml version="1.0" encoding="UTF-8"?>
<svg width="116px" height="64px" viewBox="0 0 116 64" version="1.1" xmlns="http://www.w3.org/2000/svg" xmlns:xlink="http://www.w3.org/1999/xlink">
    <!-- Generator: Sketch 44 (41411) - http://www.bohemiancoding.com/sketch -->
    <title>deloitte-grey</title>
    <desc>Created with Sketch.</desc>
    <defs></defs>
    <g id="Page-1" stroke="none" stroke-width="1" fill="none" fill-rule="evenodd">
        <g id="deloitte-grey" fill-rule="nonzero">
            <g id="Deloitte" transform="translate(0.000000, 21.000000)">
                <path d="M109.141298,18.7950023 C109.141298,17.1187556 110.502186,15.7587819 112.177519,15.7587819 C113.853765,15.7587819 115.212896,17.1187556 115.212896,18.7950023 C115.212896,20.471249 113.853765,21.8303442 112.177519,21.8303442 C110.502186,21.8303442 109.141298,20.471249 109.141298,18.7950023" id="path3356" fill="#86BC24"></path>
                <path d="M12.3106771,10.7541981 C12.3106771,8.83108279 11.9390915,7.40434033 11.1958501,6.47484925 C10.4516949,5.5462367 9.32449809,5.0823697 7.80905864,5.0823697 L6.19698023,5.0823697 L6.19698023,16.8424525 L7.43044477,16.8424525 C9.11371974,16.8424525 10.3471843,16.3434441 11.1325955,15.3419131 C11.917093,14.3421391 12.3106771,12.8126079 12.3106771,10.7541981 M18.0598166,10.5538919 C18.0598166,14.0574934 17.1180261,16.7572346 15.2344449,18.6522367 C13.3508637,20.5481174 10.7029562,21.4960577 7.28980873,21.4960577 L0.657775632,21.4960577 L0.657775632,0.501683011 L7.75283234,0.501683011 C11.0438282,0.501683011 13.5845543,1.36352682 15.3750106,3.08633591 C17.1646236,4.81002354 18.0598166,7.29803748 18.0598166,10.5538919" id="path3360" fill="#0F0B0B"></path>
                <polygon id="path3362" fill="#0F0B0B" points="36.4307072 21.4957977 41.7080378 21.4957977 41.7080378 0.413569365 36.4307072 0.413569365"></polygon>
                <path d="M49.121757,13.632022 C49.121757,14.976182 49.2974642,16.0014335 49.6480352,16.7060194 C49.9994496,17.4114838 50.5879985,17.7637768 51.4155794,17.7637768 C52.2343749,17.7637768 52.8133653,17.4114838 53.1507231,16.7060194 C53.4880809,16.0014335 53.6558462,14.976182 53.6558462,13.632022 C53.6558462,12.2948902 53.4854102,11.2863309 53.1436948,10.6054655 C52.8010658,9.92284299 52.2168042,9.58109249 51.3883799,9.58109249 C50.5783697,9.58109249 49.9994496,9.92108592 49.6480352,10.5975586 C49.2974642,11.2749099 49.121757,12.2861048 49.121757,13.632022 M59.0272153,13.632022 C59.0272153,16.1929544 58.3560138,18.1907453 57.0100966,19.6227589 C55.6650931,21.0556511 53.7823554,21.7725365 51.3620238,21.7725365 C49.0409317,21.7725365 47.1933354,21.0398375 45.8219758,19.5744394 C44.4488592,18.1090414 43.7626875,16.1288213 43.7626875,13.632022 C43.7626875,11.0789964 44.4348026,9.09526208 45.7807198,7.68081913 C47.1265666,6.26637617 49.013662,5.5591547 51.4436925,5.5591547 C52.9451457,5.5591547 54.2734921,5.88684862 55.4243743,6.54135794 C56.5760998,7.19586726 57.4652485,8.13326517 58.0898525,9.3544302 C58.7153701,10.5738382 59.0272153,12.0005806 59.0272153,13.632022" id="path3366" fill="#0F0B0B"></path>
                <polygon id="path3370" fill="#0F0B0B" points="61.1230507 21.495882 66.401295 21.495882 66.401295 13.4274074 66.401295 5.83597787 61.1230507 5.83597787"></polygon>
                <polygon id="path3372" fill="#0F0B0B" points="61.1228399 3.94176993 66.4010841 3.94176993 66.4010841 0.412690829 61.1228399 0.412690829"></polygon>
                <path d="M77.0946946,17.5016216 C77.8072224,17.5016216 78.6558882,17.3206432 79.6459631,16.961322 L79.6459631,20.9015559 C78.9343489,21.2143147 78.2578762,21.4383414 77.6147879,21.5710004 C76.9716995,21.7054164 76.217002,21.7721851 75.3534362,21.7721851 C73.581394,21.7721851 72.3040729,21.3267673 71.5195051,20.4376889 C70.7385218,19.5486105 70.3466947,18.1833655 70.3466947,16.3410756 L70.3466947,9.88559306 L68.498255,9.88559306 L68.498255,5.83729919 L70.3466947,5.83729919 L70.3466947,1.83820334 L75.6653516,0.913104933 L75.6653516,5.83729919 L79.032745,5.83729919 L79.032745,9.88559306 L75.6653516,9.88559306 L75.6653516,15.9808758 C75.6653516,16.9947063 76.1423616,17.5016216 77.0946946,17.5016216" id="path3376" fill="#0F0B0B"></path>
                <path d="M89.3104916,17.5016216 C90.0230194,17.5016216 90.8716852,17.3206432 91.8617601,16.961322 L91.8617601,20.9015559 C91.1510597,21.2143147 90.4736733,21.4383414 89.8305849,21.5710004 C89.1866532,21.7054164 88.4346264,21.7721851 87.5692333,21.7721851 C85.7972613,21.7721851 84.51987,21.3267673 83.7370593,20.4376889 C82.9543188,19.5486105 82.5624918,18.1833655 82.5624918,16.3410756 L82.5624918,9.88559306 L80.7131384,9.88559306 L80.7131384,5.83729919 L82.5624918,5.83729919 L82.5624918,1.77758435 L87.880235,0.913104933 L87.880235,5.83729919 L91.2494557,5.83729919 L91.2494557,9.88559306 L87.880235,9.88559306 L87.880235,15.9808758 C87.880235,16.9947063 88.3573152,17.5016216 89.3104916,17.5016216" id="path3380" fill="#0F0B0B"></path>
                <path d="M98.5216253,11.7242775 C98.5936652,10.8668264 98.8388119,10.2386732 99.2569247,9.83718222 C99.6769352,9.4365698 100.195271,9.23626359 100.815518,9.23626359 C101.491991,9.23626359 102.029655,9.46116881 102.42851,9.91449338 C102.829966,10.3651823 103.039057,10.9687366 103.055785,11.7242775 L98.5216253,11.7242775 L98.5216253,11.7242775 Z M105.964582,7.40539458 C104.710033,6.17544418 102.930119,5.55959045 100.627511,5.55959045 C98.2071094,5.55959045 96.3446131,6.26681193 95.0391086,7.68125488 C93.7344475,9.09569784 93.0817304,11.125116 93.0817304,13.7695093 C93.0817304,16.3304418 93.7872299,18.3053907 95.1946446,19.6917205 C96.6029026,21.0780503 98.580452,21.7720937 101.127363,21.7720937 C102.350285,21.7720937 103.402771,21.6886328 104.284821,21.5225895 C105.1616,21.3583033 106.010266,21.0613581 106.833489,20.6326325 L106.022566,17.1035534 C105.424318,17.3477864 104.855026,17.5357932 104.317362,17.6596667 C103.540737,17.8397666 102.688557,17.9302558 101.760752,17.9302558 C100.743478,17.9302558 99.940496,17.6816301 99.3518769,17.1843788 C98.7632578,16.6862488 98.4495853,15.9992337 98.4136005,15.1242118 L107.84732,15.1242118 L107.84732,12.7196588 C107.84732,10.4064735 107.219975,8.63446644 105.964582,7.40539458 L105.964582,7.40539458 Z" id="path3384" fill="#0F0B0B"></path>
                <path d="M25.0642787,11.7242775 C25.1363187,10.8668264 25.3814654,10.2386732 25.7995782,9.83718222 C26.218675,9.4365698 26.7378547,9.23626359 27.3590147,9.23626359 C28.0337304,9.23626359 28.5713944,9.46116881 28.9711634,9.91449338 C29.3726192,10.3651823 29.5807971,10.9687366 29.5992815,11.7242775 L25.0642787,11.7242775 L25.0642787,11.7242775 Z M32.5080791,7.40539458 C31.2526863,6.17544418 29.4736157,5.55959045 27.1701646,5.55959045 C24.7488492,5.55959045 22.8872665,6.26681193 21.5826054,7.68125488 C20.2780146,9.09569784 19.6243838,11.125116 19.6243838,13.7695093 C19.6243838,16.3304418 20.3289697,18.3053907 21.7381414,19.6917205 C23.1455561,21.0780503 25.1231055,21.7720937 27.6700165,21.7720937 C28.8929386,21.7720937 29.9454247,21.6886328 30.8274749,21.5225895 C31.7042538,21.3583033 32.5529196,21.0613581 33.3769863,20.6326325 L32.5652191,17.1035534 C31.9669009,17.3477864 31.3976096,17.5357932 30.8608592,17.6596667 C30.0824763,17.8397666 29.2312101,17.9302558 28.3034058,17.9302558 C27.2869748,17.9302558 26.4831495,17.6816301 25.8945304,17.1843788 C25.3049976,16.6862488 24.9922388,15.9992337 24.9562539,15.1242118 L34.3899735,15.1242118 L34.3899735,12.7196588 C34.3899735,10.4064735 33.7626285,8.63446644 32.5080791,7.40539458 L32.5080791,7.40539458 Z" id="path3388" fill="#0F0B0B"></path>
            </g>
        </g>
    </g>
</svg>