<?xml version="1.0" encoding="UTF-8"?>
<svg width="116px" height="64px" viewBox="0 0 116 64" version="1.1" xmlns="http://www.w3.org/2000/svg" xmlns:xlink="http://www.w3.org/1999/xlink">
    <!-- Generator: Sketch 44 (41411) - http://www.bohemiancoding.com/sketch -->
    <title>Artboard</title>
    <desc>Created with Sketch.</desc>
    <defs></defs>
    <g id="Page-1" stroke="none" stroke-width="1" fill="none" fill-rule="evenodd">
        <g id="Artboard" fill="#1A1918">
            <g id="Disney" transform="translate(0.000000, 8.000000)">
                <path d="M58.1320426,5.4316383 C58.9409574,5.47421277 59.6653404,5.77223404 60.261383,6.28312766 C61.0702979,7.04946809 61.2831702,8.32731915 60.9,9.34910638 C59.4092766,12.4157021 55.8675745,14.4629787 53.447617,15.1410851 C52.0000851,15.4816809 50.168766,15.4816809 48.8483404,14.9707872 C48.2097234,15.3539574 47.6704468,16.5923191 46.8892979,16.0777234 C45.7595319,15.195383 46.7375106,13.8144894 46.0853191,12.8346596 C45.9508085,12.6322766 45.6120638,12.6174681 45.4411489,12.2879787 C44.5470851,10.3289362 45.6546383,8.45504255 46.8892979,6.96431915 C48.9476809,4.66838298 54.8531915,2.10959574 58.1320426,5.4316383 Z M51.2757021,6.96431915 C50.1255745,7.17719149 48.8267447,7.67759574 48.1245745,8.49761702 C47.4217872,9.31702128 46.9744468,10.1160638 47.4008085,10.9675532 C48.8909149,9.86061702 49.6146809,8.32731915 51.2757021,7.39006383 C51.2757021,7.21976596 51.5311489,7.09204255 51.2757021,6.96431915 Z M58.2171915,7.39006383 C55.2789362,7.13461702 53.0644468,9.34910638 50.9776809,11.4784468 C50.8499574,11.8190426 50.083617,12.2022128 50.6796596,12.586 C53.4901915,12.8414468 56.173,12.0319149 58.2171915,10.1586383 C58.813234,9.60455319 59.2389787,8.88078723 58.9409574,8.11444681 C58.813234,7.81642553 58.5152128,7.51840426 58.2171915,7.39006383 L58.2171915,7.39006383 Z" id="Fill-2"></path>
                <path d="M83.6835106,20.0809574 C85.0465106,23.403 86.1960213,28.6408936 83.6835106,31.8345957 C83.0023191,32.6009362 81.809617,33.3074255 81.0432766,32.7286596 C78.2327447,30.4715957 77.0400426,27.2353191 75.2938723,24.3396383 C75.0384255,24.2119149 75.0384255,24.5525106 74.9107021,24.680234 C74.2720851,27.6184894 75.4647872,31.4514255 73.4631702,33.7510638 C72.6962128,33.8787872 71.9798511,33.4845106 71.717,32.7286596 C70.7371702,29.7052553 71.7595745,26.5541277 72.0150213,23.5307234 C72.6110638,21.9974255 72.8671277,20.2086809 74.1869362,19.0585532 C76.3162766,19.9106596 77.3380638,22.2954468 78.5733404,24.041617 C79.4674043,25.3614255 80.1911702,26.8521489 81.2135745,28.0448511 C82.1076383,27.6610638 81.6677021,26.4936596 81.6393191,25.7871702 C81.2987234,23.0192128 80.532383,20.4641277 79.808,17.8238936 C79.7660426,17.1427021 79.3822553,15.9925745 80.1060213,15.5668298 C82.0224894,16.4183191 82.8320213,18.4199362 83.6835106,20.0809574" id="Fill-3"></path>
                <path d="M70.8223191,19.0585532 C70.8223191,19.6977872 70.3114255,20.4962128 69.8856809,20.5918511 C65.7972979,21.2310851 61.2405957,20.8472979 57.4082766,22.1251489 C57.2805532,22.5934681 57.8340213,22.678617 58.1320426,22.8063404 C61.4108936,23.317234 64.8606596,23.4449574 68.0543617,24.2544894 C69.743766,24.6833191 70.354,26.6818511 70.4817234,28.3428723 C70.5600851,29.6521915 70.0559787,31.2385532 68.7787447,32.132617 C65.627,34.134234 60.8148511,34.0490851 57.6211489,32.217766 C56.4000638,31.5328723 55.2363617,30.4290213 55.1512128,29.0666383 C55.158,27.983766 55.6195319,27.1322766 56.3858723,26.7244255 C59.4518511,25.4891489 63.2422128,26.1703404 65.8824468,27.7462128 C66.0527447,28.5983191 65.1302979,28.5520426 64.6903617,28.853766 C61.7521064,30.5567447 59.537,26.9372979 56.811617,28.2571064 C56.4284468,28.5131702 56.1520213,29.2264468 56.5993617,29.4498085 C59.9633617,30.9405319 63.7105319,29.8755532 67.0325745,28.9389149 C67.4157447,28.8111915 67.8840638,28.4280213 67.9266383,28.0448511 C67.7989149,26.6818511 66.265617,26.3832128 65.2864043,26.0000426 C62.3907234,25.2762766 59.1964043,25.2762766 56.0878511,24.9782553 C55.4918085,24.8505319 54.7322553,24.4352766 54.5545532,23.9564681 C54.2139574,22.9340638 54.2139574,21.5291064 54.9809149,20.677 C58.9409574,17.1852766 64.9458085,17.4832979 69.9708298,18.4199362 C70.3114255,18.5476596 70.6945957,18.675383 70.8223191,19.0585532" id="Fill-4"></path>
                <path d="M52.2129574,20.677 C52.5961277,24.765383 52.809,28.5557447 52.7238511,32.856383 C52.6387021,33.4104681 52.0000851,33.5381915 51.5737234,33.7510638 C50.8925319,33.8787872 50.0126596,33.7331702 49.7424043,33.3678936 C48.7631915,31.7920213 49.1037872,29.6626809 49.0186383,27.7462128 C49.1463617,24.7228085 49.1037872,21.4439574 49.9552766,18.6334255 C50.1187872,18.2249574 50.5945106,17.8664681 50.9776809,18.1219149 C52.0000851,18.6334255 52.170383,19.6552128 52.2129574,20.677" id="Fill-5"></path>
                <path d="M99.5255319,20.0809574 C99.731617,20.4252553 99.9444894,20.9571277 99.5255319,21.1878936 C97.6090638,22.04 95.0114043,21.6568298 92.7969149,21.9122766 C92.2008723,22.4231702 91.7325532,23.2746596 91.9454255,24.041617 C92.1582979,24.1693404 92.3501915,24.3643191 92.5840426,24.3396383 C93.9470426,24.4247872 95.990617,23.7010213 96.8852979,24.9782553 C97.1055745,25.3577234 96.8569149,26.7774894 96.2466809,26.8095745 C94.5856596,27.0224468 91.8528723,26.5997872 91.0513617,27.0224468 C90.0289574,27.7036383 90.1141064,29.0240638 89.7309362,30.0884255 C90.4547021,30.5567447 91.2142553,30.0779362 92.0731489,29.9607021 C93.6490213,29.7052553 95.3945745,29.2369362 96.9704468,29.5775319 C97.2684681,30.131 97.6942128,30.7276596 97.3961915,31.4088511 C94.713383,33.5381915 91.2500426,35.7205957 87.5590213,34.1768085 C86.1750426,33.5554681 85.5574043,31.4514255 86.0257234,29.6626809 C86.3237447,28.3848298 87.6441702,27.1501702 86.8352553,25.7871702 C86.7075319,25.1911277 87.0481277,24.680234 87.5590213,24.5525106 C88.9639787,24.5525106 88.6659574,22.8063404 89.3903404,21.9974255 C88.5808085,21.1027447 86.536617,21.1459362 86.7501064,19.3571915 C87.7293191,18.8462979 88.9214043,19.0165957 90.0289574,18.8462979 C92.5414681,18.3347872 95.352,18.036766 97.9070851,18.3347872 C98.4185957,18.4378298 99.0997872,19.4423404 99.5255319,20.0809574" id="Fill-6"></path>
                <path d="M38.7131489,10.3715106 C42.6423404,13.5837234 47.7407872,19.0585532 47.1021702,25.3614255 C46.3358298,30.3438723 41.0553617,34.0916596 36.5838085,35.2843617 C32.2399787,36.5615957 26.7885957,36.4338723 22.359617,35.4120851 C22.0615957,36.221 21.7635745,37.2002128 20.8269362,37.5408085 C20.2302766,37.7536809 19.4639362,37.6265745 18.995617,37.2427872 C17.6751915,36.0081277 18.7401702,33.6233404 16.8237021,32.856383 C13.0759149,31.2811277 9.03010638,28.1719574 7.11425532,24.3396383 C6.85880851,23.5726809 7.15682979,22.8063404 7.62514894,22.2102979 C10.5634043,19.8680851 14.268617,18.9314468 17.9732128,18.2070638 C18.1860851,18.2922128 18.1009362,17.9941915 18.271234,17.9090426 C18.4847234,15.3539574 18.5698723,12.7562979 19.3787872,10.4566596 C19.5632766,10.1333404 20.0174043,10.0309149 20.3154255,10.2437872 C22.6582553,12.0319149 21.5507021,15.3965319 22.5724894,17.8238936 C27.0440426,18.036766 31.5162128,18.2496383 35.0505106,20.7621489 C36.2425957,21.7419787 36.5338298,23.6121702 36.1574468,24.680234 C35.7816809,25.7482979 34.539617,26.5115532 33.3894894,26.5967021 C32.6231489,26.5967021 31.175,26.6707447 31.2601489,26.0851915 C31.3452979,25.4996383 33.8652128,24.5414043 33.0914681,23.7435957 C31.9789787,22.5953191 26.4128298,21.9122766 22.9630638,21.4865319 C22.5373191,21.401383 22.1467447,21.5291064 22.1467447,21.9974255 C22.0615957,25.2337021 21.8061489,28.8111915 22.359617,31.9197447 C22.4021915,32.132617 22.6582553,32.3880638 22.8711277,32.4306383 C28.9605106,33.4104681 35.3911064,32.856383 40.1606809,29.3646596 C42.3751702,27.5759149 43.0995532,25.0634043 42.715766,22.2954468 C40.7992979,14.587617 32.7508723,9.94576596 26.1499787,6.96431915 C19.719383,4.15378723 12.6075957,2.7056383 4.98491489,3.08942553 C3.77123404,3.17765957 1.8473617,3.59661702 1.83317021,4.02606383 C1.81897872,4.45551064 4.01248936,4.32038298 3.7496383,5.133 C3.48740426,5.94623404 1.2587234,5.4637234 0.598510638,5.2607234 C-0.0617021277,5.05895745 0.00185106383,4.11121277 0.172765957,3.51517021 C1.83317021,0.576914894 6.46823404,0.338744681 8.56178723,0.235702128 C20.1451277,-0.0623191489 31.3452979,4.34876596 38.7131489,10.3715106 Z M17.8454894,21.7845532 C14.907234,21.8271277 11.7980638,22.1251489 9.07329787,23.1469362 C8.51921277,23.3598085 7.83802128,23.9564681 8.26376596,24.680234 C9.37131915,26.1703404 10.9539787,27.3951277 12.4372979,28.2571064 C13.920617,29.1197021 15.8864468,30.2161489 17.6751915,30.4715957 C18.1009362,27.7036383 18.1009362,24.9782553 18.0589787,22.1251489 C17.8880638,22.04 18.0589787,21.8697021 17.8454894,21.7845532 L17.8454894,21.7845532 Z" id="Fill-7"></path>
                <path d="M105.870979,17.9090426 C105.743255,21.6142553 102.293489,23.9138936 102.293489,27.6184894 C102.421213,27.7462128 102.506362,27.9165106 102.67666,27.8313617 C105.445234,24.8079574 108.170617,20.5067021 112.216426,19.2294681 C113.280787,19.1443191 114.245809,20.0704681 114.643787,20.7621489 C116.048745,23.5726809 115.708149,27.5333404 113.749106,30.0884255 C111.726511,32.597234 108.213191,35.1140638 104.209957,34.6877021 C102.548936,38.7760851 101.399426,43.0773404 100.760191,47.5488936 C100.420213,48.4429574 99.6106809,47.6340426 99.0997872,47.4637447 C95.6506383,44.7383617 98.4821489,37.5235319 98.716617,36.6041702 C98.9504681,35.6848085 99.8735319,33.5202979 100.547319,31.7068723 C98.9294894,28.8111915 99.9512766,25.3188511 101.271702,22.6360426 C102.293489,20.8472979 103.699064,19.0585532 105.360085,17.6961702 C105.572957,17.6961702 105.743255,17.7387447 105.870979,17.9090426 Z M112.727319,22.5083191 C112.216426,22.4231702 112.003553,23.1043617 111.577191,23.2327021 C109.618766,25.4465745 107.659723,27.6610638 106.679894,30.3012979 C108.000319,30.4715957 109.107255,29.6201064 110.257383,29.1517872 C112.216426,27.9165106 113.451085,25.8723191 113.323362,23.5307234 C113.238213,23.1469362 112.897617,22.8489149 112.727319,22.5083191 L112.727319,22.5083191 Z" id="Fill-8"></path>
            </g>
        </g>
    </g>
</svg>