<?xml version="1.0" encoding="UTF-8"?>
<svg width="80px" height="80px" viewBox="0 0 80 80" version="1.1" xmlns="http://www.w3.org/2000/svg" xmlns:xlink="http://www.w3.org/1999/xlink">
    <!-- Generator: Sketch 43.2 (39069) - http://www.bohemiancoding.com/sketch -->
    <title>Artboard</title>
    <desc>Created with Sketch.</desc>
    <defs></defs>
    <g id="Page-1" stroke="none" stroke-width="1" fill="none" fill-rule="evenodd">
        <g id="Artboard" fill-rule="nonzero" fill="#FFFFFF">
            <g id="Dropbox_logo_(September_2013)" transform="translate(0.000000, 4.000000)">
                <g id="g2993" transform="translate(40.500000, 38.187500) scale(-1, 1) rotate(-180.000000) translate(-40.500000, -38.187500) translate(0.000000, 0.687500)">
                    <g id="g2995" transform="translate(0.403281, 45.451953)">
                        <polygon id="path2997" points="23.4375 28.125 0.2890625 13.0109375 16.2945313 0.19375 39.634375 14.6054687"></polygon>
                    </g>
                    <g id="g2999" transform="translate(0.692422, 17.202969)">
                        <polygon id="path3001" points="0 15.625 23.1484375 0.5109375 39.3453125 14.03125 16.0054687 28.4429688"></polygon>
                    </g>
                    <g id="g3003" transform="translate(40.037969, 17.171719)">
                        <polygon id="path3005" points="0 14.0625 16.1976562 0.5421875 39.3453125 15.65625 23.3398437 28.4742188"></polygon>
                    </g>
                    <g id="g3007" transform="translate(39.539766, 45.181875)">
                        <polygon id="path3009" points="39.84375 13.28125 16.6960937 28.3953125 0.4984375 14.8757813 23.8382813 0.4640625"></polygon>
                    </g>
                    <g id="g3011" transform="translate(16.647813, 0.200469)">
                        <polygon id="path3013" points="23.4375 28.125 7.19296875 14.6453125 0.2421875 19.1835938 0.2421875 14.0953125 23.4375 0.18515625 46.6335938 14.0953125 46.6335938 19.1835938 39.6835938 14.6453125"></polygon>
                    </g>
                </g>
            </g>
        </g>
    </g>
</svg>