<?xml version="1.0" encoding="UTF-8"?>
<svg width="116px" height="64px" viewBox="0 0 116 64" version="1.1" xmlns="http://www.w3.org/2000/svg" xmlns:xlink="http://www.w3.org/1999/xlink">
    <!-- Generator: Sketch 44 (41411) - http://www.bohemiancoding.com/sketch -->
    <title>ebay</title>
    <desc>Created with Sketch.</desc>
    <defs></defs>
    <g id="Page-1" stroke="none" stroke-width="1" fill="none" fill-rule="evenodd">
        <g id="ebay" fill-rule="nonzero">
            <g id="EBay_logo" transform="translate(0.000000, 9.000000)">
                <path d="M15.0283599,10.2189567 C6.85201135,10.2189567 0.0386654951,13.7035911 0.0386654951,24.216574 C0.0386654951,32.545171 4.62014737,37.790021 15.2394822,37.790021 C27.7389365,37.790021 28.5401969,29.5187015 28.5401969,29.5187015 L22.4836215,29.5187015 C22.4836215,29.5187015 21.1850409,33.9724891 14.870018,33.9724891 C9.72660425,33.9724891 6.02725947,30.4821196 6.02725947,25.5898589 L29.1735642,25.5898589 L29.1735642,22.5198931 C29.1735642,17.6799092 26.1150038,10.2189567 15.0283599,10.2189567 L15.0283599,10.2189567 Z M14.8172372,14.1425311 C19.7132345,14.1425311 23.0510131,17.155599 23.0510131,21.6715524 L6.16121665,21.6715524 C6.16121665,16.8773155 10.5178681,14.1425311 14.8172372,14.1425311 L14.8172372,14.1425311 Z" id="e" fill="#E53238"></path>
                <path d="M29.169268,0.038871249 L29.169268,32.5104422 C29.169268,34.3536315 29.0383129,36.9416807 29.0383129,36.9416807 L34.8150096,36.9416807 C34.8150096,36.9416807 35.022355,35.0829072 35.022355,33.3841691 C35.022355,33.3841691 37.8764163,37.8695528 45.6368205,37.8695528 C53.8088388,37.8695528 59.3597791,32.1701176 59.3597791,24.0044887 C59.3597791,16.4081218 54.2610609,10.2984885 45.6500136,10.2984885 C37.5863761,10.2984885 35.0806968,14.6727439 35.0806968,14.6727439 L35.0806968,0.038871249 L29.169268,0.038871249 Z M44.1589612,14.3148502 C49.7083973,14.3148502 53.2372295,18.4522722 53.2372295,24.0044887 C53.2372295,29.9582331 49.1615463,33.8531911 44.1985481,33.8531911 C38.2756446,33.8531911 35.0806968,29.2075262 35.0806968,24.0575101 C35.0806968,19.2586986 37.9476171,14.3148502 44.1589612,14.3148502 Z" id="b" fill="#0064D2"></path>
                <path d="M73.7161053,10.2189567 C61.4154073,10.2189567 60.6265145,16.9849276 60.6265145,18.0661059 L66.7490641,18.0661059 C66.7490641,18.0661059 67.0701289,14.1160204 73.2938615,14.1160204 C77.3381435,14.1160204 80.4720265,15.9755933 80.4720265,19.5507015 L80.4720265,20.8232121 L73.2938615,20.8232121 C63.7643377,20.8232121 58.7264113,23.6236857 58.7264113,29.3066166 C58.7264113,34.8994367 63.3812941,37.9424571 69.6717924,37.9424571 C78.2447647,37.9424571 81.0064269,33.1837977 81.0064269,33.1837977 C81.0064269,35.0765319 81.1516899,36.9416807 81.1516899,36.9416807 L86.5945761,36.9416807 C86.5945761,36.9416807 86.3834523,34.6297705 86.3834523,33.1506592 L86.3834523,20.3659037 C86.3834523,11.9831146 79.6525484,10.2189567 73.7161053,10.2189567 L73.7161053,10.2189567 Z M80.4720265,24.640744 L80.4720265,26.337425 C80.4720265,28.5503594 79.1126883,34.0520209 71.1100648,34.0520209 C66.7278555,34.0520209 64.8489648,31.8550016 64.8489648,29.3066166 C64.8489648,24.6706014 71.1762931,24.640744 80.4720265,24.640744 L80.4720265,24.640744 Z" id="a" fill="#F5AF02"></path>
                <polygon id="y" fill="#86B817" points="83.0865505 11.280451 89.9744217 11.280451 99.8594739 31.1747916 109.72191 11.280451 115.961333 11.280451 97.9970745 46.6986523 91.4522772 46.6986523 96.6360891 36.8253456"></polygon>
            </g>
        </g>
    </g>
</svg>