<?xml version="1.0" encoding="UTF-8"?>
<svg width="80px" height="80px" viewBox="0 0 80 80" version="1.1" xmlns="http://www.w3.org/2000/svg" xmlns:xlink="http://www.w3.org/1999/xlink">
    <!-- Generator: Sketch 43.2 (39069) - http://www.bohemiancoding.com/sketch -->
    <title>github-white</title>
    <desc>Created with Sketch.</desc>
    <defs></defs>
    <g id="Page-1" stroke="none" stroke-width="1" fill="none" fill-rule="evenodd">
        <g id="github-white" fill="#FFFFFF">
            <path d="M39.9963166,1 C17.9109242,1 0,18.9084686 0,41.0012278 C0,58.6739618 11.460143,73.6652138 27.3550447,78.9545106 C29.3563338,79.322846 30.085638,78.0876945 30.085638,77.0268885 C30.085638,76.0765831 30.05126,73.5620799 30.0316155,70.2249609 C18.9054299,72.6412413 16.5579054,64.861997 16.5579054,64.861997 C14.7383284,60.2406151 12.1157801,59.0103748 12.1157801,59.0103748 C8.48399276,56.5302495 12.3908039,56.5793609 12.3908039,56.5793609 C16.4056601,56.8617514 18.5174499,60.7022622 18.5174499,60.7022622 C22.0853924,66.8141748 27.8805365,65.0486203 30.1593051,64.0246478 C30.5227294,61.4413886 31.5565241,59.6782897 32.698364,58.6788729 C23.816569,57.6696338 14.478038,54.2367476 14.478038,38.9090825 C14.478038,34.5430799 16.0373247,30.9702262 18.5960281,28.1757881 C18.1834924,27.1640934 16.8108291,23.0952147 18.9889192,17.5898278 C18.9889192,17.5898278 22.3456828,16.5142883 29.9874152,21.6906289 C33.1772,20.8017128 36.600264,20.3597102 40.0012278,20.3425213 C43.399736,20.3597102 46.8203444,20.8017128 50.0150404,21.6906289 C57.6518616,16.5142883 61.003714,17.5898278 61.003714,17.5898278 C63.1867154,23.0952147 61.814052,27.1640934 61.4039719,28.1757881 C63.9675865,30.9702262 65.5145953,34.5430799 65.5145953,38.9090825 C65.5145953,54.2760367 56.1613309,57.657356 47.2525246,58.6469505 C48.6865772,59.882102 49.965929,62.3229381 49.965929,66.0529482 C49.965929,71.4011787 49.9168176,75.7156144 49.9168176,77.0268885 C49.9168176,78.0975168 50.638755,79.3424906 52.6670555,78.952055 C68.5496792,73.6504804 80,58.6690506 80,41.0012278 C80,18.9084686 62.0890758,1 39.9963166,1" id="Fill-50"></path>
        </g>
    </g>
</svg>