<?xml version="1.0" encoding="UTF-8"?>
<svg width="80px" height="80px" viewBox="0 0 80 80" version="1.1" xmlns="http://www.w3.org/2000/svg" xmlns:xlink="http://www.w3.org/1999/xlink">
    <!-- Generator: Sketch 43.2 (39069) - http://www.bohemiancoding.com/sketch -->
    <title>google</title>
    <desc>Created with Sketch.</desc>
    <defs>
        <polygon id="path-1" points="79.8847869 80 0 80 0 40 0 0 79.8847869 0 79.8847869 80"></polygon>
        <path d="M77.2727273,32.7272727 L40,32.7272727 L40,48.1818182 L61.4545455,48.1818182 C59.4545455,58 51.0909091,63.6363636 40,63.6363636 C26.9090909,63.6363636 16.3636364,53.0909091 16.3636364,40 C16.3636364,26.9090909 26.9090909,16.3636364 40,16.3636364 C45.6363636,16.3636364 50.7272727,18.3636364 54.7272727,21.6363636 L66.3636364,10 C59.2727273,3.81818182 50.1818182,0 40,0 C17.8181818,0 0,17.8181818 0,40 C0,62.1818182 17.8181818,80 40,80 C60,80 78.1818182,65.4545455 78.1818182,40 C78.1818182,37.6363636 77.8181818,35.0909091 77.2727273,32.7272727 Z" id="path-3"></path>
        <path d="M77.2727273,32.7272727 L40,32.7272727 L40,48.1818182 L61.4545455,48.1818182 C59.4545455,58 51.0909091,63.6363636 40,63.6363636 C26.9090909,63.6363636 16.3636364,53.0909091 16.3636364,40 C16.3636364,26.9090909 26.9090909,16.3636364 40,16.3636364 C45.6363636,16.3636364 50.7272727,18.3636364 54.7272727,21.6363636 L66.3636364,10 C59.2727273,3.81818182 50.1818182,0 40,0 C17.8181818,0 0,17.8181818 0,40 C0,62.1818182 17.8181818,80 40,80 C60,80 78.1818182,65.4545455 78.1818182,40 C78.1818182,37.6363636 77.8181818,35.0909091 77.2727273,32.7272727 Z" id="path-5"></path>
        <path d="M77.2727273,32.7272727 L40,32.7272727 L40,48.1818182 L61.4545455,48.1818182 C59.4545455,58 51.0909091,63.6363636 40,63.6363636 C26.9090909,63.6363636 16.3636364,53.0909091 16.3636364,40 C16.3636364,26.9090909 26.9090909,16.3636364 40,16.3636364 C45.6363636,16.3636364 50.7272727,18.3636364 54.7272727,21.6363636 L66.3636364,10 C59.2727273,3.81818182 50.1818182,0 40,0 C17.8181818,0 0,17.8181818 0,40 C0,62.1818182 17.8181818,80 40,80 C60,80 78.1818182,65.4545455 78.1818182,40 C78.1818182,37.6363636 77.8181818,35.0909091 77.2727273,32.7272727 Z" id="path-7"></path>
        <path d="M77.2727273,32.7272727 L40,32.7272727 L40,48.1818182 L61.4545455,48.1818182 C59.4545455,58 51.0909091,63.6363636 40,63.6363636 C26.9090909,63.6363636 16.3636364,53.0909091 16.3636364,40 C16.3636364,26.9090909 26.9090909,16.3636364 40,16.3636364 C45.6363636,16.3636364 50.7272727,18.3636364 54.7272727,21.6363636 L66.3636364,10 C59.2727273,3.81818182 50.1818182,0 40,0 C17.8181818,0 0,17.8181818 0,40 C0,62.1818182 17.8181818,80 40,80 C60,80 78.1818182,65.4545455 78.1818182,40 C78.1818182,37.6363636 77.8181818,35.0909091 77.2727273,32.7272727 Z" id="path-9"></path>
    </defs>
    <g id="Page-1" stroke="none" stroke-width="1" fill="none" fill-rule="evenodd">
        <g id="google">
            <mask id="mask-2" fill="white">
                <use xlink:href="#path-1"></use>
            </mask>
            <g id="Clip-2"></g>
            <g id="Google-G" mask="url(#mask-2)">
                <g transform="translate(1.000000, 0.000000)" id="Clipped">
                    <g>
                        <mask id="mask-4" fill="white">
                            <use xlink:href="#path-3"></use>
                        </mask>
                        <g id="a"></g>
                        <polygon id="Shape" fill="#FBBC05" fill-rule="nonzero" mask="url(#mask-4)" points="-3.63636364 63.6363636 -3.63636364 16.3636364 27.2727273 40"></polygon>
                    </g>
                    <g>
                        <mask id="mask-6" fill="white">
                            <use xlink:href="#path-5"></use>
                        </mask>
                        <g id="a"></g>
                        <polygon id="Shape" fill="#EA4335" fill-rule="nonzero" mask="url(#mask-6)" points="-3.63636364 16.3636364 27.2727273 40 40 28.9090909 83.6363636 21.8181818 83.6363636 -3.63636364 -3.63636364 -3.63636364"></polygon>
                    </g>
                    <g>
                        <mask id="mask-8" fill="white">
                            <use xlink:href="#path-7"></use>
                        </mask>
                        <g id="a"></g>
                        <polygon id="Shape" fill="#34A853" fill-rule="nonzero" mask="url(#mask-8)" points="-3.63636364 63.6363636 50.9090909 21.8181818 65.2727273 23.6363636 83.6363636 -3.63636364 83.6363636 83.6363636 -3.63636364 83.6363636"></polygon>
                    </g>
                    <g>
                        <mask id="mask-10" fill="white">
                            <use xlink:href="#path-9"></use>
                        </mask>
                        <g id="a"></g>
                        <polygon id="Shape" fill="#4285F4" fill-rule="nonzero" mask="url(#mask-10)" points="83.6363636 83.6363636 27.2727273 40 20 34.5454545 83.6363636 16.3636364"></polygon>
                    </g>
                </g>
            </g>
        </g>
    </g>
</svg>