<?xml version="1.0" encoding="UTF-8"?>
<svg width="80px" height="80px" viewBox="0 0 80 80" version="1.1" xmlns="http://www.w3.org/2000/svg" xmlns:xlink="http://www.w3.org/1999/xlink">
    <!-- Generator: Sketch 43.2 (39069) - http://www.bohemiancoding.com/sketch -->
    <title>google-white</title>
    <desc>Created with Sketch.</desc>
    <defs>
        <path d="M78.2727273,32.7272727 L41,32.7272727 L41,48.1818182 L62.4545455,48.1818182 C60.4545455,58 52.0909091,63.6363636 41,63.6363636 C27.9090909,63.6363636 17.3636364,53.0909091 17.3636364,40 C17.3636364,26.9090909 27.9090909,16.3636364 41,16.3636364 C46.6363636,16.3636364 51.7272727,18.3636364 55.7272727,21.6363636 L67.3636364,10 C60.2727273,3.81818182 51.1818182,0 41,0 C18.8181818,0 1,17.8181818 1,40 C1,62.1818182 18.8181818,80 41,80 C61,80 79.1818182,65.4545455 79.1818182,40 C79.1818182,37.6363636 78.8181818,35.0909091 78.2727273,32.7272727 Z" id="path-1"></path>
    </defs>
    <g id="Page-1" stroke="none" stroke-width="1" fill="none" fill-rule="evenodd">
        <g id="google-white">
            <mask id="mask-2" fill="white">
                <use xlink:href="#path-1"></use>
            </mask>
            <use id="a" fill="#FFFFFF" xlink:href="#path-1"></use>
        </g>
    </g>
</svg>