<?xml version="1.0" encoding="UTF-8"?>
<svg width="40px" height="40px" viewBox="0 0 40 40" version="1.1" xmlns="http://www.w3.org/2000/svg" xmlns:xlink="http://www.w3.org/1999/xlink">
    <!-- Generator: Sketch 44.1 (41455) - http://www.bohemiancoding.com/sketch -->
    <title>hp</title>
    <desc>Created with Sketch.</desc>
    <defs></defs>
    <g id="Page-1" stroke="none" stroke-width="1" fill="none" fill-rule="evenodd">
        <g id="hp" fill-rule="nonzero" fill="#4987CE">
            <g id="HP-logo">
                <path d="M20.0323326,39.9862356 C19.8339954,39.9862356 19.6364896,39.9826328 19.4393533,39.9769053 L23.5172286,28.7696998 L29.1292379,28.7696998 C30.1142725,28.7696998 31.1955658,28.0124711 31.5324711,27.0872979 L35.9566744,14.9352425 C36.6804619,12.9456813 35.5408776,11.3179677 33.4238337,11.3179677 L25.6382448,11.3179677 L19.1056813,29.2686374 L19.1032794,29.2686374 L15.3999076,39.4444342 C6.61376443,37.3556582 0.07852194,29.457552 0.07852194,20.0324249 C0.07852194,10.8789838 6.24212471,3.16591224 14.6450808,0.815150115 L10.8238337,11.3179677 L10.8227252,11.3179677 L4.47011547,28.7696998 L8.69903002,28.7700693 L14.1014319,13.9404157 L17.2796305,13.9404157 L11.8772286,28.7700693 L16.1045727,28.7708083 L21.13903,14.9352425 C21.8632794,12.9456813 20.7236028,11.3179677 18.6084988,11.3179677 L15.0536721,11.3179677 L19.1355196,0.0994919169 C19.4330716,0.0862817552 19.7317321,0.07852194 20.0323326,0.07852194 C31.0525635,0.07852194 39.9861432,9.01210162 39.9861432,20.0324249 C39.9861432,31.0524711 31.0525635,39.9862356 20.0323326,39.9862356 Z M32.1054965,13.9297921 L28.9281293,13.9297921 L24.4785219,26.1383834 L27.6559815,26.1383834 L32.1054965,13.9297921 Z" id="Shape"></path>
            </g>
        </g>
    </g>
</svg>