<?xml version="1.0" encoding="UTF-8"?>
<svg width="156px" height="40px" viewBox="0 0 156 40" version="1.1" xmlns="http://www.w3.org/2000/svg" xmlns:xlink="http://www.w3.org/1999/xlink">
    <!-- Generator: Sketch 43.2 (39069) - http://www.bohemiancoding.com/sketch -->
    <title>intercom-1</title>
    <desc>Created with Sketch.</desc>
    <defs></defs>
    <g id="Page-1" stroke="none" stroke-width="1" fill="none" fill-rule="evenodd">
        <g id="homepage-v2" transform="translate(-771.000000, -3644.000000)" fill-rule="nonzero" fill="#1F8DED">
            <g id="Group-19" transform="translate(139.000000, 3582.000000)">
                <g id="intercom-1" transform="translate(632.000000, 62.000000)">
                    <path d="M53.0222222,25.7777778 L53.0222222,14.2222222 C53.0222222,13.5111111 53.6,12.9333333 54.3111111,12.9333333 C55.0222222,12.9333333 55.6,13.5111111 55.6,14.2222222 L55.6,25.7777778 C55.6,26.4888889 55.0222222,27.0666667 54.3111111,27.0666667 C53.6444444,27.0666667 53.0222222,26.4888889 53.0222222,25.7777778 Z M67.7777778,26.2666667 L62.1777778,17.3333333 L62.1777778,25.7777778 C62.1777778,26.4888889 61.6,27.0666667 60.8888889,27.0666667 C60.1777778,27.0666667 59.6,26.4888889 59.6,25.7777778 L59.6,14.5777778 C59.6,13.6444444 60.3555556,12.8444444 61.3333333,12.8444444 L61.4222222,12.8444444 C62,12.8444444 62.5777778,13.1555556 62.8888889,13.6444444 L68.4444444,22.4444444 L68.4444444,14.1333333 C68.4444444,13.4222222 69.0222222,12.8444444 69.7333333,12.8444444 C70.4444444,12.8444444 71.0222222,13.4222222 71.0222222,14.1333333 L71.0222222,25.3333333 C71.0222222,26.2666667 70.2666667,27.0666667 69.2888889,27.0666667 C68.6666667,27.0666667 68.0888889,26.8 67.7777778,26.2666667 Z M80,15.3333333 L80,25.9111111 C80,26.5777778 79.4666667,27.1111111 78.8,27.1111111 L78.6222222,27.1111111 C77.9555556,27.1111111 77.4222222,26.5777778 77.4222222,25.9111111 L77.4222222,15.3333333 L74.4444444,15.3333333 C73.7777778,15.3333333 73.2444444,14.8 73.2444444,14.1333333 C73.2444444,13.4666667 73.7777778,12.9333333 74.4444444,12.9333333 L83.0222222,12.9333333 C83.6888889,12.9333333 84.2222222,13.4666667 84.2222222,14.1333333 C84.2222222,14.8 83.6888889,15.3333333 83.0222222,15.3333333 L80,15.3333333 Z M86.2666667,25.9111111 L86.2666667,14.0444444 C86.2666667,13.4222222 86.8,12.8888889 87.4222222,12.8888889 L95.2,12.8888889 C95.8222222,12.8888889 96.3555556,13.4222222 96.3555556,14.0444444 C96.3555556,14.6666667 95.8222222,15.2 95.2,15.2 L88.8444444,15.2 L88.8444444,18.4888889 L94.3111111,18.4888889 C94.9333333,18.4888889 95.4666667,19.0222222 95.4666667,19.6444444 C95.4666667,20.2666667 94.9333333,20.8 94.3111111,20.8 L88.8444444,20.8 L88.8444444,24.6666667 L95.2,24.6666667 C95.8222222,24.6666667 96.3555556,25.2 96.3555556,25.8222222 C96.3555556,26.4444444 95.8222222,26.9777778 95.2,26.9777778 L87.4222222,26.9777778 C86.8,27.0666667 86.2666667,26.5777778 86.2666667,25.9111111 L86.2666667,25.9111111 Z M107.244444,26.3111111 L105.2,21.7333333 L102.044444,21.7333333 L102.044444,25.8222222 C102.044444,26.5333333 101.466667,27.1111111 100.755556,27.1111111 L100.711111,27.1111111 C100,27.1111111 99.4222222,26.5333333 99.4222222,25.8222222 L99.4222222,14.2222222 C99.4222222,13.5111111 100,12.9333333 100.711111,12.9333333 L105.422222,12.9333333 C108.8,12.9333333 110.355556,15.0666667 110.355556,17.3333333 C110.355556,19.2444444 109.333333,20.7111111 107.777778,21.2888889 L109.555556,25.2888889 C109.911111,26.1333333 109.333333,27.0666667 108.4,27.0666667 C107.911111,27.0666667 107.422222,26.8 107.244444,26.3111111 L107.244444,26.3111111 Z M105.466667,15.1555556 L102.088889,15.1555556 L102.088889,19.3777778 L105.511111,19.3777778 C106.977778,19.3777778 107.822222,18.6222222 107.822222,17.2888889 C107.777778,16.1777778 106.933333,15.1555556 105.466667,15.1555556 L105.466667,15.1555556 Z M122.622222,25.6444444 C121.555556,26.7111111 120.088889,27.3333333 118.577778,27.3333333 C117.066667,27.3333333 115.644444,26.8444444 114.577778,25.7333333 C113.022222,24.1777778 112.8,22.3111111 112.8,20 C112.8,17.6888889 113.022222,15.7777778 114.577778,14.2666667 C115.644444,13.2 117.066667,12.6666667 118.577778,12.6666667 C120.088889,12.6666667 121.555556,13.2444444 122.622222,14.3111111 C122.977778,14.7111111 123.288889,15.1111111 123.511111,15.6 C123.911111,16.4444444 123.288889,17.3777778 122.355556,17.3777778 C121.822222,17.3777778 121.377778,17.0666667 121.155556,16.5777778 C121.066667,16.3111111 120.888889,16.0888889 120.711111,15.8666667 C120.266667,15.2888889 119.466667,14.9777778 118.577778,14.9777778 C117.777778,14.9777778 116.977778,15.3333333 116.4,15.9111111 C115.422222,16.9333333 115.422222,18.6666667 115.422222,20 C115.422222,21.2888889 115.422222,23.0666667 116.4,24.0888889 C116.977778,24.6666667 117.777778,25.0222222 118.577778,25.0222222 C119.466667,25.0222222 120.266667,24.7111111 120.711111,24.1333333 C120.888889,23.9111111 121.066667,23.6444444 121.155556,23.3777778 C121.333333,22.8888889 121.822222,22.5777778 122.355556,22.5777778 C123.288889,22.5777778 123.911111,23.5111111 123.511111,24.3555556 C123.288889,24.8444444 122.977778,25.2888889 122.622222,25.6444444 Z M136.444444,25.7333333 C135.377778,26.8 133.866667,27.3333333 132.355556,27.3333333 C130.844444,27.3333333 129.377778,26.8 128.266667,25.7333333 C126.711111,24.1777778 126.488889,22.3111111 126.488889,20 C126.488889,17.6888889 126.755556,15.7777778 128.266667,14.2666667 C129.333333,13.2 130.844444,12.6666667 132.355556,12.6666667 C133.866667,12.6666667 135.333333,13.2 136.444444,14.2666667 C138,15.8222222 138.222222,17.6888889 138.222222,20 C138.266667,22.3111111 138,24.2222222 136.444444,25.7333333 Z M134.622222,15.9555556 C134.044444,15.3777778 133.2,15.0222222 132.4,15.0222222 C131.6,15.0222222 130.711111,15.3777778 130.177778,15.9555556 C129.2,16.9777778 129.155556,18.7111111 129.155556,20.0444444 C129.155556,21.3333333 129.2,23.0666667 130.177778,24.0888889 C130.755556,24.6666667 131.6,25.0222222 132.4,25.0222222 C133.2,25.0222222 134.088889,24.6666667 134.622222,24.0888889 C135.6,23.0666667 135.644444,21.3333333 135.644444,20.0444444 C135.644444,18.7111111 135.6,16.9333333 134.622222,15.9555556 L134.622222,15.9555556 Z M153.2,25.8222222 L153.2,16.9777778 L149.866667,26 C149.688889,26.5333333 149.155556,26.8888889 148.577778,26.8888889 C148,26.8888889 147.511111,26.5333333 147.288889,26 L143.955556,16.8444444 L143.955556,25.8222222 C143.955556,26.5333333 143.377778,27.0666667 142.711111,27.0666667 C142,27.0666667 141.466667,26.4888889 141.466667,25.8222222 L141.466667,14.8444444 C141.466667,13.7777778 142.355556,12.8888889 143.422222,12.8888889 L143.6,12.8888889 C144.4,12.8888889 145.155556,13.3777778 145.422222,14.1777778 L148.666667,22.9777778 L151.955556,14.1777778 C152.222222,13.4222222 152.977778,12.8888889 153.777778,12.8888889 C154.844444,12.8888889 155.733333,13.7777778 155.733333,14.8444444 L155.733333,25.8222222 C155.733333,26.5333333 155.155556,27.0666667 154.488889,27.0666667 C153.733333,27.0666667 153.2,26.5333333 153.2,25.8222222 L153.2,25.8222222 Z M35.0222222,0 L5.02222222,0 C2.22222222,0 0,2.22222222 0,4.97777778 L0,34.9777778 C0,37.7777778 2.22222222,40 5.02222222,40 L35.0222222,40 C37.7777778,40 40,37.7777778 40,35.0222222 L40,5.02222222 C40,2.22222222 37.7777778,0 35.0222222,0 Z M25.3333333,7.33333333 C25.3333333,6.57777778 25.9111111,6 26.6666667,6 C27.4222222,6 28,6.57777778 28,7.33333333 L28,25.1555556 C28,25.9111111 27.4222222,26.4888889 26.6666667,26.4888889 C25.9111111,26.4888889 25.3333333,25.9111111 25.3333333,25.1555556 L25.3333333,7.33333333 Z M18.6666667,6.66666667 C18.6666667,5.91111111 19.2444444,5.33333333 20,5.33333333 C20.7555556,5.33333333 21.3333333,5.91111111 21.3333333,6.66666667 L21.3333333,26 C21.3333333,26.7555556 20.7555556,27.3333333 20,27.3333333 C19.2444444,27.3333333 18.6666667,26.7555556 18.6666667,26 L18.6666667,6.66666667 Z M12,7.33333333 C12,6.57777778 12.5777778,6 13.3333333,6 C14.0888889,6 14.6666667,6.57777778 14.6666667,7.33333333 L14.6666667,25.1555556 C14.6666667,25.9111111 14.0888889,26.4888889 13.3333333,26.4888889 C12.5777778,26.4888889 12,25.9111111 12,25.1555556 L12,7.33333333 Z M5.33333333,10 C5.33333333,9.24444444 5.91111111,8.66666667 6.66666667,8.66666667 C7.42222222,8.66666667 8,9.24444444 8,10 L8,22 C8,22.7555556 7.42222222,23.3333333 6.66666667,23.3333333 C5.91111111,23.3333333 5.33333333,22.7555556 5.33333333,22 L5.33333333,10 Z M34.2222222,30.3555556 C34,30.5333333 29.0666667,34.6666667 20,34.6666667 C10.9333333,34.6666667 6,30.5333333 5.77777778,30.3555556 C5.2,29.8666667 5.15555556,29.0222222 5.64444444,28.4888889 C6.13333333,27.9111111 6.97777778,27.8666667 7.51111111,28.3555556 C7.6,28.3555556 12,32 20,32 C28.0888889,32 32.4444444,28.3555556 32.4444444,28.3111111 C33.0222222,27.8222222 33.8666667,27.9111111 34.3111111,28.4444444 C34.8444444,29.0222222 34.7555556,29.8666667 34.2222222,30.3555556 Z M34.6666667,22 C34.6666667,22.7555556 34.0888889,23.3333333 33.3333333,23.3333333 C32.5777778,23.3333333 32,22.7555556 32,22 L32,10 C32,9.24444444 32.5777778,8.66666667 33.3333333,8.66666667 C34.0888889,8.66666667 34.6666667,9.24444444 34.6666667,10 L34.6666667,22 Z" id="Shape"></path>
                </g>
            </g>
        </g>
    </g>
</svg>