<?xml version="1.0" encoding="UTF-8"?>
<svg width="120px" height="40px" viewBox="0 0 120 40" version="1.1" xmlns="http://www.w3.org/2000/svg" xmlns:xlink="http://www.w3.org/1999/xlink">
    <!-- Generator: Sketch 43.2 (39069) - http://www.bohemiancoding.com/sketch -->
    <title>invision-logo-pink</title>
    <desc>Created with Sketch.</desc>
    <defs>
        <polygon id="path-1" points="20.0045455 0 0.00909090909 0 0.00909090909 39.9909091 40 39.9909091 40 0 20.0045455 0"></polygon>
    </defs>
    <g id="Page-1" stroke="none" stroke-width="1" fill="none" fill-rule="evenodd">
        <g id="homepage-v2" transform="translate(-600.000000, -3644.000000)">
            <g id="Group-19" transform="translate(139.000000, 3582.000000)">
                <g id="invision-logo-pink" transform="translate(461.000000, 62.000000)">
                    <g id="Group-3">
                        <mask id="mask-2" fill="white">
                            <use xlink:href="#path-1"></use>
                        </mask>
                        <g id="Clip-2"></g>
                        <path d="M36.3739394,0 L3.62606061,0 C1.62348485,0 0,1.62348485 0,3.62606061 L0,36.3739394 C0,38.3765152 1.62348485,40 3.62606061,40 L36.3739394,40 C38.3765152,40 40,38.3765152 40,36.3739394 L40,3.62606061 C40,1.62348485 38.3765152,0 36.3739394,0" id="Fill-1" fill="#DC385F" mask="url(#mask-2)"></path>
                    </g>
                    <path d="M77.869697,31.0527273 L81.6986364,31.0527273 L81.6986364,14.3480303 L77.869697,14.3480303 L77.869697,31.0527273 Z M113.367576,13.9993939 C110.772879,13.9993939 109.22303,15.36 108.14697,16.9416667 L108.14697,14.3480303 L104.319091,14.3480303 L104.319091,31.0527273 L108.14697,31.0527273 L108.14697,21.6237879 C108.14697,19.029697 109.697424,17.479697 111.912424,17.479697 C114.190758,17.479697 115.487424,18.9662121 115.487424,21.5604545 L115.487424,31.0527273 L119.315758,31.0527273 L119.315758,20.4219697 C119.315758,16.5306061 117.132576,13.9993939 113.367576,13.9993939 Z M93.119697,28.1104545 C90.1451515,28.1104545 88.0254545,25.6739394 88.0254545,22.6998485 C88.0254545,19.7580303 89.9869697,17.3527273 93.0562121,17.3527273 C96.0615152,17.3527273 98.1816667,19.7887879 98.1816667,22.7633333 C98.1816667,25.7056061 96.219697,28.1104545 93.119697,28.1104545 Z M93.119697,13.9993939 C87.9942424,13.9993939 84.1971212,17.9536364 84.1971212,22.7633333 C84.1971212,27.5401515 87.9619697,31.4321212 93.0562121,31.4321212 C98.2139394,31.4321212 102.010606,27.4772727 102.010606,22.6998485 C102.010606,17.8912121 98.244697,13.9993939 93.119697,13.9993939 Z M45.7269697,26.6228788 L41.2343939,14.3480303 L37.1212121,14.3480303 L43.9871212,31.1786364 L47.4356061,31.1786364 L54.2695455,14.3480303 L50.2515152,14.3480303 L45.7269697,26.6228788 Z M70.1510606,21.1816667 C68.1890909,20.5478788 66.3851515,20.0421212 66.3851515,18.840303 L66.3851515,18.7768182 C66.3851515,17.7960606 67.2395455,17.0998485 68.7265152,17.0998485 C69.4518182,17.0998485 70.2636364,17.2662121 71.1027273,17.5606061 L71.1021212,17.5584848 C71.1021212,17.5584848 71.1104545,17.5625758 71.1262121,17.5698485 C71.1983333,17.5954545 71.2716667,17.6240909 71.3448485,17.6516667 C71.950303,17.8431818 73.5837879,18.0990909 74.9601515,15.9615152 C73.1880303,14.790303 70.9107576,14.0624242 68.8212121,14.0624242 C65.499697,14.0624242 62.8736364,15.9921212 62.8736364,19.1566667 L62.8736364,19.2201515 C62.8736364,22.415303 65.6260606,23.4277273 68.0937879,24.1239394 C70.0559091,24.7248485 71.8280303,25.1675758 71.8280303,26.464697 L71.8280303,26.5277273 C71.8280303,27.6354545 70.8784848,28.3315152 69.2333333,28.3315152 C68.1393939,28.3315152 66.9415152,28.0428788 65.7478788,27.480303 C65.4043939,27.3354545 63.6174242,26.7242424 62.0895455,28.8971212 C64.1713636,30.5228788 66.7793939,31.3690909 69.1386364,31.3690909 C72.6178788,31.3690909 75.3395455,29.629697 75.3395455,26.1166667 L75.3395455,26.0536364 C75.3395455,23.0484848 72.5871212,21.9407576 70.1510606,21.1816667 Z M56.1665152,31.0527273 L59.9948485,31.0527273 L59.9948485,14.3480303 L56.1665152,14.3480303 L56.1665152,31.0527273 Z" id="Fill-4" fill="#DC385F"></path>
                    <path d="M13.3680303,12.5851515 C14.6977273,12.5851515 15.8115152,11.5428788 15.8115152,10.1769697 C15.8115152,8.8119697 14.6977273,7.77 13.3680303,7.77 C12.0384848,7.77 10.924697,8.8119697 10.924697,10.1769697 C10.924697,11.5428788 12.0384848,12.5851515 13.3680303,12.5851515" id="Fill-5" fill="#FFFFFF"></path>
                    <path d="M8.30136364,25.4789394 C8.15787879,26.0898485 8.08575758,26.7495455 8.08575758,27.2877273 C8.08575758,29.4081818 9.23575758,30.8159091 11.6792424,30.8159091 C13.7059091,30.8159091 15.3487879,29.6122727 16.5316667,27.6690909 L15.8093939,30.5680303 L19.8336364,30.5680303 L22.1336364,21.3431818 C22.7084848,19.0074242 23.8224242,17.7951515 25.5115152,17.7951515 C26.8410606,17.7951515 27.6675758,18.6219697 27.6675758,19.9869697 C27.6675758,20.3825758 27.6315152,20.8133333 27.4878788,21.2806061 L26.3018182,25.5207576 C26.1221212,26.1316667 26.0506061,26.7430303 26.0506061,27.3174242 C26.0506061,29.3304545 27.2360606,30.8028788 29.7156061,30.8028788 C31.8357576,30.8028788 33.5245455,29.4380303 34.4589394,26.1678788 L32.8780303,25.5574242 C32.0872727,27.7483333 31.4045455,28.1443939 30.8656061,28.1443939 C30.3265152,28.1443939 30.0389394,27.785303 30.0389394,27.0669697 C30.0389394,26.7436364 30.1110606,26.384697 30.2186364,25.9525758 L31.3687879,21.8215152 C31.6560606,20.8515152 31.7640909,19.9913636 31.7640909,19.2010606 C31.7640909,16.1107576 29.895303,14.4980303 27.6315152,14.4980303 C25.5115152,14.4980303 23.355303,16.410303 22.2775758,18.4228788 L23.0678788,14.8104545 L16.9233333,14.8104545 L16.0607576,17.9922727 L18.9356061,17.9922727 L17.1654545,25.0798485 C15.7751515,28.1701515 13.2215152,28.220303 12.9010606,28.1484848 C12.3748485,28.0298485 12.0384848,27.83 12.0384848,27.1462121 C12.0384848,26.7516667 12.1101515,26.185 12.2898485,25.5016667 L14.9851515,14.8104545 L8.15787879,14.8104545 L7.29545455,17.9922727 L10.1339394,17.9922727 L8.30136364,25.4789394" id="Fill-6" fill="#FFFFFF"></path>
                </g>
            </g>
        </g>
    </g>
</svg>