<?xml version="1.0" encoding="UTF-8"?>
<svg width="170px" height="28px" viewBox="0 0 170 28" version="1.1" xmlns="http://www.w3.org/2000/svg" xmlns:xlink="http://www.w3.org/1999/xlink">
    <!-- Generator: Sketch 53.2 (72643) - https://sketchapp.com -->
    <title>Li-and-Fung</title>
    <desc>Created with Sketch.</desc>
    <g id="Page-1" stroke="none" stroke-width="1" fill="none" fill-rule="evenodd">
        <g id="Li-and-Fung" fill-rule="nonzero">
            <path d="M42.16,2.84 L45.03,2.84 L45.03,22.032 L56.45,22.032 L56.45,24.452 L42.16,24.452 L42.16,2.84 L42.16,2.84 Z M57.482,24.452 L60.352,24.452 L60.352,2.84 L57.482,2.84 L57.482,24.452 Z M81.893,21.759 C80.594,23.787 78.147,24.815 75.792,24.815 C69.961,24.815 69.055,20.668 69.055,18.914 C69.055,15.524 71.35,13.828 74.1,12.374 C72.892,10.65 71.713,9.499 71.713,7.29 C71.713,4.928 73.465,2.84 76.577,2.84 C79.265,2.84 81.804,4.323 81.804,7.259 C81.804,9.832 79.839,11.679 77.754,12.859 L81.652,17.611 C82.044,16.552 82.286,15.401 82.348,14.251 L84.794,14.251 C84.584,16.794 84.251,17.672 83.344,19.579 L87.544,24.452 L84.19,24.452 L81.892,21.759 L81.893,21.759 Z M75.519,14.009 C73.494,15.159 71.773,16.31 71.773,18.883 C71.773,21.062 73.798,22.546 75.881,22.546 C77.847,22.546 79.417,21.546 80.474,19.972 L75.519,14.01 L75.519,14.009 Z M79.236,7.41 C79.236,6.17 78.3,5.11 76.758,5.11 C75.55,5.11 74.281,5.837 74.281,7.41 C74.281,8.712 75.428,9.983 76.366,11.164 C77.604,10.377 79.236,9.227 79.236,7.41 Z M94.678,2.84 L108.848,2.84 L108.848,5.26 L97.548,5.26 L97.548,12.131 L107.458,12.131 L107.458,14.553 L97.548,14.553 L97.548,24.451 L94.678,24.451 L94.678,2.84 L94.678,2.84 Z M127.672,16.642 C127.672,22.092 124.56,24.968 119.182,24.968 C113.624,24.968 110.33,22.394 110.33,16.642 L110.33,2.839 L113.2,2.839 L113.2,16.642 C113.2,20.457 115.376,22.546 119.182,22.546 C122.807,22.546 124.802,20.456 124.802,16.642 L124.802,2.839 L127.672,2.839 L127.672,16.642 L127.672,16.642 Z M130.666,2.84 L133.718,2.84 L145.078,20.366 L145.138,20.366 L145.138,2.839 L147.857,2.839 L147.857,24.452 L144.714,24.452 L133.447,7.108 L133.385,7.108 L133.385,24.452 L130.666,24.452 L130.666,2.84 L130.666,2.84 Z M167.075,21.759 C165.412,24.029 162.695,24.968 160.157,24.968 C153.721,24.968 149.884,19.701 149.884,14.07 C149.884,7.774 153.328,2.324 160.157,2.324 C164.87,2.324 168.614,4.444 169.432,9.499 L166.562,9.499 C165.988,6.23 163.359,4.746 160.157,4.746 C154.93,4.746 152.754,9.288 152.754,13.919 C152.754,18.429 155.352,22.546 160.157,22.546 C164.597,22.546 167.257,19.428 167.075,15.492 L160.186,15.492 L160.186,13.07 L169.643,13.07 L169.643,24.452 L167.831,24.452 L167.075,21.759 L167.075,21.759 Z" id="Shape" fill="#000000"></path>
            <path d="M29.196,27.488 C31.2090406,27.4852458 32.8402458,25.8540406 32.843,23.841 L32.843,3.654 C32.8397111,1.64004559 31.2099444,0.00715071409 29.196,0 L3.646,0 C1.63176203,0.0060580439 0.0016432665,1.63975359 0,3.654 L0,23.841 C0.00165424994,25.8544969 1.63350313,27.4863458 3.647,27.488 L29.196,27.488" id="Path" fill="#ED2327"></path>
            <path d="M12.402,4.07 C12.402,4.07 12.184,2.874 14.005,2.814 C15.832,2.771 19.471,2.825 20.427,3.028 C21.399,3.231 25.177,3.479 28.881,6.222 C28.925,6.25 31.213,7.328 30.153,8.499 C29.093,9.663 27.418,7.946 27.418,7.946 L26.962,7.889 C26.962,7.889 26.755,8.105 26.706,8.756 C26.658,9.409 27.413,13.303 25.446,13.114 C24.157,12.985 24.406,11.474 24.372,11.302 C24.352,11.127 24.324,7.142 24.324,7.142 C24.324,7.142 24.406,6.584 23.793,6.353 C23.183,6.129 21.308,5.343 20.656,5.286 C19.999,5.233 19.394,5.26 19.117,5.391 C19.117,5.391 18.915,6.153 18.915,6.682 C18.915,7.209 18.898,7.414 18.997,8.052 C18.997,8.062 19.04,8.062 19.008,8.313 C18.964,8.567 18.802,9.26 18.843,9.531 C18.877,9.806 18.986,10.433 19.599,10.444 C20.219,10.461 20.105,9.572 20.089,9.436 C20.062,9.289 19.594,8.148 19.633,7.773 C19.683,7.389 19.868,6.751 20.667,6.731 C21.476,6.721 22.087,7.353 22.345,8.298 C22.623,9.248 22.495,10.186 22.435,10.752 C22.358,11.32 22.098,12.911 22.059,13.597 C22.026,14.281 22.015,15.387 22.292,16.152 C22.292,16.157 22.292,16.307 22.698,17.108 C22.704,17.122 22.764,17.13 22.742,17.396 C22.721,17.646 22.472,18.528 21.742,18.487 C21.03,18.438 19.884,17.464 19.796,15.75 C19.713,14.032 19.618,12.933 19.618,12.933 C19.618,12.933 19.628,12.662 19.376,12.703 C19.128,12.75 19.151,12.803 19.128,12.985 C19.096,13.165 18.758,15.093 18.802,16.888 C18.836,18.644 18.898,18.578 18.898,18.578 C18.898,18.578 18.948,18.697 18.931,18.854 C18.915,19.008 18.888,19.207 19.041,19.224 C19.186,19.243 19.678,19.271 19.845,19.291 C20.007,19.301 21.051,19.174 21.384,19.778 C21.72,20.378 21.656,21.088 20.987,21.459 C20.307,21.832 19.157,21.789 18.802,21.756 C18.448,21.722 17.361,21.54 16.795,21.594 C16.228,21.643 14.332,21.798 13.859,21.391 C13.386,20.981 13.333,20.67 13.386,20.261 C13.44,19.858 13.675,19.296 14.723,19.243 C15.779,19.19 16.163,19.222 16.163,19.222 C16.163,19.222 16.343,17.681 16.381,17.232 C16.402,16.776 16.535,13.111 16.535,12.95 C16.535,12.77 16.496,7.097 16.496,7.097 L16.541,5.531 C16.546,5.482 16.577,5.062 16.049,5.051 C15.6514881,5.03078196 15.2529523,5.04920168 14.859,5.106 C14.393,5.153 13.126,5.397 12.663,4.836 C12.3,4.383 12.403,4.07 12.403,4.07" id="Path" fill="#FFFFFF"></path>
            <path d="M12.607,6.118 C12.607,6.118 14.358,5.989 15.244,7.664 C15.686,8.495 15.929,10.344 14.777,10.487 C13.62,10.644 13.391,9.792 13.342,9.629 C13.292,9.492 13.239,9.351 13.148,8.707 C13.148,8.69 13.053,8.17 12.408,8.24 C11.765,8.312 11.656,9.166 11.677,9.35 C11.694,9.586 11.737,9.905 12.177,10.902 C12.177,10.902 12.472,11.4 12.287,12.209 C12.103,13.021 11.601,14.569 11.601,14.569 C11.601,14.569 11.205,15.796 11.516,16.619 C11.821,17.436 12.37,17.413 12.57,17.36 C12.788,17.305 13.228,16.881 12.89,16.037 C12.547,15.197 12.364,14.925 12.457,14.395 C12.547,13.871 12.806,13.155 13.362,12.55 C13.92,11.948 14.396,11.472 14.875,11.497 C15.355,11.523 16.077,11.886 16.049,12.564 C16.049,12.727 16.032,12.996 15.379,13.88 C15.371,13.895 14.859,14.475 14.945,15.336 C15,15.976 15.278,17.009 15.109,17.529 C14.945,18.049 14.635,18.743 13.587,19.271 C12.531,19.795 11.287,19.834 10.227,18.624 C9.204,17.461 9.33,16.79 9.292,16.47 C9.265,16.152 9.102,15.296 9.309,14.575 C9.543,13.811 9.992,12.519 9.975,11.732 C9.975,11.34 9.489,10.213 9.638,8.925 C9.672,8.716 9.916,7.361 10.966,6.702 C11.791,6.17 12.194,6.187 12.607,6.118" id="Path" fill="#FFFFFF"></path>
            <path d="M2.806,7.96 C2.806,7.96 2.501,7.543 3.006,6.952 C3.6792088,6.16114797 4.53485127,5.54610132 5.499,5.16 C6.782,4.635 8.473,4.1 8.749,4.007 C9.023,3.924 9.679,3.683 9.778,3.662 C9.881,3.634 10.418,3.317 10.946,3.683 C11.474,4.054 11.756,4.655 11.396,5.218 C11.083,5.715 10.466,5.746 10.359,5.767 C10.228,5.803 9.451,5.897 9.277,6.267 C9.277,6.267 9.207,6.39 9.168,6.653 C9.134,6.926 8.89,9.4 8.89,9.4 C8.89,9.4 8.75,11.896 8.738,13.333 C8.732,14.761 8.749,17.244 8.749,17.244 L8.76,20.762 C8.76,20.762 9.182,21.118 9.45,21.226 C9.729,21.338 11.288,21.924 12.35,22.076 C13.415,22.223 15.893,22.436 16.916,22.388 C17.259,22.371 21.163,22.496 23.538,21.346 C23.538,21.346 24.136,21.222 24.141,20.515 C24.158,19.805 24.109,17.025 24.109,17.025 C24.109,17.025 24.141,15.409 24.364,14.843 C24.577,14.273 25.061,14.101 25.48,14.129 C25.892,14.16 26.392,14.322 26.517,14.943 C26.637,15.567 26.756,16.588 26.766,17.418 C26.784,18.242 26.747,18.66 26.719,18.898 C26.691,19.148 26.676,19.446 26.849,19.557 C27.007,19.673 27.479,19.535 27.654,19.447 C27.839,19.355 28.806,18.823 28.806,18.823 C28.806,18.823 29.606,18.508 30.014,19.148 C30.415,19.778 30.225,20.285 29.883,20.646 C29.54,21.02 28.546,21.896 27.556,22.28 C26.55,22.68 23.733,23.744 22.836,23.975 C21.928,24.209 19.521,24.745 17.699,24.737 C15.882,24.726 14.317,24.737 13.026,24.485 C11.756,24.235 9.277,23.774 7.386,22.909 C6.357,22.445 4.047,21.346 3.171,20.689 C3.171,20.689 2.485,20.061 2.558,19.501 C2.639,18.935 2.993,18.602 3.389,18.557 C3.819,18.503 4.144,18.634 4.428,18.787 C4.717,18.935 5.443,19.424 5.443,19.424 C5.443,19.424 5.471,19.384 5.639,19.446 C5.819,19.518 5.921,19.546 5.921,19.546 C5.921,19.546 6.011,19.636 6.06,19.356 C6.092,19.078 6.27,17.754 6.314,17.079 C6.368,16.386 6.444,7.866 6.444,7.866 C6.444,7.866 6.526,7.596 6.254,7.611 C5.994,7.628 5.851,7.761 5.851,7.761 C5.851,7.761 4.856,8.311 4.651,8.395 C4.428,8.485 3.923,8.724 3.389,8.455 C3.177,8.357 2.898,8.183 2.807,7.959 M27.51,13.811 C27.51,13.811 27.462,12.521 28.88,12.419 C30.158,12.329 30.393,13.811 30.393,13.811 C30.393,13.811 30.393,15.278 28.989,15.278 C27.576,15.278 27.511,13.811 27.511,13.811" id="Shape" fill="#FFFFFF"></path>
            <path d="M4.013,12.086 C4.013,12.086 5.386,11.996 5.498,13.596 C5.585,14.748 4.344,14.986 4.344,14.986 C4.344,14.986 2.567,15.17 2.623,13.394 C2.659,12.164 4.013,12.086 4.013,12.086" id="Path" fill="#FFFFFF"></path>
        </g>
    </g>
</svg>