<?xml version="1.0" encoding="UTF-8"?>
<svg width="128px" height="40px" viewBox="0 0 128 40" version="1.1" xmlns="http://www.w3.org/2000/svg" xmlns:xlink="http://www.w3.org/1999/xlink">
    <!-- Generator: Sketch 43.2 (39069) - http://www.bohemiancoding.com/sketch -->
    <title>MindtheProduct_logo</title>
    <desc>Created with Sketch.</desc>
    <defs></defs>
    <g id="Page-1" stroke="none" stroke-width="1" fill="none" fill-rule="evenodd">
        <g id="homepage-v2" transform="translate(-1172.000000, -3644.000000)">
            <g id="Group-19" transform="translate(139.000000, 3582.000000)">
                <g id="MindtheProduct_logo" transform="translate(1033.000000, 62.000000)">
                    <path d="M19.9436444,40 C8.92906667,40 0,31.0712889 0,20.0565333 C0,9.04195556 8.92906667,0.112888889 19.9436444,0.112888889 C30.9582222,0.112888889 39.8871111,9.04195556 39.8871111,20.0565333 C39.8871111,31.0712889 30.9582222,40 19.9436444,40" id="Fill-1" fill="#00A3DB"></path>
                    <path d="M26.9573333,32.1603556 C26.9495111,32.1603556 26.9415111,32.1603556 26.9338667,32.1601778 C27.9614222,30.3799111 28.5495111,28.3139556 28.5495111,26.1105778 C28.5495111,23.9020444 27.9585778,21.8312889 26.9262222,20.0481778 C27.9525333,18.2688 28.5399111,16.2039111 28.5399111,14.0021333 C28.5399111,11.7873778 27.9456,9.71111111 26.9079111,7.92462222 C26.9242667,7.92462222 26.9409778,7.92444444 26.9573333,7.92444444 C33.6497778,7.92444444 39.0748444,13.3496889 39.0748444,20.0423111 C39.0748444,26.7345778 33.6497778,32.1603556 26.9573333,32.1603556" id="Fill-2" fill="#71C9E7"></path>
                    <path d="M16.4318222,38.2286222 C9.73937778,38.2286222 4.31413333,32.8033778 4.31413333,26.1105778 C4.31413333,23.9089778 4.90151111,21.8440889 5.92782222,20.0647111 C8.02346667,23.6848 11.9384889,26.1198222 16.4222222,26.1198222 C16.4385778,26.1198222 16.4552889,26.1198222 16.4716444,26.1196444 C18.5656889,29.7255111 22.4659556,32.1518222 26.9338667,32.1601778 C24.8398222,35.7875556 20.9208889,38.2286222 16.4318222,38.2286222" id="Fill-3" fill="#71C9E7"></path>
                    <path d="M26.9338667,32.1601778 C22.4659556,32.1518222 18.5656889,29.7255111 16.4716444,26.1196444 C20.9418667,26.1020444 24.8405333,23.6643556 26.9262222,20.0481778 C27.9585778,21.8312889 28.5495111,23.9020444 28.5495111,26.1105778 C28.5495111,28.3139556 27.9614222,30.3799111 26.9338667,32.1601778" id="Fill-4" fill="#BAE2EE"></path>
                    <path d="M5.92782222,20.0647111 C4.89546667,18.2816 4.30453333,16.2108444 4.30453333,14.0021333 C4.30453333,7.30968889 9.72977778,1.88462222 16.4222222,1.88462222 C20.8999111,1.88462222 24.8101333,4.31288889 26.9079111,7.92462222 C22.4392889,7.94222222 18.5415111,10.3790222 16.4552889,13.9928889 L16.4318222,13.9928889 C11.9409778,13.9928889 8.02115556,16.4353778 5.92782222,20.0647111" id="Fill-5" fill="#71C9E7"></path>
                    <path d="M26.9262222,20.0481778 C24.8341333,16.4343111 20.9292444,14.0014222 16.4552889,13.9928889 C18.5415111,10.3790222 22.4392889,7.94222222 26.9079111,7.92462222 C27.9456,9.71111111 28.5399111,11.7873778 28.5399111,14.0021333 C28.5399111,16.2039111 27.9525333,18.2688 26.9262222,20.0481778" id="Fill-6" fill="#BAE2EE"></path>
                    <path d="M16.4222222,26.1198222 C11.9384889,26.1198222 8.02346667,23.6848 5.92782222,20.0647111 C8.02115556,16.4353778 11.9409778,13.9928889 16.4318222,13.9928889 L16.4552889,13.9928889 C15.4275556,15.7731556 14.8396444,17.8389333 14.8396444,20.0423111 C14.8396444,22.2568889 15.4339556,24.3331556 16.4716444,26.1196444 C16.4552889,26.1198222 16.4385778,26.1198222 16.4222222,26.1198222" id="Fill-7" fill="#BAE2EE"></path>
                    <path d="M16.4716444,26.1196444 C15.4339556,24.3331556 14.8396444,22.2568889 14.8396444,20.0423111 C14.8396444,17.8389333 15.4275556,15.7731556 16.4552889,13.9928889 C20.9292444,14.0014222 24.8341333,16.4343111 26.9262222,20.0481778 C24.8405333,23.6643556 20.9418667,26.1020444 16.4716444,26.1196444" id="Fill-8" fill="#DCF1F7"></path>
                    <path d="M26.9244444,20.0485333 C24.8325333,16.4350222 20.9278222,14.0019556 16.4540444,13.9932444 C15.4264889,15.7736889 14.8384,17.8392889 14.8384,20.0424889 C14.8384,22.2574222 15.4328889,24.3331556 16.4705778,26.1196444 C20.9402667,26.1018667 24.8389333,23.6641778 26.9244444,20.0485333" id="Fill-9" fill="#FFFFFF"></path>
                    <path d="M46.3879111,10.7166222 L48.1527111,10.7166222 L47.8675556,12 C48.4378667,11.0910222 49.1331556,10.5560889 50.2384,10.5560889 C51.2366222,10.5560889 51.9495111,11.1443556 52.2346667,12.0714667 C52.9121778,10.9662222 53.8568889,10.5560889 54.8730667,10.5560889 C56.4951111,10.5560889 57.4040889,11.9109333 57.0476444,13.9786667 L56.6197333,16.3315556 C56.5664,16.6881778 56.6554667,16.8485333 56.9585778,16.8485333 L57.5644444,16.8485333 L57.3328,18.2032 L56.4773333,18.2032 C55.0869333,18.2032 54.6056889,17.7399111 54.8730667,16.296 L55.2650667,14.0679111 C55.4789333,12.8378667 55.1582222,12.1427556 54.1777778,12.1427556 C53.1082667,12.1427556 52.5377778,12.7665778 52.3061333,14.0679111 L51.5752889,18.2032 L49.8106667,18.2032 L50.5413333,14.0679111 C50.7553778,12.8378667 50.4343111,12.1427556 49.4540444,12.1427556 C48.3845333,12.1427556 47.7962667,12.7665778 47.5644444,14.0679111 L46.8336,18.2032 L45.0689778,18.2032 L46.3879111,10.7166222" id="Fill-10" fill="#1A1918"></path>
                    <path d="M60.2028444,7.81102222 C60.2028444,7.13368889 60.7376,6.67022222 61.3434667,6.67022222 C61.9676444,6.67022222 62.5201778,7.13368889 62.5201778,7.81102222 C62.5201778,8.50613333 61.9850667,8.96977778 61.3614222,8.96977778 C60.7553778,8.96977778 60.2028444,8.50613333 60.2028444,7.81102222 Z M58.9907556,16.296 L59.9532444,10.7166222 L61.7358222,10.7166222 L60.7376,16.3315556 C60.6840889,16.6881778 60.7733333,16.8485333 61.0760889,16.8485333 L61.7000889,16.8485333 L61.4684444,18.2032 L60.5948444,18.2032 C59.2046222,18.2032 58.7233778,17.7399111 58.9907556,16.296 L58.9907556,16.296 Z" id="Fill-11" fill="#1A1918"></path>
                    <path d="M64.2492444,10.7166222 L66.0138667,10.7166222 L65.7107556,12.1427556 C66.2814222,11.1623111 67.1191111,10.5560889 68.2600889,10.5560889 C69.8999111,10.5560889 70.9338667,11.8931556 70.5592889,13.9786667 L70.1495111,16.3315556 C70.096,16.6881778 70.1850667,16.8485333 70.488,16.8485333 L71.0942222,16.8485333 L70.8625778,18.2032 L70.0067556,18.2032 C68.6163556,18.2032 68.1351111,17.7399111 68.4024889,16.296 L68.7767111,14.0679111 C68.9905778,12.8378667 68.5274667,12.1427556 67.4755556,12.1427556 C66.3349333,12.1427556 65.6572444,12.7665778 65.4257778,14.0679111 L64.6947556,18.2032 L62.9301333,18.2032 L64.2492444,10.7166222" id="Fill-12" fill="#1A1918"></path>
                    <path d="M78.3136,14.2817778 C78.3313778,12.9984 77.5825778,12.1070222 76.3882667,12.1070222 C75.016,12.1070222 74.1424,13.1765333 74.1424,14.7272889 C74.1424,15.9928889 74.8554667,16.8309333 76.0138667,16.8309333 C77.3509333,16.8309333 78.3136,15.7612444 78.3136,14.2817778 Z M72.3063111,14.7630222 C72.3063111,12.1783111 73.9998222,10.5560889 76.0138667,10.5560889 C77.2439111,10.5560889 78.2245333,11.1978667 78.6698667,12.2318222 L79.4209778,8.06933333 L81.1859556,8.06933333 L79.7219556,16.3315556 C79.6684444,16.6881778 79.7573333,16.8485333 80.0602667,16.8485333 L80.6663111,16.8485333 L80.4344889,18.2032 L79.5788444,18.2032 C78.1886222,18.2032 77.9392,17.7219556 77.9392,17.0088889 L77.9569778,16.8309333 C77.4042667,17.7934222 76.5132444,18.3637333 75.4078222,18.3637333 C73.6076444,18.3637333 72.3063111,16.9198222 72.3063111,14.7630222 L72.3063111,14.7630222 Z" id="Fill-13" fill="#1A1918"></path>
                    <path d="M86.6556444,15.6364444 L87.2618667,12.1960889 L86.1568,12.1960889 L86.4062222,10.7166222 L87.5292444,10.7166222 L87.9927111,8.06062222 L89.7395556,8.06062222 L89.2760889,10.7166222 L91.2014222,10.7166222 L90.9340444,12.1960889 L89.0264889,12.1960889 L88.4026667,15.7079111 C88.2423111,16.5633778 88.4919111,16.8485333 88.9731556,16.8485333 C89.4010667,16.8485333 89.6862222,16.6704 89.9000889,16.5098667 L90.5239111,17.7399111 C90.1315556,18.0608 89.6327111,18.3637333 88.6702222,18.3637333 C87.3687111,18.3637333 86.2993778,17.6864 86.6556444,15.6364444" id="Fill-14" fill="#1A1918"></path>
                    <path d="M93.7223111,8.07306667 L95.4872889,8.07306667 L94.7836444,12.0535111 C95.3543111,11.1443556 96.1210667,10.5560889 97.2792889,10.5560889 C98.9015111,10.5560889 99.9354667,11.8931556 99.5792,13.9786667 L99.1511111,16.3315556 C99.0977778,16.6881778 99.1868444,16.8485333 99.4897778,16.8485333 L100.095822,16.8485333 L99.8641778,18.2032 L99.0977778,18.2032 C97.7607111,18.2032 97.1724444,17.6328889 97.4220444,16.2426667 L97.7964444,14.0679111 C98.0103111,12.8378667 97.5468444,12.1427556 96.4952889,12.1427556 C95.3365333,12.1427556 94.6590222,12.7665778 94.4273778,14.0679111 L93.6965333,18.2032 L91.9317333,18.2032 L93.7223111,8.07306667" id="Fill-15" fill="#1A1918"></path>
                    <path d="M107.368711,13.8360889 C107.350933,12.7843556 106.709156,11.9822222 105.461511,11.9822222 C104.285156,11.9822222 103.482844,12.6951111 103.233422,13.8360889 L107.368711,13.8360889 Z M105.390044,16.9020444 C106.388444,16.9020444 107.012267,16.5278222 107.475733,16.1176889 L108.527644,17.2407111 C107.725511,17.9358222 106.762667,18.3637333 105.372444,18.3637333 C102.965867,18.3637333 101.379556,16.8129778 101.379556,14.6024889 C101.379556,12.2138667 103.268978,10.5560889 105.514844,10.5560889 C108.0464,10.5560889 109.383289,12.4634667 109.062578,15.0481778 L103.180089,15.0481778 C103.286578,16.0999111 104.053156,16.9020444 105.390044,16.9020444 L105.390044,16.9020444 Z" id="Fill-16" fill="#1A1918"></path>
                    <path d="M50.0600889,27.1146667 C51.2901333,27.1146667 52.0743111,26.5621333 52.0743111,25.2254222 C52.0743111,23.8705778 51.2544,23.3536 50.0600889,23.3536 L48.3665778,23.3536 L48.3665778,27.1146667 L50.0600889,27.1146667 Z M45.8711111,21.1610667 L50.1313778,21.1610667 C52.6090667,21.1610667 54.6410667,22.3911111 54.6410667,25.2254222 C54.6410667,28.0593778 52.5912889,29.3073778 50.1313778,29.3073778 L48.3665778,29.3073778 L48.3665778,33.2823111 L45.8711111,33.2823111 L45.8711111,21.1610667 L45.8711111,21.1610667 Z" id="Fill-17" fill="#1A1918"></path>
                    <path d="M61.0051556,26.9722667 C62.2350222,26.9722667 63.0193778,26.4908444 63.0193778,25.1539556 C63.0193778,23.7992889 62.1992889,23.3536 61.0051556,23.3536 L59.08,23.3536 L59.08,26.9722667 L61.0051556,26.9722667 Z M56.5843556,21.1610667 L61.0764444,21.1610667 C63.5541333,21.1610667 65.5864889,22.3196444 65.5864889,25.1539556 C65.5864889,26.9900444 64.6238222,28.1486222 63.2152889,28.7015111 L65.9784889,33.2823111 L63.1264,33.2823111 L60.6663111,29.0757333 L59.08,29.0757333 L59.08,33.2823111 L56.5843556,33.2823111 L56.5843556,21.1610667 L56.5843556,21.1610667 Z" id="Fill-18" fill="#1A1918"></path>
                    <path d="M77.28,27.2215111 C77.28,24.9580444 75.7827556,23.2288 73.5726222,23.2288 C71.3621333,23.2288 69.8647111,24.9580444 69.8647111,27.2215111 C69.8647111,29.4856889 71.3621333,31.2145778 73.5726222,31.2145778 C75.7827556,31.2145778 77.28,29.4856889 77.28,27.2215111 Z M67.2977778,27.2215111 C67.2977778,23.6389333 70.0785778,21.0005333 73.5726222,21.0005333 C77.0661333,21.0005333 79.8472889,23.6389333 79.8472889,27.2215111 C79.8472889,30.8048 77.0661333,33.4426667 73.5726222,33.4426667 C70.0785778,33.4426667 67.2977778,30.8048 67.2977778,27.2215111 L67.2977778,27.2215111 Z" id="Fill-19" fill="#1A1918"></path>
                    <path d="M85.5690667,31.0899556 C88.2604444,31.0899556 89.4906667,29.4856889 89.4906667,27.2215111 C89.4906667,24.9580444 88.2604444,23.3536 85.5690667,23.3536 L84.4636444,23.3536 L84.4636444,31.0899556 L85.5690667,31.0899556 Z M81.9683556,21.1610667 L85.6936889,21.1610667 C89.4193778,21.1610667 92.0753778,23.6389333 92.0753778,27.2215111 C92.0753778,30.8048 89.4373333,33.2823111 85.6936889,33.2823111 L81.9683556,33.2823111 L81.9683556,21.1610667 L81.9683556,21.1610667 Z" id="Fill-20" fill="#1A1918"></path>
                    <path d="M94.1253333,28.8972444 L94.1253333,21.1610667 L96.6208,21.1610667 L96.6208,28.7548444 C96.6208,30.5194667 97.3875556,31.1969778 99.0453333,31.1969778 C100.685156,31.1969778 101.4336,30.5194667 101.4336,28.7548444 L101.4336,21.1610667 L103.9296,21.1610667 L103.9296,28.8972444 C103.9296,31.9632 101.808178,33.4426667 99.0453333,33.4426667 C96.2465778,33.4426667 94.1253333,31.9632 94.1253333,28.8972444" id="Fill-21" fill="#1A1918"></path>
                    <path d="M105.997156,27.2215111 C105.997156,23.6389333 108.760178,21.0184889 112.236267,21.0184889 C114.428622,21.0184889 115.997333,21.8030222 117.0848,23.4961778 L115.177244,24.8510222 C114.607111,23.9240889 113.626489,23.2645333 112.236267,23.2645333 C110.043556,23.2645333 108.564267,24.9580444 108.564267,27.2215111 C108.564267,29.4856889 110.043556,31.2145778 112.236267,31.2145778 C113.804978,31.2145778 114.678222,30.4659556 115.355733,29.4321778 L117.298667,30.7688889 C116.246933,32.4090667 114.571378,33.4426667 112.236267,33.4426667 C108.760178,33.4426667 105.997156,30.8048 105.997156,27.2215111" id="Fill-22" fill="#1A1918"></path>
                    <polyline id="Fill-23" fill="#1A1918" points="121.915556 23.3536 118.457422 23.3536 118.457422 21.1610667 127.869511 21.1610667 127.869511 23.3536 124.4112 23.3536 124.4112 33.2823111 121.915556 33.2823111 121.915556 23.3536"></polyline>
                </g>
            </g>
        </g>
    </g>
</svg>