<?xml version="1.0" encoding="UTF-8"?>
<svg width="209px" height="40px" viewBox="0 0 209 40" version="1.1" xmlns="http://www.w3.org/2000/svg" xmlns:xlink="http://www.w3.org/1999/xlink">
    <!-- Generator: Sketch 44.1 (41455) - http://www.bohemiancoding.com/sketch -->
    <title>Artboard</title>
    <desc>Created with Sketch.</desc>
    <defs></defs>
    <g id="Page-1" stroke="none" stroke-width="1" fill="none" fill-rule="evenodd">
        <g id="Artboard" fill-rule="nonzero">
            <g id="oversee_logo">
                <g id="Group" transform="translate(41.142857, 11.428571)">
                    <path d="M0.368,9.95428571 C0.368,7.12457143 1.128,4.90971429 2.64685714,3.30971429 C4.16571429,1.70742857 6.12571429,0.907428571 8.52914286,0.907428571 C10.1028571,0.907428571 11.52,1.28457143 12.784,2.03542857 C14.0457143,2.78742857 15.0102857,3.83657143 15.6731429,5.18171429 C16.3348571,6.52571429 16.6674286,8.05142857 16.6674286,9.75657143 C16.6674286,11.4868571 16.3177143,13.0331429 15.6194286,14.3977143 C14.9222857,15.7634286 13.9348571,16.7977143 12.656,17.4982857 C11.3771429,18.2 9.99885714,18.5508571 8.51771429,18.5508571 C6.91428571,18.5508571 5.48,18.1622857 4.21714286,17.3874286 C2.95428571,16.6114286 1.99657143,15.5531429 1.34628571,14.2125714 C0.693714286,12.8697143 0.368,11.4525714 0.368,9.95428571 Z M2.69828571,9.99085714 C2.69828571,12.0457143 3.24914286,13.6651429 4.35314286,14.848 C5.456,16.0297143 6.84114286,16.6217143 8.50514286,16.6217143 C10.2011429,16.6217143 11.5965714,16.0251429 12.6925714,14.832 C13.7874286,13.6365714 14.336,11.9428571 14.336,9.74857143 C14.336,8.36 14.1017143,7.14742857 13.6331429,6.11314286 C13.1645714,5.07771429 12.48,4.27428571 11.5771429,3.704 C10.6754286,3.13485714 9.66285714,2.84914286 8.54057143,2.84914286 C6.94514286,2.84914286 5.57257143,3.39771429 4.42285714,4.49485714 C3.27314286,5.59314286 2.69828571,7.42514286 2.69828571,9.99085714 Z" id="Shape" fill="#555759"></path>
                    <path d="M24.4217143,18.2594286 L17.8422857,1.21257143 L20.2857143,1.21257143 L24.7108571,13.6022857 C25.0674286,14.5954286 25.3657143,15.5268571 25.6057143,16.3931429 C25.8685714,15.4628571 26.176,14.5314286 26.5245714,13.6022857 L31.1337143,1.21257143 L33.4377143,1.21257143 L26.7702857,18.2594286 L24.4217143,18.2594286 L24.4217143,18.2594286 Z" id="Shape" fill="#555759"></path>
                    <polygon id="Shape" fill="#555759" points="35.4994286 18.2594286 35.4994286 1.21257143 47.8297143 1.21257143 47.8297143 3.22285714 37.76 3.22285714 37.76 8.43885714 47.1908571 8.43885714 47.1908571 10.4491429 37.76 10.4491429 37.76 16.2457143 48.2182857 16.2457143 48.2182857 18.2582857 35.4994286 18.2582857"></polygon>
                    <path d="M51.3634286,18.2594286 L51.3634286,1.21257143 L58.92,1.21257143 C60.4377143,1.21257143 61.5908571,1.36571429 62.3817143,1.672 C63.1702857,1.97942857 63.8022857,2.51885714 64.2754286,3.29485714 C64.7474286,4.07085714 64.984,4.92685714 64.984,5.86628571 C64.984,7.07542857 64.5931429,8.09485714 63.8114286,8.92457143 C63.0274286,9.75542857 61.8205714,10.2822857 60.1874286,10.5074286 C60.784,10.7931429 61.2365714,11.0765714 61.5474286,11.3542857 C62.2057143,11.9588571 62.8274286,12.7154286 63.4125714,13.6205714 L66.3611429,18.2605714 L63.5462857,18.2605714 L61.2914286,14.7154286 C60.632,13.6914286 60.0914286,12.9097143 59.6662857,12.3657143 C59.24,11.8228571 58.8582857,11.4434286 58.5222857,11.2251429 C58.1851429,11.0068571 57.8422857,10.8537143 57.4937143,10.768 C57.2377143,10.7131429 56.8194286,10.6868571 56.2388571,10.6868571 L53.6251429,10.6868571 L53.6251429,18.2605714 L51.3634286,18.2605714 L51.3634286,18.2594286 Z M53.624,8.73028571 L58.4685714,8.73028571 C59.4971429,8.73028571 60.3017143,8.62285714 60.8811429,8.41028571 C61.4605714,8.19771429 61.9017143,7.85714286 62.2022857,7.38857143 C62.5028571,6.92 62.6548571,6.41142857 62.6548571,5.86171429 C62.6548571,5.05714286 62.3634286,4.39542857 61.7794286,3.87657143 C61.1954286,3.35771429 60.2742857,3.09828571 59.0137143,3.09828571 L53.624,3.09828571 L53.624,8.73028571 L53.624,8.73028571 Z" id="Shape" fill="#555759"></path>
                    <path d="M67.7634286,12.7794286 L69.8857143,12.6011429 C69.9885714,13.4548571 70.2205714,14.1554286 70.5885714,14.7051429 C70.9542857,15.2514286 71.5257143,15.6937143 72.3005714,16.032 C73.0731429,16.3702857 73.944,16.5394286 74.912,16.5394286 C75.7714286,16.5394286 76.528,16.4114286 77.1862857,16.1542857 C77.8445714,15.896 78.3337143,15.5474286 78.6548571,15.0994286 C78.976,14.6525714 79.1371429,14.1657143 79.1371429,13.64 C79.1371429,13.1051429 78.9805714,12.6388571 78.6731429,12.2411429 C78.3634286,11.84 77.8514286,11.5051429 77.1394286,11.2342857 C76.6822857,11.0571429 75.6731429,10.7794286 74.1085714,10.4022857 C72.5462857,10.0262857 71.448,9.67085714 70.8205714,9.33828571 C70.0057143,8.91085714 69.4011429,8.38285714 68.9988571,7.752 C68.5988571,7.12 68.4011429,6.41257143 68.4011429,5.62971429 C68.4011429,4.77028571 68.6468571,3.96571429 69.1337143,3.21828571 C69.6228571,2.47085714 70.3371429,1.90285714 71.272,1.51542857 C72.2091429,1.128 73.2514286,0.933714286 74.3988571,0.933714286 C75.6605714,0.933714286 76.7737143,1.13714286 77.7405714,1.544 C78.7051429,1.95085714 79.4457143,2.54971429 79.9634286,3.33942857 C80.4834286,4.12914286 80.7622857,5.024 80.8,6.024 L78.6365714,6.19085714 C78.52,5.112 78.128,4.296 77.4582857,3.74514286 C76.7885714,3.19314286 75.8,2.91771429 74.4914286,2.91771429 C73.1302857,2.91771429 72.136,3.16685714 71.512,3.66742857 C70.8891429,4.168 70.5771429,4.77028571 70.5771429,5.47657143 C70.5771429,6.08914286 70.8,6.59314286 71.2422857,6.98857143 C71.6731429,7.384 72.8045714,7.78971429 74.6377143,8.20457143 C76.4685714,8.61942857 77.7245714,8.98171429 78.4057143,9.29142857 C79.4011429,9.74857143 80.1314286,10.3268571 80.6045714,11.0285714 C81.0777143,11.7302857 81.3142857,12.5371429 81.3142857,13.4502857 C81.3142857,14.3565714 81.0548571,15.2102857 80.5371429,16.0114286 C80.0171429,16.8137143 79.2742857,17.4365714 78.3005714,17.8822857 C77.3314286,18.3291429 76.2354286,18.5508571 75.0194286,18.5508571 C73.4811429,18.5508571 72.1885714,18.3268571 71.1485714,17.8754286 C70.1062857,17.424 69.2914286,16.7497143 68.6971429,15.8457143 C68.1074286,14.9428571 67.7942857,13.92 67.7634286,12.7794286 Z" id="Shape" fill="#555759"></path>
                    <polygon id="Shape" fill="#555759" points="84.4468571 18.2594286 84.4468571 1.21257143 96.7794286 1.21257143 96.7794286 3.22285714 86.7085714 3.22285714 86.7085714 8.43885714 96.1394286 8.43885714 96.1394286 10.4491429 86.7085714 10.4491429 86.7085714 16.2457143 97.1657143 16.2457143 97.1657143 18.2582857 84.4468571 18.2582857"></polygon>
                    <polygon id="Shape" fill="#555759" points="100.325714 18.2594286 100.325714 1.21257143 112.656 1.21257143 112.656 3.22285714 102.586286 3.22285714 102.586286 8.43885714 112.017143 8.43885714 112.017143 10.4491429 102.586286 10.4491429 102.586286 16.2457143 113.043429 16.2457143 113.043429 18.2582857 100.325714 18.2582857"></polygon>
                    <polygon id="Shape" fill="#009944" points="116.482286 18.2594286 116.482286 15.8731429 118.866286 15.8731429 118.866286 18.2594286"></polygon>
                    <polygon id="Shape" fill="#555759" points="122.747429 18.2594286 122.747429 1.21257143 125.061714 1.21257143 133.996571 14.5931429 133.996571 1.21257143 136.16 1.21257143 136.16 18.2594286 133.845714 18.2594286 124.913143 4.87885714 124.913143 18.2594286"></polygon>
                    <polygon id="Shape" fill="#555759" points="140.011429 18.2594286 140.011429 1.21257143 152.341714 1.21257143 152.341714 3.22285714 142.270857 3.22285714 142.270857 8.43885714 151.704 8.43885714 151.704 10.4491429 142.270857 10.4491429 142.270857 16.2457143 152.730286 16.2457143 152.730286 18.2582857 140.011429 18.2582857"></polygon>
                    <polygon id="Shape" fill="#555759" points="160.173714 18.2594286 160.173714 3.22285714 154.555429 3.22285714 154.555429 1.21257143 168.064 1.21257143 168.064 3.22285714 162.432 3.22285714 162.432 18.2594286"></polygon>
                </g>
                <path d="M32.0102857,25.0514286 C32.9897143,28.0205714 35.52,33.9291429 33.3485714,35.8228571 C30.0022857,38.7474286 20.7885714,33.6891429 12.7691429,24.5131429 C4.74857143,15.3405714 0.961142857,5.53371429 4.30742857,2.60457143 C6.31542857,0.850285714 9.58971429,1.33828571 14.1771429,3.94628571 L14.1771429,3.94628571 C9.06857143,0.296 4.16228571,-0.731428571 1.82514286,1.30857143 C-2.07428571,4.71885714 2.06285714,15.8354286 11.0697143,26.136 C20.0742857,36.4354286 30.536,42.0182857 34.4377143,38.6125714 C36.9645714,36.4022857 34.9268571,30.4354286 32.0811429,25.1851429 L32.0102857,25.0514286 Z" id="Shape" fill="#009944"></path>
                <path d="M4.41828571,24.1977143 C1.68342857,29.2377143 -0.269714286,34.9702857 2.15885714,37.0914286 C5.90285714,40.3657143 15.9497143,35.0011429 24.6,25.1108571 C33.248,15.2194286 37.2228571,4.54514286 33.4777143,1.27085714 C31.232,-0.691428571 26.5234286,0.296 21.6148571,3.80342857 L21.6148571,3.80342857 C26.024,1.29714286 29.1657143,0.828571429 31.0937143,2.512 C34.3074286,5.32571429 30.6708571,14.744 22.9691429,23.5554286 C15.2651429,32.3645714 6.416,37.2274286 3.20228571,34.4182857 C1.12,32.5954286 3.54857143,26.92 4.49028571,24.0708571 L4.41828571,24.1977143 Z" id="Shape" fill="#555759"></path>
            </g>
        </g>
    </g>
</svg>