<?xml version="1.0" encoding="UTF-8"?>
<svg width="80px" height="80px" viewBox="0 0 80 80" version="1.1" xmlns="http://www.w3.org/2000/svg" xmlns:xlink="http://www.w3.org/1999/xlink">
    <!-- Generator: Sketch 43.2 (39069) - http://www.bohemiancoding.com/sketch -->
    <title>pivotal-tracker</title>
    <desc>Created with Sketch.</desc>
    <defs></defs>
    <g id="Page-1" stroke="none" stroke-width="1" fill="none" fill-rule="evenodd">
        <g id="pivotal-tracker" fill-rule="nonzero">
            <g id="Shape">
                <path d="M29.3784375,18.389375 L38.3015625,33.843125 C39.7583379,33.4541458 41.3056852,33.5921575 42.670625,34.2328125 L47.3615625,26.1084375 L39.5209375,12.5315625 L29.2865625,18.441875 L29.2871875,18.441875 L29.3784375,18.389375 L29.3784375,18.389375 Z M15.9271875,38.380625 L33.7771875,38.380625 C33.9196861,37.837758 34.1331956,37.3160677 34.4121875,36.8290625 C34.8811681,36.0169992 35.5237749,35.3185832 36.2940625,34.78375 L31.6040625,26.661875 L15.9225,26.661875 L15.9225,38.4815625 L15.9271875,38.4815625 L15.9271875,38.380625 Z M45.5103125,43.236875 C45.0419079,44.0473182 44.4006606,44.7445813 43.6321875,45.2790625 L48.3259375,53.4078125 L64.003125,53.4078125 L64.003125,41.690625 L46.14625,41.690625 C46.0015982,42.2313273 45.7878582,42.7511304 45.5103125,43.2371875 L45.5103125,43.236875 Z M44.485625,35.5046875 C45.5544072,36.5701493 46.2119265,37.9792774 46.341875,39.4828125 L55.7203125,39.4828125 L63.5609375,25.9053125 L53.4140625,20.0453125 L44.4859375,35.5046875 L44.485625,35.5046875 Z M26.51,60.0259375 L35.438125,44.56 C34.3742864,43.4941912 33.7180574,42.0889499 33.58375,40.5890625 L24.2003125,40.5890625 L16.3596875,54.16 L26.5915625,60.074375 L26.51,60.0259375 Z M50.5478125,61.6775 L41.6265625,46.223125 C40.1694678,46.6166105 38.6199485,46.47938 37.2546875,45.8359375 L32.5625,53.9628125 L40.3984375,67.53625 L50.6334375,61.6284375 L50.5478125,61.6775 L50.5478125,61.6775 Z" fill="#ED7D1A"></path>
                <path d="M39.9653125,0.0728125 C17.92875,0.0728125 0,17.996875 0,40.03 C0,62.069375 17.92875,80 39.9653125,80 C62,80 79.9246875,62.069375 79.9246875,40.03 C79.925,17.996875 62,0.0728125 39.965625,0.0728125 L39.9653125,0.0728125 Z M39.9653125,8.1634375 C57.5653125,8.1634375 71.8328125,22.4290625 71.8328125,40.03 C71.8328125,57.635625 57.5653125,71.90875 39.9653125,71.90875 C22.3628125,71.90875 8.0928125,57.635625 8.0928125,40.03 C8.0928125,22.4290625 22.3628125,8.163125 39.9653125,8.163125 L39.9653125,8.1634375 Z" fill="#5282B0"></path>
            </g>
        </g>
    </g>
</svg>