<?xml version="1.0" encoding="UTF-8"?>
<svg width="147px" height="32px" viewBox="0 0 147 32" version="1.1" xmlns="http://www.w3.org/2000/svg" xmlns:xlink="http://www.w3.org/1999/xlink">
    <!-- Generator: Sketch 48.2 (47327) - http://www.bohemiancoding.com/sketch -->
    <title>Group 8</title>
    <desc>Created with Sketch.</desc>
    <defs></defs>
    <g id="enterprise-left-aligned-expanded" stroke="none" stroke-width="1" fill="none" fill-rule="evenodd" transform="translate(-647.000000, -4470.000000)">
        <g id="Group-16" transform="translate(469.000000, 4469.000000)" fill="#FFFFFF">
            <g id="Group-8" transform="translate(178.000000, 0.750000)">
                <g id="white-enterprise" transform="translate(39.000000, 1.218750)" fill-rule="nonzero">
                    <g id="Group-2" transform="translate(0.662337, 0.727273)">
                        <path d="M0.142541409,19.9675324 L0.142541409,10.3542575 L5.65441235,10.3542575 L5.60891342,11.3487343 L1.26701508,11.3487343 L1.26701508,14.4946606 L5.39441844,14.4946606 L5.39441844,15.4761376 L1.26701508,15.4761376 L1.26701508,18.9730558 L5.75191007,18.9730558 L5.69991129,19.9675324 L0.142541409,19.9675324 Z M18.7134732,19.9675324 L17.4395031,19.9675324 L12.4476199,12.4017096 L12.1226276,11.9532201 C12.1572936,12.8632033 12.1746263,13.6756762 12.1746263,14.3906631 L12.1746263,19.9675324 L11.121651,19.9675324 L11.121651,10.3542575 L12.3761216,10.3542575 L17.3810044,17.9200804 L17.7124967,18.3685699 C17.6821639,16.986262 17.6669977,16.1867887 17.6669977,15.970126 L17.6669977,10.3542575 L18.7134732,10.3542575 L18.7134732,19.9675324 Z M27.5281335,19.9675324 L26.39716,19.9675324 L26.39716,11.3487343 L23.4397292,11.3487343 L23.4397292,10.3542575 L30.4855643,10.3542575 L30.4855643,11.3487343 L27.5281335,11.3487343 L27.5281335,19.9675324 Z M35.2183201,19.9675324 L35.2183201,10.3542575 L40.7301911,10.3542575 L40.6846921,11.3487343 L36.3427938,11.3487343 L36.3427938,14.4946606 L40.4701972,14.4946606 L40.4701972,15.4761376 L36.3427938,15.4761376 L36.3427938,18.9730558 L40.8276888,18.9730558 L40.77569,19.9675324 L35.2183201,19.9675324 Z M47.1724069,11.2512366 L47.1724069,14.5011604 C47.3500703,14.5011604 47.717308,14.5054937 48.2741311,14.5141601 C48.8309542,14.5228267 49.2610231,14.5271599 49.5643509,14.5271599 C50.3920023,14.5271599 50.9683164,14.3895811 51.2933104,14.1144195 C51.6183044,13.8392579 51.780799,13.4026892 51.780799,12.8047002 C51.780799,12.2803765 51.6248042,11.8903895 51.31281,11.6347276 C51.0008157,11.3790656 50.4786665,11.2512366 49.7463466,11.2512366 L47.1724069,11.2512366 Z M53.3342626,19.9675324 L52.034293,19.9675324 L50.7083241,16.9516031 C50.3486641,16.1412847 50.1190051,15.6538009 50.0193402,15.4891373 C49.7030127,15.5108036 49.3281919,15.5216366 48.8948665,15.5216366 L47.1724069,15.4696378 L47.1724069,19.9675324 L46.0219338,19.9675324 L46.0219338,10.2437601 L49.0963618,10.2437601 C49.4516887,10.2437601 49.7658448,10.2524265 50.0388398,10.2697596 C50.3118348,10.2870926 50.5837423,10.3185081 50.8545707,10.3640073 C51.1253991,10.4095065 51.3604745,10.4723377 51.5598041,10.5525029 C51.7591338,10.6326681 51.9454609,10.7366647 52.1187911,10.8644956 C52.2921212,10.9923266 52.4318665,11.1450715 52.5380313,11.3227349 C52.644196,11.5003983 52.7276098,11.7116412 52.7882754,11.95647 C52.8489409,12.2012988 52.8792732,12.4775396 52.8792732,12.7852007 C52.8792732,13.3918561 52.7200286,13.9140054 52.4015345,14.3516639 C52.0830403,14.7893225 51.6313054,15.0926457 51.0463162,15.2616426 C51.0463162,15.2703092 51.0896481,15.3483065 51.1763132,15.4956372 C51.2629782,15.6429678 51.3658914,15.8238784 51.4850559,16.0383745 C51.6042204,16.2528705 51.6963007,16.4316145 51.7612994,16.5746119 L53.3342626,19.9675324 Z M59.4189868,19.9675324 L58.2685137,19.9675324 L58.2685137,10.2437601 L61.4014404,10.2437601 C61.8780983,10.2437601 62.3092505,10.2935918 62.6949101,10.3932567 C63.0805697,10.4929215 63.4228916,10.6445831 63.721886,10.848246 C64.0208806,11.0519089 64.2527061,11.3248998 64.4173697,11.6672268 C64.5820334,12.0095538 64.664364,12.4082072 64.664364,12.8631988 C64.664364,13.2401919 64.6296985,13.5770973 64.5603664,13.8739252 C64.4910344,14.170753 64.3718717,14.4491604 64.2028748,14.7091556 C64.0338779,14.9691508 63.8128853,15.1847269 63.5398903,15.3558905 C63.2668953,15.527054 62.9169904,15.6613828 62.4901649,15.758881 C62.0633394,15.8563792 61.5682727,15.9051276 61.0049497,15.9051276 C60.5586246,15.9051276 60.0299756,15.8769619 59.4189868,15.8206296 L59.4189868,19.9675324 Z M61.1154471,14.9106508 C61.540106,14.9106508 61.9040937,14.8694856 62.2074215,14.7871537 C62.5107492,14.704822 62.7436582,14.602992 62.9061551,14.4816609 C63.0686521,14.3603298 63.1964812,14.2021684 63.2896462,14.007172 C63.3828111,13.8121756 63.4402259,13.6334316 63.4618921,13.4709346 C63.4835584,13.3084376 63.4943914,13.1123608 63.4943914,12.8826983 C63.4943914,12.3323751 63.3091476,11.927222 62.9386544,11.6672268 C62.5681612,11.4072316 62.0644281,11.2772359 61.4274398,11.2772359 L59.4189868,11.2772359 L59.4189868,14.8976512 C60.2553047,14.9063177 60.8207858,14.9106508 61.1154471,14.9106508 Z M70.5085938,11.2512366 L70.5085938,14.5011604 C70.6862572,14.5011604 71.0534949,14.5054937 71.610318,14.5141601 C72.1671411,14.5228267 72.59721,14.5271599 72.9005375,14.5271599 C73.7281891,14.5271599 74.3045033,14.3895811 74.6294975,14.1144195 C74.9544916,13.8392579 75.1169862,13.4026892 75.1169862,12.8047002 C75.1169862,12.2803765 74.9609913,11.8903895 74.6489971,11.6347276 C74.3370029,11.3790656 73.8148531,11.2512366 73.0825338,11.2512366 L70.5085938,11.2512366 Z M76.6704495,19.9675324 L75.37048,19.9675324 L74.0445113,16.9516031 C73.6848509,16.1412847 73.455192,15.6538009 73.3555273,15.4891373 C73.0392,15.5108036 72.6643788,15.5216366 72.2310535,15.5216366 L70.5085938,15.4696378 L70.5085938,19.9675324 L69.3581207,19.9675324 L69.3581207,10.2437601 L72.4325488,10.2437601 C72.7878756,10.2437601 73.102032,10.2524265 73.3750269,10.2697596 C73.6480218,10.2870926 73.9199295,10.3185081 74.1907578,10.3640073 C74.4615862,10.4095065 74.6966611,10.4723377 74.8959913,10.5525029 C75.0953207,10.6326681 75.281648,10.7366647 75.4549782,10.8644956 C75.6283084,10.9923266 75.7680538,11.1450715 75.8742182,11.3227349 C75.9803825,11.5003983 76.0637971,11.7116412 76.1244625,11.95647 C76.185128,12.2012988 76.2154604,12.4775396 76.2154604,12.7852007 C76.2154604,13.3918561 76.0562153,13.9140054 75.7377215,14.3516639 C75.4192269,14.7893225 74.9674924,15.0926457 74.3825033,15.2616426 C74.3825033,15.2703092 74.4258349,15.3483065 74.5125004,15.4956372 C74.5991651,15.6429678 74.7020785,15.8238784 74.8212429,16.0383745 C74.9404073,16.2528705 75.0324873,16.4316145 75.0974865,16.5746119 L76.6704495,19.9675324 Z M82.9631687,19.9675324 L81.8386953,19.9675324 L81.8386953,10.3542575 L82.9631687,10.3542575 L82.9631687,19.9675324 Z M88.6644022,18.3815696 C89.6653833,18.8755605 90.737848,19.1225522 91.8818269,19.1225522 C93.2901338,19.1225522 93.9942771,18.4812404 93.9942771,17.1985973 C93.9942771,16.7826049 93.8826975,16.4456996 93.6595353,16.187871 C93.4363724,15.9300424 93.030136,15.7274658 92.4408138,15.5801352 L90.5298582,15.0991465 C89.069552,14.7308199 88.3394095,13.950846 88.3394095,12.7592012 C88.3394095,11.8448847 88.6535658,11.1656575 89.2818873,10.721499 C89.9102095,10.2773404 90.7790138,10.0552646 91.8883265,10.0552646 C92.4689825,10.0552646 93.0127978,10.1180958 93.5197884,10.2437601 C94.0267789,10.3694245 94.4514313,10.5384188 94.7937585,10.7507483 L94.4687658,11.6672268 C94.1784378,11.5068964 93.7938676,11.3639012 93.3150429,11.2382369 C92.8362189,11.1125725 92.3519847,11.0497413 91.8623273,11.0497413 C90.2936895,11.0497413 89.5093825,11.5935564 89.5093825,12.6812031 C89.5093825,13.0495296 89.6296284,13.3452697 89.8701236,13.5684323 C90.1106196,13.7915948 90.4713571,13.9616725 90.9523484,14.0786703 L92.7788058,14.52066 C93.5587913,14.7069899 94.1502713,15.0048967 94.553264,15.4143891 C94.9562567,15.8238815 95.1577498,16.4056121 95.1577498,17.1595982 C95.1577498,18.1389135 94.8576764,18.8766388 94.2575207,19.3727964 C93.6573658,19.8689539 92.8416429,20.1170289 91.8103287,20.1170289 C91.0390095,20.1170289 90.3532822,20.0379483 89.7531265,19.8797845 C89.1529709,19.7216208 88.6774036,19.5342103 88.3264102,19.3175477 L88.6644022,18.3815696 Z M100.371495,19.9675324 L100.371495,10.3542575 L105.883366,10.3542575 L105.837867,11.3487343 L101.495968,11.3487343 L101.495968,14.4946606 L105.623372,14.4946606 L105.623372,15.4761376 L101.495968,15.4761376 L101.495968,18.9730558 L105.980863,18.9730558 L105.928865,19.9675324 L100.371495,19.9675324 Z" id="ENTERPRISE"></path>
                        <polygon id="Path-23" points="0.74490448 28.8419913 106.350965 28.8419913 106.350965 27.9545455 0.74490448 27.9545455"></polygon>
                        <polygon id="Path-23" points="0.157707721 1.33116883 105.763768 1.33116883 105.763768 0.443722944 0.157707721 0.443722944"></polygon>
                    </g>
                </g>
                <g id="white-full" transform="translate(0.000000, 0.218750)">
                    <path d="M31.248466,6.59591157 C30.6434511,3.78354598 28.438435,1.59158368 25.6224853,1.00333825 C23.4256895,0.544480501 21.2292225,0.246938134 19.0327554,0.110152164 L17.3554832,0.0369256358 C16.9819523,0.0275873628 16.6084214,0.0227867013 16.2345617,0.0227867013 C13.1187351,0.0227867013 10.0124441,0.346897113 6.91568861,0.995117935 C4.10138303,1.58421828 1.89801094,3.77522702 1.29299607,6.58614584 C0.913546528,8.34946825 0.641618649,10.1128235 0.476883622,11.8762117 L0.290118162,16.2976867 C0.293735099,16.7191256 0.303599472,17.1408933 0.319382469,17.562924 C3.31552132,17.8816419 8.99641366,16.8137578 14.5602488,13.0265291 C11.7268721,12.3199112 10.8173769,11.5947154 10.7772618,10.7645627 C10.7502992,10.2111385 11.54471,9.75905425 13.1598366,9.40834292 L24.5423365,7.66826754 C23.5759568,14.3917583 23.0028367,18.1926985 22.8226475,19.0709565 C22.5523637,20.3883764 22.1203041,21.6376992 21.3377306,21.4518873 C20.555157,21.2660425 19.6713092,20.1542948 19.1047654,17.5711772 C15.1718399,23.468198 14.4583169,28.9180338 14.5119133,31.8131615 L14.517832,31.9590227 C15.0919385,31.9819409 15.666045,31.9934494 16.2401515,31.9934494 C19.3684729,31.9934494 22.5046859,31.653819 25.6491191,30.9745912 C28.443696,30.3708915 30.6256952,28.186459 31.2267644,25.3911259 C31.7130779,23.1286334 32.0251209,20.8661737 32.1628934,18.6037798 L32.2085983,17.5631871 L32.2296423,17.077005 C32.2398355,16.6899599 32.2450965,16.3029477 32.2450965,15.9159026 C32.2450965,12.7913954 31.9129959,9.68474264 31.248466,6.59591157 Z M10.2830567,21.9446127 C10.1400233,22.3998535 8.9497223,25.2297119 8.75572296,31.3451299 C8.13295222,31.2372794 7.51051029,31.1162107 6.88773955,30.9814305 C4.09447797,30.3769746 1.91379394,28.1935285 1.31305363,25.3996422 C1.1641016,24.7071632 1.031919,24.0154734 0.915519403,23.3245727 C6.92226486,23.097166 9.84836666,22.1033633 10.2830567,21.9446127 Z" id="Shape"></path>
                </g>
            </g>
        </g>
    </g>
</svg>