<?xml version="1.0" encoding="UTF-8"?>
<svg width="116px" height="34px" viewBox="0 0 116 34" version="1.1" xmlns="http://www.w3.org/2000/svg" xmlns:xlink="http://www.w3.org/1999/xlink">
    <!-- Generator: Sketch 50.2 (55047) - http://www.bohemiancoding.com/sketch -->
    <title>rackspace-homepage</title>
    <desc>Created with Sketch.</desc>
    <defs>
        <polygon id="path-1" points="0 0.0900933333 2.52787519 0.0900933333 2.52787519 5.38433333 0 5.38433333"></polygon>
    </defs>
    <g id="Page-1" stroke="none" stroke-width="1" fill="none" fill-rule="evenodd">
        <g id="rackspace-homepage">
            <g id="Group-3" transform="translate(0.000000, 27.453333)">
                <g id="Fill-1-Clipped">
                    <mask id="mask-2" fill="white">
                        <use xlink:href="#path-1"></use>
                    </mask>
                    <g id="path-1"></g>
                    <path d="M1.13254667,5.38433333 C0.51504,5.38433333 0.12296,5.08466667 0.08352,4.58393333 C0.0738533333,4.4544 0.0815866667,4.30128 0.105173333,4.16324 L0.5452,1.84826667 L0.0146933333,1.84826667 C0.01044,1.84826667 0.00618666667,1.84633333 0.00348,1.84324 C0.000386666667,1.84014667 -0.000386666667,1.83550667 4.06575815e-20,1.83125333 L0.0978266667,1.30654667 C0.0993733333,1.29958667 0.10556,1.29456 0.11252,1.29456 L0.656173333,1.29456 L0.884306667,0.10208 C0.885466667,0.0947333333 0.891266667,0.0900933333 0.898613333,0.0900933333 L1.4848,0.0900933333 C1.48944,0.0900933333 1.49369333,0.09164 1.4964,0.09512 C1.49872,0.0986 1.49988,0.10324 1.49910667,0.107106667 L1.27290667,1.29456 L2.51333333,1.29456 C2.51758667,1.29456 2.52145333,1.29610667 2.52454667,1.29997333 C2.52725333,1.30306667 2.52841333,1.30770667 2.52764,1.31157333 L2.42981333,1.83666667 C2.42865333,1.84324 2.42246667,1.84826667 2.41550667,1.84826667 L1.16928,1.84826667 L0.733506667,4.13733333 C0.727706667,4.20384 0.718813333,4.33221333 0.725773333,4.42656 C0.75168,4.75406667 1.04748,4.82289333 1.29146667,4.82289333 C1.47242667,4.82289333 1.66189333,4.78152 1.85484,4.69993333 C1.86025333,4.698 1.86566667,4.69916 1.86953333,4.70225333 C1.87378667,4.70573333 1.87610667,4.71114667 1.87494667,4.71617333 L1.77093333,5.25712 C1.77016,5.26176 1.76668,5.26562667 1.76204,5.26756 C1.56754667,5.34953333 1.37924,5.38433333 1.13254667,5.38433333" id="Fill-1" fill="#1A1919" fill-rule="nonzero" mask="url(#mask-2)"></path>
                </g>
            </g>
            <path d="M6.1654,32.7680667 L5.57109333,32.7680667 C5.56684,32.7680667 5.56258667,32.76652 5.55988,32.7626533 C5.55717333,32.75956 5.55601333,32.7553067 5.55717333,32.7506667 L5.98212,30.4890533 C6.0088,30.3660933 6.01962667,30.1835867 6.0088,30.04516 C5.96858667,29.53128 5.61478667,29.2246533 5.06224,29.2246533 C4.43893333,29.2246533 3.8802,29.76212 3.73404,30.5022 L3.30793333,32.7564667 C3.30677333,32.7634267 3.30097333,32.7680667 3.29362667,32.7680667 L2.69932,32.7680667 C2.69506667,32.7680667 2.69081333,32.76652 2.68849333,32.7626533 C2.6854,32.75956 2.68424,32.7553067 2.6854,32.7506667 L3.75762667,27.1153867 C3.75878667,27.1084267 3.76497333,27.1034 3.77154667,27.1034 L4.36585333,27.1034 C4.37049333,27.1034 4.37474667,27.1053333 4.37745333,27.1084267 C4.38016,27.1119067 4.38132,27.1165467 4.38054667,27.1208 L3.95289333,29.3576667 C4.24405333,29.0065733 4.62917333,28.6628267 5.26021333,28.6628267 C6.04205333,28.6628267 6.58570667,29.1527333 6.64486667,29.9113733 C6.65685333,30.06836 6.63984,30.27136 6.59266667,30.5331333 L6.17970667,32.7564667 C6.17854667,32.76304 6.17236,32.7680667 6.1654,32.7680667" id="Fill-4" fill="#1A1919" fill-rule="nonzero"></path>
            <path d="M29.4400267,32.7680667 L28.50584,32.7680667 C28.5015867,32.7680667 28.49772,32.76652 28.4950133,32.7626533 C28.49192,32.75956 28.49076,32.7553067 28.49192,32.7506667 L28.9246,30.4890533 C28.9462533,30.3506267 28.95476,30.19132 28.94664,30.0838267 C28.9149333,29.6789867 28.6663067,29.4562667 28.2467733,29.4562667 C27.75648,29.4562667 27.3694267,29.85144 27.26,30.4631467 L26.8219067,32.7564667 C26.8207467,32.7634267 26.81456,32.7680667 26.8076,32.7680667 L25.8738,32.7680667 C25.86916,32.7680667 25.8649067,32.76652 25.8622,32.7626533 C25.8594933,32.75956 25.8583333,32.7553067 25.8591067,32.7506667 L26.29256,30.4890533 C26.3138267,30.3506267 26.32272,30.19132 26.3138267,30.0838267 C26.28212,29.6789867 26.03388,29.4562667 25.6147333,29.4562667 C25.1194133,29.4562667 24.7385467,29.8425467 24.61984,30.4635333 L24.1890933,32.7564667 C24.1879333,32.76304 24.1821333,32.7680667 24.1751733,32.7680667 L23.2332533,32.7680667 C23.229,32.7680667 23.2247467,32.76652 23.22204,32.7626533 C23.2193333,32.75956 23.2181733,32.7553067 23.2189467,32.7506667 L23.9888,28.6748133 C23.98996,28.6678533 23.9961467,28.6628267 24.0031067,28.6628267 L24.9372933,28.6628267 C24.9415467,28.6628267 24.9458,28.6651467 24.9485067,28.66824 C24.9512133,28.6713333 24.9523733,28.6759733 24.9516,28.6802267 L24.8618933,29.14848 C25.1457067,28.8472667 25.4809467,28.57776 25.9878667,28.57776 C26.5353867,28.57776 26.9642,28.8696933 27.1672,29.3797067 C27.5268,28.855 28.0314,28.57776 28.6284133,28.57776 C29.37236,28.57776 29.8912667,29.0618667 29.95004,29.8112267 C29.96628,30.02196 29.9202667,30.27948 29.8796667,30.5076133 L29.8750267,30.5331333 L29.4539467,32.7564667 C29.4527867,32.7634267 29.4469867,32.7680667 29.4400267,32.7680667" id="Fill-5" fill="#1A1919" fill-rule="nonzero"></path>
            <path d="M38.3279467,32.7680667 L37.39376,32.7680667 C37.3895067,32.7680667 37.3852533,32.76652 37.3825467,32.7626533 C37.37984,32.75956 37.37868,32.7553067 37.3794533,32.7506667 L37.8051733,30.4890533 C37.83224,30.3626133 37.84384,30.2033067 37.8341733,30.0838267 C37.80324,29.6851733 37.5314133,29.4562667 37.0882933,29.4562667 C36.5825333,29.4562667 36.1800133,29.85144 36.06324,30.4635333 L35.6324933,32.7564667 C35.6313333,32.76304 35.6251467,32.7680667 35.6185733,32.7680667 L34.6766533,32.7680667 C34.6720133,32.7680667 34.6681467,32.76652 34.66544,32.7626533 C34.6627333,32.75956 34.6615733,32.7553067 34.6623467,32.7506667 L35.4322,28.6748133 C35.43336,28.6678533 35.4395467,28.6628267 35.44612,28.6628267 L36.3803067,28.6628267 C36.38456,28.6628267 36.3888133,28.6651467 36.39152,28.66824 C36.3942267,28.6713333 36.3953867,28.6759733 36.3942267,28.6802267 L36.3052933,29.1492533 C36.5705467,28.87588 36.9409733,28.57776 37.4776667,28.57776 C38.2363067,28.57776 38.7641067,29.0618667 38.82288,29.8112267 C38.84028,30.0327867 38.7969733,30.2999733 38.7552133,30.5331333 L38.34264,32.7564667 C38.3410933,32.76304 38.3349067,32.7680667 38.3279467,32.7680667" id="Fill-6" fill="#1A1919" fill-rule="nonzero"></path>
            <path d="M61.73172,32.8608667 C60.6243067,32.8608667 59.7914267,32.1095733 59.70752,31.03348 C59.65648,30.3819467 59.8648933,29.76676 60.29448,29.3008267 C60.71788,28.8414667 61.3176,28.57776 61.9397467,28.57776 C62.8808933,28.57776 63.4036667,29.0854533 63.6762667,29.5111733 C63.68052,29.5177467 63.6789733,29.5262533 63.6724,29.5305067 L62.98568,30.0246667 C62.9825867,30.0273733 62.9783333,30.0273733 62.9748533,30.0273733 C62.9709867,30.0266 62.9675067,30.02428 62.9651867,30.0215733 C62.74556,29.7076 62.4675467,29.4176 61.9258267,29.4176 C61.61572,29.4176 61.3044533,29.5622133 61.0724533,29.81432 C60.78168,30.1383467 60.6351333,30.5791467 60.6699333,31.0234267 C60.71556,31.6057467 61.1486267,32.02876 61.7000133,32.02876 C62.0688933,32.02876 62.3577333,31.8980667 62.6964533,31.57752 C62.69916,31.5748133 62.7018667,31.5724933 62.7068933,31.5732667 C62.7111467,31.5736533 62.7150133,31.5752 62.7173333,31.5782933 L63.2590533,32.1880667 C63.2644667,32.1942533 63.26408,32.20276 63.25828,32.2081733 C62.92884,32.53104 62.4895867,32.8608667 61.73172,32.8608667" id="Fill-7" fill="#1A1919" fill-rule="nonzero"></path>
            <path d="M64.7550667,32.7680667 L63.8212667,32.7680667 C63.8166267,32.7680667 63.81276,32.76652 63.8100533,32.7626533 C63.8073467,32.75956 63.8061867,32.7553067 63.80696,32.7506667 L64.8795733,27.1153867 C64.8803467,27.1084267 64.8865333,27.1034 64.89388,27.1034 L65.8280667,27.1034 C65.8319333,27.1034 65.8361867,27.1053333 65.8388933,27.1084267 C65.8419867,27.1119067 65.8431467,27.1165467 65.8419867,27.1208 L64.7693733,32.7564667 C64.7682133,32.7634267 64.7624133,32.7680667 64.7550667,32.7680667" id="Fill-8" fill="#1A1919" fill-rule="nonzero"></path>
            <path d="M72.04644,32.85352 C71.28316,32.85352 70.7522667,32.3690267 70.6934933,31.6196667 C70.6760933,31.3973333 70.7190133,31.1305333 70.7607733,30.8981467 L71.1814667,28.6748133 C71.1826267,28.6678533 71.1888133,28.6628267 71.1957733,28.6628267 L72.1295733,28.6628267 C72.1342133,28.6628267 72.1384667,28.6651467 72.1411733,28.66824 C72.14388,28.6713333 72.14504,28.6759733 72.1442667,28.6802267 L71.7108133,30.94184 C71.6895467,31.0686667 71.6802667,31.23532 71.6895467,31.3474533 C71.72048,31.7461067 71.9892133,31.9746267 72.4273067,31.9746267 C72.93384,31.9746267 73.33636,31.5794533 73.4527467,30.9677467 L73.8912267,28.6748133 C73.8923867,28.6678533 73.8985733,28.6628267 73.9055333,28.6628267 L74.8393333,28.6628267 C74.8439733,28.6628267 74.8482267,28.6651467 74.8509333,28.66824 C74.8532533,28.6713333 74.8544133,28.6759733 74.85364,28.6802267 L74.0837867,32.7564667 C74.0826267,32.7634267 74.0768267,32.7680667 74.0698667,32.7680667 L73.13568,32.7680667 C73.13104,32.7680667 73.12756,32.76652 73.1244667,32.7626533 C73.12176,32.75956 73.1206,32.7553067 73.1213733,32.7506667 L73.20992,32.2750667 C72.9485333,32.5523067 72.5819733,32.85352 72.04644,32.85352" id="Fill-9" fill="#1A1919" fill-rule="nonzero"></path>
            <path d="M83.81,32.8608667 C82.9245333,32.8608667 81.9814533,32.2568933 81.89136,31.1026933 C81.8410933,30.4608267 82.0576267,29.8266933 82.4856667,29.3626933 C82.8951467,28.9180267 83.4705067,28.6628267 84.06288,28.6628267 C85.0345733,28.6628267 85.5298933,29.2524933 85.7386933,29.6039733 C85.7429467,29.6109333 85.7410133,29.6190533 85.7340533,29.6236933 L85.2789467,29.9249067 C85.27276,29.92916 85.26348,29.9272267 85.2592267,29.9206533 C85.0368933,29.59276 84.7001067,29.21692 84.0655867,29.21692 C83.6692533,29.21692 83.2791067,29.39788 82.9960667,29.7137867 C82.65928,30.0791867 82.4891467,30.57876 82.5289733,31.0849067 C82.5916133,31.88724 83.2153067,32.3067733 83.79956,32.3067733 C84.2140667,32.3067733 84.56284,32.1466933 84.9297867,31.7859333 C84.9324933,31.7832267 84.93636,31.78168 84.93984,31.78168 C84.9437067,31.78168 84.9475733,31.7836133 84.95028,31.78632 L85.3276667,32.1722133 C85.3334667,32.1780133 85.3334667,32.18652 85.3276667,32.1927067 C84.8799067,32.6485867 84.3977333,32.8608667 83.81,32.8608667" id="Fill-10" fill="#1A1919" fill-rule="nonzero"></path>
            <path d="M96.4134,32.7680667 L95.8190933,32.7680667 C95.8144533,32.7680667 95.8105867,32.76652 95.80788,32.7626533 C95.8051733,32.75956 95.8040133,32.7553067 95.8047867,32.7506667 L96.2378533,30.4890533 C96.25912,30.3552667 96.2664667,30.1723733 96.2564133,30.04516 C96.2162,29.53128 95.8886933,29.2246533 95.37984,29.2246533 C94.7979067,29.2246533 94.2530933,29.77372 94.11312,30.5022 L93.6951333,32.7564667 C93.6935867,32.76304 93.6874,32.7680667 93.6808267,32.7680667 L93.08652,32.7680667 C93.08188,32.7680667 93.0776267,32.76652 93.07492,32.7626533 C93.0726,32.75956 93.07144,32.7553067 93.0722133,32.7506667 L93.49716,30.4890533 C93.52384,30.3660933 93.5346667,30.1835867 93.52384,30.04516 C93.4844,29.5386267 93.1452933,29.2246533 92.6391467,29.2246533 C92.0576,29.2246533 91.5127867,29.77372 91.3724267,30.5022 L90.9467067,32.7564667 C90.9455467,32.7634267 90.93936,32.7680667 90.9324,32.7680667 L90.3377067,32.7680667 C90.33384,32.7680667 90.3295867,32.76652 90.32688,32.7626533 C90.3237867,32.75956 90.3226267,32.7553067 90.3237867,32.7506667 L91.0770133,28.75988 C91.0781733,28.7525333 91.08436,28.7478933 91.09132,28.7478933 L91.6856267,28.7478933 C91.68988,28.7478933 91.6937467,28.74944 91.69684,28.7533067 C91.6995467,28.7564 91.7007067,28.7606533 91.6999333,28.7649067 L91.59128,29.3580533 C91.9377333,28.9389067 92.2880533,28.6628267 92.83712,28.6628267 C93.41364,28.6628267 93.8633333,28.9922667 94.0462267,29.5448133 C94.3864933,28.9679067 94.9150667,28.6628267 95.5774267,28.6628267 C96.3151867,28.6628267 96.8499467,29.16472 96.9083333,29.9113733 C96.92032,30.0644933 96.89248,30.2431333 96.8658,30.4155867 C96.86,30.4550267 96.8538133,30.4936933 96.8484,30.53236 L96.42732,32.7564667 C96.42616,32.7634267 96.42036,32.7680667 96.4134,32.7680667" id="Fill-11" fill="#1A1919" fill-rule="nonzero"></path>
            <path d="M109.82648,32.7680667 L109.232173,32.7680667 C109.227533,32.7680667 109.22328,32.76652 109.220573,32.7626533 C109.217867,32.75956 109.217093,32.7553067 109.21748,32.7506667 L109.642813,30.4890533 C109.669493,30.3660933 109.680707,30.1835867 109.669107,30.04516 C109.62928,29.53128 109.27548,29.2246533 108.722933,29.2246533 C108.099627,29.2246533 107.540893,29.76212 107.394733,30.5022 L106.968627,32.7564667 C106.967467,32.7634267 106.961667,32.7680667 106.954707,32.7680667 L106.3604,32.7680667 C106.35576,32.7680667 106.351507,32.76652 106.349187,32.7626533 C106.34648,32.75956 106.34532,32.7553067 106.346093,32.7506667 L107.09932,28.75988 C107.10048,28.7525333 107.106667,28.7478933 107.11324,28.7478933 L107.707547,28.7478933 C107.712187,28.7478933 107.716053,28.74944 107.71876,28.7533067 C107.721467,28.7564 107.722627,28.7606533 107.721853,28.7649067 L107.6132,29.3580533 C107.90436,29.00696 108.289867,28.6628267 108.920907,28.6628267 C109.702747,28.6628267 110.2464,29.1527333 110.305947,29.9113733 C110.317933,30.06836 110.300533,30.27136 110.25336,30.5331333 L109.840787,32.7564667 C109.83924,32.76304 109.833053,32.7680667 109.82648,32.7680667" id="Fill-12" fill="#1A1919" fill-rule="nonzero"></path>
            <path d="M110.925387,34.0266667 C110.599427,34.0266667 110.312907,33.9377333 110.023293,33.7459467 C110.01672,33.74208 110.015173,33.7331867 110.019427,33.7262267 L110.308653,33.2807867 C110.310973,33.2773067 110.314067,33.2749867 110.317933,33.2742133 C110.322187,33.2742133 110.326053,33.2742133 110.329147,33.2773067 C110.4784,33.3867333 110.749453,33.4725733 110.946267,33.4725733 C111.304707,33.4725733 111.585427,33.2633867 111.915253,32.7510533 L110.879373,28.7660667 C110.878213,28.7618133 110.878987,28.7571733 110.881693,28.7533067 C110.884787,28.7498267 110.88904,28.7478933 110.893293,28.7478933 L111.5108,28.7478933 C111.51776,28.7478933 111.523173,28.7521467 111.525107,28.7591067 L112.332853,32.0573733 L114.200067,28.75524 C114.202773,28.7506 114.2078,28.7478933 114.212827,28.7478933 L114.884467,28.7478933 C114.889493,28.7478933 114.89452,28.7506 114.897227,28.75524 C114.899547,28.75988 114.899547,28.7649067 114.89684,28.7695467 L112.487133,32.89876 C111.998773,33.6995467 111.546373,34.0266667 110.925387,34.0266667" id="Fill-13" fill="#1A1919" fill-rule="nonzero"></path>
            <path d="M20.1105333,32.7680667 L19.4996,32.7680667 C19.49496,32.7680667 19.4910933,32.76652 19.4883867,32.7626533 C19.48568,32.75956 19.48452,32.7553067 19.4852933,32.7506667 L20.4198667,27.8175733 L19.3712267,28.1280667 C19.3669733,28.12884 19.36272,28.1280667 19.3588533,28.1257467 C19.3553733,28.1234267 19.3530533,28.1199467 19.3526667,28.1153067 L19.2958267,27.58248 C19.2950533,27.57552 19.2993067,27.5693333 19.3054933,27.5674 L20.7203067,27.1041733 C20.7218533,27.1037867 20.7234,27.1034 20.7249467,27.1034 L21.18044,27.1034 C21.18508,27.1034 21.1889467,27.1053333 21.1916533,27.1084267 C21.19436,27.1119067 21.19552,27.1165467 21.1947467,27.1208 L20.1244533,32.7564667 C20.1232933,32.7634267 20.1174933,32.7680667 20.1105333,32.7680667" id="Fill-14" fill="#1A1919" fill-rule="nonzero"></path>
            <path d="M7.90965333,30.5002667 L10.45044,30.5002667 C10.4674533,30.4260267 10.47132,30.3278133 10.4616533,30.2071733 C10.4233733,29.7172667 10.1240933,29.19372 9.40025333,29.19372 C8.99850667,29.19372 8.63078667,29.3576667 8.33653333,29.66816 C8.13546667,29.88624 7.98814667,30.17392 7.90965333,30.5002667 Z M9.16206667,32.8608667 C8.0968,32.8608667 7.32733333,32.1729867 7.24690667,31.1490933 C7.19586667,30.4925333 7.42709333,29.8158667 7.86673333,29.3394933 C8.27428,28.89676 8.80169333,28.6628267 9.39213333,28.6628267 C10.46784,28.6628267 11.00956,29.43732 11.0694933,30.2048533 C11.0892133,30.4577333 11.0625333,30.7140933 10.9894533,30.9669733 C10.98752,30.97316 10.9821067,30.9770267 10.9755333,30.9770267 L7.86248,30.9770267 C7.86093333,31.0257467 7.86441333,31.07524 7.86828,31.1231867 C7.92512,31.8470267 8.42894667,32.3145067 9.1524,32.3145067 C9.68329333,32.3145067 10.00848,32.1277467 10.3336667,31.8470267 C10.33676,31.8447067 10.3410133,31.8435467 10.3441067,31.8435467 C10.3479733,31.8439333 10.3514533,31.84548 10.35416,31.8485733 L10.6936533,32.2425867 C10.6982933,32.248 10.6979067,32.2576667 10.6921067,32.2626933 C10.3835467,32.5410933 9.93076,32.8608667 9.16206667,32.8608667 Z" id="Fill-15" fill="#1A1919" fill-rule="nonzero"></path>
            <path d="M32.2128133,30.8691467 C31.8864667,30.8691467 31.6254667,30.9607867 31.45688,31.1344 C31.3389467,31.2623867 31.2844267,31.4294267 31.2987333,31.6177333 C31.3242533,31.9421467 31.5956933,32.1524933 31.9912533,32.1524933 C32.5453467,32.1524933 33.0476267,31.7391467 33.1589867,31.19124 L33.1961067,31.0187867 C33.01012,30.9607867 32.6451067,30.8691467 32.2128133,30.8691467 Z M31.6734133,32.85352 C30.9426133,32.85352 30.3962533,32.3902933 30.3440533,31.72832 C30.3135067,31.3377867 30.41868,31.00448 30.6572533,30.73652 C30.9619467,30.4148133 31.4479867,30.2373333 32.0268267,30.2373333 C32.4278,30.2373333 32.8322533,30.30036 33.2981867,30.43492 L33.3121067,30.3796267 C33.3275733,30.2779333 33.34072,30.1654133 33.33144,30.04516 C33.30012,29.6441867 32.9846,29.4408 32.3945467,29.4408 C32.0260533,29.4408 31.6594933,29.5158133 31.3056933,29.66352 C31.3018267,29.6650667 31.2975733,29.6650667 31.2940933,29.66352 C31.2902267,29.6615867 31.2871333,29.6581067 31.28636,29.6538533 L31.07292,28.8975333 C31.0706,28.8905733 31.0744667,28.88284 31.08104,28.8801333 C31.5361467,28.6976267 32.0059467,28.6086933 32.5167333,28.6086933 C33.5762,28.6086933 34.19448,29.0607067 34.2586667,29.8808267 C34.27336,30.0714533 34.2548,30.25048 34.2196133,30.4786133 L33.7880933,32.7564667 C33.7869333,32.7634267 33.7811333,32.7680667 33.7737867,32.7680667 L32.8705333,32.7680667 C32.86628,32.7680667 32.8624133,32.76652 32.8597067,32.7626533 C32.857,32.7599467 32.8554533,32.7553067 32.8562267,32.7506667 L32.9436133,32.2638533 C32.60528,32.6547733 32.1780133,32.85352 31.6734133,32.85352 Z" id="Fill-16" fill="#1A1919" fill-rule="nonzero"></path>
            <path d="M41.0856533,30.8691467 C40.7596933,30.8691467 40.4983067,30.9607867 40.32972,31.1344 C40.2121733,31.26316 40.1572667,31.4298133 40.17196,31.6177333 C40.1970933,31.9421467 40.4693067,32.1524933 40.8640933,32.1524933 C41.4185733,32.1524933 41.9208533,31.7391467 42.0326,31.19124 L42.0689467,31.0187867 C41.88296,30.9607867 41.5183333,30.8691467 41.0856533,30.8691467 Z M40.5462533,32.85352 C39.8154533,32.85352 39.2690933,32.3902933 39.21728,31.72832 C39.1867333,31.3377867 39.2922933,31.00448 39.53048,30.73652 C39.8351733,30.4148133 40.3212133,30.2373333 40.8996667,30.2373333 C41.3010267,30.2373333 41.70548,30.30036 42.1710267,30.43492 L42.1853333,30.3796267 C42.2008,30.2779333 42.2139467,30.1654133 42.2046667,30.04516 C42.1733467,29.6441867 41.8578267,29.4408 41.2673867,29.4408 C40.8988933,29.4408 40.53272,29.5158133 40.1793067,29.66352 C40.1750533,29.6650667 40.1704133,29.6650667 40.1669333,29.66352 C40.1634533,29.6615867 40.1607467,29.6581067 40.1595867,29.6538533 L39.94576,28.8975333 C39.9438267,28.8905733 39.9476933,28.88284 39.9546533,28.8801333 C40.4093733,28.6976267 40.8787867,28.6086933 41.3895733,28.6086933 C42.44904,28.6086933 43.06732,29.0607067 43.1315067,29.8808267 C43.1462,30.0714533 43.1280267,30.25048 43.0932267,30.4786133 L42.66132,32.7564667 C42.66016,32.7634267 42.6539733,32.7680667 42.6470133,32.7680667 L41.74376,32.7680667 C41.7395067,32.7680667 41.73564,32.76652 41.7325467,32.7626533 C41.72984,32.7599467 41.72868,32.7553067 41.7294533,32.7506667 L41.81684,32.2638533 C41.47812,32.6547733 41.05124,32.85352 40.5462533,32.85352 Z" id="Fill-17" fill="#1A1919" fill-rule="nonzero"></path>
            <path d="M45.9155067,29.4021333 C45.57408,29.4021333 45.2516,29.54288 45.008,29.7988533 C44.7582133,30.0699067 44.6368,30.4225467 44.6654133,30.7918133 C44.7071733,31.3215467 45.0884267,31.6506 45.66108,31.6506 C46.02532,31.6506 46.3748667,31.49748 46.6207867,31.23068 C46.8690267,30.9611733 46.9865733,30.63908 46.96028,30.2999733 C46.9189067,29.7714 46.48932,29.4021333 45.9155067,29.4021333 Z M45.45808,34.0189333 C44.66696,34.0189333 43.8638533,33.7842267 43.3086,33.3906 C43.3058933,33.3886667 43.3035733,33.3851867 43.3028,33.38132 C43.3024133,33.3774533 43.3031867,33.3735867 43.3055067,33.37088 L43.7722133,32.7220533 C43.7764667,32.7150933 43.78536,32.7139333 43.7919333,32.7185733 C44.2601867,33.05072 44.8115733,33.2332267 45.3447867,33.2332267 C45.7604533,33.2332267 46.0825467,33.1129733 46.3017867,32.8751733 C46.4696,32.6930533 46.5794133,32.4401733 46.6579067,32.0558267 L46.6988933,31.85592 C46.2708533,32.2727467 45.8841867,32.44404 45.3734,32.44404 C44.58808,32.44404 43.7532667,31.9328667 43.6767067,30.9561467 C43.6268267,30.3146667 43.83292,29.7076 44.2578667,29.2466933 C44.6491733,28.8217467 45.19708,28.57776 45.7604533,28.57776 C46.5465467,28.57776 46.9227733,28.9949733 47.1601867,29.3712 L47.2889467,28.6748133 C47.2904933,28.66824 47.29668,28.6628267 47.3032533,28.6628267 L48.23744,28.6628267 C48.2416933,28.6628267 48.2459467,28.6651467 48.2486533,28.66824 C48.2517467,28.6713333 48.2529067,28.6759733 48.2517467,28.6802267 L47.6195467,32.04616 C47.4795733,32.7727067 47.3307067,33.12496 47.0294933,33.4431867 C46.6675733,33.83604 46.168,34.0189333 45.45808,34.0189333 Z" id="Fill-18" fill="#1A1919" fill-rule="nonzero"></path>
            <path d="M49.5234933,30.4078533 L51.6084,30.4078533 C51.6250267,30.3355467 51.6296667,30.2404267 51.6215467,30.1375733 C51.5844267,29.6573333 51.26388,29.3712 50.7646933,29.3712 C50.41476,29.3712 50.1042667,29.5084667 49.8645333,29.7683067 C49.70716,29.9392133 49.5896133,30.1596133 49.5234933,30.4078533 Z M50.5586,32.8608667 C49.40788,32.8608667 48.6388,32.1722133 48.5521867,31.0640267 C48.5015333,30.4171333 48.7312133,29.7489733 49.1662133,29.2776267 C49.5814933,28.8263867 50.1529867,28.57776 50.77436,28.57776 C51.2778,28.57776 51.7112533,28.73784 52.0279333,29.0406 C52.32412,29.3228667 52.50624,29.7253867 52.54104,30.17392 C52.5638533,30.4623733 52.5255733,30.7635867 52.4304533,31.0446933 C52.42852,31.05088 52.4231067,31.05436 52.41692,31.05436 L49.4682,31.05436 C49.5242667,31.68888 49.9434133,32.0674267 50.5914667,32.0674267 C50.9584133,32.0674267 51.2488,31.95452 51.5937067,31.6768933 C51.5998933,31.6718667 51.6087867,31.6730267 51.6142,31.6792133 L52.10836,32.27352 C52.1133867,32.27932 52.1126133,32.2886 52.1068133,32.29324 C51.6807067,32.6752667 51.1741733,32.8608667 50.5586,32.8608667 Z" id="Fill-19" fill="#1A1919" fill-rule="nonzero"></path>
            <path d="M55.1726933,29.4098667 C54.8432533,29.4098667 54.5346933,29.5479067 54.30308,29.7988533 C54.01656,30.11012 53.8731067,30.55904 53.90984,31.03116 C53.9570133,31.6324267 54.3637867,32.0210267 54.94688,32.0210267 C55.28908,32.0210267 55.6216133,31.8682933 55.8598,31.60188 C56.1559867,31.2801733 56.3064,30.8509733 56.27276,30.42332 C56.22636,29.8266933 55.77396,29.4098667 55.1726933,29.4098667 Z M54.65456,32.85352 C54.2040933,32.85352 53.7849467,32.6857067 53.47368,32.3817867 C53.1481067,32.06356 52.9543867,31.6185067 52.9130133,31.09496 C52.85772,30.38388 53.07116,29.72732 53.5146667,29.2466933 C53.90636,28.8217467 54.44808,28.57776 55.0017867,28.57776 C55.6239333,28.57776 56.0921867,28.83528 56.4320667,29.3638533 L56.85624,27.1153867 C56.8574,27.1084267 56.8635867,27.1034 56.8705467,27.1034 L57.8047333,27.1034 C57.8086,27.1034 57.8128533,27.1053333 57.81556,27.1084267 C57.8186533,27.1119067 57.8198133,27.1165467 57.8186533,27.1208 L56.75416,32.7564667 C56.753,32.7634267 56.7468133,32.7680667 56.7398533,32.7680667 L55.8056667,32.7680667 C55.8014133,32.7680667 55.79716,32.76652 55.7944533,32.7626533 C55.7917467,32.75956 55.7905867,32.7553067 55.7917467,32.7506667 L55.88648,32.26076 C55.50948,32.66444 55.1166267,32.85352 54.65456,32.85352 Z" id="Fill-20" fill="#1A1919" fill-rule="nonzero"></path>
            <path d="M68.1492267,29.4176 C67.8329333,29.4176 67.5266933,29.5560267 67.28696,29.8069733 C67.0124267,30.0969733 66.8558267,30.5470533 66.8875333,30.9542133 C66.93896,31.61232 67.3650667,32.0210267 67.9999733,32.0210267 C68.3270933,32.0210267 68.6410667,31.8795067 68.8614667,31.6324267 C69.136,31.34204 69.2933733,30.8915733 69.26128,30.4851867 C69.2098533,29.8266933 68.78336,29.4176 68.1492267,29.4176 Z M68.0088667,32.8608667 C67.4404667,32.8608667 66.9408933,32.6772 66.5635067,32.3288133 C66.1996533,31.9931867 65.9757733,31.5168133 65.9344,30.98708 C65.8864533,30.3695733 66.10144,29.7520667 66.52484,29.2930933 C66.9416667,28.8318 67.5147067,28.57776 68.13956,28.57776 C68.7087333,28.57776 69.2083067,28.7622 69.58492,29.1105867 C69.9495467,29.44776 70.17304,29.92684 70.2144133,30.4596667 C70.2627467,31.0802667 70.04776,31.6950667 69.6235867,32.1463067 C69.2071467,32.6072133 68.63372,32.8608667 68.0088667,32.8608667 Z" id="Fill-21" fill="#1A1919" fill-rule="nonzero"></path>
            <path d="M77.3565333,29.4098667 C77.0270933,29.4098667 76.7185333,29.5479067 76.48692,29.7988533 C76.2004,30.11012 76.0573333,30.55904 76.0940667,31.03116 C76.14124,31.6324267 76.5476267,32.0210267 77.13072,32.0210267 C77.47292,32.0210267 77.8054533,31.8682933 78.04364,31.60188 C78.3398267,31.2801733 78.49024,30.8509733 78.4569867,30.42332 C78.4102,29.8266933 77.9578,29.4098667 77.3565333,29.4098667 Z M76.8384,32.85352 C76.3879333,32.85352 75.9687867,32.6857067 75.6579067,32.3817867 C75.3323333,32.06356 75.1382267,31.6185067 75.09724,31.09496 C75.0419467,30.38388 75.255,29.72732 75.6985067,29.2466933 C76.0902,28.8217467 76.63192,28.57776 77.1856267,28.57776 C77.8077733,28.57776 78.2760267,28.83528 78.6159067,29.3638533 L79.0404667,27.1153867 C79.04124,27.1084267 79.0474267,27.1034 79.0543867,27.1034 L79.9885733,27.1034 C79.9928267,27.1034 79.99708,27.1053333 79.9997867,27.1084267 C80.0024933,27.1119067 80.0036533,27.1165467 80.00288,27.1208 L78.938,32.7564667 C78.93684,32.7634267 78.9306533,32.7680667 78.9236933,32.7680667 L77.9895067,32.7680667 C77.9852533,32.7680667 77.981,32.76652 77.9782933,32.7626533 C77.9755867,32.75956 77.9744267,32.7553067 77.9755867,32.7506667 L78.07032,32.26076 C77.69332,32.66444 77.3008533,32.85352 76.8384,32.85352 Z" id="Fill-22" fill="#1A1919" fill-rule="nonzero"></path>
            <path d="M88.0958133,29.21692 C87.6921333,29.21692 87.3066267,29.39324 87.0112133,29.7141733 C86.6840933,30.0691333 86.5112533,30.5644533 86.5483733,31.0385067 C86.60908,31.8160933 87.12064,32.29904 87.88392,32.29904 C88.2930133,32.29904 88.67852,32.1254267 88.9692933,31.8099067 C89.2964133,31.4549467 89.46964,30.9596267 89.43252,30.4851867 C89.37104,29.7025733 88.8590933,29.21692 88.0958133,29.21692 Z M87.8866267,32.8608667 C86.81092,32.8608667 86.00124,32.1184667 85.9184933,31.0562933 C85.8697733,30.4364667 86.0851467,29.8216667 86.50932,29.37004 C86.9296267,28.91416 87.4922267,28.6628267 88.09388,28.6628267 C89.1742267,28.6628267 89.9866133,29.4017467 90.0697467,30.4596667 C90.1173067,31.0690533 89.9019333,31.6861733 89.4796933,32.1536533 C89.0648,32.60296 88.4844133,32.8608667 87.8866267,32.8608667 Z" id="Fill-23" fill="#1A1919" fill-rule="nonzero"></path>
            <path d="M99.8253467,29.21692 C99.4092933,29.21692 98.9982667,29.40948 98.6966667,29.74472 C98.3509867,30.1201733 98.1738933,30.60544 98.2110133,31.0771733 C98.2666933,31.7898 98.8211733,32.3067733 99.5287733,32.3067733 C99.92472,32.3067733 100.297467,32.1439867 100.578187,31.8481867 C100.90956,31.4804667 101.07544,30.9607867 101.033293,30.42332 C100.97684,29.7018 100.491187,29.21692 99.8253467,29.21692 Z M97.6445467,34.0034667 L97.0498533,34.0034667 C97.0456,34.0034667 97.0413467,34.0015333 97.03864,33.99844 C97.0359333,33.99496 97.0347733,33.9907067 97.0359333,33.9864533 L98.0242533,28.75988 C98.0254133,28.7525333 98.0316,28.7478933 98.03856,28.7478933 L98.6328667,28.7478933 C98.63712,28.7478933 98.6413733,28.74944 98.64408,28.7533067 C98.6471733,28.7564 98.6483333,28.76104 98.6471733,28.7649067 L98.5265333,29.39556 C98.9356267,28.9029467 99.4034933,28.6628267 99.9541067,28.6628267 C100.893707,28.6628267 101.604787,29.3634667 101.68328,30.3668667 C101.7378,31.0628667 101.518173,31.7337333 101.08124,32.2077867 C100.693413,32.6288667 100.175667,32.8608667 99.6238933,32.8608667 C98.75196,32.8608667 98.29144,32.3481467 98.0551867,31.90232 L97.6584667,33.99148 C97.6573067,33.9988267 97.65112,34.0034667 97.6445467,34.0034667 Z" id="Fill-24" fill="#1A1919" fill-rule="nonzero"></path>
            <path d="M103.79216,30.7458 C103.397373,30.7458 103.084173,30.8590933 102.886587,31.0725333 C102.7354,31.22952 102.665027,31.43368 102.6832,31.6641333 C102.716067,32.0871467 103.065613,32.3609067 103.573307,32.3609067 C104.27356,32.3609067 104.90112,31.8551467 105.03336,31.1835067 L105.086333,30.9190267 C104.684973,30.80728 104.225613,30.7458 103.79216,30.7458 Z M103.424053,32.85352 C102.807707,32.85352 102.117507,32.5035867 102.057573,31.7356667 C102.028187,31.35828 102.13452,31.0257467 102.36536,30.7751867 C102.661547,30.45348 103.147973,30.2763867 103.734547,30.2763867 C104.167613,30.2763867 104.63432,30.3456 105.160187,30.4890533 L105.173333,30.41172 C105.196533,30.2895333 105.2062,30.1456933 105.198467,30.04516 C105.15748,29.5239333 104.767333,29.2478533 104.068627,29.2478533 C103.6054,29.2478533 103.249667,29.35264 102.963147,29.4554933 C102.958893,29.4566533 102.955027,29.4566533 102.95116,29.45472 C102.948067,29.4527867 102.94536,29.4493067 102.9442,29.4458267 L102.805,28.9516667 C102.803067,28.94432 102.806547,28.9369733 102.813893,28.93388 C103.24696,28.7676133 103.650253,28.69376 104.12044,28.69376 C105.125,28.69376 105.736707,29.1488667 105.798573,29.9426933 C105.81172,30.10896 105.79664,30.3053867 105.75604,30.4948533 L105.331093,32.7564667 C105.329933,32.76304 105.323747,32.7680667 105.316787,32.7680667 L104.737947,32.7680667 C104.733693,32.7680667 104.72944,32.76652 104.726733,32.7626533 C104.72364,32.75956 104.72248,32.7553067 104.72364,32.7506667 L104.83384,32.1822667 C104.46148,32.6277067 103.987427,32.85352 103.424053,32.85352 Z" id="Fill-25" fill="#1A1919" fill-rule="nonzero"></path>
            <path d="M15.2485867,30.80264 L16.61932,30.80264 L16.9216933,29.2138267 L15.55096,29.2138267 L15.2485867,30.80264 Z M16.85132,32.7680667 L16.2628133,32.7680667 C16.25856,32.7680667 16.2546933,32.76652 16.2519867,32.7626533 C16.2488933,32.75956 16.2477333,32.7553067 16.2488933,32.7506667 L16.5037067,31.4089333 L15.1329733,31.4089333 L14.8766133,32.7564667 C14.8754533,32.7634267 14.8696533,32.7680667 14.8626933,32.7680667 L14.2741867,32.7680667 C14.2699333,32.7680667 14.26568,32.76652 14.2629733,32.7626533 C14.2602667,32.75956 14.2591067,32.7553067 14.25988,32.7506667 L14.5154667,31.4089333 L13.5147733,31.4089333 C13.5101333,31.4089333 13.50588,31.4073867 13.5031733,31.4039067 C13.5004667,31.4004267 13.4996933,31.3961733 13.5004667,31.3923067 L13.61028,30.81424 C13.61144,30.8076667 13.61724,30.80264 13.6245867,30.80264 L14.6303067,30.80264 L14.9330667,29.2138267 L13.9323733,29.2138267 C13.92812,29.2138267 13.9238667,29.2118933 13.92116,29.2084133 C13.9184533,29.2049333 13.9172933,29.2002933 13.9184533,29.1968133 L14.0282667,28.6191333 C14.0294267,28.6117867 14.0352267,28.60676 14.0421867,28.60676 L15.0482933,28.60676 L15.3046533,27.26 C15.3058133,27.2526533 15.312,27.2484 15.3193467,27.2484 L15.9074667,27.2484 C15.91172,27.2484 15.9159733,27.2499467 15.9182933,27.2534267 C15.9213867,27.25652 15.9225467,27.26116 15.9213867,27.2654133 L15.6661867,28.60676 L17.03692,28.60676 L17.2936667,27.26 C17.2948267,27.2526533 17.3010133,27.2484 17.3075867,27.2484 L17.8960933,27.2484 C17.9003467,27.2484 17.9046,27.2499467 17.9073067,27.2534267 C17.9100133,27.25652 17.9111733,27.26116 17.9104,27.2654133 L17.6552,28.60676 L18.63076,28.60676 C18.6354,28.60676 18.6396533,28.6086933 18.6419733,28.6121733 C18.64468,28.6156533 18.64584,28.6199067 18.6450667,28.62416 L18.5348667,29.20184 C18.5337067,29.2088 18.52752,29.2138267 18.5209467,29.2138267 L17.5395867,29.2138267 L17.2372133,30.80264 L18.21316,30.80264 C18.2174133,30.80264 18.22128,30.8045733 18.2239867,30.8080533 C18.22708,30.8115333 18.22824,30.8157867 18.22708,30.8196533 L18.1172667,31.3973333 C18.1161067,31.4042933 18.10992,31.4089333 18.1033467,31.4089333 L17.1219867,31.4089333 L16.8656267,32.7564667 C16.8644667,32.7634267 16.85828,32.7680667 16.85132,32.7680667 Z" id="Fill-26" fill="#1A1919" fill-rule="nonzero"></path>
            <g id="Group-30" transform="translate(0.773333, 0.000000)" fill-rule="nonzero">
                <path d="M17.7240267,3.16989333 C17.7298267,3.17221333 17.7336933,3.1784 17.7336933,3.18458667 C17.7336933,3.18690667 17.7333067,3.18884 17.73292,3.19 C17.3246,4.34652 16.6475467,5.66234667 15.97668,6.66072 C14.5634133,8.75916 12.5338,10.0831067 11.44572,9.6164 C10.3580267,9.15008 10.6194133,7.06981333 12.0342267,4.97021333 C12.35284,4.49886667 12.7016133,4.06696 13.0635333,3.68532 C13.0658533,3.68184 13.0677867,3.67836 13.0677867,3.67410667 C13.0677867,3.66521333 13.0608267,3.65825333 13.0519333,3.65825333 C13.0519333,3.65825333 13.05,3.65825333 13.0496133,3.65864 C12.6053333,3.72012 12.1548667,3.80789333 11.7001467,3.92273333 C11.6970533,3.92312 11.6943467,3.92544 11.6920267,3.92814667 C6.91630667,9.78498667 4.88398667,17.3911067 5.16354667,24.17672 C5.16354667,24.186 5.15658667,24.1925733 5.14769333,24.1925733 C5.14576,24.1925733 5.14344,24.1925733 5.14150667,24.1918 C2.32657333,23.0577067 0.269506667,20.3378933 0.0549066667,16.89424 L0.0522,16.8544133 C-0.303146667,10.72768 4.58084,4.45208 10.9623867,2.83658667 C13.43512,2.21057333 15.77136,2.37568 17.7240267,3.16989333 Z M12.16028,6.65376 C11.7024667,7.61888 11.8845867,8.41116 12.5670533,8.42314667 C13.2499067,8.43513333 14.1755867,7.66334667 14.6326267,6.699 C15.0908267,5.73349333 14.90832,4.94121333 14.2254667,4.92884 C13.543,4.91762667 12.6177067,5.68941333 12.16028,6.65376 Z" id="Fill-27" fill="#CE2331"></path>
                <path d="M15.91868,19.6940933 C15.4550667,20.0161867 14.97096,20.3135333 14.471,20.58188 C14.46868,20.5826533 14.46636,20.5834267 14.46404,20.5834267 C14.4551467,20.5834267 14.4481867,20.5768533 14.4478,20.5683467 C14.3542267,19.0974667 14.0375467,17.6722133 13.48964,16.4866933 C12.0288133,13.32144 9.47526667,13.0774533 7.78824,15.94304 C6.75622667,17.69696 6.28604,20.2099067 6.41325333,22.6219333 C6.41325333,22.6285067 6.41789333,22.6346933 6.42408,22.63624 C8.21396,23.1969067 10.2760533,23.2583867 12.4758,22.70352 C18.8480667,21.0799067 23.7223867,14.8104933 23.3678133,8.69033333 C23.0557733,3.31373333 18.8152,-0.160466667 13.46876,0.162013333 C13.46528,0.162013333 13.4618,0.16356 13.4590933,0.166653333 C12.9390267,0.69252 12.4526,1.22341333 11.9959467,1.75972 C11.9936267,1.76242667 11.99208,1.76590667 11.99208,1.76938667 C11.99208,1.77866667 11.9994267,1.78562667 12.0079333,1.78562667 C12.00832,1.78562667 12.00948,1.78562667 12.0102533,1.78524 C15.1430267,1.38890667 17.65404,2.02536 19.2923467,3.33074667 C19.2962133,3.33384 19.2985333,3.33848 19.2985333,3.34312 C19.2985333,3.34621333 19.29776,3.34969333 19.2962133,3.35201333 C13.6504933,11.31116 14.3495867,15.8452133 15.92448,19.67476 C15.9252533,19.6766933 15.92564,19.6786267 15.92564,19.68056 C15.92564,19.6859733 15.9229333,19.691 15.91868,19.6940933" id="Fill-29" fill="#1A1919"></path>
            </g>
            <path d="M69.35292,10.5888667 C70.6853733,10.5888667 71.6698267,10.8788667 72.1454267,11.1472133 C72.15084,11.1506933 72.15432,11.1572667 72.1527733,11.1642267 L71.6930267,13.5774133 C71.6922533,13.58244 71.6883867,13.5866933 71.6837467,13.5890133 C71.6791067,13.5909467 71.67408,13.5909467 71.66944,13.5886267 C71.1304267,13.29476 70.1981733,12.98156 69.19748,12.98156 C68.35764,12.98156 67.8105067,13.33304 67.8105067,13.9227067 C67.8105067,14.3453333 68.2292667,14.72388 69.1155067,15.1557867 C70.2700933,15.7323067 71.57432,16.58684 71.57432,18.13196 C71.57432,19.14 71.23792,19.98332 70.57556,20.6402667 C69.6947333,21.51452 68.2652267,21.9916667 66.54688,21.97852 C65.2248667,21.95648 63.88816,21.6135067 63.2192267,21.1294 C63.2138133,21.12592 63.2114933,21.1193467 63.2126533,21.11316 L63.67356,18.6848933 C63.67472,18.6802533 63.6782,18.6756133 63.6836133,18.6732933 C63.6882533,18.67136 63.6936667,18.6721333 63.6983067,18.67484 C64.4140267,19.12376 65.8238133,19.6078667 66.85892,19.6078667 C67.6608667,19.6078667 68.20104,19.23744 68.20104,18.6439067 C68.20104,18.1060533 67.8213333,17.7302133 66.8511867,17.2553867 C65.3165067,16.48824 64.5489733,15.5153867 64.5489733,14.3685333 C64.5489733,12.1131067 66.47032,10.5888667 69.35292,10.5888667" id="Fill-31" fill="#1A1919" fill-rule="nonzero"></path>
            <path d="M33.9957333,10.56644 C34.18752,10.56644 34.4233867,10.5869333 34.59584,10.6182533 C34.6000933,10.6190267 34.6035733,10.6213467 34.6058933,10.6252133 C34.6082133,10.62908 34.6093733,10.6329467 34.6082133,10.6372 L33.9849067,13.77732 C33.9841333,13.7815733 33.9818133,13.7850533 33.9779467,13.7873733 C33.9748533,13.79008 33.9702133,13.7904667 33.96596,13.79008 C33.8526667,13.7664933 33.67248,13.7386533 33.46136,13.7386533 C31.2612267,13.7386533 30.4028267,15.8892933 30.06952,17.6671867 L29.2884533,21.8486 C29.28652,21.8559467 29.2803333,21.86136 29.2726,21.86136 L26.0652,21.86136 C26.0601733,21.86136 26.0555333,21.85904 26.0528267,21.85556 C26.05012,21.85208 26.0485733,21.8470533 26.0493467,21.8420267 L28.1446933,10.82512 C28.1458533,10.8173867 28.1528133,10.8119733 28.1605467,10.8119733 L30.9808933,10.8115867 C30.9863067,10.8115867 30.9909467,10.81352 30.99404,10.8173867 C30.99636,10.8200933 30.99752,10.82396 30.99752,10.82744 L30.63792,12.7209467 C30.6352133,12.7340933 30.63792,12.75072 30.65416,12.75884 C30.6707867,12.7673467 30.6885733,12.7619333 30.6997867,12.7445333 C31.5423333,11.34596 32.7069733,10.56644 33.9957333,10.56644" id="Fill-32" fill="#1A1919" fill-rule="nonzero"></path>
            <path d="M39.4558533,21.75 C39.4523733,21.7457467 39.4516,21.7414933 39.4523733,21.7368533 L39.72188,20.3715333 C39.7257467,20.34988 39.7141467,20.33364 39.6955867,20.3297733 C39.6805067,20.3270667 39.6665867,20.3355733 39.6600133,20.34756 C39.06416,21.3571467 37.8975867,22.0009467 36.5856267,22.0009467 C34.43228,22.0009467 33.4594267,20.0896533 33.4582667,18.1768133 C33.45672,16.0037467 34.31048,13.85156 35.7403733,12.4205067 C36.9382667,11.22184 38.48416,10.5888667 40.21256,10.5888667 C41.5272267,10.5938933 42.4996933,10.97476 43.10908,11.7132933 C44.01156,12.8064 43.93732,14.4474133 43.71228,15.6406667 L42.54648,21.7426533 C42.5449333,21.7503867 42.5387467,21.7561867 42.5306267,21.7561867 L39.4682267,21.7561867 C39.4632,21.7561867 39.45856,21.7538667 39.4558533,21.75 Z M38.25332,13.6992133 C37.3829333,14.5699867 36.7298533,16.2052 36.7306267,17.50672 C36.7310133,18.6497067 37.1544133,19.36156 37.8914,19.36156 C39.0703467,19.36156 40.0857333,18.1288667 40.43528,16.32352 C40.5137733,15.9202267 40.59304,15.5095867 40.64988,15.14496 C40.7074933,14.7803333 40.7430667,14.4586267 40.73224,14.2339733 C40.69512,13.4625733 40.29376,13.0469067 39.5737867,13.0469067 C39.13376,13.0469067 38.6771067,13.2746533 38.25332,13.6992133 Z" id="Fill-33" fill="#1A1919" fill-rule="nonzero"></path>
            <path d="M79.7179067,10.5888667 C81.8619733,10.5888667 83.2524267,12.2140267 83.2524267,14.7474667 C83.2524267,17.4042533 81.9768133,20.12832 79.6776933,21.3540533 C77.58312,22.47036 75.7116533,21.98084 75.12392,21.1062 C75.1231467,21.1042667 75.12044,21.1042667 75.12044,21.1065867 L74.33744,25.24392 C74.3366667,25.2516533 74.3297067,25.2574533 74.3215867,25.2574533 L71.1138,25.2574533 C71.10916,25.2574533 71.10452,25.2551333 71.1014267,25.2516533 C71.0983333,25.2477867 71.09756,25.24276 71.0983333,25.2385067 L73.8521733,10.7559067 C73.8533333,10.74856 73.8602933,10.74276 73.8680267,10.74276 L76.68876,10.7446933 C76.6934,10.7446933 76.69804,10.7470133 76.70152,10.7504933 C76.7046133,10.75436 76.705,10.7593867 76.7046133,10.76364 L76.42428,12.238 C76.4211867,12.25424 76.4227333,12.27396 76.4389733,12.28092 C76.45444,12.28672 76.4714533,12.2816933 76.4838267,12.2654533 L76.49736,12.2476667 C77.32328,11.1874267 78.4906267,10.5888667 79.7179067,10.5888667 Z M76.9308133,19.54136 C78.63292,19.54136 79.8826267,17.1254667 79.8826267,14.9926133 C79.8826267,14.4775733 79.7612133,13.2267067 78.5741467,13.2267067 C77.36736,13.2267067 76.34888,14.60208 75.9537067,16.6873733 C75.81876,17.4003867 75.4402133,19.54136 76.9308133,19.54136 Z" id="Fill-34" fill="#1A1919" fill-rule="nonzero"></path>
            <path d="M55.6796133,6.97972 L58.8649733,6.97972 C58.8696133,6.97972 58.8738667,6.98204 58.87696,6.98513333 C58.88044,6.98977333 58.8812133,6.99441333 58.88044,6.99905333 L57.2185467,15.7396533 C57.2177733,15.7454533 57.2189333,15.75048 57.2247333,15.7528 C57.2293733,15.7555067 57.23556,15.75396 57.23904,15.7497067 L61.5155733,10.8173867 C61.5186667,10.8139067 61.5233067,10.8119733 61.5279467,10.8119733 L65.02148,10.8119733 C65.0276667,10.8119733 65.0338533,10.81584 65.03656,10.82164 C65.0373333,10.82396 65.0381067,10.82628 65.0381067,10.8286 C65.0381067,10.83208 65.03656,10.8359467 65.0338533,10.8386533 L60.59608,15.8378667 L63.3031333,21.71172 C63.3042933,21.71404 63.3042933,21.7159733 63.3042933,21.7182933 C63.3042933,21.7217733 63.30352,21.7248667 63.30236,21.7268 C63.2992667,21.7318267 63.29424,21.7345333 63.2888267,21.7345333 L59.83976,21.7345333 C59.83396,21.7345333 59.8277733,21.7310533 59.8250667,21.7252533 L57.20656,15.9182933 C57.2046267,15.9132667 57.1999867,15.91056 57.1945733,15.9109467 C57.18916,15.9113333 57.18568,15.9152 57.1841333,15.9206133 L56.0817467,21.7217733 C56.0802,21.72912 56.0736267,21.7345333 56.0658933,21.7345333 L52.8801467,21.7345333 C52.8755067,21.7345333 52.8708667,21.7322133 52.8677733,21.7287333 C52.8642933,21.7248667 52.86352,21.71984 52.8642933,21.7155867 L55.66376,6.99286667 C55.6645333,6.98474667 55.6714933,6.97972 55.6796133,6.97972" id="Fill-35" fill="#1A1919" fill-rule="nonzero"></path>
            <g id="Group-39" transform="translate(102.853333, 10.440000)" fill="#1A1919" fill-rule="nonzero">
                <path d="M6.52654667,0.149253333 C8.80749333,0.149253333 10.32864,1.47436 10.32864,3.43901333 C10.32864,4.34729333 10.0332267,5.09472 9.45090667,5.66234667 C8.38254667,6.70325333 6.37690667,7.17962667 3.30754667,7.10770667 L3.27313333,7.10732 C3.27274667,7.10693333 3.27236,7.10732 3.27236,7.10732 C3.27197333,7.10770667 3.27197333,7.10770667 3.27197333,7.10848 L3.27313333,7.14289333 C3.28396,7.4588 3.393,7.90462667 3.59909333,8.19346667 C4.01862667,8.72397333 4.76064,9.01242667 5.68052,9.01242667 C7.02457333,9.01242667 8.1896,8.68608 9.45670667,7.95566667 C9.46212,7.95218667 9.46908,7.95257333 9.47372,7.95644 C9.47913333,7.96030667 9.48145333,7.96649333 9.48068,7.97229333 L8.96989333,10.6573067 C8.96912,10.6619467 8.96602667,10.6662 8.96177333,10.66852 C7.41897333,11.45384 5.6086,11.5389067 4.901,11.5389067 C1.88616,11.5389067 0.162786667,9.86270667 0.162786667,6.93525333 C0.162786667,5.24745333 0.783,3.55617333 1.86296,2.29525333 C3.04770667,0.9106 4.70457333,0.149253333 6.52654667,0.149253333 Z M7.29021333,3.43901333 C7.29021333,2.87525333 6.82312,2.51952 6.12557333,2.51952 C4.74208,2.51952 3.85468,3.63853333 3.596,4.69490667 L3.58710667,4.73318667 C3.58633333,4.73396 3.58633333,4.73473333 3.58710667,4.73550667 C3.58788,4.73628 3.58826667,4.73666667 3.58942667,4.73666667 L3.62848,4.73666667 C5.50381333,4.74865333 6.56096,4.55609333 7.02457333,4.09750667 C7.20321333,3.91964 7.29021333,3.70349333 7.29021333,3.43901333 Z" id="Fill-36"></path>
                <path d="M11.5771867,9.52476 L11.4221333,9.52476 L11.3637467,9.8368 L11.30536,10.1469067 L11.4751067,10.1469067 C11.5536,10.14536 11.6054133,10.1445867 11.6471733,10.14188 C11.6928,10.1387867 11.7268267,10.1322133 11.7639467,10.121 C11.91088,10.0784667 12.01412,9.97136 12.0392533,9.83486667 C12.0655467,9.69914667 12.0029067,9.59281333 11.8729867,9.55105333 C11.8397333,9.53868 11.8095733,9.53326667 11.7643333,9.52978667 C11.7237333,9.52708 11.6723067,9.52669333 11.5945867,9.52476 L11.5771867,9.52476 Z M11.25432,9.32562667 C11.2550933,9.32253333 11.2578,9.32021333 11.26128,9.32021333 L11.61508,9.32021333 L11.61856,9.32021333 C11.7094267,9.32176 11.7689733,9.32214667 11.8149867,9.32562667 C11.8768533,9.33026667 11.9232533,9.33993333 11.9712,9.35656 C12.151,9.41649333 12.2534667,9.55878667 12.2534667,9.73974667 C12.2534667,9.77145333 12.2499867,9.80354667 12.2434133,9.8368 C12.20204,10.0599067 12.06168,10.2408667 11.8026133,10.3124 L12.0295867,10.98172 C12.0295867,10.9824933 12.0299733,10.98288 12.0299733,10.98404 C12.0299733,10.9852 12.0295867,10.98636 12.0288133,10.98752 C12.0272667,10.98984 12.0253333,10.9906133 12.0230133,10.9906133 L11.7933333,10.9906133 C11.79024,10.9906133 11.7875333,10.98868 11.78676,10.9859733 L11.56984,10.3487467 L11.42832,10.35184 L11.2666933,10.35184 L11.1479867,10.9852 C11.1476,10.9882933 11.14412,10.9906133 11.1410267,10.9906133 L10.9504,10.9906133 C10.9484667,10.9906133 10.9461467,10.98984 10.9446,10.9879067 C10.9438267,10.98636 10.9426667,10.9848133 10.9426667,10.9824933 L11.0636933,10.34372 L11.0648533,10.3352133 L11.1595867,9.83448 L11.25432,9.32562667 Z M10.15116,10.1588933 C10.22192,9.37898667 10.9101867,8.7464 11.6900933,8.7464 C12.47,8.7464 13.04536,9.37898667 12.97576,10.1588933 C12.905,10.9384133 12.21596,11.5706133 11.43644,11.5706133 C10.6565333,11.5706133 10.0811733,10.9384133 10.15116,10.1588933 Z M10.3429467,10.1762933 C10.2826267,10.8444533 10.7698267,11.37844 11.43644,11.37844 C12.1158133,11.37844 12.72288,10.8224133 12.7835867,10.14188 C12.84352,9.47294667 12.35632,8.93896 11.6900933,8.93896 C11.01072,8.93896 10.4048133,9.4946 10.3429467,10.1762933 Z" id="Fill-38"></path>
            </g>
            <path d="M89.46616,21.75 C89.4634533,21.7457467 89.4622933,21.7414933 89.4634533,21.7368533 L89.73296,20.3715333 C89.73644,20.34988 89.72484,20.33364 89.70628,20.3297733 C89.6908133,20.3270667 89.67728,20.3355733 89.6707067,20.34756 C89.0748533,21.3571467 87.90828,22.0009467 86.59632,22.0009467 C84.4429733,22.0009467 83.47012,20.0896533 83.46896,18.1768133 C83.4674133,16.0037467 84.3211733,13.85156 85.7510667,12.4205067 C86.94896,11.22184 88.4948533,10.5888667 90.2228667,10.5888667 C91.53792,10.5938933 92.5103867,10.97476 93.12016,11.7132933 C94.0222533,12.8064 93.9480133,14.4474133 93.7229733,15.6406667 L92.5571733,21.7426533 C92.5560133,21.7503867 92.54944,21.7561867 92.54132,21.7561867 L89.4793067,21.7561867 C89.4738933,21.7561867 89.4692533,21.7538667 89.46616,21.75 Z M88.2640133,13.6992133 C87.3936267,14.5699867 86.7405467,16.2052 86.74132,17.50672 C86.7417067,18.6497067 87.1651067,19.36156 87.9020933,19.36156 C89.08104,19.36156 90.0964267,18.1288667 90.4459733,16.32352 C90.5244667,15.9202267 90.6037333,15.5095867 90.6605733,15.14496 C90.7185733,14.7803333 90.75376,14.4586267 90.74332,14.2339733 C90.7054267,13.4625733 90.3040667,13.0469067 89.58448,13.0469067 C89.1440667,13.0469067 88.6878,13.2746533 88.2640133,13.6992133 Z" id="Fill-40" fill="#1A1919" fill-rule="nonzero"></path>
            <path d="M101.376653,10.6112933 C102.19484,10.6112933 103.03004,10.7539733 103.61004,10.991 C103.617,10.9940933 103.621253,11.00144 103.619707,11.0091733 L103.124387,13.6083467 C103.123227,13.6133733 103.120133,13.6180133 103.115493,13.6199467 C103.110467,13.62188 103.105053,13.62188 103.100413,13.6191733 C102.600453,13.3396133 102.021613,13.20428 101.3318,13.20428 C99.0253333,13.20428 97.65112,15.2153333 97.65112,17.1525333 C97.65112,18.79664 98.7492533,19.38592 99.7731467,19.38592 C100.688387,19.38592 101.46636,19.1856267 102.454293,18.6992 C102.460093,18.6964933 102.466667,18.69688 102.471307,18.70036 C102.47672,18.7042267 102.478653,18.7108 102.477493,18.7162133 L101.971733,21.38692 C101.970573,21.3911733 101.967093,21.3958133 101.96284,21.3981333 C101.213093,21.76044 100.053093,21.97852 98.85984,21.97852 C96.06076,21.97852 94.2561867,20.2249867 94.2561867,17.5086533 C94.2561867,13.57664 97.31588,10.6112933 101.376653,10.6112933" id="Fill-41" fill="#1A1919" fill-rule="nonzero"></path>
            <path d="M51.36596,10.6112933 C52.1841467,10.6112933 53.0193467,10.7539733 53.5993467,10.991 C53.6063067,10.9940933 53.61056,11.00144 53.6090133,11.0091733 L53.1136933,13.6083467 C53.1125333,13.6133733 53.10944,13.6180133 53.1044133,13.6199467 C53.0997733,13.62188 53.09436,13.62188 53.08972,13.6191733 C52.58976,13.3396133 52.01092,13.20428 51.3211067,13.20428 C49.01464,13.20428 47.6404267,15.2153333 47.6404267,17.1525333 C47.6404267,18.79664 48.73856,19.38592 49.7624533,19.38592 C50.6776933,19.38592 51.45528,19.1856267 52.4436,18.6992 C52.4494,18.6964933 52.4559733,18.69688 52.4606133,18.70036 C52.46564,18.7042267 52.46796,18.7108 52.4668,18.7162133 L51.96104,21.38692 C51.95988,21.3911733 51.9567867,21.3958133 51.9521467,21.3981333 C51.2024,21.76044 50.0424,21.97852 48.8491467,21.97852 C46.04968,21.97852 44.2454933,20.2249867 44.2454933,17.5086533 C44.2454933,13.57664 47.3051867,10.6112933 51.36596,10.6112933" id="Fill-42" fill="#1A1919" fill-rule="nonzero"></path>
        </g>
    </g>
</svg>