<?xml version="1.0" encoding="UTF-8"?>
<svg width="80px" height="80px" viewBox="0 0 80 80" version="1.1" xmlns="http://www.w3.org/2000/svg" xmlns:xlink="http://www.w3.org/1999/xlink">
    <!-- Generator: Sketch 43.2 (39069) - http://www.bohemiancoding.com/sketch -->
    <title>rally</title>
    <desc>Created with Sketch.</desc>
    <defs></defs>
    <g id="Page-1" stroke="none" stroke-width="1" fill="none" fill-rule="evenodd">
        <g id="rally" fill-rule="nonzero" fill="#58676D">
            <g transform="translate(0.000000, 7.000000)">
                <path d="M1.04761905,55.8095238 L1.04761905,53.2380952 L2.88888889,53.2380952 L2.88888889,55.8095238 L4.38095238,55.8095238 L4.38095238,57.3015873 L2.88888889,57.3015873 L2.88888889,61.6825397 C2.88888889,62.0952381 3.07936508,62.2222222 3.55555556,62.2222222 C3.84126984,62.2222222 4.12698413,62.1269841 4.38095238,62.0634921 L4.38095238,63.5873016 C3.87301587,63.6507937 3.42857143,63.7142857 2.92063492,63.7142857 C1.55555556,63.7142857 1.04761905,63.015873 1.04761905,61.9365079 L1.04761905,57.3333333 L0,57.3333333 L0,55.8412698 L1.04761905,55.8095238 L1.04761905,55.8095238 Z" id="path2"></path>
                <path d="M7.11111111,59.968254 C7.14285714,61.5555556 7.84126984,62.1904762 8.6984127,62.1904762 C9.55555556,62.1904762 9.93650794,61.8095238 10.4126984,61.2698413 L11.7460317,62.0952381 C11.047619,63.2063492 10,63.6825397 8.53968254,63.6825397 C6.53968254,63.6825397 5.3015873,62.1269841 5.3015873,59.6825397 C5.3015873,57.2380952 6.53968254,55.6825397 8.63492063,55.6825397 C10.6349206,55.6825397 11.7777778,57.3650794 11.7777778,59.2380952 L11.7777778,60 L7.11111111,60 L7.11111111,59.968254 L7.11111111,59.968254 Z M10.0634921,58.7301587 C10.031746,57.6507937 9.46031746,57.047619 8.6031746,57.047619 C7.71428571,57.047619 7.17460317,57.6825397 7.14285714,58.7301587 L10.0634921,58.7301587 Z" id="path4"></path>
                <path d="M17.6825397,58.3174603 C17.3968254,57.6507937 17.0793651,57.1428571 16.1587302,57.1428571 C15.1428571,57.1428571 14.6666667,57.9365079 14.6666667,59.6825397 C14.6666667,61.3968254 15.1428571,62.1904762 16.2222222,62.1904762 C17.015873,62.1904762 17.4603175,61.6507937 17.8412698,60.952381 L19.2380952,61.7460317 C18.5079365,63.1111111 17.5555556,63.6825397 16.1587302,63.6825397 C14.0952381,63.6825397 12.8253968,62.1269841 12.8253968,59.6825397 C12.8253968,57.2380952 14.0634921,55.6825397 16.1587302,55.6825397 C17.6190476,55.6825397 18.7619048,56.4444444 19.1746032,57.7460317 L17.6825397,58.3174603 Z" id="path6"></path>
                <path d="M20.6031746,63.5238095 L20.6031746,52.7936508 L22.4444444,52.7936508 L22.4444444,56.6349206 C23.015873,56.1587302 23.7460317,55.6507937 24.6349206,55.6507937 C26.1587302,55.6507937 26.9206349,56.6666667 26.9206349,58.2222222 L26.9206349,63.5238095 L25.0793651,63.5238095 L25.0793651,58.5079365 C25.0793651,57.4603175 24.7619048,57.1428571 24.1269841,57.1428571 C23.3333333,57.1428571 22.7301587,57.6190476 22.4126984,57.968254 L22.4126984,63.5555556 L20.6031746,63.5555556 L20.6031746,63.5238095 L20.6031746,63.5238095 Z" id="path8"></path>
                <path d="M28.7936508,63.5238095 L28.7936508,55.8095238 L30.4761905,55.8095238 L30.4761905,56.6349206 C31.1428571,56.1587302 31.9365079,55.6507937 32.8253968,55.6507937 C34.3492063,55.6507937 35.0793651,56.6666667 35.0793651,58.2222222 L35.0793651,63.5238095 L33.2698413,63.5238095 L33.2698413,58.5079365 C33.2698413,57.4603175 32.952381,57.1428571 32.3174603,57.1428571 C31.5238095,57.1428571 30.9206349,57.6190476 30.6031746,57.968254 L30.6031746,63.5555556 L28.7936508,63.5555556 L28.7936508,63.5238095 L28.7936508,63.5238095 Z" id="path10"></path>
                <path d="M39.7142857,55.6507937 C41.8095238,55.6507937 43.047619,57.2063492 43.047619,59.6507937 C43.047619,62.0952381 41.8095238,63.6507937 39.7142857,63.6507937 C37.6190476,63.6507937 36.3809524,62.0952381 36.3809524,59.6507937 C36.4126984,57.2063492 37.6507937,55.6507937 39.7142857,55.6507937 Z M39.7142857,57.1428571 C38.6984127,57.1428571 38.2222222,57.9365079 38.2222222,59.6825397 C38.2222222,61.3968254 38.6984127,62.1904762 39.7142857,62.1904762 C40.7301587,62.1904762 41.2063492,61.3968254 41.2063492,59.6825397 C41.2380952,57.9365079 40.7301587,57.1428571 39.7142857,57.1428571 Z" id="path12"></path>
                <polygon id="path14" points="44.5396825 63.5238095 44.5396825 52.7936508 46.3492063 52.7936508 46.3492063 60.8253968 46.3492063 63.5238095"></polygon>
                <path d="M51.1746032,55.6507937 C53.2698413,55.6507937 54.5079365,57.2063492 54.5079365,59.6507937 C54.5079365,62.0952381 53.2698413,63.6507937 51.1746032,63.6507937 C49.0793651,63.6507937 47.8412698,62.0952381 47.8412698,59.6507937 C47.8730159,57.2063492 49.1111111,55.6507937 51.1746032,55.6507937 Z M51.1746032,57.1428571 C50.1587302,57.1428571 49.6825397,57.9365079 49.6825397,59.6825397 C49.6825397,61.3968254 50.1587302,62.1904762 51.1746032,62.1904762 C52.1904762,62.1904762 52.6666667,61.3968254 52.6666667,59.6825397 C52.6984127,57.9365079 52.2222222,57.1428571 51.1746032,57.1428571 Z" id="path16"></path>
                <path d="M62.0634921,56.9206349 C61.6507937,56.9206349 61.1746032,56.9206349 60.8888889,57.1111111 C61.1428571,57.4285714 61.3015873,57.8730159 61.3015873,58.4761905 C61.3015873,59.9365079 60.3174603,60.984127 58.4126984,60.984127 C57.6190476,60.984127 56.984127,61.015873 56.984127,61.4603175 C56.984127,62.6984127 62.031746,61.015873 62.031746,64.0952381 C62.031746,65.2063492 60.9206349,66.3809524 58.4761905,66.3809524 C56.4126984,66.3809524 55.047619,65.7460317 55.047619,64.5396825 C55.047619,63.5873016 55.7777778,63.1111111 56.4126984,63.1111111 L56.4126984,63.047619 C56.0634921,62.8253968 55.2698413,62.6349206 55.2698413,61.8095238 C55.2698413,61.0793651 56.1269841,60.5079365 56.4761905,60.4126984 C55.8412698,59.9047619 55.3333333,59.3015873 55.3333333,58.3809524 C55.3333333,57.015873 56.3492063,55.6825397 58.3492063,55.6825397 C58.984127,55.6825397 59.7777778,55.968254 60.2222222,56.3809524 C60.5714286,55.9047619 61.1428571,55.6507937 62.031746,55.6825397 L62.031746,56.9206349 L62.0634921,56.9206349 L62.0634921,56.9206349 Z M56.7301587,64.2857143 C56.7301587,64.8571429 57.2380952,65.1428571 58.7619048,65.1428571 C59.9365079,65.1428571 60.3492063,64.5396825 60.3492063,64.2857143 C60.3492063,63.9365079 59.8095238,63.3968254 58.031746,63.3968254 C57.015873,63.3968254 56.7301587,63.9365079 56.7301587,64.2857143 Z M58.3492063,57.015873 C57.5555556,57.015873 57.015873,57.5873016 57.015873,58.2857143 C57.015873,58.984127 57.5555556,59.5555556 58.3492063,59.5555556 C59.047619,59.5555556 59.5873016,58.984127 59.5873016,58.2857143 C59.6190476,57.5873016 59.047619,57.015873 58.3492063,57.015873 Z" id="path18"></path>
                <path d="M63.3650794,54.3809524 L63.3650794,52.6666667 L65.1746032,52.6666667 L65.1746032,53.4285714 L65.1746032,54.3809524 L63.3650794,54.3809524 Z M65.2063492,61.2698413 L65.2063492,63.5555556 L63.3968254,63.5555556 L63.3968254,55.8412698 L65.2063492,55.8412698 L65.2063492,61.2698413 L65.2063492,61.2698413 Z" id="path20"></path>
                <path d="M68.5079365,59.968254 C68.5396825,61.5555556 69.2380952,62.1904762 70.0952381,62.1904762 C70.952381,62.1904762 71.3333333,61.8095238 71.8095238,61.2698413 L73.1428571,62.0952381 C72.4444444,63.2063492 71.3968254,63.6825397 69.9365079,63.6825397 C67.9365079,63.6825397 66.6984127,62.1269841 66.6984127,59.6825397 C66.6984127,57.2380952 67.9365079,55.6825397 70.031746,55.6825397 C72.031746,55.6825397 73.1746032,57.3650794 73.1746032,59.2380952 L73.1746032,60 L68.5079365,60 L68.5079365,59.968254 Z M71.4603175,58.7301587 C71.4285714,57.6507937 70.8571429,57.047619 69.968254,57.047619 C69.0793651,57.047619 68.5079365,57.6825397 68.5079365,58.7301587 L71.4603175,58.7301587 Z" id="path22"></path>
                <path d="M78.3809524,57.8412698 C78,57.4285714 77.5238095,57.015873 76.952381,57.015873 C76.2539683,57.015873 75.9365079,57.3015873 75.9365079,57.7777778 C75.9365079,59.1111111 79.7777778,58.5396825 79.7777778,61.3650794 C79.7777778,62.952381 78.5714286,63.6825397 76.952381,63.6825397 C75.7460317,63.6825397 74.7301587,63.1428571 74.0634921,62.1269841 L75.3015873,61.2063492 C75.7142857,61.8095238 76.2857143,62.3174603 77.0793651,62.3174603 C77.7142857,62.3174603 78.1587302,61.968254 78.1587302,61.4285714 C78.1587302,60.1269841 74.3174603,60.6031746 74.3174603,57.9047619 C74.3174603,56.4761905 75.5238095,55.6507937 76.8571429,55.6507937 C77.8730159,55.6507937 78.8888889,56.031746 79.5555556,56.8253968 L78.3809524,57.8412698 Z" id="path24"></path>
                <path d="M55.3650794,33.9365079 C53.9047619,36.1904762 51.5555556,37.5873016 48.952381,37.5873016 C45.3968254,37.5873016 42.4444444,35.968254 42.4444444,32.1269841 C42.4444444,26.4444444 50.7301587,24.4444444 57.0793651,24.0634921 L57.0793651,25.7460317 C57.1111111,29.4285714 57.047619,31.3968254 55.3650794,33.9365079 Z M43.5555556,13.5238095 C44.5079365,10.952381 47.0793651,9.84126984 50.5714286,9.84126984 C55.5555556,9.84126984 56.984127,13.3333333 57.047619,16.2222222 L57.0793651,17.6190476 C43.3015873,18.2857143 30.3492063,20.8571429 30.6031746,33.4603175 C30.7936508,42.2857143 38.7619048,45.9047619 44.2539683,45.8730159 C50.6349206,45.8730159 54.1904762,44.1587302 57.7142857,39.8095238 C57.7777778,41.6507937 58,43.5873016 58.3174603,45.015873 L70.6666667,45.015873 C69.968254,42.8571429 69.8095238,40.6984127 69.8095238,38.4444444 L69.8095238,15.5555556 C69.8095238,10 68.7619048,6.88888889 65.7777778,4.19047619 C62.952381,1.61904762 58.3174603,0.19047619 52.0634921,0.19047619 C46.3492063,0.19047619 41.4285714,1.49206349 37.8095238,3.96825397 L37.8095238,3.96825397 C40.7936508,6.31746032 42.7619048,9.58730159 43.5555556,13.5238095 L43.5555556,13.5238095 Z" id="path26"></path>
                <path d="M29.9047619,32.984127 L29.9047619,33.7777778 L29.9047619,34.1269841 C30.0952381,38.6349206 32.2857143,41.4285714 34.3174603,43.1111111 L34.3174603,43.1111111 C30.8888889,45.0793651 26.8253968,45.9047619 23.1746032,45.9047619 C9.84126984,45.9047619 1.96825397,36.4761905 1.96825397,23.4920635 C1.96825397,9.96825397 10.0952381,0.19047619 23.968254,0.19047619 C34.031746,0.19047619 42.2857143,5.52380952 43.1746032,15.968254 L31.0793651,15.968254 C31.0793651,12 28.2857143,9.87301587 24.3809524,9.87301587 C18.1269841,9.87301587 16.1904762,14.2857143 16.1904762,22.4126984 C16.1904762,30.6666667 18,35.4920635 24.4126984,35.4920635 C26.7936508,35.5238095 28.7619048,34.6984127 29.9047619,32.984127 L29.9047619,32.984127 Z" id="path28"></path>
            </g>
        </g>
    </g>
</svg>