<?xml version="1.0" encoding="UTF-8"?>
<svg width="353px" height="46px" viewBox="0 0 353 46" version="1.1" xmlns="http://www.w3.org/2000/svg" xmlns:xlink="http://www.w3.org/1999/xlink">
    <!-- Generator: Sketch 50.2 (55047) - http://www.bohemiancoding.com/sketch -->
    <title>Artboard</title>
    <desc>Created with Sketch.</desc>
    <defs></defs>
    <g id="Artboard" stroke="none" stroke-width="1" fill="none" fill-rule="evenodd">
        <g id="ASICS-Runkeeper-logo---USA---full-color" transform="translate(0.568359, 0.500000)" fill-rule="nonzero">
            <path d="M13.7563053,31.6347258 C11.2319278,31.6347258 10.0186981,29.6930806 10.6515837,27.4457398 C11.9603433,22.7910455 20.3717508,15.8890103 26.1035447,15.8890103 C30.285366,15.8890103 29.9653408,19.6290058 27.5173872,22.8149279 L26.1608626,24.3123591 C21.3031673,29.088854 16.7989326,31.6275611 13.7586936,31.6275611 L13.7563053,31.6347258 Z M34.242692,0.238824746 C26.9274901,0.238824746 18.8719314,4.71917697 13.8136233,8.95592796 L14.2148489,9.53388384 C22.06263,4.0409147 32.9602031,0.458543512 35.9646184,5.8177708 C37.5504148,8.65262053 34.8564716,14.3724732 31.0639347,18.8910374 C31.9738569,16.8944625 31.3744068,13.0613253 26.0892152,13.0613253 C17.2980763,13.0613253 1.42108547e-14,24.7064199 1.42108547e-14,36.6189982 C1.42108547e-14,41.3954932 3.30772273,44.5002148 8.76009167,44.5002148 C23.3594484,44.5002148 43.150855,20.5699753 43.150855,8.55231414 C43.150855,4.30601016 40.7076779,0.231660003 34.2355273,0.231660003 L34.242692,0.238824746 Z" id="Shape" fill="#001E62"></path>
            <path d="M72.4188276,29.4470911 L58.6028161,29.4470911 L58.6028161,37.1038125 L52.2094776,37.1038125 L52.2094776,12.9657954 L75.4160782,12.9657954 C79.2372741,12.9657954 82.2170108,13.6878423 84.3552884,15.1319359 C86.4935659,16.5760295 87.5642969,18.6068359 87.5674812,21.2243551 C87.5674812,23.2448125 86.9075288,24.9165857 85.5876241,26.2396748 C84.2677193,27.5627639 82.3977216,28.4838313 79.9776308,29.0028771 L88.3006732,37.0918712 L80.1113727,37.0918712 L72.4188276,29.4470911 Z M58.6028161,24.4867012 L74.8237928,24.4867012 C76.6006489,24.4867012 78.0264326,24.2255861 79.101144,23.703356 C80.1758553,23.1811259 80.7148032,22.3547923 80.7179875,21.2243551 C80.7179875,20.0700355 80.1790397,19.2373333 79.101144,18.7262483 C78.0232483,18.2151633 76.5974646,17.9596209 74.8237928,17.9596209 L58.6028161,17.9596209 L58.6028161,24.4867012 Z" id="Shape" fill="#3EC1D1"></path>
            <path d="M97.4810964,36.5712333 C95.3507797,35.6859896 93.7076654,34.4265871 92.5517537,32.7930258 C91.3958419,31.1594646 90.8202743,29.2448862 90.8250508,27.0492907 L90.8250213,17.9596209 L97.2494364,17.9596209 L97.2494364,27.0492907 C97.2326839,28.163054 97.5770518,29.2522956 98.2310061,30.1540124 C98.9267274,31.0848183 99.8665966,31.804806 100.946443,32.2341759 C102.19308,32.7412665 103.529488,32.9906752 104.875111,32.9673679 C106.25797,32.9911272 107.631944,32.7419778 108.918413,32.2341759 C110.017404,31.8142996 110.979881,31.1004967 111.700722,30.1707301 C112.370719,29.266255 112.72181,28.1651048 112.699009,27.0397377 L112.699009,17.9596209 L119.123395,17.9596209 L119.123395,27.0492907 C119.123395,29.2464783 118.546235,31.1610567 117.391915,32.7930258 C116.237596,34.4249949 114.594482,35.6843974 112.462573,36.5712333 C110.332256,37.4596613 107.834945,37.9038754 104.97064,37.9038754 C102.106336,37.9038754 99.609821,37.4596613 97.4810964,36.5712333 Z" id="Shape" fill="#3EC1D1"></path>
            <path d="M146.177462,18.3441287 C147.96974,19.0833123 149.508211,20.3280301 150.605273,21.9264999 C151.703867,23.5186649 152.253164,25.4611061 152.253164,27.7538237 L152.253164,37.108589 L145.828778,37.108589 L145.828778,28.7807701 C145.849843,27.553216 145.532555,26.3435549 144.911691,25.2843758 C144.309497,24.2732917 143.432379,23.4541513 142.382537,22.9223991 C141.241077,22.3514598 139.978317,22.0654747 138.702248,22.0889007 C137.199391,22.0675965 135.706784,22.3393484 134.307872,22.8889636 C133.065521,23.3711395 131.987864,24.2001067 131.20315,25.2772111 C130.422084,26.3956284 130.019526,27.7346964 130.054403,29.098407 L130.054403,37.0870947 L123.6539,37.0870947 L123.6539,17.9596209 L129.753484,17.9596209 L129.753484,22.1557716 C130.753496,20.5832845 132.171791,19.3204641 133.849329,18.5089178 C135.623,17.6109367 137.687242,17.1619462 140.042054,17.1619462 C142.146141,17.136495 144.233474,17.5386863 146.177462,18.3441287 Z" id="Shape" fill="#3EC1D1"></path>
            <polygon id="Shape" fill="#3EC1D1" points="168.681918 29.580833 163.809893 32.8097436 163.809893 37.108589 157.416555 37.108589 157.416555 10.3028995 163.809893 10.3028995 163.809893 26.6838888 176.496263 17.9596209 186.085077 17.9596209 173.532448 26.3519224 186.350172 37.099036 177.518433 37.099036"></polygon>
            <path d="M195.07444,36.6046688 C192.710075,35.7401232 190.90058,34.5197287 189.645954,32.9434854 C188.406458,31.4080446 187.741716,29.4881483 187.766403,27.5149989 C187.753308,25.5778179 188.411559,23.6958936 189.629236,22.1892071 C190.872717,20.6129638 192.581906,19.3814242 194.756804,18.4945883 C199.466868,16.7293587 204.654786,16.7174909 209.372878,18.4611528 C211.527077,19.3256984 213.219549,20.5906735 214.450292,22.256078 C215.681036,23.9214826 216.297203,25.8965632 216.298796,28.18132 L216.298796,29.2846903 L194.190789,29.2512548 C194.592014,30.5631988 195.646824,31.5622823 197.355217,32.2485054 C199.06361,32.9347285 201.171636,33.2786361 203.679296,33.2802283 C205.569286,33.2962014 207.457216,33.1515906 209.322725,32.8479555 C210.999274,32.5581815 212.870068,32.1474029 214.935106,31.6156198 L214.935106,36.2774789 C212.936939,36.7885638 211.071718,37.1866051 209.339443,37.4716026 C207.390655,37.7767661 205.420094,37.9213431 203.447636,37.9038754 C200.228278,37.9038754 197.437213,37.4708065 195.07444,36.6046688 Z M209.573491,25.6187305 C209.255058,24.3449985 208.422355,23.3236247 207.075384,22.554609 C205.728412,21.7855933 204.063804,21.397105 202.081558,21.3891442 C200.011744,21.3891442 198.275488,21.7664873 196.872791,22.5211735 C195.470093,23.2758597 194.587238,24.3107669 194.224224,25.6258952 L209.573491,25.6187305 Z" id="Shape" fill="#3EC1D1"></path>
            <path d="M227.098451,36.6046688 C224.734086,35.7401232 222.925386,34.5197287 221.672352,32.9434854 C220.431999,31.4083704 219.766401,29.4884422 219.790413,27.5149989 C219.777004,25.577361 220.436224,23.6950815 221.655635,22.1892071 C222.897523,20.6129638 224.606712,19.3814242 226.783202,18.4945883 C231.493267,16.7293587 236.681185,16.7174909 241.399276,18.4611528 C243.550291,19.3256984 245.242763,20.5906735 246.47669,22.256078 C247.710618,23.9214826 248.32599,25.8965632 248.322806,28.18132 L248.322806,29.2846903 L226.217187,29.2512548 C226.616821,30.5631988 227.670834,31.5622823 229.379227,32.2485054 C231.08762,32.9347285 233.196442,33.2786361 235.705694,33.2802283 C237.595677,33.2960059 239.483592,33.1513963 241.349123,32.8479555 C243.025673,32.5581815 244.895671,32.1474029 246.959116,31.6156198 L246.959116,36.2774789 C244.962542,36.7885638 243.098116,37.1866051 241.365841,37.4716026 C239.416245,37.7767147 237.444896,37.921291 235.471646,37.9038754 C232.255473,37.9038754 229.464408,37.4708065 227.098451,36.6046688 Z M241.597501,25.6187305 C241.287029,24.3449985 240.455123,23.3236247 239.101782,22.554609 C237.748442,21.7855933 236.087814,21.397105 234.119898,21.3891442 C232.050084,21.3891442 230.313032,21.7664873 228.908742,22.5211735 C227.504453,23.2758597 226.622393,24.3107669 226.262564,25.6258952 L241.597501,25.6187305 Z" id="Shape" fill="#3EC1D1"></path>
            <path d="M275.761381,18.4611528 C277.848709,19.3256984 279.486251,20.5405203 280.674006,22.1056185 C283.046159,25.3288345 283.046159,29.7202694 280.674006,32.9434854 C279.484659,34.5197287 277.847117,35.7401232 275.761381,36.6046688 C273.52927,37.4987014 271.141767,37.9403204 268.737545,37.9038754 C266.838973,37.9154384 264.950748,37.6235778 263.144269,37.0393298 C261.392888,36.4613739 260.016461,35.6955426 259.01499,34.7418357 L259.01499,44.7724751 L252.590604,44.7724751 L252.590604,17.9596209 L258.957672,17.9596209 L258.957672,20.3908568 C259.955959,19.4132675 261.326813,18.6307184 263.070234,18.0432095 C264.902493,17.4412965 266.82098,17.1436002 268.749486,17.1619462 C271.1497,17.1270851 273.53299,17.5686755 275.761381,18.4611528 Z M263.256517,22.5044558 C262.043588,22.8659387 260.939144,23.5223693 260.041936,24.4150537 C259.235546,25.2442772 258.797338,26.3634725 258.826318,27.5197754 C258.80357,28.682769 259.240373,29.8078159 260.041936,30.6507678 C260.924109,31.5589504 262.025499,32.2243909 263.239799,32.58286 C264.631703,33.0132631 266.08177,33.2259396 267.538645,33.2133574 C269.034936,33.2454184 270.524405,33.0025702 271.93302,32.4968831 C273.054086,32.107021 274.045797,31.4153024 274.798917,30.49792 C276.129737,28.7470178 276.129737,26.3235803 274.798917,24.5726781 C274.045797,23.6552957 273.054086,22.9635771 271.93302,22.573715 C270.524107,22.06918 269.034853,21.8263667 267.538645,21.8572407 C266.086129,21.8466539 264.641022,22.0650722 263.256517,22.5044558 Z" id="Shape" fill="#3EC1D1"></path>
            <path d="M293.154987,36.6046688 C290.790622,35.7401232 288.981127,34.5197287 287.726501,32.9434854 C286.487005,31.4080446 285.822263,29.4881483 285.84695,27.5149989 C285.833854,25.5778179 286.492106,23.6958936 287.709783,22.1892071 C288.953264,20.6129638 290.662453,19.3814242 292.83735,18.4945883 C297.547415,16.7293587 302.735333,16.7174909 307.453424,18.4611528 C309.607624,19.3256984 311.300095,20.5906735 312.530839,22.256078 C313.761582,23.9214826 314.37775,25.8965632 314.379342,28.18132 L314.379342,29.2846903 L292.271335,29.2512548 C292.672561,30.5631988 293.72737,31.5622823 295.435763,32.2485054 C297.144156,32.9347285 299.252183,33.2786361 301.759843,33.2802283 C303.649832,33.2962014 305.537763,33.1515906 307.403271,32.8479555 C309.079821,32.5581815 310.950615,32.1474029 313.015653,31.6156198 L313.015653,36.2774789 C311.017486,36.7885638 309.152265,37.1866051 307.419989,37.4716026 C305.471202,37.7767661 303.500641,37.9213431 301.528183,37.9038754 C298.304048,37.9038754 295.512983,37.4708065 293.154987,36.6046688 Z M307.654037,25.6187305 C307.335604,24.3449985 306.502902,23.3236247 305.15593,22.554609 C303.808959,21.7855933 302.14435,21.397105 300.162105,21.3891442 C298.092291,21.3891442 296.356035,21.7664873 294.953337,22.5211735 C293.55064,23.2758597 292.667784,24.3107669 292.304771,25.6258952 L307.654037,25.6187305 Z" id="Shape" fill="#3EC1D1"></path>
            <path d="M318.940895,17.9596209 L325.267362,17.9596209 L325.267362,22.7217863 C326.152606,21.078672 327.755916,19.746826 330.077293,18.7262483 C332.398669,17.7056706 335.134805,17.1842365 338.285699,17.1619462 L338.285699,22.487738 C336.296146,22.4515149 334.311551,22.6983831 332.391504,23.22093 C330.550863,23.6775146 328.83668,24.5427686 327.376185,25.7524723 C326.069573,26.8056819 325.320781,28.4019301 325.346174,30.0799767 L325.346174,37.1038125 L318.952836,37.1038125 L318.940895,17.9596209 Z" id="Shape" fill="#3EC1D1"></path>
            <path d="M341.027407,18.3990584 C341.008049,16.2426675 342.292127,14.2878208 344.278844,13.4491578 C346.26556,12.6104948 348.562013,13.0538725 350.093733,14.5718422 C351.625452,16.0898119 352.089519,18.3821742 351.268804,20.3763716 C350.448089,22.3705691 348.5049,23.6722219 346.348423,23.6723088 C344.938711,23.6948447 343.57945,23.1480698 342.578021,22.1556304 C341.576593,21.1631911 341.017584,19.8089162 341.027407,18.3990584 Z M350.709362,18.3751759 C350.709362,15.7624332 348.889518,13.9402004 346.348423,13.9402004 C343.807327,13.9402004 341.985094,15.7863157 341.985094,18.3990584 C341.985094,21.0118011 343.895692,22.8101515 346.348423,22.8101515 C348.801153,22.8101515 350.709362,20.9879186 350.709362,18.3751759 Z M344.52619,15.6907858 L346.367529,15.6907858 C347.590311,15.6907858 348.380821,16.194706 348.380821,17.2718056 L348.380821,17.2956881 C348.410331,17.9665444 347.956021,18.562575 347.301333,18.7119188 L348.691293,20.9401537 L347.49717,20.9401537 L346.226622,18.9029786 L345.674937,18.9029786 L345.674937,20.9401537 L344.523802,20.9401537 L344.52619,15.6907858 Z M346.348423,18.1124687 C346.947873,18.1124687 347.258345,17.8473732 347.258345,17.343453 L347.258345,17.3195706 C347.258345,16.7702736 346.92399,16.5768256 346.348423,16.5768256 L345.677325,16.5768256 L345.677325,18.1124687 L346.348423,18.1124687 Z" id="Shape" fill="#3EC1D1"></path>
        </g>
    </g>
</svg>