<?xml version="1.0" encoding="UTF-8"?>
<svg width="80px" height="80px" viewBox="0 0 80 80" version="1.1" xmlns="http://www.w3.org/2000/svg" xmlns:xlink="http://www.w3.org/1999/xlink">
    <!-- Generator: Sketch 44 (41411) - http://www.bohemiancoding.com/sketch -->
    <title>Artboard</title>
    <desc>Created with Sketch.</desc>
    <defs></defs>
    <g id="Page-1" stroke="none" stroke-width="1" fill="none" fill-rule="evenodd">
        <g id="Artboard" fill-rule="nonzero" fill="#FFFFFF">
            <g id="Group" transform="translate(10.000000, 0.000000)">
                <path d="M28.3333333,51.6666667 L28.3333333,61.6666667 C28.3333333,62.5871412 29.0795254,63.3333333 30,63.3333333 C30.9204746,63.3333333 31.6666667,62.5871412 31.6666667,61.6666667 L31.6666667,51.6666667 C31.6666667,50.7461921 30.9204746,50 30,50 C29.0795254,50 28.3333333,50.7461921 28.3333333,51.6666667 Z" id="Stroke-19"></path>
                <path d="M58.3333333,30 C59.2538079,30 60,30.7461921 60,31.6666667 L60,78.3333333 C60,79.2538079 59.2538079,80 58.3333333,80 L1.66666667,80 C0.746192084,80 0,79.2538079 0,78.3333333 L0,31.6666667 C0,30.7461921 0.746192084,30 1.66666667,30 L58.3333333,30 Z M3.33333333,33.3333333 L3.33333333,76.6666667 L56.6666667,76.6666667 L56.6666667,33.3333333 L3.33333333,33.3333333 Z" id="Stroke-21"></path>
                <path d="M46.6666667,20 C46.6666667,10.7938079 39.2061921,3.33333333 30,3.33333333 C20.7938079,3.33333333 13.3333333,10.7938079 13.3333333,20 L13.3333333,30 L46.6666667,30 L46.6666667,20 Z M10,20 C10,8.95285875 18.9528588,0 30,0 C41.0471412,0 50,8.95285875 50,20 L50,31.6666667 C50,32.5871412 49.2538079,33.3333333 48.3333333,33.3333333 L11.6666667,33.3333333 C10.7461921,33.3333333 10,32.5871412 10,31.6666667 L10,20 Z" id="Stroke-23"></path>
            </g>
        </g>
    </g>
</svg>