<?xml version="1.0" encoding="UTF-8"?>
<svg width="79px" height="80px" viewBox="0 0 79 80" version="1.1" xmlns="http://www.w3.org/2000/svg" xmlns:xlink="http://www.w3.org/1999/xlink">
    <!-- Generator: Sketch 44.1 (41455) - http://www.bohemiancoding.com/sketch -->
    <title>Artboard</title>
    <desc>Created with Sketch.</desc>
    <defs>
        <polygon id="path-1" points="78.7715236 79.3322835 0.000129895755 79.3322835 0.000129895755 0.598555093 78.7715236 0.598555093"></polygon>
        <polygon id="path-3" points="78.7715236 79.3322835 0.000129895755 79.3322835 0.000129895755 0.598555093 78.7715236 0.598555093"></polygon>
    </defs>
    <g id="Page-1" stroke="none" stroke-width="1" fill="none" fill-rule="evenodd">
        <g id="Artboard">
            <g id="slack-white">
                <polyline id="Fill-8" fill="#FFFFFF" fill-rule="nonzero" points="32.4264567 36.3114961 35.8198425 46.4418898 46.3445669 42.9168504 42.951811 32.7864567 32.4264567 36.3114961"></polyline>
                <g id="Fill-9-Clipped">
                    <mask id="mask-2" fill="white">
                        <use xlink:href="#path-1"></use>
                    </mask>
                    <g id="path-1"></g>
                    <polyline id="Fill-9" fill="#FFFFFF" fill-rule="nonzero" mask="url(#mask-2)" points="32.4264567 36.6815748 35.8198425 46.8119685 46.3445669 43.2869291 42.951811 33.1565354 32.4264567 36.6815748"></polyline>
                </g>
                <g id="Fill-11-Clipped">
                    <mask id="mask-4" fill="white">
                        <use xlink:href="#path-3"></use>
                    </mask>
                    <g id="path-1"></g>
                    <path d="M61.7845669,46.728189 L56.6809449,48.4371654 L58.4497638,53.7177953 C59.1659843,55.856378 58.0132283,58.1707087 55.8746457,58.8862992 C55.4097638,59.0425197 54.936063,59.1099213 54.4730709,59.0973228 C52.8050394,59.0544882 51.2667717,57.9848819 50.7067717,56.311811 L48.9379528,51.0305512 L38.4132283,54.5549606 L40.1820472,59.8362205 C40.8982677,61.9741732 39.7455118,64.2885039 37.6069291,65.0047244 C37.1420472,65.160315 36.6689764,65.2277165 36.2053543,65.215748 C34.5379528,65.1722835 32.999685,64.1026772 32.4390551,62.4296063 L30.6702362,57.1483465 L25.5659843,58.8579528 C25.1004724,59.0135433 24.6274016,59.0809449 24.1637795,59.0689764 C22.496378,59.0255118 20.9581102,57.9559055 20.3974803,56.2828346 C19.6812598,54.144252 20.8346457,51.8305512 22.9725984,51.1143307 L28.0768504,49.4053543 L24.6834646,39.2749606 L19.5798425,40.983937 C19.1149606,41.1395276 18.6412598,41.2069291 18.1776378,41.1949606 C16.5108661,41.1514961 14.9719685,40.0818898 14.4119685,38.4088189 C13.695748,36.2702362 14.8485039,33.9565354 16.9870866,33.240315 L22.0900787,31.5313386 L20.3212598,26.2500787 C19.6050394,24.112126 20.7577953,21.7984252 22.896378,21.0815748 C25.0349606,20.3659843 27.3486614,21.5187402 28.064252,23.6566929 L29.8330709,28.9379528 L40.3577953,25.4135433 L38.5889764,20.1322835 C37.8727559,17.9937008 39.0261417,15.68 41.1640945,14.9637795 C43.3020472,14.2475591 45.616378,15.4009449 46.3325984,17.5388976 L48.1014173,22.8201575 L53.2050394,21.1105512 C55.344252,20.3949606 57.6573228,21.5477165 58.3735433,23.6856693 C59.0897638,25.824252 57.936378,28.1379528 55.7984252,28.8541732 L50.6948031,30.5631496 L54.0875591,40.6941732 L59.191811,38.9845669 C61.3303937,38.2689764 63.6440945,39.4217323 64.359685,41.559685 C65.0759055,43.6976378 63.9231496,46.0119685 61.7845669,46.728189 Z M75.4746457,29.1571654 C67.3543307,2.09070866 55.6251969,-4.22488189 28.5587402,3.89543307 C1.49228346,12.015748 -4.82330709,23.7448819 3.29700787,50.8113386 C11.4173228,77.8777953 23.1464567,84.1933858 50.2129134,76.0730709 C77.2793701,67.9527559 83.5949606,56.223622 75.4746457,29.1571654 L75.4746457,29.1571654 Z" id="Fill-11" fill="#FFFFFF" fill-rule="nonzero" mask="url(#mask-4)"></path>
                </g>
            </g>
        </g>
    </g>
</svg>