<?xml version="1.0" encoding="UTF-8"?>
<svg width="80px" height="80px" viewBox="0 0 80 80" version="1.1" xmlns="http://www.w3.org/2000/svg" xmlns:xlink="http://www.w3.org/1999/xlink">
    <!-- Generator: Sketch 43.2 (39069) - http://www.bohemiancoding.com/sketch -->
    <title>Group</title>
    <desc>Created with Sketch.</desc>
    <defs></defs>
    <g id="Page-1" stroke="none" stroke-width="1" fill="none" fill-rule="evenodd">
        <g id="Featured-Integrations" transform="translate(-1080.000000, -219.000000)" fill-rule="nonzero">
            <g id="Group-4" transform="translate(962.000000, 219.000000)">
                <g id="Group" transform="translate(118.000000, 0.000000)">
                    <path d="M51.902439,5.26829268 C50.6666667,1.56097561 46.699187,-0.455284553 42.9918699,0.715447154 C39.2845528,1.95121951 37.2682927,5.91869919 38.4390244,9.62601626 L56.7154472,65.8211382 C57.9512195,69.2682927 61.7235772,71.2195122 65.300813,70.1788618 C69.0731707,69.0731707 71.3495935,65.1056911 70.1138211,61.4634146 C70.1138211,61.3333333 51.902439,5.26829268 51.902439,5.26829268 Z" id="Shape" fill="#ECB32D"></path>
                    <path d="M23.6097561,14.4390244 C22.3739837,10.7317073 18.4065041,8.71544715 14.699187,9.88617886 C10.9918699,11.1219512 8.97560976,15.0894309 10.1463415,18.796748 L28.4227642,74.9918699 C29.6585366,78.4390244 33.4308943,80.3902439 37.0081301,79.3495935 C40.7804878,78.2439024 43.0569106,74.2764228 41.8211382,70.6341463 C41.8211382,70.504065 23.6097561,14.4390244 23.6097561,14.4390244 Z" id="Shape" fill="#63C1A0"></path>
                    <path d="M74.9268293,51.7723577 C78.6341463,50.5365854 80.6504065,46.5691057 79.4796748,42.8617886 C78.2439024,39.1544715 74.2764228,37.1382114 70.5691057,38.3089431 L14.3089431,56.6504065 C10.8617886,57.8861789 8.91056911,61.6585366 9.95121951,65.2357724 C11.0569106,69.0081301 15.0243902,71.2845528 18.6666667,70.0487805 C18.796748,70.0487805 74.9268293,51.7723577 74.9268293,51.7723577 Z" id="Shape" fill="#E01A59"></path>
                    <path d="M26.0162602,67.7073171 C29.6585366,66.5365854 34.4065041,64.9756098 39.4796748,63.3495935 C38.3089431,59.7073171 36.7479675,54.9593496 35.1219512,49.8861789 L21.6585366,54.2439024 L26.0162602,67.7073171 Z" id="Shape" fill="#331433"></path>
                    <path d="M54.3739837,58.4715447 C59.4471545,56.8455285 64.195122,55.2845528 67.8373984,54.1138211 C66.6666667,50.4715447 65.1056911,45.7235772 63.4796748,40.6504065 L50.0162602,45.0081301 L54.3739837,58.4715447 Z" id="Shape" fill="#D62027"></path>
                    <path d="M65.6910569,23.4796748 C69.398374,22.2439024 71.4146341,18.2764228 70.2439024,14.5691057 C69.0081301,10.8617886 65.0406504,8.84552846 61.3333333,10.0162602 L5.13821138,28.2926829 C1.69105691,29.5284553 -0.260162602,33.300813 0.780487805,36.8780488 C1.88617886,40.6504065 5.85365854,42.9268293 9.49593496,41.6910569 C9.62601626,41.6910569 65.6910569,23.4796748 65.6910569,23.4796748 Z" id="Shape" fill="#89D3DF"></path>
                    <path d="M16.8455285,39.3495935 C20.4878049,38.1788618 25.2357724,36.6178862 30.3089431,34.9918699 C28.6829268,29.9186992 27.1219512,25.1707317 25.9512195,21.5284553 L12.4878049,25.8861789 L16.8455285,39.3495935 Z" id="Shape" fill="#258B74"></path>
                    <path d="M45.1382114,30.1788618 C50.2113821,28.5528455 54.9593496,26.9918699 58.601626,25.8211382 C56.9756098,20.7479675 55.4146341,16 54.2439024,12.3577236 L40.7804878,16.7154472 L45.1382114,30.1788618 Z" id="Shape" fill="#819C3C"></path>
                </g>
            </g>
        </g>
    </g>
</svg>