<?xml version="1.0" encoding="UTF-8"?>
<svg width="116px" height="25px" viewBox="0 0 116 25" version="1.1" xmlns="http://www.w3.org/2000/svg" xmlns:xlink="http://www.w3.org/1999/xlink">
    <!-- Generator: Sketch 44 (41411) - http://www.bohemiancoding.com/sketch -->
    <title>Artboard</title>
    <desc>Created with Sketch.</desc>
    <defs></defs>
    <g id="Page-1" stroke="none" stroke-width="1" fill="none" fill-rule="evenodd">
        <g id="Artboard" fill-rule="nonzero">
            <g id="target">
                <path d="M0.2668,12.5274957 C0.2668,5.7293913 5.7778087,0.219391304 12.5764174,0.219391304 C19.3740174,0.219391304 24.8860348,5.7293913 24.8860348,12.5274957 C24.8860348,19.3261043 19.3740174,24.8366087 12.5764174,24.8366087 C5.7778087,24.8366087 0.2668,19.3261043 0.2668,12.5274957 Z M12.5764174,20.7034783 C17.0918435,20.7034783 20.7518957,17.0429217 20.7518957,12.5274957 C20.7518957,8.01257391 17.0918435,4.35302609 12.5764174,4.35302609 C8.06149565,4.35302609 4.40144348,8.01257391 4.40144348,12.5274957 C4.40144348,17.0429217 8.06149565,20.7034783 12.5764174,20.7034783 Z M12.5764174,16.6949217 C14.9211304,16.6949217 16.8220174,14.7930261 16.8220174,12.4493217 C16.8220174,10.1046087 14.9211304,8.20372174 12.5764174,8.20372174 C10.232713,8.20372174 8.33182609,10.1046087 8.33182609,12.4493217 C8.33182609,14.7930261 10.232713,16.6949217 12.5764174,16.6949217 L12.5764174,16.6949217 Z" id="Fill-1" fill="#D82331"></path>
                <polyline id="Fill-2" fill="#1A1918" points="28.884 3.69333913 42.9094087 3.69333913 42.9094087 7.23234783 38.0853217 7.23234783 38.0853217 21.415113 33.7993739 21.415113 33.7993739 7.25907826 28.884 7.25907826 28.884 3.69333913"></polyline>
                <path d="M56.0113565,3.69333913 C56.0113565,3.69333913 59.2361565,3.69333913 64.335113,3.69333913 C69.0669043,3.69333913 69.7220522,6.93125217 69.7220522,8.81801739 C69.7220522,11.5581391 67.362713,12.9345043 67.1529043,12.9869565 C67.1529043,12.9869565 69.2247652,13.7601217 69.2247652,16.1068522 L69.2247652,19.4098261 C69.2247652,20.7342435 70.0372696,21.1009043 70.1810087,21.415113 L66.7993565,21.415113 C65.1869565,21.2325391 65.213687,19.9479652 65.2262957,19.2131304 L65.2262957,16.369113 C65.1869565,15.6746261 64.9771478,14.8999478 63.5221043,14.8742261 L60.101113,14.8742261 L60.101113,21.415113 L55.9982435,21.415113 L56.0113565,3.69333913 Z M64.033513,7.25907826 L60.101113,7.25907826 L60.101113,10.7970783 C60.101113,10.7970783 63.1685565,10.8081739 63.627513,10.7970783 C64.8601391,10.7718609 65.8123478,10.2216174 65.8123478,9.01471304 C65.8123478,7.70189565 65.0038783,7.25907826 64.033513,7.25907826 L64.033513,7.25907826 Z" id="Fill-3" fill="#1A1918"></path>
                <polyline id="Fill-4" fill="#1A1918" points="87.8125043 3.69333913 87.8125043 21.415113 100.579061 21.415113 100.579061 17.7717043 91.9804348 17.7717043 91.9804348 13.8120696 99.3212174 13.8120696 99.3212174 10.4571478 91.9804348 10.4571478 91.9804348 7.25907826 100.579061 7.25907826 100.579061 3.69333913 87.8125043 3.69333913"></polyline>
                <polyline id="Fill-5" fill="#1A1918" points="101.182765 7.25907826 106.242887 7.25907826 106.242887 21.415113 110.436539 21.415113 110.436539 7.25907826 115.57433 7.25907826 115.57433 3.69333913 101.182765 3.69333913 101.182765 7.25907826"></polyline>
                <path d="M44.9636174,3.6898087 L49.5128348,3.6898087 L55.7097565,21.415113 L51.3012522,21.415113 L50.0212174,17.7318609 L44.7906261,17.7318609 L43.5832174,21.415113 L39.2110261,21.415113 L44.9636174,3.6898087 Z M47.3396,9.94624348 L45.8321043,14.5206783 L48.9393913,14.5206783 L47.3396,9.94624348 L47.3396,9.94624348 Z" id="Fill-6" fill="#1A1918"></path>
                <path d="M86.3438435,11.5193043 L78.7286957,11.5193043 L78.7286957,14.9660174 L82.3453739,14.9660174 C82.3388174,15.6751304 82.4507826,16.3832348 81.6009565,17.3793217 C81.3114609,17.7187478 80.3204174,18.4793043 78.9374957,18.4793043 C77.7709391,18.4793043 76.932713,18.1459304 76.2049391,17.5281043 C74.5970783,16.1628348 74.2188174,13.6123478 74.2188174,12.2788522 C74.2188174,10.600887 74.8865739,6.43346087 78.9894435,6.26248696 C78.9894435,6.26248696 81.7568,6.08394783 82.477513,9.42121739 L86.317113,9.42121739 C86.2394435,7.72963478 84.272487,2.97968696 78.9894435,2.97262609 C77.1662261,2.97010435 74.8522783,3.51883478 72.9362609,5.43737391 C71.5482957,6.82735652 70.2995304,9.16097391 70.2995304,12.4493217 C70.2995304,16.0160696 71.6123478,18.3350609 72.8132,19.6085391 C74.9213739,21.8458261 77.0451826,22.0178087 78.1512174,22.0178087 C79.0287826,22.0178087 80.7072522,21.8871826 82.883513,20.4190261 L83.4594783,21.415113 L86.3438435,21.415113 L86.3438435,11.5193043" id="Fill-7" fill="#1A1918"></path>
                <path d="M112.579009,19.2388522 C113.18473,19.2388522 113.725391,19.6756174 113.725391,20.3534609 C113.725391,21.0348348 113.18473,21.4736174 112.579009,21.4736174 C111.972278,21.4736174 111.431113,21.0348348 111.431113,20.3534609 C111.431113,19.6756174 111.972278,19.2388522 112.579009,19.2388522 Z M112.579009,21.2350609 C113.042,21.2350609 113.42127,20.8643652 113.42127,20.3534609 C113.42127,19.846087 113.042,19.4789217 112.579009,19.4789217 C112.108957,19.4789217 111.735739,19.846087 111.735739,20.3534609 C111.735739,20.8643652 112.108957,21.2350609 112.579009,21.2350609 Z M112.13367,19.7270609 L112.605739,19.7270609 C112.918939,19.7270609 113.095965,19.8249043 113.095965,20.0977565 C113.095965,20.3272348 112.952226,20.416 112.76713,20.4321391 L113.101009,20.9783478 L112.841774,20.9783478 L112.537652,20.4437391 L112.381809,20.4437391 L112.381809,20.9783478 L112.13367,20.9783478 L112.13367,19.7270609 Z M112.381809,20.2495652 L112.602713,20.2495652 C112.743426,20.2495652 112.847826,20.2283826 112.847826,20.0765739 C112.847826,19.9414087 112.705096,19.9207304 112.590609,19.9207304 L112.381809,19.9207304 L112.381809,20.2495652 L112.381809,20.2495652 Z" id="Fill-8" fill="#1A1918"></path>
            </g>
        </g>
    </g>
</svg>