<?xml version="1.0" encoding="UTF-8"?>
<svg width="183px" height="40px" viewBox="0 0 183 40" version="1.1" xmlns="http://www.w3.org/2000/svg" xmlns:xlink="http://www.w3.org/1999/xlink">
    <!-- Generator: Sketch 44.1 (41455) - http://www.bohemiancoding.com/sketch -->
    <title>time-doctor</title>
    <desc>Created with Sketch.</desc>
    <defs></defs>
    <g id="Page-1" stroke="none" stroke-width="1" fill="none" fill-rule="evenodd">
        <g id="time-doctor" fill-rule="nonzero">
            <g id="td-dark-logo">
                <path d="M60.7550826,13.6447647 L55.3423765,13.6447647 L55.3423765,28.3495145 L51.7015428,28.3495145 L51.7015428,13.6447647 L46.3616534,13.6447647 L46.3616534,10.6989657 L60.7550826,10.6989657 L60.7550826,13.6447647 Z M66.2973981,28.3495145 L62.7779255,28.3495145 L62.7779255,15.2328292 L66.2973981,15.2328292 L66.2973981,28.3495145 Z M62.5716116,11.8384929 C62.5716116,11.3131764 62.7475835,10.8808068 63.0995325,10.5413715 C63.4514815,10.2019362 63.9308532,10.0322211 64.5376618,10.0322211 C65.1363797,10.0322211 65.6137286,10.2019362 65.9697231,10.5413715 C66.3257175,10.8808068 66.503712,11.3131764 66.503712,11.8384929 C66.503712,12.3718913 66.3236948,12.8083015 65.963655,13.1477369 C65.6036152,13.4871723 65.1282889,13.6568874 64.5376618,13.6568874 C63.9470347,13.6568874 63.4717085,13.4871723 63.1116686,13.1477369 C62.7516288,12.8083015 62.5716116,12.3718913 62.5716116,11.8384929 Z M72.4707915,15.2328292 L72.5800165,16.6996675 C73.5104565,15.5601345 74.7685542,14.9903766 76.3543475,14.9903766 C78.0453208,14.9903766 79.2063306,15.6571146 79.8374116,16.9906105 C80.7597608,15.6571146 82.0744932,14.9903766 83.7816482,14.9903766 C85.2056258,14.9903766 86.2655024,15.4045624 86.9613095,16.2329462 C87.6571168,17.06133 88.0050153,18.307928 88.0050153,19.9727775 L88.0050153,28.3495145 L84.4855426,28.3495145 L84.4855426,19.9849001 C84.4855426,19.2413751 84.3399108,18.6978826 84.0486426,18.3544064 C83.7573745,18.0109302 83.2436175,17.8391946 82.5073564,17.8391946 C81.4555547,17.8391946 80.7273953,18.3402583 80.3228562,19.3424007 L80.3349923,28.3495145 L76.8276558,28.3495145 L76.8276558,19.9970227 C76.8276558,19.2373341 76.6779785,18.6877804 76.3786196,18.3483451 C76.0792607,18.0089097 75.5695491,17.8391946 74.8494695,17.8391946 C73.8543033,17.8391946 73.1342345,18.2513599 72.6892415,19.0757028 L72.6892415,28.3495145 L69.181905,28.3495145 L69.181905,15.2328292 L72.4707915,15.2328292 Z M96.7391282,28.5919672 C94.8135218,28.5919672 93.2459564,28.0020051 92.0363845,26.8220632 C90.8268128,25.6421214 90.222036,24.0702361 90.222036,22.1063603 L90.222036,21.7669266 C90.222036,20.4495943 90.4768918,19.2716905 90.9866109,18.2331801 C91.49633,17.1946696 92.2184218,16.3945841 93.1529073,15.8328994 C94.0873927,15.2712147 95.1533373,14.9903766 96.3507727,14.9903766 C98.1469264,14.9903766 99.5607691,15.5560937 100.592344,16.6875448 C101.623919,17.8189959 102.139698,19.4232078 102.139698,21.5002288 L102.139698,22.9306991 L93.7779173,22.9306991 C93.8911882,23.7873692 94.2330182,24.4743114 94.8034182,24.9915461 C95.3738182,25.5087809 96.09591,25.7673945 96.9697145,25.7673945 C98.3208755,25.7673945 99.3767064,25.2784533 100.13724,24.3005563 L101.860567,26.2280544 C101.334667,26.9715794 100.622689,27.5514394 99.7246118,27.9676517 C98.8265355,28.3838641 97.8313836,28.5919672 96.7391282,28.5919672 Z M96.3386364,17.827072 C95.6428291,17.827072 95.0785055,18.0614405 94.6456491,18.5301845 C94.2127918,18.9989285 93.9356873,19.6697074 93.8143255,20.542541 L98.6930427,20.542541 L98.6930427,20.2637205 C98.6768609,19.4878684 98.4665036,18.8878042 98.0619645,18.46351 C97.6574255,18.0392159 97.0829882,17.827072 96.3386364,17.827072 Z M110.529821,28.3495145 L110.529821,10.6989657 L115.966799,10.6989657 C117.52023,10.6989657 118.909801,11.048498 120.135554,11.7475732 C121.361307,12.4466484 122.318028,13.440694 123.005745,14.7297401 C123.693461,16.0187862 124.037315,17.4835893 124.037315,19.1241934 L124.037315,19.9364095 C124.037315,21.5770136 123.699529,23.0357555 123.023949,24.3126789 C122.348368,25.5896023 121.395693,26.5796071 120.165895,27.2827232 C118.936095,27.9858392 117.548547,28.3414327 116.003208,28.3495145 L110.529821,28.3495145 Z M114.170655,13.6447647 L114.170655,25.4279608 L115.930391,25.4279608 C117.354369,25.4279608 118.442563,24.9632646 119.195005,24.0338584 C119.947448,23.1044521 120.331755,21.775017 120.347936,20.0455132 L120.347936,19.1120707 C120.347936,17.3179125 119.975765,15.9581712 119.231414,15.0328058 C118.487062,14.1074405 117.398868,13.6447647 115.966799,13.6447647 L114.170655,13.6447647 Z M125.902387,21.6699456 C125.902387,20.3687768 126.153198,19.2090568 126.654826,18.1907509 C127.156455,17.1724449 127.878546,16.3844818 128.821123,15.8268381 C129.763699,15.2691944 130.857961,14.9903766 132.103941,14.9903766 C133.875822,14.9903766 135.322028,15.5318486 136.442601,16.614809 C137.563175,17.6977694 138.188178,19.1686337 138.317631,21.0274462 L138.341903,21.9245208 C138.341903,23.9368875 137.779602,25.5512015 136.654983,26.7675114 C135.530365,27.9838213 134.021456,28.5919672 132.128214,28.5919672 C130.23497,28.5919672 128.724039,27.9858417 127.595375,26.7735727 C126.466711,25.5613036 125.902387,23.9126425 125.902387,21.8275398 L125.902387,21.6699456 Z M129.409724,21.9245208 C129.409724,23.169117 129.644354,24.1207339 130.113618,24.7794001 C130.582884,25.4380663 131.254409,25.7673945 132.128214,25.7673945 C132.977745,25.7673945 133.641179,25.4421071 134.118535,24.7915227 C134.595892,24.1409384 134.834566,23.1004231 134.834566,21.6699456 C134.834566,20.4495947 134.595892,19.5040391 134.118535,18.8332503 C133.641179,18.1624614 132.969655,17.827072 132.103941,17.827072 C131.246318,17.827072 130.582884,18.160441 130.113618,18.8271889 C129.644354,19.4939369 129.409724,20.5263705 129.409724,21.9245208 Z M145.959494,25.7673945 C146.606756,25.7673945 147.132649,25.5895976 147.537188,25.2339987 C147.941727,24.8783998 148.152085,24.405622 148.168265,23.8156511 L151.457153,23.8156511 C151.449062,24.7046484 151.206342,25.5188768 150.728985,26.2583609 C150.251629,26.9978451 149.598308,27.5716438 148.769004,27.9797744 C147.939698,28.3879049 147.023431,28.5919672 146.020174,28.5919672 C144.143113,28.5919672 142.662522,27.9959438 141.578357,26.8038793 C140.494192,25.6118147 139.952118,23.965174 139.952118,21.8639076 L139.952118,21.6335777 C139.952118,19.6131294 140.490146,18.0008357 141.566221,16.7966485 C142.642295,15.5924612 144.11884,14.9903766 145.995902,14.9903766 C147.638331,14.9903766 148.955085,15.4570932 149.946206,16.3905404 C150.937327,17.3239875 151.440971,18.5665446 151.457153,20.118249 L148.168265,20.118249 C148.152085,19.4393784 147.941727,18.8878042 147.537188,18.46351 C147.132649,18.0392159 146.598665,17.827072 145.935221,17.827072 C145.118052,17.827072 144.501139,18.1240735 144.084464,18.7180853 C143.667789,19.3120971 143.459455,20.2758365 143.459455,21.6093325 L143.459455,21.9730114 C143.459455,23.3226708 143.665766,24.2924715 144.078396,24.8824425 C144.491026,25.4724134 145.118052,25.7673945 145.959494,25.7673945 Z M157.654818,12.0082097 L157.654818,15.2328292 L159.899999,15.2328292 L159.899999,17.8028267 L157.654818,17.8028267 L157.654818,24.3490467 C157.654818,24.8339544 157.747861,25.1814663 157.933948,25.3915929 C158.120036,25.6017195 158.476025,25.7067813 159.001926,25.7067813 C159.390284,25.7067813 159.734137,25.6784955 160.033496,25.6219229 L160.033496,28.2767788 C159.345779,28.4869055 158.637846,28.5919672 157.909676,28.5919672 C155.450078,28.5919672 154.196026,27.3514305 154.147482,24.8703198 L154.147482,17.8028267 L152.229975,17.8028267 L152.229975,15.2328292 L154.147482,15.2328292 L154.147482,12.0082097 L157.654818,12.0082097 Z M160.574452,21.6699456 C160.574452,20.3687768 160.825262,19.2090568 161.326891,18.1907509 C161.828519,17.1724449 162.550611,16.3844818 163.493186,15.8268381 C164.435763,15.2691944 165.530025,14.9903766 166.776005,14.9903766 C168.547886,14.9903766 169.994092,15.5318486 171.114665,16.614809 C172.235238,17.6977694 172.860242,19.1686337 172.989695,21.0274462 L173.013966,21.9245208 C173.013966,23.9368875 172.451665,25.5512015 171.327047,26.7675114 C170.202428,27.9838213 168.69352,28.5919672 166.800277,28.5919672 C164.907035,28.5919672 163.396104,27.9858417 162.267439,26.7735727 C161.138775,25.5613036 160.574452,23.9126425 160.574452,21.8275398 L160.574452,21.6699456 Z M164.081788,21.9245208 C164.081788,23.169117 164.316417,24.1207339 164.785683,24.7794001 C165.254948,25.4380663 165.926473,25.7673945 166.800277,25.7673945 C167.649809,25.7673945 168.313244,25.4421071 168.7906,24.7915227 C169.267955,24.1409384 169.50663,23.1004231 169.50663,21.6699456 C169.50663,20.4495947 169.267955,19.5040391 168.7906,18.8332503 C168.313244,18.1624614 167.641719,17.827072 166.776005,17.827072 C165.918382,17.827072 165.254948,18.160441 164.785683,18.8271889 C164.316417,19.4939369 164.081788,20.5263705 164.081788,21.9245208 Z M182.549063,18.5180619 C182.071707,18.4534075 181.650993,18.4210808 181.286907,18.4210808 C179.960019,18.4210808 179.090274,18.8696136 178.677644,19.7666927 L178.677644,28.3495145 L175.170307,28.3495145 L175.170307,15.2328292 L178.483465,15.2328292 L178.580555,16.7966485 C179.284453,15.5924612 180.259377,14.9903766 181.505357,14.9903766 C181.893715,14.9903766 182.257795,15.0429075 182.597607,15.1479708 L182.549063,18.5180619 Z" id="Time-Doctor" fill="#384158"></path>
                <path d="M39.7676751,19.8617475 C39.7676751,30.831068 30.8653578,39.7234952 19.8838375,39.7234952 C8.90231722,39.7234952 0,30.831068 0,19.8617475 C0,8.89242718 8.90231722,0 19.8838375,0 C30.8653578,0 39.7676751,8.89242718 39.7676751,19.8617475" id="Fill-2" fill="#DE6C2D"></path>
                <path d="M33.2758936,20.5412338 L33.2758936,19.2743161 L35.9192185,19.2743161 C35.7955861,15.968521 34.7069981,12.9187248 32.9446518,10.3904375 C34.892058,7.90534505 39.9147254,0.879242471 39.4509091,0.0755799753 C39.0477427,-0.621878601 31.8673385,3.67026563 28.8231799,6.2639397 C26.3583056,4.56229929 23.4074545,3.53830329 20.2272225,3.44913955 L20.2272225,5.97386034 L18.9842882,5.97386034 L18.9842882,3.46063176 C10.6355957,3.87197382 3.9532205,10.7415445 3.63636364,19.2743161 L5.93561702,19.2743161 L5.93561702,20.5412338 L3.63636364,20.5412338 C3.9532205,29.0736091 10.6359845,35.9439724 18.9842882,36.3545218 L18.9842882,33.8416895 L20.2272225,33.8416895 L20.2272225,36.3636364 C28.7333714,36.1250738 35.5945861,29.1889275 35.9161083,20.5412338 L33.2758936,20.5412338 Z" id="Fill-3" fill="#FFFFFF"></path>
                <path d="M18.6884513,18.4733204 L12.7999677,13.8045825 L10.7475905,15.8546796 L20.0227491,26.2181747 C24.1753236,18.3766214 31.4525345,8.78516505 37.1893933,2.44419417 C33.8497607,4.01700971 23.6360837,12.9960388 18.6884513,18.4733204" id="Fill-4" fill="#384158"></path>
            </g>
        </g>
    </g>
</svg>