<?xml version="1.0" encoding="UTF-8"?>
<svg width="159px" height="39px" viewBox="0 0 159 39" version="1.1" xmlns="http://www.w3.org/2000/svg" xmlns:xlink="http://www.w3.org/1999/xlink">
    <!-- Generator: Sketch 43.2 (39069) - http://www.bohemiancoding.com/sketch -->
    <title>tnw</title>
    <desc>Created with Sketch.</desc>
    <defs></defs>
    <g id="Page-1" stroke="none" stroke-width="1" fill="none" fill-rule="evenodd">
        <g id="homepage-v2" transform="translate(-139.000000, -3644.000000)" fill-rule="nonzero" fill="#FF4422">
            <g id="Group-19" transform="translate(139.000000, 3582.000000)">
                <g id="tnw" transform="translate(0.000000, 62.000000)">
                    <path d="M81.7136886,38.7878788 L67.2936259,38.7878788 L67.2936259,26.1818182 C67.2936259,24.4848485 66.5726228,23.030303 65.6112853,21.8181818 L60.0835946,16.2424242 C58.8819227,15.2727273 57.4399164,14.5454545 55.7575758,14.5454545 L52.8735632,14.5454545 L52.8735632,38.7878788 L38.4535005,38.7878788 L38.4535005,0 L59.3625914,0 C62.4869383,0 65.6112853,1.21212121 67.7742947,3.63636364 L78.1086729,14.0606061 C80.5120167,16.2424242 81.7136886,19.3939394 81.7136886,22.5454545 L81.7136886,38.7878788 Z M144.200627,0 L144.200627,12.6060606 C144.200627,14.3030303 143.479624,15.7575758 142.518286,16.969697 L136.990596,22.5454545 C135.788924,23.7575758 134.346917,24.2424242 132.664577,24.2424242 L126.656217,24.2424242 C128.578892,22.0606061 129.780564,19.1515152 129.780564,16.2424242 L129.780564,0 L115.360502,0 L115.360502,12.6060606 C115.360502,14.3030303 114.639498,15.7575758 113.678161,16.969697 L108.15047,22.5454545 C106.948798,23.7575758 105.506792,24.2424242 103.824451,24.2424242 L100.940439,24.2424242 L100.940439,0 L86.5203762,0 L86.5203762,38.7878788 L107.429467,38.7878788 C110.553814,38.7878788 113.678161,37.5757576 115.84117,35.1515152 L122.570533,28.3636364 L122.570533,38.7878788 L136.269592,38.7878788 C139.393939,38.7878788 142.518286,37.5757576 144.681296,35.1515152 L155.015674,24.7272727 C157.419018,22.5454545 158.62069,19.3939394 158.62069,16.2424242 L158.62069,0 L144.200627,0 Z M33.646813,0 L0,0 L0,14.5454545 L9.61337513,14.5454545 L9.61337513,38.7878788 L24.0334378,38.7878788 L24.0334378,14.5454545 L33.646813,14.5454545 L33.646813,0 Z" id="Shape"></path>
                </g>
            </g>
        </g>
    </g>
</svg>