<?xml version="1.0" encoding="UTF-8"?>
<svg width="80px" height="80px" viewBox="0 0 80 80" version="1.1" xmlns="http://www.w3.org/2000/svg" xmlns:xlink="http://www.w3.org/1999/xlink">
    <!-- Generator: Sketch 43.2 (39069) - http://www.bohemiancoding.com/sketch -->
    <title>trello-white</title>
    <desc>Created with Sketch.</desc>
    <defs></defs>
    <g id="Page-1" stroke="none" stroke-width="1" fill="none" fill-rule="evenodd">
        <g id="trello-white" fill-rule="nonzero" fill="#FFFFFF">
            <g id="trello-mark-blue">
                <path d="M0,9.99046484 C0,4.47288346 4.47256878,0 9.99046484,0 L70.0095352,0 C75.5271165,0 80,4.47256878 80,9.99046484 L80,70.0095352 C80,75.5271165 75.5274312,80 70.0095352,80 L9.99046484,80 C4.47288346,80 0,75.5274312 0,70.0095352 L0,9.99046484 Z M10.4,15.2086523 L10.4,60.5913477 C10.4,63.2439348 12.5452463,65.4 15.1915418,65.4 L30.0084582,65.4 C32.6560477,65.4 34.8,63.247093 34.8,60.5913477 L34.8,15.2086523 C34.8,12.5560652 32.6547537,10.4 30.0084582,10.4 L15.1915418,10.4 C12.5439523,10.4 10.4,12.552907 10.4,15.2086523 Z M45.2,15.1932135 L45.2,40.6067865 C45.2,43.2501606 47.3452463,45.4 49.9915418,45.4 L64.8084582,45.4 C67.4560477,45.4 69.6,43.2540052 69.6,40.6067865 L69.6,15.1932135 C69.6,12.5498394 67.4547537,10.4 64.8084582,10.4 L49.9915418,10.4 C47.3439523,10.4 45.2,12.5459948 45.2,15.1932135 Z" id="Combined-Shape"></path>
            </g>
        </g>
    </g>
</svg>