<?xml version="1.0" encoding="UTF-8"?>
<svg width="141px" height="40px" viewBox="0 0 141 40" version="1.1" xmlns="http://www.w3.org/2000/svg" xmlns:xlink="http://www.w3.org/1999/xlink">
    <!-- Generator: Sketch 43.2 (39069) - http://www.bohemiancoding.com/sketch -->
    <title>trello-logo-blue</title>
    <desc>Created with Sketch.</desc>
    <defs>
        <linearGradient x1="50%" y1="0%" x2="50%" y2="100%" id="linearGradient-1">
            <stop stop-color="#0091E6" offset="0%"></stop>
            <stop stop-color="#0079BF" offset="100%"></stop>
        </linearGradient>
    </defs>
    <g id="Page-1" stroke="none" stroke-width="1" fill="none" fill-rule="evenodd">
        <g id="homepage-v2" transform="translate(-979.000000, -3644.000000)" fill-rule="nonzero">
            <g id="Group-19" transform="translate(139.000000, 3582.000000)">
                <g id="trello-logo-blue" transform="translate(840.000000, 62.000000)">
                    <path d="M113.423653,29.9729156 C111.272293,30.8511641 109.574613,33.8853808 106.992633,35.6099241 C106.832528,35.7168608 106.672423,35.7703291 106.565686,35.7703291 C106.352212,35.7703291 106.08537,35.5564557 106.08537,34.5940253 C106.08537,31.2789873 107.152738,29.6749367 108.060002,27.3223291 C111.208738,19.1416709 116.598949,12.1373165 121.402107,4.49134177 C121.775686,3.90318987 121.989159,3.26156962 121.989159,2.56648101 C121.989159,1.97832911 121.775686,1.49711392 121.508844,0.908962025 C121.29537,0.427746835 120.334738,0 119.26737,0 C118.680317,0 118.146633,0.0534683544 117.452844,0.0534683544 C114.944528,0.0534683544 114.410844,3.74278481 113.823791,4.70521519 C109.821159,11.4956962 105.231475,19.8902278 102.883265,25.8252152 C102.368331,27.1556901 101.812107,28.4861651 101.389325,29.8516513 C99.068818,30.5248651 97.3303975,33.7937041 94.6111595,35.6099241 C94.4510542,35.7168608 94.290949,35.7703291 94.1842121,35.7703291 C93.9707384,35.7703291 93.7038963,35.5564557 93.7038963,34.5940253 C93.7038963,31.2789873 94.7712648,29.6749367 95.6785279,27.3223291 C98.8272648,19.1416709 104.217475,12.1373165 109.020633,4.49134177 C109.394212,3.90318987 109.607686,3.26156962 109.607686,2.56648101 C109.607686,1.97832911 109.394212,1.49711392 109.12737,0.908962025 C108.913896,0.427746835 107.953265,0 106.885896,0 C106.298844,0 105.765159,0.0534683544 105.07137,0.0534683544 C102.563054,0.0534683544 102.02937,3.74278481 101.442317,4.70521519 C97.4396858,11.4956962 92.8500016,19.8902278 90.5017911,25.8252152 C90.3151091,26.3075598 90.1230003,26.7899046 89.9337905,27.2739176 C89.8753622,27.3051845 89.8156964,27.339091 89.7546332,27.3757975 C87.0328437,28.9798481 84.7380016,31.8136709 81.4291595,33.7385316 C80.7887384,34.1128101 78.8141069,35.5029873 77.2130542,35.5029873 C76.8394753,35.5029873 76.5192648,35.3960506 76.1990542,35.2356456 C75.7187384,35.0217722 75.2384226,34.0058734 75.2384226,33.6850633 C75.2384226,33.4177215 75.2917911,33.3642532 75.8254753,33.043443 C80.5218963,30.2096203 84.3644226,26.1460253 87.6732648,22.0824304 C88.9007384,20.5853165 90.5017911,17.644557 90.5017911,15.5058228 C90.5017911,14.1156456 90.0214753,12.5115949 88.3670542,11.923443 C87.192949,11.4956962 85.8587384,11.2818228 84.79137,11.2818228 C81.9628437,11.2818228 79.8814753,12.5650633 78.70737,13.7948354 C77.512066,15.0732928 76.3558728,16.3860363 75.2817019,17.7449257 C74.1593637,16.7741518 72.5763184,16.3613165 71.0756858,16.3613165 C69.3145279,16.3613165 66.0056858,18.553519 64.2978963,19.8367595 C64.0310542,20.0506329 63.870949,20.1575696 63.7642121,20.1575696 C63.7108437,20.1575696 63.6574753,20.1041013 63.6574753,19.9971646 C63.6574753,19.9436962 63.7642121,19.462481 63.7642121,18.6069873 C63.7642121,17.8584304 63.6041069,16.896 62.9103174,15.7196962 C62.7502121,15.4523544 61.7895805,14.8642025 60.6154753,14.8642025 C59.1745279,14.8642025 57.8403174,15.5592911 57.8403174,16.3078481 C57.8403174,16.8425316 58.3206332,17.0564051 58.3206332,17.5376203 C58.3206332,17.804962 58.1071595,19.0347342 57.786949,20.211038 C56.8796858,23.6330127 55.758949,27.001519 54.5848437,30.3700253 C53.9444226,32.2414177 51.8096858,33.8989367 51.8096858,35.9307342 C51.8096858,36.5723544 52.2366332,37.4278481 52.8236858,38.0694684 C53.7843174,39.1388354 54.37137,39.5131139 55.2252648,39.5131139 C55.5988437,39.5131139 56.0257911,39.4061772 56.39937,39.0853671 C57.1998963,38.3902785 57.6268437,37.6951899 57.8403174,36.7327595 C59.2278963,30.4234937 63.2305279,26.1460253 67.6601069,23.3122025 C69.1544226,22.3497722 71.1824226,21.3338734 71.4492648,21.3338734 C71.7228856,21.3338734 72.1508208,21.4603671 72.5820285,21.5836474 C71.3437951,23.6070834 70.3405121,25.7409934 69.6881069,28.0174177 C69.4746332,28.7659747 69.3678963,29.4610633 69.3678963,30.2096203 C69.3678963,31.4393924 69.6347384,32.7226329 70.0616858,33.9524051 C70.6487384,35.6633924 71.60937,37.1605063 72.9435805,37.8555949 C75.3985279,39.1388354 77.1596858,39.8339241 78.7607384,39.8339241 C79.6680016,39.8339241 80.3617911,39.673519 81.108949,39.2457722 C84.6166883,37.2574138 86.767296,35.7489401 88.3202148,34.4090879 C88.3627952,35.7675819 88.6300834,36.5202218 89.5945279,37.5347848 C90.5551595,38.5506835 92.0494753,39.4596456 94.0241069,39.8873924 C94.3443174,39.9408608 94.6645279,39.9943291 94.9847384,39.9943291 C97.2439846,39.9943291 99.4182167,38.1545892 101.094761,36.33081 C101.288873,36.7287912 101.570954,37.1086886 101.976002,37.5347848 C102.936633,38.5506835 104.430949,39.4596456 106.405581,39.8873924 C106.725791,39.9408608 107.046002,39.9943291 107.366212,39.9943291 C110.012694,39.9943291 112.542521,37.4698768 114.292375,35.4037713 C114.875574,36.612295 116.505309,37.8071478 118.466844,38.764557 C119.000528,39.0318987 119.640949,39.1923038 120.228002,39.1923038 C122.522844,39.1923038 124.177265,37.3209114 125.458107,35.9307342 C128.766949,32.2948861 130.581475,27.8035443 131.969054,22.1358987 C132.075791,21.7081519 132.235896,21.5477468 132.44937,21.5477468 C132.983054,21.5477468 133.676844,21.5477468 134.424002,21.4408101 C135.864949,21.2269367 136.985686,20.7457215 138.319896,20.5318481 C139.120423,20.371443 139.013686,20.1041013 139.760844,19.8367595 C140.294528,19.6228861 140.721475,19.4090127 140.721475,18.8743291 C140.721475,17.9653671 139.067054,17.0029367 136.558738,17.0029367 C134.584107,17.0029367 133.410002,17.1633418 132.609475,17.1633418 C131.382002,17.1633418 131.061791,16.7890633 130.261265,14.7037975 C130.261265,14.7037975 131.061791,16.7890633 130.261265,14.7037975 C130.101159,14.2760506 129.941054,14.0621772 129.460738,13.6344304 C128.340002,12.672 126.952423,12.3511899 125.831686,12.3511899 C123.163265,12.3511899 120.868423,15.0780759 119.26737,17.3772152 C118.893791,17.9118987 118.360107,18.3396456 117.986528,18.9277975 C115.78811,22.2315986 113.683246,25.9571797 113.423653,29.9729156 Z M45.1920016,11.763038 C46.5262121,11.763038 47.27337,11.6561013 47.4334753,11.6561013 C47.5935805,11.6561013 47.7003174,11.7095696 47.7003174,11.8699747 C47.7003174,11.9769114 47.646949,12.1373165 47.27337,12.9393418 C44.0178963,19.9436962 41.7764226,27.0549873 39.8017911,34.9148354 C39.7484226,35.1287089 39.5883174,35.9307342 39.5883174,36.7327595 C39.5883174,37.4813165 39.8017911,38.2833418 40.548949,38.7110886 C41.9898963,39.5665823 43.1640016,39.9408608 43.9645279,39.9408608 C45.1386332,39.9408608 45.7256858,39.1923038 45.7256858,37.9625316 C45.7256858,36.8931646 45.7790542,35.7703291 45.9391595,34.9148354 C47.4334753,27.0549873 49.674949,20.9061266 53.1438963,14.4899241 C54.7983174,11.4422278 55.0117911,11.2818228 55.0117911,11.014481 C55.0117911,10.9075443 54.9584226,10.7471392 54.8516858,10.5867342 C56.9864226,10.105519 59.5481069,9.78470886 61.8963174,9.78470886 C62.1631595,9.78470886 63.2305279,10.1589873 63.3906332,10.3193924 C63.7642121,10.6936709 64.1377911,11.0679494 64.7782121,11.0679494 C65.3118963,11.0679494 66.2191595,10.6936709 66.53937,10.4797975 C67.2865279,9.94511392 67.6601069,9.35696203 67.6601069,8.39453165 C67.6601069,7.48556962 64.2978963,5.23989873 61.9496858,5.23989873 C59.0677911,5.23989873 56.4527384,5.61417722 53.9977911,6.09539241 C52.9304226,6.30926582 49.0878963,6.89741772 46.3127384,6.89741772 C43.6443174,6.89741772 43.8044226,6.52313924 42.6836858,6.52313924 C42.0432648,6.52313924 41.7230542,6.84394937 41.4562121,7.11129114 C41.18937,7.37863291 41.0292648,8.448 41.0292648,9.41043038 C41.0292648,9.89164557 41.0292648,10.2659241 41.2961069,10.5867342 C42.0966332,11.5491646 43.6443174,11.763038 45.1920016,11.763038 C45.1920016,11.763038 43.6443174,11.763038 45.1920016,11.763038 Z M84.7380016,16.0939747 C84.7380016,16.5751899 84.5778963,16.896 83.9374753,17.9118987 C83.2970542,18.9277975 83.5638963,18.9277975 82.76337,19.9971646 C81.2156858,22.0824304 79.2944226,24.1676962 76.7861069,26.4668354 C76.0923174,27.1084557 75.9855805,27.1084557 75.8788437,27.1084557 C75.8254753,27.1084557 75.7187384,27.0549873 75.7187384,26.9480506 C75.7187384,26.7876456 75.7721069,26.5737722 76.3057911,25.4509367 C77.9602121,21.9754937 79.9882121,19.6763544 82.2296858,17.4306835 C83.4571595,16.2009114 84.2043174,15.7731646 84.4711595,15.7731646 C84.6312648,15.7731646 84.7380016,15.8266329 84.7380016,16.0939747 C84.7380016,16.0939747 84.7380016,15.8266329 84.7380016,16.0939747 Z M125.778317,17.4841519 C125.831686,17.4841519 125.885054,17.5376203 125.938423,17.644557 C125.991791,17.804962 126.098528,17.9653671 126.36537,18.1792405 C126.578844,18.3396456 126.578844,19.0882025 126.578844,19.6763544 C126.578844,24.8627848 123.643581,29.1402532 120.761686,33.4711899 C120.121265,34.4336203 119.747686,34.5940253 119.427475,34.5940253 C119.160633,34.5940253 118.733686,33.8989367 118.573581,33.4711899 C118.360107,32.883038 118.306738,32.1879494 118.306738,31.9206076 C118.306738,27.7500759 122.256002,21.5477468 124.871054,18.1257722 C125.298002,17.5376203 125.618212,17.4841519 125.778317,17.4841519 C125.778317,17.4841519 125.618212,17.4841519 125.778317,17.4841519 Z" id="Type" fill="url(#linearGradient-1)"></path>
                    <g id="Mark" transform="translate(0.000000, 5.907173)">
                        <rect id="Board" fill="url(#linearGradient-1)" x="0" y="-1.27897692e-13" width="33.692185" height="33.7552743" rx="5.06329114"></rect>
                        <rect id="Right-List" fill="#FFFFFF" x="19.0360845" y="4.38818565" width="10.2761164" height="14.7679325" rx="2.43037975"></rect>
                        <rect id="Left-List" fill="#FFFFFF" x="4.37998405" y="4.38818565" width="10.2761164" height="23.2067511" rx="2.43037975"></rect>
                    </g>
                </g>
            </g>
        </g>
    </g>
</svg>