<?xml version="1.0" encoding="UTF-8"?>
<svg width="104px" height="24px" viewBox="0 0 104 24" version="1.1" xmlns="http://www.w3.org/2000/svg" xmlns:xlink="http://www.w3.org/1999/xlink">
    <!-- Generator: Sketch 48.1 (47250) - http://www.bohemiancoding.com/sketch -->
    <title>Unbounce-primary-logo-light-background</title>
    <desc>Created with Sketch.</desc>
    <defs></defs>
    <g id="enterprise" stroke="none" stroke-width="1" fill="none" fill-rule="evenodd" transform="translate(-838.000000, -5140.000000)">
        <g id="Group-39" transform="translate(0.000000, 4717.000000)" fill="#288CC0">
            <g id="Group-18" transform="translate(799.000000, 80.000000)">
                <g id="Group-7" transform="translate(39.000000, 37.000000)">
                    <g id="Unbounce-primary-logo-light-background" transform="translate(0.571429, 306.000000)">
                        <path d="M12.0112381,0.164952381 C5.44819048,0.164952381 0.128190476,5.48514286 0.128190476,12.048 C0.128190476,18.6106667 5.44819048,23.9308571 12.0112381,23.9308571 C18.5742857,23.9308571 23.8940952,18.6106667 23.8940952,12.048 C23.8940952,5.48514286 18.5742857,0.164952381 12.0112381,0.164952381 Z M8.72571429,20.4055238 C8.85714286,19.559619 8.98247619,18.7820952 9.09961905,18.0647619 C6.48247619,16.7529524 4.824,14.112 5.24685714,11.06 C5.82438095,6.91485714 9.01580952,4.78914286 13.0295238,5.15085714 C13.3339048,4.72 13.668,4.30666667 14.048381,3.90647619 C14.7253333,3.14952381 15.732381,3.12571429 15.2794286,4.02285714 C14.3666667,5.75028571 14.0059048,7.05447619 13.2217143,9.1487619 C12.440381,11.376381 11.232381,14.6459048 9.62438095,20.3864762 C9.508,20.912 8.68419048,20.8281905 8.72571429,20.4055238 Z M18.7815238,12.7933333 C18.259619,16.7512381 14.5601905,18.9973333 10.8828571,18.6095238 C11.1499048,17.7070476 11.2761905,17.3222857 11.5855238,16.5948571 C11.8190476,16.1750476 12.6929524,16.0034286 13.3714286,15.7150476 C14.7497143,15.219619 15.8081905,13.9893333 16.0081905,12.4369524 C16.1489524,11.3361905 15.8274286,10.2815238 15.1971429,9.46628571 C14.7565714,8.90685714 14.3411429,8.568 14.4828571,8.04285714 C14.691619,7.33409524 14.8518095,6.808 15.2411429,5.91714286 C17.6573333,7.21504762 19.163619,9.91047619 18.7815238,12.7933333 Z" id="Fill-1"></path>
                        <path d="M8.02304762,11.4146667 C7.88666667,12.4735238 8.17504762,13.4841905 8.75295238,14.2813333 C9.13828571,14.7958095 9.43333333,15.0958095 9.57771429,15.3318095 C10.0539048,12.7533333 10.3977143,11.4194286 10.855619,9.92266667 C11.0609524,9.29771429 11.4009524,8.42095238 11.6472381,7.82380952 C11.3535238,7.92190476 10.9369524,8.0312381 10.5967619,8.16438095 C9.24933333,8.66971429 8.2192381,9.8872381 8.02304762,11.4146667" id="Fill-2"></path>
                        <path d="M102.724381,12.4512381 C102.665714,9.63542857 100.990286,7.65466667 98.1565714,7.65466667 C95.508381,7.65466667 93.4485714,9.63047619 93.4485714,12.2577143 C93.4485714,14.9059048 95.4032381,16.8605714 98.4297143,16.8605714 C100.068381,16.8605714 101.080381,16.4097143 101.884952,15.6786667 C102.10819,15.4335238 101.994286,15.276 101.845333,15.1139048 C101.749143,15.0177143 101.280571,14.5095238 101.166667,14.395619 C101.004571,14.2205714 100.820762,14.1897143 100.606095,14.395619 C100.091619,14.8017143 99.4074286,15.0740952 98.4087619,15.0740952 C96.908381,15.0740952 96.0041905,14.3693333 95.6794286,13.2455238 C95.6537143,13.1569524 95.696381,12.972381 95.8438095,12.972381 C96.9742857,12.972381 101.896381,12.972381 102.289143,12.972381 C102.633524,12.972381 102.721143,12.784381 102.724381,12.4512381 Z M100.344762,11.5011429 L95.8415238,11.5011429 C95.8415238,11.5011429 95.5702857,11.5432381 95.6902857,11.1832381 C96.0255238,10.056381 96.9247619,9.42019048 98.1775238,9.42019048 C99.5287619,9.42019048 100.259429,10.1649524 100.51619,11.2144762 C100.573524,11.5011429 100.344762,11.5011429 100.344762,11.5011429 Z" id="Fill-3"></path>
                        <path d="M92.9139048,15.0289524 C92.800381,14.9222857 92.168,14.4032381 92.0841905,14.3194286 C91.9209524,14.191619 91.7081905,14.099619 91.488381,14.3407619 C90.9918095,14.7664762 90.5220952,15.0247619 89.6066667,15.0247619 C88.0302857,15.0247619 87.0845714,13.8691429 87.0845714,12.2927619 C87.0845714,10.716381 88.0302857,9.56019048 89.6066667,9.56019048 C90.384381,9.56019048 90.9264762,9.80704762 91.3819048,10.2624762 C91.644381,10.4822857 91.807619,10.4893333 91.9990476,10.3190476 C92.103619,10.2146667 92.7988571,9.70380952 92.8857143,9.61695238 C93.0628571,9.43257143 93.1055238,9.34038095 92.9140952,9.05657143 C92.1266667,8.2552381 91.1590476,7.68971429 89.6066667,7.68971429 C86.9165714,7.68971429 84.8986667,9.66533333 84.8986667,12.2927619 C84.8986667,14.9409524 86.9165714,16.895619 89.6066667,16.895619 C91.2005714,16.895619 92.0628571,16.3975238 92.9352381,15.6104762 C93.2474286,15.2982857 93.0487619,15.1420952 92.9139048,15.0289524" id="Fill-4"></path>
                        <path d="M80.8253333,7.65466667 C79.5809524,7.62895238 78.7032381,7.65733333 77.8413333,8.43390476 L77.8405714,8.26304762 C77.8405714,7.9872381 77.7026667,7.84380952 77.3655238,7.84380952 C77.2451429,7.84380952 75.7601905,7.84380952 75.7601905,7.84380952 C75.7601905,7.84380952 75.760381,15.8230476 75.760381,16.0860952 C75.760381,16.4975238 75.8649524,16.6714286 76.3028571,16.6714286 L77.3449524,16.6714286 C77.7918095,16.6714286 77.8830476,16.5150476 77.8830476,16.0598095 C77.8830476,15.8238095 77.8830476,11.8792381 77.8830476,11.8792381 C77.8830476,10.4500952 78.7868571,9.60933333 80.1740952,9.60933333 C81.4140952,9.60933333 82.0024762,10.3451429 82.0024762,11.6060952 C82.0024762,11.6060952 82.0024762,14.7474286 82.0024762,16.0598095 C82.0024762,16.6114286 82.14,16.6729524 82.691619,16.6729524 C82.8721905,16.6729524 83.1746667,16.6725714 83.4554286,16.6721905 C84.007619,16.6721905 84.1253333,16.5992381 84.1253333,16.0468571 C84.1253333,15.5971429 84.1253333,11.4379048 84.1253333,11.4379048 C84.1253333,9.04190476 82.7798095,7.69542857 80.8253333,7.65466667" id="Fill-5"></path>
                        <path d="M72.864381,8.43219048 C72.864381,10 72.864381,12.6779048 72.864381,12.6779048 C72.864381,14.1912381 72.2967619,15.0108571 70.8885714,15.0108571 C69.4805714,15.0108571 68.9127619,14.1912381 68.9127619,12.6779048 C68.9127619,12.6779048 68.9127619,8.67066667 68.9127619,8.42552381 C68.9127619,7.97885714 68.7887619,7.84380952 68.3632381,7.84380952 C68.0830476,7.84380952 67.6489524,7.84380952 67.3775238,7.84380952 C66.9093333,7.84380952 66.7902857,7.99295238 66.7902857,8.43219048 C66.7902857,8.63371429 66.7902857,12.7409524 66.7902857,12.7409524 C66.7902857,15.3264762 68.2194286,16.8815238 70.8045714,16.8815238 C73.431619,16.8815238 74.9868571,15.3264762 74.9868571,12.7409524 L74.9868571,7.84380952 L73.5268571,7.84914286 C73.0232381,7.84914286 72.864381,7.96457143 72.864381,8.43219048" id="Fill-6"></path>
                        <path d="M51.7085714,7.6287619 C50.6630476,7.6287619 49.6979048,7.97257143 48.919619,8.55295238 C48.9213333,5.90114286 48.9230476,3.57257143 48.9230476,3.49009524 C48.9230476,3.08571429 48.8281905,2.92742857 48.3813333,2.92742857 C48.2377143,2.92742857 47.616,2.92304762 47.3268571,2.92304762 C46.9085714,2.92304762 46.832,3.03504762 46.832,3.46057143 C46.832,3.69695238 46.832,16.6714286 46.832,16.6714286 C46.832,16.6714286 48.5561905,16.6714286 48.5910476,16.6714286 C48.8274286,16.6714286 48.9139048,16.5297143 48.9139048,16.3300952 C48.9139048,16.3173333 48.9139048,16.2152381 48.9140952,16.0424762 C49.6933333,16.6253333 50.6605714,16.9704762 51.7085714,16.9704762 C54.2881905,16.9704762 56.3792381,14.8792381 56.3792381,12.2994286 C56.3792381,9.72 54.2881905,7.6287619 51.7085714,7.6287619 Z M51.6853333,15.0554286 C50.1634286,15.0554286 48.9295238,13.8215238 48.9295238,12.299619 C48.9295238,10.7775238 50.1634286,9.54380952 51.6853333,9.54380952 C53.2074286,9.54380952 54.4411429,10.7775238 54.4411429,12.299619 C54.4411429,13.8215238 53.2074286,15.0554286 51.6853333,15.0554286 Z" id="Fill-7"></path>
                        <path d="M42.7588571,7.65466667 C41.5144762,7.62895238 40.6367619,7.65733333 39.7744762,8.43390476 L39.7740952,8.26304762 C39.7740952,7.9872381 39.6361905,7.84380952 39.2988571,7.84380952 C39.1784762,7.84380952 37.6935238,7.84380952 37.6935238,7.84380952 C37.6935238,7.84380952 37.6937143,15.8230476 37.6937143,16.0860952 C37.6937143,16.4975238 37.7984762,16.6714286 38.236381,16.6714286 L39.2784762,16.6714286 C39.7251429,16.6714286 39.8165714,16.5150476 39.8165714,16.0598095 C39.8165714,15.8238095 39.8165714,11.8792381 39.8165714,11.8792381 C39.8165714,10.4500952 40.7201905,9.60933333 42.1074286,9.60933333 C43.3474286,9.60933333 43.936,10.3451429 43.936,11.6060952 C43.936,11.6060952 43.936,14.7474286 43.936,16.0598095 C43.936,16.6114286 44.0733333,16.6729524 44.6251429,16.6729524 C45.0321905,16.6729524 46.0588571,16.6714286 46.0588571,16.6714286 L46.0588571,11.4379048 C46.0588571,9.04190476 44.7131429,7.69542857 42.7588571,7.65466667" id="Fill-8"></path>
                        <path d="M34.7977143,8.42266667 C34.7977143,8.73790476 34.7977143,12.6779048 34.7977143,12.6779048 C34.7068571,14.1912381 34.2300952,15.0108571 32.8219048,15.0108571 C31.4137143,15.0108571 30.9350476,14.1912381 30.8462857,12.6779048 C30.8462857,12.6779048 30.8462857,8.60742857 30.8462857,8.43219048 C30.8462857,8.05428571 30.7729524,7.84380952 30.3855238,7.84380952 L29.2230476,7.84380952 C28.835619,7.84380952 28.7289524,8.01561905 28.7289524,8.4127619 C28.7289524,8.5792381 28.7234286,12.7409524 28.7234286,12.7409524 C28.7234286,15.3264762 30.1527619,16.8815238 32.7379048,16.8815238 C35.3651429,16.8815238 36.920381,15.3264762 36.920381,12.7409524 L36.920381,7.84380952 C36.920381,7.84380952 35.5089524,7.84380952 35.2874286,7.84380952 C34.9386667,7.84380952 34.7977143,8.01561905 34.7977143,8.42266667" id="Fill-9"></path>
                        <path d="M64.9552381,15.608 C64.0384762,16.4571429 62.9177143,16.8815238 61.576381,16.8815238 C60.2348571,16.8815238 59.1140952,16.4571429 58.1971429,15.608 C57.280381,14.7420952 56.8219048,13.6554286 56.8219048,12.3478095 C56.8219048,11.0405714 57.280381,9.95371429 58.1971429,9.1047619 C59.1140952,8.23885714 60.2348571,7.81428571 61.576381,7.81428571 C62.9177143,7.81428571 64.0384762,8.23885714 64.9552381,9.1047619 C65.8891429,9.97066667 66.347619,11.0405714 66.347619,12.3478095 C66.347619,13.6554286 65.8891429,14.7420952 64.9552381,15.608 Z M59.7424762,14.3007619 C60.2348571,14.7929524 60.8460952,15.047619 61.576381,15.047619 C62.3062857,15.047619 62.9177143,14.7929524 63.4100952,14.3007619 C63.9024762,13.7912381 64.1573333,13.1459048 64.1573333,12.3478095 C64.1573333,11.5668571 63.9024762,10.9215238 63.3931429,10.4121905 C62.9007619,9.90285714 62.2895238,9.64819048 61.576381,9.64819048 C60.8630476,9.64819048 60.2518095,9.90285714 59.7594286,10.4121905 C59.2670476,10.9215238 59.012381,11.5668571 59.012381,12.3478095 C59.012381,13.1459048 59.2500952,13.7912381 59.7424762,14.3007619 Z" id="Fill-10"></path>
                    </g>
                </g>
            </g>
        </g>
    </g>
</svg>