<?xml version="1.0" encoding="UTF-8"?>
<svg width="302px" height="71px" viewBox="0 0 302 71" version="1.1" xmlns="http://www.w3.org/2000/svg" xmlns:xlink="http://www.w3.org/1999/xlink">
    <!-- Generator: Sketch 48.1 (47250) - http://www.bohemiancoding.com/sketch -->
    <title>Unbounce-primary-logo-light-background</title>
    <desc>Created with Sketch.</desc>
    <defs></defs>
    <g id="enterprise" stroke="none" stroke-width="1" fill="none" fill-rule="evenodd" transform="translate(-279.000000, -4967.000000)">
        <g id="Group-39" transform="translate(0.000000, 4717.000000)" fill="#FFFFFF">
            <g id="Unbounce-primary-logo-light-background" transform="translate(278.800000, 249.720000)">
                <path d="M35.31304,0.48496 C16.01768,0.48496 0.37688,16.12632 0.37688,35.42112 C0.37688,54.71536 16.01768,70.35672 35.31304,70.35672 C54.6084,70.35672 70.24864,54.71536 70.24864,35.42112 C70.24864,16.12632 54.6084,0.48496 35.31304,0.48496 Z M25.6536,59.99224 C26.04,57.50528 26.40848,55.21936 26.75288,53.1104 C19.05848,49.25368 14.18256,41.48928 15.42576,32.5164 C17.12368,20.32968 26.50648,14.08008 38.3068,15.14352 C39.20168,13.8768 40.18392,12.6616 41.30224,11.48504 C43.29248,9.2596 46.2532,9.1896 44.92152,11.8272 C42.238,16.90584 41.17736,20.74016 38.87184,26.89736 C36.57472,33.44656 33.0232,43.05896 28.29568,59.93624 C27.95352,61.48128 25.53152,61.23488 25.6536,59.99224 Z M55.21768,37.6124 C53.68328,49.24864 42.80696,55.85216 31.9956,54.712 C32.78072,52.05872 33.152,50.92752 34.06144,48.78888 C34.748,47.55464 37.31728,47.05008 39.312,46.20224 C43.36416,44.74568 46.47608,41.12864 47.06408,36.56464 C47.47792,33.3284 46.53264,30.22768 44.6796,27.83088 C43.38432,26.18616 42.16296,25.18992 42.5796,23.646 C43.19336,21.56224 43.66432,20.01552 44.80896,17.3964 C51.91256,21.21224 56.34104,29.1368 55.21768,37.6124 Z" id="Fill-1"></path>
                <path d="M23.58776,33.55912 C23.1868,36.67216 24.03464,39.64352 25.73368,41.98712 C26.86656,43.49968 27.734,44.38168 28.15848,45.07552 C29.55848,37.4948 30.56928,33.57312 31.91552,29.17264 C32.5192,27.33528 33.5188,24.7576 34.24288,23.002 C33.37936,23.2904 32.15464,23.61184 31.15448,24.00328 C27.19304,25.48896 24.16456,29.06848 23.58776,33.55912" id="Fill-2"></path>
                <path d="M302.00968,36.60664 C301.8372,28.32816 296.91144,22.50472 288.58032,22.50472 C280.79464,22.50472 274.7388,28.3136 274.7388,36.03768 C274.7388,43.82336 280.48552,49.57008 289.38336,49.57008 C294.20104,49.57008 297.17632,48.24456 299.54176,46.09528 C300.19808,45.37456 299.8632,44.91144 299.42528,44.43488 C299.14248,44.15208 297.76488,42.658 297.43,42.32312 C296.95344,41.80848 296.41304,41.71776 295.78192,42.32312 C294.26936,43.51704 292.25784,44.31784 289.32176,44.31784 C284.91064,44.31784 282.25232,42.24584 281.29752,38.94184 C281.22192,38.68144 281.34736,38.1388 281.7808,38.1388 C285.1044,38.1388 299.57536,38.1388 300.73008,38.1388 C301.74256,38.1388 302.00016,37.58608 302.00968,36.60664 Z M295.0136,33.81336 L281.77408,33.81336 C281.77408,33.81336 280.97664,33.93712 281.32944,32.87872 C282.31504,29.56576 284.9588,27.69536 288.64192,27.69536 C292.61456,27.69536 294.76272,29.88496 295.5176,32.97056 C295.68616,33.81336 295.0136,33.81336 295.0136,33.81336 Z" id="Fill-3"></path>
                <path d="M273.16688,44.18512 C272.83312,43.87152 270.97392,42.34552 270.72752,42.09912 C270.2476,41.72336 269.62208,41.45288 268.97584,42.16184 C267.51592,43.41344 266.13496,44.1728 263.4436,44.1728 C258.80904,44.1728 256.02864,40.77528 256.02864,36.14072 C256.02864,31.50616 258.80904,28.10696 263.4436,28.10696 C265.73008,28.10696 267.32384,28.83272 268.6628,30.17168 C269.43448,30.81792 269.9144,30.83864 270.4772,30.338 C270.78464,30.03112 272.82864,28.5292 273.084,28.27384 C273.6048,27.73176 273.73024,27.46072 273.16744,26.62632 C270.8524,24.2704 268.0076,22.60776 263.4436,22.60776 C255.53472,22.60776 249.60208,28.41608 249.60208,36.14072 C249.60208,43.9264 255.53472,49.67312 263.4436,49.67312 C268.12968,49.67312 270.6648,48.20872 273.2296,45.8948 C274.14744,44.97696 273.56336,44.51776 273.16688,44.18512" id="Fill-4"></path>
                <path d="M237.62648,22.50472 C233.968,22.42912 231.38752,22.51256 228.85352,24.79568 L228.85128,24.29336 C228.85128,23.48248 228.44584,23.0608 227.45464,23.0608 C227.10072,23.0608 222.73496,23.0608 222.73496,23.0608 C222.73496,23.0608 222.73552,46.51976 222.73552,47.29312 C222.73552,48.50272 223.04296,49.014 224.3304,49.014 L227.39416,49.014 C228.70792,49.014 228.97616,48.55424 228.97616,47.21584 C228.97616,46.522 228.97616,34.92496 228.97616,34.92496 C228.97616,30.72328 231.63336,28.25144 235.71184,28.25144 C239.35744,28.25144 241.08728,30.41472 241.08728,34.12192 C241.08728,34.12192 241.08728,43.35744 241.08728,47.21584 C241.08728,48.8376 241.4916,49.01848 243.11336,49.01848 C243.64424,49.01848 244.53352,49.01736 245.35896,49.01624 C246.9824,49.01624 247.32848,48.80176 247.32848,47.17776 C247.32848,45.8556 247.32848,33.62744 247.32848,33.62744 C247.32848,26.5832 243.37264,22.62456 237.62648,22.50472" id="Fill-5"></path>
                <path d="M214.22128,24.79064 C214.22128,29.4 214.22128,37.27304 214.22128,37.27304 C214.22128,41.72224 212.55248,44.13192 208.4124,44.13192 C204.27288,44.13192 202.60352,41.72224 202.60352,37.27304 C202.60352,37.27304 202.60352,25.49176 202.60352,24.77104 C202.60352,23.45784 202.23896,23.0608 200.98792,23.0608 C200.16416,23.0608 198.88792,23.0608 198.08992,23.0608 C196.71344,23.0608 196.36344,23.49928 196.36344,24.79064 C196.36344,25.38312 196.36344,37.4584 196.36344,37.4584 C196.36344,45.05984 200.56512,49.63168 208.16544,49.63168 C215.88896,49.63168 220.46136,45.05984 220.46136,37.4584 L220.46136,23.0608 L216.16896,23.07648 C214.68832,23.07648 214.22128,23.41584 214.22128,24.79064" id="Fill-6"></path>
                <path d="M152.0232,22.42856 C148.94936,22.42856 146.11184,23.43936 143.82368,25.14568 C143.82872,17.34936 143.83376,10.50336 143.83376,10.26088 C143.83376,9.072 143.55488,8.60664 142.24112,8.60664 C141.81888,8.60664 139.99104,8.59376 139.14096,8.59376 C137.9112,8.59376 137.68608,8.92304 137.68608,10.17408 C137.68608,10.86904 137.68608,49.014 137.68608,49.014 C137.68608,49.014 142.7552,49.014 142.85768,49.014 C143.55264,49.014 143.80688,48.59736 143.80688,48.01048 C143.80688,47.97296 143.80688,47.6728 143.80744,47.16488 C146.0984,48.87848 148.94208,49.8932 152.0232,49.8932 C159.60728,49.8932 165.75496,43.74496 165.75496,36.16032 C165.75496,28.5768 159.60728,22.42856 152.0232,22.42856 Z M151.95488,44.26296 C147.48048,44.26296 143.8528,40.63528 143.8528,36.16088 C143.8528,31.68592 147.48048,28.0588 151.95488,28.0588 C156.42984,28.0588 160.05696,31.68592 160.05696,36.16088 C160.05696,40.63528 156.42984,44.26296 151.95488,44.26296 Z" id="Fill-7"></path>
                <path d="M125.71104,22.50472 C122.05256,22.42912 119.47208,22.51256 116.93696,24.79568 L116.93584,24.29336 C116.93584,23.48248 116.5304,23.0608 115.53864,23.0608 C115.18472,23.0608 110.81896,23.0608 110.81896,23.0608 C110.81896,23.0608 110.81952,46.51976 110.81952,47.29312 C110.81952,48.50272 111.12752,49.014 112.41496,49.014 L115.47872,49.014 C116.79192,49.014 117.06072,48.55424 117.06072,47.21584 C117.06072,46.522 117.06072,34.92496 117.06072,34.92496 C117.06072,30.72328 119.71736,28.25144 123.79584,28.25144 C127.44144,28.25144 129.17184,30.41472 129.17184,34.12192 C129.17184,34.12192 129.17184,43.35744 129.17184,47.21584 C129.17184,48.8376 129.5756,49.01848 131.19792,49.01848 C132.39464,49.01848 135.41304,49.014 135.41304,49.014 L135.41304,33.62744 C135.41304,26.5832 131.45664,22.62456 125.71104,22.50472" id="Fill-8"></path>
                <path d="M102.30528,24.76264 C102.30528,25.68944 102.30528,37.27304 102.30528,37.27304 C102.03816,41.72224 100.63648,44.13192 96.4964,44.13192 C92.35632,44.13192 90.94904,41.72224 90.68808,37.27304 C90.68808,37.27304 90.68808,25.30584 90.68808,24.79064 C90.68808,23.6796 90.47248,23.0608 89.33344,23.0608 L85.91576,23.0608 C84.77672,23.0608 84.46312,23.56592 84.46312,24.73352 C84.46312,25.22296 84.44688,37.4584 84.44688,37.4584 C84.44688,45.05984 88.64912,49.63168 96.24944,49.63168 C103.97352,49.63168 108.54592,45.05984 108.54592,37.4584 L108.54592,23.0608 C108.54592,23.0608 104.39632,23.0608 103.74504,23.0608 C102.71968,23.0608 102.30528,23.56592 102.30528,24.76264" id="Fill-9"></path>
                <path d="M190.9684,45.88752 C188.27312,48.384 184.97808,49.63168 181.03456,49.63168 C177.09048,49.63168 173.79544,48.384 171.0996,45.88752 C168.40432,43.34176 167.0564,40.14696 167.0564,36.30256 C167.0564,32.45928 168.40432,29.26392 171.0996,26.768 C173.79544,24.22224 177.09048,22.974 181.03456,22.974 C184.97808,22.974 188.27312,24.22224 190.9684,26.768 C193.71408,29.31376 195.062,32.45928 195.062,36.30256 C195.062,40.14696 193.71408,43.34176 190.9684,45.88752 Z M175.64288,42.04424 C177.09048,43.49128 178.88752,44.24 181.03456,44.24 C183.18048,44.24 184.97808,43.49128 186.42568,42.04424 C187.87328,40.54624 188.62256,38.64896 188.62256,36.30256 C188.62256,34.00656 187.87328,32.10928 186.37584,30.61184 C184.92824,29.1144 183.1312,28.36568 181.03456,28.36568 C178.93736,28.36568 177.14032,29.1144 175.69272,30.61184 C174.24512,32.10928 173.4964,34.00656 173.4964,36.30256 C173.4964,38.64896 174.19528,40.54624 175.64288,42.04424 Z" id="Fill-10"></path>
            </g>
        </g>
    </g>
</svg>