<?xml version="1.0" encoding="UTF-8"?>
<svg width="80px" height="80px" viewBox="0 0 80 80" version="1.1" xmlns="http://www.w3.org/2000/svg" xmlns:xlink="http://www.w3.org/1999/xlink">
    <!-- Generator: Sketch 43.2 (39069) - http://www.bohemiancoding.com/sketch -->
    <title>uservoice-white</title>
    <desc>Created with Sketch.</desc>
    <defs>
        <polygon id="path-1" points="79.8847869 80 0 80 0 40 0 0 79.8847869 0"></polygon>
    </defs>
    <g id="Page-1" stroke="none" stroke-width="1" fill="none" fill-rule="evenodd">
        <g id="uservoice-white">
            <g id="uservoice">
                <mask id="mask-2" fill="white">
                    <use xlink:href="#path-1"></use>
                </mask>
                <g id="path-1"></g>
                <g id="Group" mask="url(#mask-2)" fill="#FFFFFF">
                    <g transform="translate(8.000000, 0.000000)">
                        <path d="M63.5761589,8.84768212 L50.3311258,0 L37.0860927,8.84768212 L37.0860927,55.6291391 L47.6821192,55.6291391 L47.6821192,13.986755 L50.3311258,12.2384106 L52.9801325,13.986755 L52.9801325,55.0993377 C52.9801325,63.8940397 50.3311258,72.7417219 40.2649007,78.9403974 C50.4900662,78.9403974 63.2582781,67.4437086 63.5761589,52.4503311 L63.5761589,8.84768212 Z" id="Shape" fill-rule="nonzero"></path>
                        <polygon id="Rectangle" fill-rule="evenodd" points="37.1276855 21 47.6915283 21 47.6915283 55.6291391 37.0601196 55.6291391"></polygon>
                        <circle id="Oval" fill-rule="nonzero" cx="21.192053" cy="22.781457" r="5.29801325"></circle>
                        <circle id="Oval" fill-rule="nonzero" cx="21.192053" cy="8.47682119" r="5.29801325"></circle>
                        <circle id="Oval" fill-rule="nonzero" cx="5.29801325" cy="22.781457" r="5.29801325"></circle>
                        <circle id="Oval" fill-rule="nonzero" cx="5.29801325" cy="8.47682119" r="5.29801325"></circle>
                        <path d="M37.0860927,55.6291391 C37.0860927,60.0794702 34.8609272,64 31.5231788,66.4370861 C28.3443709,63.8940397 26.4900662,59.8145695 26.4900662,55.6291391 L26.4900662,52.9801325 C26.4900662,50.3311258 23.8410596,47.6821192 23.8410596,45.0331126 C23.8410596,43.1788079 25.1125828,41.3245033 25.9072848,39.5231788 C26.2781457,38.781457 26.4900662,37.986755 26.4900662,37.0860927 C26.4900662,34.1721854 24.1059603,31.7880795 21.192053,31.7880795 C18.2781457,31.7880795 15.8940397,34.1721854 15.8940397,37.0860927 C15.8940397,37.9337748 16.1059603,38.781457 16.4768212,39.5231788 C17.2715232,41.3774834 18.5430464,43.2317881 18.5430464,45.0331126 C18.5430464,47.6821192 15.8940397,50.3311258 15.8940397,52.9801325 L15.8940397,55.6291391 C15.8940397,60.397351 17.3774834,64.6887417 19.9205298,68.2913907 C14.5165563,66.5960265 10.5960265,61.5629139 10.5960265,55.6291391 L10.5960265,55.6291391 L10.5960265,52.9801325 C10.5960265,50.3311258 7.94701987,47.6821192 7.94701987,45.0331126 C7.94701987,43.1788079 9.21854305,41.3245033 10.013245,39.5231788 C10.384106,38.781457 10.5960265,37.986755 10.5960265,37.0860927 C10.5960265,34.1721854 8.21192053,31.7880795 5.29801325,31.7880795 C2.38410596,31.7880795 0,34.1721854 0,37.0860927 C0,37.9337748 0.21192053,38.781457 0.582781457,39.5231788 C1.37748344,41.3774834 2.64900662,43.1788079 2.64900662,45.0331126 C2.64900662,47.6821192 0,50.3311258 0,52.9801325 L0,55.6291391 L0,55.6291391 C0,68.7682119 10.7019868,79.4701987 23.8410596,79.4701987 C36.9801325,79.4701987 47.6821192,68.7682119 47.6821192,55.6291391 L37.0860927,55.6291391 Z" id="Shape" fill-rule="nonzero"></path>
                    </g>
                </g>
            </g>
        </g>
    </g>
</svg>