<?xml version="1.0" encoding="UTF-8"?>
<svg width="116px" height="64px" viewBox="0 0 116 64" version="1.1" xmlns="http://www.w3.org/2000/svg" xmlns:xlink="http://www.w3.org/1999/xlink">
    <!-- Generator: Sketch 44 (41411) - http://www.bohemiancoding.com/sketch -->
    <title>vevo</title>
    <desc>Created with Sketch.</desc>
    <defs></defs>
    <g id="Page-1" stroke="none" stroke-width="1" fill="none" fill-rule="evenodd">
        <g id="vevo" fill="#0A0A08">
            <path d="M72.086025,46.7580645 L56.0666667,18.8145161 L65.4983125,18.8145161 L72.086025,31.516129 L78.6737375,18.8145161 L88.1053833,18.8145161 L72.086025,46.7580645 Z M16.0193583,46.7580645 L0,18.8145161 L9.43164583,18.8145161 L16.0193583,31.516129 L22.6070708,18.8145161 L32.0387167,18.8145161 L16.0193583,46.7580645 Z M44.0526917,24.7419355 C46.8495,24.7419355 49.0170083,26.6707661 49.6814708,29.5806452 L38.4127958,29.5806452 C39.1649833,26.5557258 41.167675,24.7419355 44.0526917,24.7419355 Z M58.0693583,32.483871 C58.0693583,24.4668548 51.7938792,17.9677419 44.0526917,17.9677419 C36.3115042,17.9677419 30.036025,24.4668548 30.036025,32.483871 C30.036025,40.5008871 36.3185125,47 44.2943583,47 C50.6649333,47 55.6607875,43.1452419 57.3227292,37.8064516 L48.886025,37.8064516 C47.7156333,39.5401613 45.9946042,39.983871 44.2943583,39.983871 C41.03355,39.983871 38.9557,37.7368952 38.3036833,34.6612903 L57.9119125,34.6612903 C58.0151042,33.9509677 58.0693583,33.2239516 58.0693583,32.483871 Z M100.602692,39.2580645 C96.97745,39.2580645 94.3193583,36.3548387 94.3193583,32.483871 C94.3193583,28.6129032 96.979625,25.7096774 100.602692,25.7096774 C104.227692,25.7096774 106.886025,28.6135081 106.886025,32.483871 C106.886025,36.3548387 104.227692,39.2580645 100.602692,39.2580645 Z M100.602692,17.9677419 C92.5945833,17.9677419 86.1026917,24.4668548 86.1026917,32.483871 C86.1026917,40.5008871 92.5945833,47 100.602692,47 C108.6108,47 115.102692,40.5008871 115.102692,32.483871 C115.102692,24.4668548 108.6108,17.9677419 100.602692,17.9677419 L100.602692,17.9677419 Z" id="vevo_wordmark_black"></path>
        </g>
    </g>
</svg>