<?xml version="1.0" encoding="UTF-8"?>
<svg width="116px" height="64px" viewBox="0 0 116 64" version="1.1" xmlns="http://www.w3.org/2000/svg" xmlns:xlink="http://www.w3.org/1999/xlink">
    <!-- Generator: Sketch 44.1 (41455) - http://www.bohemiancoding.com/sketch -->
    <title>Artboard</title>
    <desc>Created with Sketch.</desc>
    <defs></defs>
    <g id="Page-1" stroke="none" stroke-width="1" fill="none" fill-rule="evenodd">
        <g id="Artboard" fill-rule="nonzero">
            <g id="g10" transform="translate(58.000000, 32.000000) scale(-1, 1) rotate(-180.000000) translate(-58.000000, -32.000000) translate(25.000000, -1.000000)">
                <g id="g12" transform="translate(-0.000000, 0.000000)">
                    <g id="g14-Clipped" transform="translate(-0.000000, 0.000000)">
                        <g id="g14" transform="translate(1.218195, 1.110323)">
                            <path d="M31.707156,0.0909361402 C49.2185656,0.0909361402 63.4142041,14.2865746 63.4142041,31.7980921 C63.4142041,49.3093939 49.2185656,63.5051403 31.707156,63.5051403 C14.1957464,63.5051403 0,49.3093939 0,31.7980921 C0,14.2865746 14.1957464,0.0909361402 31.707156,0.0909361402" id="path20" fill="#1AB4D7"></path>
                            <path d="M15.1777057,31.8896755 L20.5887835,37.3141295 C20.7681748,37.4969727 20.86828,37.7390376 20.86828,37.995773 C20.86828,38.5308184 20.4333399,38.965327 19.8982945,38.965327 C19.6376757,38.965327 19.3933455,38.8631722 19.2091,38.6766614 C19.2085606,38.6755827 13.8028763,33.2730267 13.8028763,33.2730267 L8.37248935,38.6847518 C8.18899899,38.8656533 7.94585538,38.965327 7.68804118,38.965327 C7.15364303,38.965327 6.71859504,38.5310342 6.71859504,37.9965281 C6.71859504,37.7358014 6.82269157,37.4911476 7.00952597,37.3067942 L12.4198488,31.8972266 L7.01233064,26.4795685 C6.82226009,26.2924105 6.71859504,26.0472173 6.71859504,25.7853039 C6.71859504,25.2503664 7.15364303,24.8163972 7.68804118,24.8163972 C7.94628687,24.8163972 8.18964622,24.9166103 8.37248935,25.0995613 L13.7944623,30.514199 L19.1958317,25.1193019 C19.3874125,24.9212488 19.6345474,24.8157499 19.8982945,24.8157499 C20.4328006,24.8157499 20.8677407,25.2503664 20.8677407,25.7853039 C20.8677407,26.0434418 20.7677433,26.2859381 20.5857631,26.4687813 L15.1777057,31.8896755 Z" id="path22" fill="#FFFFFF"></path>
                            <path d="M47.3456911,31.8912936 C47.3456911,30.9197979 48.1356381,30.1295272 49.1083204,30.1295272 C50.0787374,30.1295272 50.869008,30.9197979 50.869008,31.8912936 C50.869008,32.863005 50.0787374,33.6531678 49.1083204,33.6531678 C48.1356381,33.6531678 47.3456911,32.863005 47.3456911,31.8912936" id="path24" fill="#FFFFFF"></path>
                            <path d="M44.0042464,31.8904306 C44.0042464,34.7037337 46.2928598,36.9927787 49.1064866,36.9927787 C51.918711,36.9927787 54.2078638,34.7037337 54.2078638,31.8904306 C54.2078638,29.0777747 51.918711,26.7897006 49.1064866,26.7897006 C46.2928598,26.7897006 44.0042464,29.0777747 44.0042464,31.8904306 M41.997179,31.8904306 C41.997179,27.9710075 45.1864162,24.7822017 49.1064866,24.7822017 C53.0264491,24.7822017 56.2173044,27.9710075 56.2173044,31.8904306 C56.2173044,35.8103931 53.0264491,39.0000618 49.1064866,39.0000618 C45.1864162,39.0000618 41.997179,35.8103931 41.997179,31.8904306" id="path26" fill="#FFFFFF"></path>
                            <path d="M41.4925535,38.87849 L41.1942873,38.879353 C40.2988414,38.879353 39.4352177,38.596944 38.7138773,38.0410793 C38.618842,38.4760194 38.2300711,38.8033032 37.7669764,38.8033032 C37.2339806,38.8033032 36.8069151,38.3762378 36.8056207,37.8421632 C36.8056207,37.8402215 36.8088568,25.8683654 36.8088568,25.8683654 C36.8102592,25.3352617 37.2450914,24.9019397 37.7784109,24.9019397 C38.3116224,24.9019397 38.7463468,25.3352617 38.7477491,25.869552 C38.7477491,25.8719252 38.7481806,33.2319275 38.7481806,33.2319275 C38.7481806,35.6858009 38.9725545,36.6768215 41.0745493,36.9394899 C41.2688269,36.9636532 41.4801482,36.9598777 41.4810112,36.9598777 C42.056185,36.9796183 42.4649122,37.3748615 42.4649122,37.9090439 C42.4649122,38.4435499 42.0285697,38.87849 41.4925535,38.87849" id="path28" fill="#FFFFFF"></path>
                            <path d="M22.8766419,33.0608424 C22.8766419,33.0873789 22.8786915,33.1149942 22.8799859,33.1422858 C23.4428623,35.3673626 25.4580201,37.0139216 27.8579575,37.0139216 C30.2869126,37.0139216 32.3205165,35.3269106 32.854591,33.0608424 L22.8766419,33.0608424 Z M34.8399761,33.2439013 C34.4221877,35.2219511 33.3392602,36.8467199 31.6902201,37.8901663 C29.2797112,39.4205471 26.0966227,39.3358675 23.7683123,37.6801394 C21.8691169,36.329042 20.7728133,34.1188515 20.7728133,31.8421039 C20.7728133,31.271245 20.8416356,30.6949925 20.9848897,30.1278013 C21.7020231,27.3067314 24.1272026,25.1711883 27.0186051,24.8172601 C27.8766194,24.7133793 28.7117648,24.7631084 29.5765751,24.9870507 C30.3197057,25.1678443 31.0387808,25.4692388 31.7013309,25.8938232 C32.3890152,26.3358829 32.9635418,26.9188235 33.5199458,27.6166478 C33.5311645,27.6294845 33.5424911,27.6408111 33.5537098,27.6542951 C33.9398917,28.133247 33.8682647,28.8143512 33.443896,29.1394775 C33.0859766,29.4137962 32.4851292,29.5250122 32.012326,28.9195264 C31.9107106,28.7747621 31.797337,28.6257908 31.6725291,28.4768195 C31.296595,28.0614042 30.8301562,27.6589336 30.2712711,27.3467519 C29.5600707,26.9668265 28.7496279,26.7496801 27.8880539,26.7448258 C25.0680627,26.7762166 23.5590405,28.7446658 23.0222692,30.1496993 C22.9285284,30.4120441 22.8562541,30.6842053 22.8058778,30.9644569 C22.7992976,31.0168827 22.7944434,31.0674747 22.7925017,31.1140755 C23.3755502,31.1140755 32.9121947,31.1156935 32.9121947,31.1156935 C34.2995372,31.144819 35.0462275,32.1240815 34.8399761,33.2439013 L34.8399761,33.2439013 Z" id="path30" fill="#FFFFFF"></path>
                        </g>
                    </g>
                </g>
            </g>
        </g>
    </g>
</svg>