<?xml version="1.0" encoding="UTF-8"?>
<svg width="80px" height="80px" viewBox="0 0 80 80" version="1.1" xmlns="http://www.w3.org/2000/svg" xmlns:xlink="http://www.w3.org/1999/xlink">
    <!-- Generator: Sketch 43.2 (39069) - http://www.bohemiancoding.com/sketch -->
    <title>zapier-white</title>
    <desc>Created with Sketch.</desc>
    <defs>
        <polygon id="path-1" points="0.012 80 80 80 80 0.008 0.012 0.008"></polygon>
    </defs>
    <g id="Page-1" stroke="none" stroke-width="1" fill="none" fill-rule="evenodd">
        <g id="zapier-white">
            <g id="zapier-logomark">
                <mask id="mask-2" fill="white">
                    <use xlink:href="#path-1"></use>
                </mask>
                <g id="Clip-2"></g>
                <path d="M50,40.0174 C49.9982,42.9898 49.4546,45.8352 48.4638,48.4622 C45.8376,49.4528 42.9908,49.9978 40.0172,50 L39.9828,50 C37.0106,49.9978 34.1646,49.4544 31.5384,48.464 C30.5476,45.8374 30.002,42.9906 30,40.0174 L30,39.9828 C30.002,37.0104 30.5464,34.1648 31.5356,31.5382 C34.1632,30.5472 37.0094,30.0018 39.9828,30 L40.0172,30 C42.9908,30.0018 45.8376,30.5472 48.4638,31.5382 C49.4546,34.1648 49.9982,37.0104 50,39.9828 L50,40.0174 Z M79.444,33.3334 L56.0948,33.3334 L72.6048,16.8232 C71.3072,15.0006 69.8604,13.2916 68.2824,11.7138 L68.2816,11.713 C66.705,10.1368 64.9974,8.6916 63.1768,7.3952 L46.6666,23.9052 L46.6666,0.5562 C44.505,0.1934 42.2858,0.0012 40.0212,0 L39.9786,0 C37.7142,0.0012 35.495,0.1934 33.3334,0.5562 L33.3334,23.9054 L16.8232,7.3952 C15.0016,8.6922 13.2934,10.1382 11.7164,11.7152 L11.7106,11.7208 C10.1354,13.2966 8.6912,15.0034 7.3954,16.8232 L23.9056,33.3334 L0.556,33.3334 C0.556,33.3334 0.0008,37.7188 0,39.9854 L0,40.014 C0.0008,42.281 0.1932,44.503 0.5562,46.6666 L23.9052,46.6666 L7.3954,63.1766 C9.99,66.82 13.1798,70.0102 16.8234,72.6048 L33.3334,56.095 L33.3334,79.4438 C35.4926,79.806 37.7096,79.9984 39.9716,80 L40.0288,80 C42.2906,79.9984 44.5074,79.806 46.6666,79.444 L46.6666,56.0946 L63.177,72.6046 C64.998,71.308 66.7056,69.8626 68.2824,68.2862 L68.2864,68.2824 C69.8626,66.7056 71.308,64.9978 72.6046,63.177 L56.0946,46.6666 L79.4438,46.6666 C79.806,44.5074 79.9984,42.2904 80,40.0284 L80,39.9712 C79.9984,37.7094 79.806,35.4926 79.444,33.3334 L79.444,33.3334 Z" id="Fill-1" fill="#FFFFFF" mask="url(#mask-2)"></path>
            </g>
        </g>
    </g>
</svg>