<?xml version="1.0" encoding="UTF-8"?>
<svg width="175px" height="80px" viewBox="0 0 175 80" version="1.1" xmlns="http://www.w3.org/2000/svg" xmlns:xlink="http://www.w3.org/1999/xlink">
    <!-- Generator: Sketch 44 (41411) - http://www.bohemiancoding.com/sketch -->
    <title>zapier-logo</title>
    <desc>Created with Sketch.</desc>
    <defs>
        <polygon id="path-1" points="0.0209606987 0.117379913 0.0209606987 51.3327511 96.5767686 51.3327511 96.5767686 0.117379913"></polygon>
    </defs>
    <g id="Page-1" stroke="none" stroke-width="1" fill="none" fill-rule="evenodd">
        <g id="resources-copy" transform="translate(-229.000000, -120.000000)">
            <g id="zapier-logo" transform="translate(229.000000, 120.000000)">
                <g id="Group-5" transform="translate(0.000000, 28.646288)">
                    <mask id="mask-2" fill="white">
                        <use xlink:href="#path-1"></use>
                    </mask>
                    <g id="Clip-2"></g>
                    <path d="M0,34.3427074 L18.0834934,6.2120524 L2.14323144,6.2120524 C2.00943231,5.40855895 1.94270742,4.51633188 1.94270742,3.53362445 C1.94270742,2.59633188 2.00943231,1.72471616 2.14323144,0.920873362 L27.9287336,0.920873362 L28.2634061,1.79283843 L10.0464629,29.9891703 L27.1248908,29.9891703 C27.25869,30.8824454 27.3261135,31.7970306 27.3261135,32.7343231 C27.3261135,33.6286463 27.25869,34.4765066 27.1248908,35.28 L0.335021834,35.28 L0,34.3427074" id="Fill-1" fill="#FFFFFF" mask="url(#mask-2)"></path>
                    <path d="M52.1732751,19.1381659 C51.5035808,19.0497817 50.6550218,18.9613974 49.6282969,18.870917 C48.6008734,18.7825328 47.729607,18.7371179 47.0162445,18.7371179 C44.2473362,18.7371179 42.1376419,19.250655 40.6875109,20.2773799 C39.2356332,21.3055022 38.5107424,22.8674236 38.5107424,24.9655895 C38.5107424,26.3053275 38.7556332,27.3547598 39.2475109,28.1131878 C39.7379913,28.8737118 40.3524891,29.4529258 41.0892576,29.8550218 C41.8260262,30.2567686 42.64,30.5027074 43.5336245,30.5921397 C44.4262009,30.6812227 45.2751092,30.7255895 46.0786026,30.7255895 C47.1049782,30.7255895 48.1655895,30.6700437 49.259738,30.5579039 C50.3535371,30.4471616 51.3247162,30.2791266 52.1732751,30.0558952 L52.1732751,19.1381659 Z M52.1732751,12.6424454 C52.1732751,10.0080349 51.5035808,8.17746725 50.1641921,7.15039301 C48.8244541,6.12366812 46.8824454,5.610131 44.3371179,5.610131 C42.7734498,5.610131 41.3121397,5.73344978 39.9507424,5.97868996 C38.5879476,6.22462882 37.259738,6.54742358 35.9654148,6.94882096 C35.1165066,5.47528384 34.6931004,3.71283843 34.6931004,1.65764192 C36.2103057,1.16716157 37.8843668,0.787423581 39.7159825,0.519825328 C41.5462009,0.251528384 43.3096943,0.117379913 45.0071616,0.117379913 C49.471441,0.117379913 52.8649782,1.1339738 55.1874236,3.16541485 C57.5081223,5.19755459 58.6696943,8.44576419 58.6696943,12.9100437 L58.6696943,34.4094323 C57.1063755,34.7664629 55.2094323,35.1346725 52.9771179,35.5144105 C50.7437555,35.8931004 48.4663755,36.0834934 46.1456769,36.0834934 C43.9577293,36.0834934 41.9818341,35.8829694 40.2183406,35.4808734 C38.4541485,35.0780786 36.9582533,34.4321397 35.730655,33.5378166 C34.5023581,32.6455895 33.5545852,31.5067249 32.8845415,30.1229694 C32.2148472,28.7388646 31.8798253,27.0648035 31.8798253,25.0993886 C31.8798253,23.1804367 32.270393,21.4948472 33.0518777,20.0426201 C33.8330131,18.5931878 34.8936245,17.3872489 36.2333624,16.4262009 C37.5727511,15.4672489 39.1130131,14.7517904 40.8544978,14.2836681 C42.5963319,13.8144978 44.4262009,13.579738 46.3465502,13.579738 C47.7750218,13.579738 48.9470742,13.6139738 49.8627074,13.6806987 C50.7772926,13.7477729 51.5479476,13.8256769 52.1732751,13.9151092 L52.1732751,12.6424454 L52.1732751,12.6424454 Z" id="Fill-3" fill="#FFFFFF" mask="url(#mask-2)"></path>
                    <path d="M72.5331004,29.6534498 C73.3806114,29.9664629 74.2522271,30.1896943 75.1455022,30.3234934 C76.0384279,30.4572926 77.1982533,30.5240175 78.6284716,30.5240175 C80.2358079,30.5240175 81.7082969,30.2679476 83.0480349,29.7544105 C84.3877729,29.2419214 85.5371179,28.448559 86.4971179,27.3764192 C87.4571179,26.3053275 88.2155459,24.9554585 88.7741485,23.3243668 C89.3320524,21.6953712 89.6118777,19.7648908 89.6118777,17.531179 C89.6118777,13.959476 88.9523144,11.1245415 87.6359825,9.02532751 C86.3179039,6.92716157 84.1631441,5.87772926 81.1731004,5.87772926 C80.0569432,5.87772926 78.9844541,6.07825328 77.9587773,6.48069869 C76.930655,6.88174672 76.0160699,7.4850655 75.2122271,8.28855895 C74.4087336,9.09240175 73.7613974,10.1089956 73.2705677,11.3362445 C72.7783406,12.5652402 72.5331004,14.0265502 72.5331004,15.7233188 L72.5331004,29.6534498 Z M65.9028821,0.920873362 C66.3486463,0.832838428 66.8069869,0.765764192 67.2758079,0.720349345 C67.7449782,0.676681223 68.2239301,0.653624454 68.7158079,0.653624454 C69.1619214,0.653624454 69.630393,0.676681223 70.1226201,0.720349345 C70.6131004,0.765764192 71.0819214,0.832838428 71.529083,0.920873362 C71.5727511,1.01170306 71.629345,1.28943231 71.6960699,1.75860262 C71.7631441,2.22777293 71.829869,2.730131 71.8972926,3.26497817 C71.9643668,3.80122271 72.0310917,4.31580786 72.0981659,4.80558952 C72.1648908,5.29746725 72.1984279,5.610131 72.1984279,5.74393013 C72.6438428,5.029869 73.1800873,4.3371179 73.8057642,3.66742358 C74.430393,2.99737991 75.1793886,2.39475983 76.0499563,1.85956332 C76.920524,1.32331878 77.9021834,0.899563319 78.9966812,0.586550218 C80.0897817,0.274934498 81.3068996,0.117379913 82.6466376,0.117379913 C84.6553712,0.117379913 86.5198253,0.453100437 88.2393013,1.12279476 C89.9577293,1.79283843 91.4302183,2.82969432 92.6585153,4.23650655 C93.8861135,5.64331878 94.8461135,7.42951965 95.5385153,9.59441048 C96.2312664,11.7613974 96.5767686,14.3168559 96.5767686,17.2635808 C96.5767686,23.1573799 94.9799127,27.7687336 91.7879476,31.0941485 C88.5952838,34.4209607 84.0751092,36.0834934 78.2260262,36.0834934 C77.2433188,36.0834934 76.2393013,36.0167686 75.2122271,35.8829694 C74.1844541,35.7481223 73.2922271,35.5692576 72.5331004,35.3470742 L72.5331004,51.0864629 C71.9979039,51.1748472 71.4281223,51.2415721 70.8258515,51.2869869 C70.2228821,51.3310044 69.6754585,51.3537118 69.1846288,51.3537118 C68.6927511,51.3537118 68.1467249,51.3310044 67.5437555,51.2869869 C66.940786,51.2415721 66.3940611,51.1748472 65.9028821,51.0864629 L65.9028821,0.920873362 L65.9028821,0.920873362 Z" id="Fill-4" fill="#FFFFFF" mask="url(#mask-2)"></path>
                </g>
                <path d="M104.815022,34.7916157 L100.461135,34.7916157 C100.371703,34.4345852 100.304978,34.0216594 100.260611,33.5524891 C100.215546,33.0843668 100.193886,32.6263755 100.193886,32.1799127 C100.193886,31.7344978 100.215546,31.2754585 100.260611,30.8062882 C100.304978,30.3381659 100.371703,29.9255895 100.461135,29.5671616 L111.31214,29.5671616 L111.31214,63.9262882 C110.820262,64.0146725 110.273537,64.0817467 109.670917,64.1271616 C109.067948,64.171179 108.520524,64.1938865 108.029345,64.1938865 C107.582882,64.1938865 107.058166,64.171179 106.456245,64.1271616 C105.853275,64.0817467 105.305852,64.0146725 104.815022,63.9262882 L104.815022,34.7916157" id="Fill-6" fill="#FFFFFF"></path>
                <path d="M142.588996,43.4319651 C142.588996,42.1816594 142.42131,40.9872489 142.086987,39.8480349 C141.751266,38.709869 141.259389,37.7170306 140.61345,36.8677729 C139.964716,36.020262 139.139563,35.33869 138.134498,34.8255022 C137.130131,34.3119651 135.935371,34.0548472 134.551266,34.0548472 C131.827773,34.0548472 129.740087,34.8820961 128.289258,36.5334498 C126.838079,38.1851528 125.956681,40.4848908 125.643668,43.4319651 L142.588996,43.4319651 Z M125.576943,48.3877729 C125.666376,52.1383406 126.637555,54.8848908 128.49083,56.6256769 C130.342707,58.3664629 133.078079,59.2384279 136.694847,59.2384279 C139.865153,59.2384279 142.878952,58.679476 145.736594,57.5633188 C146.093624,58.2330131 146.383581,59.0480349 146.607162,60.0080349 C146.830393,60.969083 146.964192,61.9168559 147.009258,62.8541485 C145.53607,63.4808734 143.916157,63.9479476 142.153712,64.2609607 C140.388821,64.5725764 138.435633,64.7297817 136.293799,64.7297817 C133.167511,64.7297817 130.488035,64.2944978 128.256419,63.4242795 C126.023406,62.5526638 124.181659,61.3250655 122.73048,59.7404367 C121.279651,58.1558079 120.219039,56.2801747 119.548996,54.1142358 C118.880349,51.9489956 118.544629,49.5710044 118.544629,46.98131 C118.544629,44.4363319 118.867773,42.0583406 119.515808,39.8480349 C120.162445,37.6387773 121.15738,35.7184279 122.49607,34.0887336 C123.835459,32.45869 125.520349,31.1643668 127.552489,30.2043668 C129.583581,29.2443668 131.983231,28.7636681 134.752489,28.7636681 C137.118952,28.7636681 139.195109,29.1661135 140.981659,29.969607 C142.766812,30.7734498 144.263057,31.8784279 145.468996,33.2852402 C146.673886,34.6917031 147.588821,36.3657642 148.214498,38.3074236 C148.839127,40.2504803 149.152838,42.3598253 149.152838,44.6372052 C149.152838,45.2628821 149.129083,45.921048 149.084716,46.6127511 C149.040699,47.3062009 148.995284,47.8969432 148.950917,48.3877729 L125.576943,48.3877729 L125.576943,48.3877729 Z" id="Fill-7" fill="#FFFFFF"></path>
                <path d="M156.455546,29.5671616 C156.946376,29.4791266 157.415546,29.4120524 157.862009,29.3666376 C158.307424,29.3229694 158.776943,29.2999127 159.268472,29.2999127 C159.759651,29.2999127 160.25048,29.3229694 160.742009,29.3666376 C161.232838,29.4120524 161.679651,29.4791266 162.081747,29.5671616 C162.215895,30.2372052 162.349694,31.12 162.483144,32.2127511 C162.616943,33.3079476 162.685066,34.2337118 162.685066,34.9931878 C163.622358,33.4756332 164.861135,32.1575546 166.401397,31.041048 C167.941659,29.9255895 169.917555,29.3666376 172.328384,29.3666376 C172.685764,29.3666376 173.053974,29.3781659 173.433712,29.400524 C173.812052,29.4232314 174.137642,29.4567686 174.404891,29.5004367 C174.493275,29.9028821 174.561397,30.3276856 174.605764,30.7734498 C174.650131,31.2199127 174.672489,31.689083 174.672489,32.1799127 C174.672489,32.7161572 174.639301,33.2747598 174.572576,33.8539738 C174.505502,34.4345852 174.42655,34.9931878 174.338166,35.5280349 C173.980087,35.44 173.611528,35.3945852 173.232838,35.3945852 C172.8531,35.3945852 172.551965,35.3945852 172.328384,35.3945852 C171.123493,35.3945852 169.9731,35.5622707 168.879301,35.8965939 C167.784454,36.2319651 166.802795,36.8237555 165.932227,37.6716157 C165.061659,38.520524 164.369258,39.6813974 163.856769,41.1549345 C163.342183,42.6284716 163.086114,44.5257642 163.086114,46.8475109 L163.086114,63.9262882 C162.594236,64.0146725 162.04786,64.0817467 161.444891,64.1271616 C160.842969,64.171179 160.295546,64.1938865 159.804716,64.1938865 C159.312838,64.1938865 158.766463,64.171179 158.163493,64.1271616 C157.560524,64.0817467 156.99179,64.0146725 156.455546,63.9262882 L156.455546,29.5671616" id="Fill-8" fill="#FFFFFF"></path>
                <path d="M109.449432,11.2206114 C109.449083,12.0468122 109.297817,12.8373799 109.022533,13.5678603 C108.292402,13.8431441 107.501135,13.9944105 106.674585,13.9954585 L106.665153,13.9954585 C105.839301,13.9944105 105.048035,13.8434934 104.317904,13.5682096 C104.04262,12.8380786 103.891004,12.0468122 103.890655,11.2206114 L103.890655,11.2108297 C103.891004,10.3849782 104.042271,9.59371179 104.317205,8.86393013 C105.047336,8.58829694 105.838952,8.43668122 106.665153,8.43633188 L106.674585,8.43633188 C107.501135,8.43668122 108.292402,8.58829694 109.022533,8.86393013 C109.297817,9.59371179 109.449083,10.3849782 109.449432,11.2108297 L109.449432,11.2206114 Z M117.633537,9.36279476 L111.143755,9.36279476 L115.732402,4.77379913 C115.371878,4.26724891 114.969782,3.79213974 114.531354,3.35371179 L114.531354,3.35336245 C114.092926,2.91528384 113.617817,2.51388646 113.111616,2.15336245 L108.52262,6.74235808 L108.52262,0.252576419 C107.922096,0.151615721 107.305153,0.0981659389 106.675633,0.0978165939 L106.664105,0.0978165939 C106.034585,0.0981659389 105.417991,0.151615721 104.817118,0.252576419 L104.817118,6.74235808 L100.228122,2.15336245 C99.7215721,2.51388646 99.2468122,2.91563319 98.809083,3.35406114 L98.8066376,3.35580786 C98.3689083,3.79353712 97.9678603,4.2679476 97.6073362,4.77379913 L102.196681,9.36279476 L95.7068996,9.36279476 C95.7068996,9.36279476 95.5521397,10.5816594 95.5521397,11.2118777 L95.5521397,11.2195633 C95.5521397,11.8497817 95.6055895,12.4674236 95.7068996,13.0686463 L102.196681,13.0686463 L97.6073362,17.6576419 C98.329083,18.670393 99.2153712,19.5570306 100.228122,20.2784279 L104.817118,15.689083 L104.817118,22.179214 C105.417642,22.2798253 106.033537,22.3329258 106.662009,22.3336245 L106.677729,22.3336245 C107.30655,22.3329258 107.923144,22.2798253 108.52262,22.179214 L108.52262,15.689083 L113.111965,20.2784279 C113.618166,19.9179039 114.092926,19.5161572 114.531354,19.0780786 L114.532402,19.0770306 C114.970131,18.6386026 115.372227,18.1634934 115.732402,17.6576419 L111.143057,13.0686463 L117.633537,13.0686463 C117.734498,12.4684716 117.787249,11.8525764 117.787948,11.2237555 L117.787948,11.2076856 C117.787249,10.5788646 117.734498,9.96296943 117.633537,9.36279476 L117.633537,9.36279476 Z" id="Fill-9" fill="#FFFFFF"></path>
            </g>
        </g>
    </g>
</svg>